%TF.GenerationSoftware,KiCad,Pcbnew,10.0.1-10.0.1~ubuntu24.04.1*%
%TF.CreationDate,2026-05-10T17:16:30+09:00*%
%TF.ProjectId,ISS_MD_SUB,4953535f-4d44-45f5-9355-422e6b696361,rev?*%
%TF.SameCoordinates,Original*%
%TF.FileFunction,Soldermask,Top*%
%TF.FilePolarity,Negative*%
%FSLAX46Y46*%
G04 Gerber Fmt 4.6, Leading zero omitted, Abs format (unit mm)*
G04 Created by KiCad (PCBNEW 10.0.1-10.0.1~ubuntu24.04.1) date 2026-05-10 17:16:30*
%MOMM*%
%LPD*%
G01*
G04 APERTURE LIST*
G04 Aperture macros list*
%AMRoundRect*
0 Rectangle with rounded corners*
0 $1 Rounding radius*
0 $2 $3 $4 $5 $6 $7 $8 $9 X,Y pos of 4 corners*
0 Add a 4 corners polygon primitive as box body*
4,1,4,$2,$3,$4,$5,$6,$7,$8,$9,$2,$3,0*
0 Add four circle primitives for the rounded corners*
1,1,$1+$1,$2,$3*
1,1,$1+$1,$4,$5*
1,1,$1+$1,$6,$7*
1,1,$1+$1,$8,$9*
0 Add four rect primitives between the rounded corners*
20,1,$1+$1,$2,$3,$4,$5,0*
20,1,$1+$1,$4,$5,$6,$7,0*
20,1,$1+$1,$6,$7,$8,$9,0*
20,1,$1+$1,$8,$9,$2,$3,0*%
G04 Aperture macros list end*
%ADD10RoundRect,0.237500X0.237500X-0.300000X0.237500X0.300000X-0.237500X0.300000X-0.237500X-0.300000X0*%
%ADD11R,1.700000X1.700000*%
%ADD12C,1.700000*%
%ADD13RoundRect,0.250000X0.550000X-0.550000X0.550000X0.550000X-0.550000X0.550000X-0.550000X-0.550000X0*%
%ADD14C,1.600000*%
%ADD15RoundRect,0.250000X-0.600000X-0.725000X0.600000X-0.725000X0.600000X0.725000X-0.600000X0.725000X0*%
%ADD16O,1.700000X1.950000*%
%ADD17RoundRect,0.237500X-0.250000X-0.237500X0.250000X-0.237500X0.250000X0.237500X-0.250000X0.237500X0*%
%ADD18RoundRect,0.250000X0.600000X0.750000X-0.600000X0.750000X-0.600000X-0.750000X0.600000X-0.750000X0*%
%ADD19O,1.700000X2.000000*%
%ADD20RoundRect,0.237500X-0.237500X0.300000X-0.237500X-0.300000X0.237500X-0.300000X0.237500X0.300000X0*%
%ADD21R,0.660400X1.041400*%
%ADD22RoundRect,0.150000X-0.150000X0.825000X-0.150000X-0.825000X0.150000X-0.825000X0.150000X0.825000X0*%
%ADD23RoundRect,0.237500X0.287500X0.237500X-0.287500X0.237500X-0.287500X-0.237500X0.287500X-0.237500X0*%
%ADD24RoundRect,0.102000X-0.575000X-0.700000X0.575000X-0.700000X0.575000X0.700000X-0.575000X0.700000X0*%
%ADD25RoundRect,0.125000X-0.625000X-0.125000X0.625000X-0.125000X0.625000X0.125000X-0.625000X0.125000X0*%
%ADD26RoundRect,0.125000X-0.125000X-0.625000X0.125000X-0.625000X0.125000X0.625000X-0.125000X0.625000X0*%
%ADD27RoundRect,0.139680X-0.912320X0.442320X-0.912320X-0.442320X0.912320X-0.442320X0.912320X0.442320X0*%
%ADD28RoundRect,0.700080X-2.821920X2.216920X-2.821920X-2.216920X2.821920X-2.216920X2.821920X2.216920X0*%
%ADD29RoundRect,0.250000X-0.725000X0.600000X-0.725000X-0.600000X0.725000X-0.600000X0.725000X0.600000X0*%
%ADD30O,1.950000X1.700000*%
%ADD31RoundRect,0.237500X-0.237500X0.250000X-0.237500X-0.250000X0.237500X-0.250000X0.237500X0.250000X0*%
G04 APERTURE END LIST*
D10*
%TO.C,C10*%
X152350000Y-113525000D03*
X152350000Y-111800000D03*
%TD*%
D11*
%TO.C,J9*%
X169030000Y-68300000D03*
D12*
X166490000Y-68300000D03*
X163950000Y-68300000D03*
X161410000Y-68300000D03*
X158870000Y-68300000D03*
X156330000Y-68300000D03*
X153790000Y-68300000D03*
X151250000Y-68300000D03*
X148710000Y-68300000D03*
X146170000Y-68300000D03*
%TD*%
D11*
%TO.C,J11*%
X164110000Y-121700000D03*
D12*
X166650000Y-121700000D03*
%TD*%
D13*
%TO.C,SW2*%
X129872500Y-137917500D03*
D14*
X132412500Y-137917500D03*
X134952500Y-137917500D03*
X134952500Y-130297500D03*
X132412500Y-130297500D03*
X129872500Y-130297500D03*
%TD*%
D15*
%TO.C,J2*%
X113275000Y-134425000D03*
D16*
X115775000Y-134425000D03*
X118275000Y-134425000D03*
X120775000Y-134425000D03*
%TD*%
D17*
%TO.C,R6*%
X173750000Y-127175000D03*
X175575000Y-127175000D03*
%TD*%
%TO.C,R15*%
X135125000Y-125225000D03*
X136950000Y-125225000D03*
%TD*%
D13*
%TO.C,SW4*%
X163672500Y-137917500D03*
D14*
X166212500Y-137917500D03*
X168752500Y-137917500D03*
X168752500Y-130297500D03*
X166212500Y-130297500D03*
X163672500Y-130297500D03*
%TD*%
D18*
%TO.C,J5*%
X170525000Y-75575000D03*
D19*
X168025000Y-75575000D03*
%TD*%
D17*
%TO.C,R5*%
X173775000Y-133250000D03*
X175600000Y-133250000D03*
%TD*%
%TO.C,R3*%
X139975000Y-133250000D03*
X141800000Y-133250000D03*
%TD*%
D11*
%TO.C,J6*%
X135230000Y-68300000D03*
D12*
X132690000Y-68300000D03*
X130150000Y-68300000D03*
X127610000Y-68300000D03*
X125070000Y-68300000D03*
X122530000Y-68300000D03*
X119990000Y-68300000D03*
X117450000Y-68300000D03*
X114910000Y-68300000D03*
X112370000Y-68300000D03*
%TD*%
D20*
%TO.C,C3*%
X151675000Y-98425000D03*
X151675000Y-100150000D03*
%TD*%
D18*
%TO.C,J12*%
X125925000Y-75900000D03*
D19*
X123425000Y-75900000D03*
%TD*%
D20*
%TO.C,C1*%
X117875000Y-98425000D03*
X117875000Y-100150000D03*
%TD*%
D10*
%TO.C,C8*%
X118550000Y-113525000D03*
X118550000Y-111800000D03*
%TD*%
D17*
%TO.C,R17*%
X125025000Y-81800000D03*
X126850000Y-81800000D03*
%TD*%
D21*
%TO.C,SW3*%
X113600002Y-98425000D03*
X113600002Y-102575000D03*
X115750000Y-98425000D03*
X115750000Y-102575000D03*
%TD*%
D20*
%TO.C,C9*%
X114425000Y-119950000D03*
X114425000Y-121675000D03*
%TD*%
D22*
%TO.C,U4*%
X175105000Y-117650000D03*
X173835000Y-117650000D03*
X172565000Y-117650000D03*
X171295000Y-117650000D03*
X171295000Y-122600000D03*
X172565000Y-122600000D03*
X173835000Y-122600000D03*
X175105000Y-122600000D03*
%TD*%
D17*
%TO.C,R13*%
X151712500Y-102600000D03*
X153537500Y-102600000D03*
%TD*%
D23*
%TO.C,D2*%
X141775000Y-130250000D03*
X140025000Y-130250000D03*
%TD*%
D24*
%TO.C,Y1*%
X114137500Y-111450000D03*
X114137500Y-113650000D03*
X115737500Y-113650000D03*
X115737500Y-111450000D03*
%TD*%
D10*
%TO.C,C6*%
X146500000Y-121675000D03*
X146500000Y-119950000D03*
%TD*%
D25*
%TO.C,U2*%
X157675000Y-110850000D03*
X157675000Y-111650000D03*
X157675000Y-112450000D03*
X157675000Y-113250000D03*
X157675000Y-114050000D03*
X157675000Y-114850000D03*
X157675000Y-115650000D03*
X157675000Y-116450000D03*
D26*
X159050000Y-117825000D03*
X159850000Y-117825000D03*
X160650000Y-117825000D03*
X161450000Y-117825000D03*
X162250000Y-117825000D03*
X163050000Y-117825000D03*
X163850000Y-117825000D03*
X164650000Y-117825000D03*
D25*
X166025000Y-116450000D03*
X166025000Y-115650000D03*
X166025000Y-114850000D03*
X166025000Y-114050000D03*
X166025000Y-113250000D03*
X166025000Y-112450000D03*
X166025000Y-111650000D03*
X166025000Y-110850000D03*
D26*
X164650000Y-109475000D03*
X163850000Y-109475000D03*
X163050000Y-109475000D03*
X162250000Y-109475000D03*
X161450000Y-109475000D03*
X160650000Y-109475000D03*
X159850000Y-109475000D03*
X159050000Y-109475000D03*
%TD*%
D22*
%TO.C,U3*%
X141305000Y-117650000D03*
X140035000Y-117650000D03*
X138765000Y-117650000D03*
X137495000Y-117650000D03*
X137495000Y-122600000D03*
X138765000Y-122600000D03*
X140035000Y-122600000D03*
X141305000Y-122600000D03*
%TD*%
D17*
%TO.C,R22*%
X158825000Y-81800000D03*
X160650000Y-81800000D03*
%TD*%
D25*
%TO.C,U1*%
X123875000Y-110850000D03*
X123875000Y-111650000D03*
X123875000Y-112450000D03*
X123875000Y-113250000D03*
X123875000Y-114050000D03*
X123875000Y-114850000D03*
X123875000Y-115650000D03*
X123875000Y-116450000D03*
D26*
X125250000Y-117825000D03*
X126050000Y-117825000D03*
X126850000Y-117825000D03*
X127650000Y-117825000D03*
X128450000Y-117825000D03*
X129250000Y-117825000D03*
X130050000Y-117825000D03*
X130850000Y-117825000D03*
D25*
X132225000Y-116450000D03*
X132225000Y-115650000D03*
X132225000Y-114850000D03*
X132225000Y-114050000D03*
X132225000Y-113250000D03*
X132225000Y-112450000D03*
X132225000Y-111650000D03*
X132225000Y-110850000D03*
D26*
X130850000Y-109475000D03*
X130050000Y-109475000D03*
X129250000Y-109475000D03*
X128450000Y-109475000D03*
X127650000Y-109475000D03*
X126850000Y-109475000D03*
X126050000Y-109475000D03*
X125250000Y-109475000D03*
%TD*%
D20*
%TO.C,C4*%
X154350000Y-111787500D03*
X154350000Y-113512500D03*
%TD*%
D23*
%TO.C,D4*%
X175575000Y-130250000D03*
X173825000Y-130250000D03*
%TD*%
D27*
%TO.C,U5*%
X113375000Y-123590000D03*
D28*
X120085000Y-125870000D03*
D27*
X113375000Y-128150000D03*
%TD*%
D10*
%TO.C,C5*%
X112700000Y-121675000D03*
X112700000Y-119950000D03*
%TD*%
D23*
%TO.C,D3*%
X141725000Y-137400000D03*
X139975000Y-137400000D03*
%TD*%
D17*
%TO.C,R19*%
X168925000Y-125225000D03*
X170750000Y-125225000D03*
%TD*%
%TO.C,R16*%
X134250000Y-82425000D03*
X136075000Y-82425000D03*
%TD*%
D18*
%TO.C,J4*%
X136725000Y-75575000D03*
D19*
X134225000Y-75575000D03*
%TD*%
D29*
%TO.C,J14*%
X149750000Y-75450000D03*
D30*
X149750000Y-77950000D03*
X149750000Y-80450000D03*
X149750000Y-82950000D03*
%TD*%
D15*
%TO.C,J3*%
X147075000Y-134425000D03*
D16*
X149575000Y-134425000D03*
X152075000Y-134425000D03*
X154575000Y-134425000D03*
%TD*%
D29*
%TO.C,J10*%
X115950000Y-75450000D03*
D30*
X115950000Y-77950000D03*
X115950000Y-80450000D03*
X115950000Y-82950000D03*
%TD*%
D11*
%TO.C,J7*%
X130310000Y-121700000D03*
D12*
X132850000Y-121700000D03*
%TD*%
D17*
%TO.C,R11*%
X117912500Y-102600000D03*
X119737500Y-102600000D03*
%TD*%
D11*
%TO.C,J8*%
X141325000Y-100040000D03*
D12*
X141325000Y-102580000D03*
X141325000Y-105120000D03*
X141325000Y-107660000D03*
X141325000Y-110200000D03*
X141325000Y-112740000D03*
%TD*%
D11*
%TO.C,J13*%
X175125000Y-100040000D03*
D12*
X175125000Y-102580000D03*
X175125000Y-105120000D03*
X175125000Y-107660000D03*
X175125000Y-110200000D03*
X175125000Y-112740000D03*
%TD*%
D24*
%TO.C,Y2*%
X147937500Y-111450000D03*
X147937500Y-113650000D03*
X149537500Y-113650000D03*
X149537500Y-111450000D03*
%TD*%
D31*
%TO.C,R12*%
X119875000Y-98375000D03*
X119875000Y-100200000D03*
%TD*%
D20*
%TO.C,C2*%
X120550000Y-111787500D03*
X120550000Y-113512500D03*
%TD*%
D23*
%TO.C,D5*%
X175525000Y-137400000D03*
X173775000Y-137400000D03*
%TD*%
D18*
%TO.C,J15*%
X159725000Y-75900000D03*
D19*
X157225000Y-75900000D03*
%TD*%
D17*
%TO.C,R4*%
X139950000Y-127175000D03*
X141775000Y-127175000D03*
%TD*%
%TO.C,R21*%
X168050000Y-82425000D03*
X169875000Y-82425000D03*
%TD*%
D31*
%TO.C,R14*%
X153675000Y-98375000D03*
X153675000Y-100200000D03*
%TD*%
D27*
%TO.C,U6*%
X147175000Y-123590000D03*
D28*
X153885000Y-125870000D03*
D27*
X147175000Y-128150000D03*
%TD*%
D20*
%TO.C,C11*%
X148225000Y-119950000D03*
X148225000Y-121675000D03*
%TD*%
D21*
%TO.C,SW5*%
X147400002Y-98425000D03*
X147400002Y-102575000D03*
X149550000Y-98425000D03*
X149550000Y-102575000D03*
%TD*%
M02*
