M48
; DRILL file KiCad 10.0.1-10.0.1~ubuntu24.04.1 date 2026-05-11T12:50:35
; FORMAT={-:-/ absolute / inch / decimal}
; #@! TF.CreationDate,2026-05-11T12:50:35+09:00
; #@! TF.GenerationSoftware,Kicad,Pcbnew,10.0.1-10.0.1~ubuntu24.04.1
; #@! TF.FileFunction,Plated,1,2,PTH
FMAT,2
INCH
; #@! TA.AperFunction,Plated,PTH,ViaDrill
T1C0.0118
; #@! TA.AperFunction,Plated,PTH,ComponentDrill
T2C0.0315
; #@! TA.AperFunction,Plated,PTH,ComponentDrill
T3C0.0374
; #@! TA.AperFunction,Plated,PTH,ComponentDrill
T4C0.0394
%
G90
G05
T1
X5.0541Y-2.748
X5.0541Y-2.7795
X5.0541Y-3.6191
X5.0551Y-3.3376
X5.0551Y-3.4803
X5.0551Y-3.6535
X5.0551Y-3.687
X5.0561Y-3.372
X5.0561Y-3.4055
X5.0561Y-3.5148
X5.0561Y-3.5482
X5.0561Y-3.7175
X5.0561Y-3.747
X5.0561Y-3.878
X5.0571Y-3.436
X5.0571Y-3.5787
X5.0571Y-3.7815
X5.0571Y-3.815
X5.0571Y-3.9124
X5.0571Y-3.9459
X5.0581Y-3.0098
X5.0581Y-3.8455
X5.0581Y-3.9764
X5.0591Y-3.0404
X5.0591Y-3.0738
X5.06Y-3.1083
X5.06Y-4.0108
X5.061Y-2.6348
X5.061Y-4.0453
X5.061Y-4.0787
X5.062Y-4.1093
X5.065Y-3.2657
X5.065Y-3.2943
X5.0659Y-5.2362
X5.0768Y-3.3219
X5.0768Y-3.6014
X5.0778Y-3.3563
X5.0778Y-3.3898
X5.0778Y-3.6358
X5.0778Y-3.6693
X5.0787Y-3.4203
X5.0787Y-3.6998
X5.0797Y-2.9587
X5.0807Y-2.9931
X5.0807Y-3.0266
X5.0807Y-3.4636
X5.0807Y-3.7303
X5.0817Y-3.0571
X5.0817Y-3.498
X5.0817Y-3.5315
X5.0817Y-3.7648
X5.0817Y-3.7982
X5.0817Y-3.8622
X5.0827Y-3.562
X5.0827Y-3.8287
X5.0827Y-3.8927
X5.0827Y-3.9262
X5.0837Y-3.9606
X5.0856Y-3.9931
X5.0866Y-2.748
X5.0866Y-2.7795
X5.0866Y-4.0276
X5.0866Y-4.061
X5.0866Y-4.3681
X5.0876Y-4.0915
X5.0876Y-4.3927
X5.0906Y-4.4242
X5.0915Y-2.6348
X5.0955Y-3.2648
X5.0955Y-3.2933
X5.1014Y-3.3711
X5.1024Y-3.3376
X5.1024Y-4.253
X5.1033Y-4.2874
X5.1033Y-4.3209
X5.1043Y-3.3976
X5.1043Y-4.3514
X5.1053Y-3.4321
X5.1053Y-3.4656
X5.1063Y-3.4961
X5.1073Y-3.5276
X5.1083Y-2.939
X5.1083Y-3.562
X5.1083Y-3.5955
X5.1093Y-2.9734
X5.1093Y-3.0069
X5.1093Y-3.626
X5.1102Y-3.0374
X5.1102Y-3.6545
X5.1112Y-3.689
X5.1112Y-3.7224
X5.1122Y-3.753
X5.1152Y-4.437
X5.1181Y-2.747
X5.1181Y-2.7785
X5.1201Y-4.4656
X5.123Y-2.6339
X5.126Y-4.0965
X5.1289Y-3.2648
X5.1289Y-3.2933
X5.1289Y-4.2618
X5.1299Y-2.9183
X5.1309Y-2.9528
X5.1309Y-2.9862
X5.1309Y-4.3189
X5.1319Y-3.0167
X5.1319Y-3.3701
X5.1328Y-3.7067
X5.1329Y-3.3366
X5.1329Y-3.4409
X5.1338Y-3.7412
X5.1338Y-3.7746
X5.1339Y-3.3957
X5.1339Y-3.4754
X5.1339Y-3.5089
X5.1348Y-3.8052
X5.1348Y-3.5394
X5.1348Y-4.2923
X5.1368Y-3.5709
X5.1378Y-3.6053
X5.1378Y-3.6388
X5.1388Y-3.6693
X5.1417Y-4.1171
X5.1457Y-5.3996
X5.1467Y-4.2234
X5.1467Y-5.4459
X5.1486Y-2.747
X5.1486Y-2.7785
X5.1496Y-3.0256
X5.1506Y-3.06
X5.1506Y-3.0935
X5.1516Y-3.124
X5.1535Y-3.4272
X5.1535Y-4.2697
X5.1545Y-3.4616
X5.1545Y-3.4951
X5.1555Y-2.6339
X5.1555Y-3.5256
X5.1565Y-3.5551
X5.1565Y-3.686
X5.1565Y-4.0955
X5.1575Y-3.5896
X5.1575Y-3.623
X5.1575Y-3.7205
X5.1575Y-3.7539
X5.1585Y-3.6535
X5.1585Y-3.7844
X5.1594Y-5.375
X5.1599Y-4.4744
X5.1604Y-2.9026
X5.1614Y-2.937
X5.1614Y-2.9705
X5.1614Y-5.1929
X5.1624Y-3.001
X5.1624Y-5.4222
X5.1634Y-3.2638
X5.1634Y-3.2923
X5.1644Y-3.3947
X5.1644Y-5.1447
X5.1654Y-3.3701
X5.1654Y-4.2913
X5.1663Y-3.3366
X5.1663Y-5.0945
X5.1703Y-4.248
X5.1722Y-4.1161
X5.1752Y-5.2185
X5.1762Y-5.3986
X5.1772Y-4.2224
X5.1772Y-5.1683
X5.1772Y-5.4449
X5.1791Y-2.747
X5.1791Y-2.7776
X5.1811Y-5.1191
X5.1841Y-4.2687
X5.186Y-2.8839
X5.187Y-2.9173
X5.19Y-4.0955
X5.19Y-5.374
X5.1919Y-5.1919
X5.1929Y-5.4213
X5.1949Y-5.1437
X5.1969Y-5.0935
X5.1978Y-3.3947
X5.1988Y-4.2913
X5.1998Y-3.3691
X5.2008Y-3.3356
X5.2008Y-4.247
X5.2057Y-4.1161
X5.2057Y-5.2175
X5.2077Y-5.1673
X5.2096Y-5.3986
X5.2106Y-4.2224
X5.2106Y-5.4449
X5.2116Y-2.747
X5.2116Y-2.7776
X5.2116Y-5.1181
X5.2175Y-4.2687
X5.2185Y-2.8839
X5.2195Y-2.9173
X5.2229Y-4.3878
X5.2234Y-5.374
X5.2244Y-4.0945
X5.2254Y-5.1919
X5.2264Y-5.4213
X5.2283Y-5.1437
X5.2303Y-5.0935
X5.2323Y-3.3937
X5.2333Y-4.2904
X5.2343Y-4.247
X5.2392Y-5.2175
X5.2402Y-4.1152
X5.2411Y-5.1673
X5.2431Y-2.6329
X5.2431Y-2.7461
X5.2431Y-2.7766
X5.2441Y-5.3976
X5.2451Y-4.2215
X5.2451Y-5.1181
X5.2451Y-5.4439
X5.25Y-2.8829
X5.251Y-2.9163
X5.252Y-4.2677
X5.2549Y-4.5669
X5.2579Y-5.373
X5.2589Y-4.0955
X5.2598Y-5.1909
X5.2608Y-5.4203
X5.2618Y-4.4242
X5.2628Y-5.1427
X5.2638Y-4.2923
X5.2638Y-4.3947
X5.2648Y-5.0925
X5.2687Y-4.2461
X5.2736Y-2.7461
X5.2736Y-2.7766
X5.2736Y-5.2165
X5.2756Y-2.6329
X5.2756Y-4.1181
X5.2756Y-4.5886
X5.2756Y-5.1663
X5.2766Y-4.2195
X5.2766Y-4.7697
X5.2785Y-4.8189
X5.2795Y-5.1171
X5.2805Y-2.8829
X5.2815Y-2.9163
X5.2835Y-4.4695
X5.2844Y-4.4439
X5.2854Y-4.4144
X5.2864Y-4.2687
X5.2864Y-4.31
X5.2894Y-4.0945
X5.2894Y-4.5659
X5.2913Y-4.6093
X5.2923Y-4.7933
X5.2943Y-4.2421
X5.2943Y-4.2913
X5.2953Y-4.7421
X5.3002Y-4.4911
X5.3061Y-2.9163
X5.3061Y-4.1171
X5.3061Y-4.3189
X5.3061Y-4.5876
X5.3071Y-2.6319
X5.3071Y-4.2185
X5.3071Y-4.7687
X5.3081Y-2.9469
X5.3081Y-2.9774
X5.3091Y-3.0138
X5.3091Y-4.8179
X5.3169Y-4.2677
X5.3219Y-4.6083
X5.3228Y-4.0945
X5.3228Y-4.5659
X5.3228Y-4.7923
X5.3248Y-4.2411
X5.3258Y-4.7411
X5.3278Y-4.2913
X5.3297Y-4.3169
X5.33Y-3.0392
X5.3337Y-4.4695
X5.3376Y-2.6319
X5.3386Y-2.9163
X5.3396Y-4.1171
X5.3396Y-4.5876
X5.3406Y-2.9469
X5.3406Y-2.9774
X5.3406Y-4.2185
X5.3406Y-4.7687
X5.3415Y-3.0138
X5.3425Y-4.8179
X5.3484Y-4.3159
X5.3504Y-4.2677
X5.3524Y-3.063
X5.3533Y-4.565
X5.3553Y-4.6083
X5.3553Y-5.1191
X5.3563Y-4.7923
X5.3573Y-4.0935
X5.3583Y-4.2411
X5.3593Y-4.7411
X5.3622Y-4.2904
X5.3625Y-3.0392
X5.3691Y-4.3159
X5.3701Y-2.9154
X5.3711Y-4.438
X5.372Y-2.9459
X5.372Y-2.9764
X5.373Y-3.0128
X5.374Y-3.0876
X5.374Y-4.1161
X5.374Y-4.5866
X5.375Y-4.2175
X5.375Y-4.7677
X5.377Y-4.8169
X5.3848Y-3.063
X5.3848Y-4.2667
X5.3898Y-3.1161
X5.3898Y-4.3159
X5.3898Y-4.6073
X5.3907Y-4.7913
X5.3917Y-3.1486
X5.3917Y-3.1831
X5.3927Y-3.2146
X5.3927Y-3.2451
X5.3927Y-4.2402
X5.3937Y-4.2884
X5.3937Y-4.7402
X5.394Y-3.0382
X5.3941Y-4.9555
X5.4006Y-2.9154
X5.4026Y-2.9459
X5.4026Y-2.9764
X5.4035Y-3.0128
X5.4065Y-3.0876
X5.4124Y-4.4011
X5.4134Y-4.7667
X5.4134Y-4.8159
X5.4154Y-3.2687
X5.4163Y-3.062
X5.4193Y-4.2116
X5.4203Y-4.2461
X5.4203Y-4.2795
X5.4213Y-4.31
X5.4222Y-3.1161
X5.4232Y-2.7756
X5.4232Y-2.8041
X5.4232Y-2.8346
X5.4242Y-2.8691
X5.4242Y-2.9075
X5.4242Y-3.1486
X5.4242Y-3.1831
X5.4245Y-3.0382
X5.4252Y-3.2146
X5.4252Y-3.2451
X5.4301Y-4.7411
X5.4311Y-4.7894
X5.435Y-3.9911
X5.438Y-3.0866
X5.4409Y-3.2933
X5.4419Y-4.2244
X5.4429Y-4.2589
X5.4429Y-4.2923
X5.4439Y-4.3228
X5.4439Y-4.7657
X5.4439Y-4.815
X5.4469Y-3.062
X5.4478Y-3.2687
X5.4537Y-3.1152
X5.4557Y-2.7756
X5.4557Y-2.8041
X5.4557Y-2.8346
X5.4557Y-3.1476
X5.4557Y-3.1821
X5.4567Y-2.8691
X5.4567Y-2.9075
X5.4567Y-3.2136
X5.4567Y-3.2441
X5.4606Y-4.7402
X5.4616Y-4.7884
X5.4656Y-3.9902
X5.4675Y-3.3248
X5.4685Y-3.0866
X5.4734Y-3.2933
X5.4764Y-4.4843
X5.4774Y-4.7657
X5.4774Y-4.815
X5.4793Y-3.2677
X5.4843Y-3.1152
X5.4862Y-3.1476
X5.4862Y-3.1821
X5.4872Y-2.7746
X5.4872Y-2.8031
X5.4872Y-2.8337
X5.4872Y-3.2136
X5.4872Y-3.2441
X5.4872Y-4.1112
X5.4882Y-2.8681
X5.4882Y-2.9065
X5.4931Y-3.3504
X5.4941Y-4.7402
X5.4951Y-4.7884
X5.499Y-3.9902
X5.5Y-3.3248
X5.501Y-4.314
X5.501Y-4.4518
X5.5049Y-3.2923
X5.5098Y-3.2677
X5.5108Y-5.4213
X5.5118Y-4.7648
X5.5118Y-4.814
X5.5177Y-2.7746
X5.5177Y-2.8031
X5.5177Y-2.8337
X5.5187Y-2.8681
X5.5187Y-2.9065
X5.5246Y-5.315
X5.5256Y-3.3504
X5.5285Y-4.7392
X5.5295Y-4.7874
X5.5305Y-3.3839
X5.5315Y-3.3238
X5.5335Y-3.9892
X5.5354Y-3.2923
X5.5413Y-4.2963
X5.5453Y-4.2608
X5.5482Y-2.8346
X5.5482Y-2.8691
X5.5502Y-2.9045
X5.5512Y-2.8012
X5.5522Y-3.4124
X5.5522Y-4.7618
X5.5531Y-4.7963
X5.5531Y-4.8297
X5.5541Y-4.6978
X5.5541Y-4.8602
X5.5561Y-4.8917
X5.5571Y-3.3494
X5.5571Y-4.9262
X5.5571Y-4.9596
X5.5581Y-4.9902
X5.562Y-3.3238
X5.563Y-3.3839
X5.564Y-5.126
X5.5679Y-4.312
X5.5719Y-3.4409
X5.5719Y-4.2736
X5.5728Y-4.0522
X5.5748Y-4.2205
X5.5758Y-3.2933
X5.5807Y-2.8346
X5.5807Y-2.8691
X5.5827Y-2.9045
X5.5837Y-2.8012
X5.5846Y-3.4124
X5.5876Y-3.3494
X5.5896Y-3.4665
X5.5945Y-3.3829
X5.5974Y-4.31
X5.6024Y-3.3228
X5.6043Y-3.4409
X5.6063Y-3.4921
X5.6083Y-3.2933
X5.6093Y-3.5719
X5.6102Y-3.6122
X5.6102Y-3.7539
X5.6112Y-3.5276
X5.6112Y-3.6427
X5.6112Y-3.7185
X5.6122Y-2.8337
X5.6122Y-2.8681
X5.6122Y-3.6791
X5.6142Y-2.9035
X5.6152Y-2.8002
X5.6161Y-3.4114
X5.6171Y-3.3514
X5.622Y-3.4665
X5.625Y-3.3829
X5.6348Y-3.3228
X5.6358Y-3.44
X5.6358Y-4.2205
X5.6388Y-3.4921
X5.6398Y-3.2923
X5.6417Y-3.5719
X5.6427Y-2.8337
X5.6427Y-2.8681
X5.6427Y-3.6122
X5.6427Y-3.7539
X5.6437Y-3.5276
X5.6437Y-3.6427
X5.6437Y-3.7185
X5.6447Y-2.9035
X5.6447Y-3.6791
X5.6457Y-2.8002
X5.6467Y-3.4114
X5.6496Y-3.3514
X5.6535Y-3.4656
X5.6535Y-3.936
X5.6545Y-3.8494
X5.6545Y-4.0443
X5.6663Y-3.3219
X5.6663Y-3.44
X5.6683Y-2.8189
X5.6683Y-2.8494
X5.6693Y-2.8809
X5.6693Y-2.9134
X5.6703Y-3.2923
X5.6703Y-3.4911
X5.6732Y-3.5709
X5.6742Y-3.6112
X5.6742Y-3.753
X5.6752Y-3.5266
X5.6752Y-3.6417
X5.6752Y-3.7175
X5.6762Y-3.6781
X5.6811Y-3.3504
X5.6841Y-3.4656
X5.6939Y-2.8317
X5.6939Y-2.8622
X5.6949Y-2.8937
X5.6949Y-2.9262
X5.6969Y-3.3219
X5.7008Y-3.4911
X5.7037Y-3.5709
X5.7047Y-3.6112
X5.7047Y-3.753
X5.7057Y-3.5266
X5.7057Y-3.6417
X5.7057Y-3.7175
X5.7067Y-3.6781
X5.7116Y-3.3504
X5.7136Y-5.3425
X5.7185Y-2.8474
X5.7185Y-2.878
X5.7195Y-2.9094
X5.7195Y-2.9419
X5.7293Y-3.1634
X5.7441Y-3.9016
X5.7579Y-4.6969
X5.8179Y-4.6388
X5.8337Y-5.31
X5.8376Y-3.8996
X5.8907Y-4.9469
X5.8996Y-2.8957
X5.9144Y-2.8711
X5.9291Y-4.4833
X5.9321Y-2.8957
X5.935Y-2.8179
X5.935Y-2.8455
X5.9439Y-4.0689
X5.9469Y-2.8711
X5.9567Y-4.0148
X5.9636Y-2.8947
X5.9636Y-4.4843
X5.9675Y-2.8179
X5.9675Y-2.8455
X5.9783Y-2.8701
X5.9941Y-2.8947
X5.999Y-2.7441
X5.999Y-2.7746
X5.999Y-2.8169
X5.999Y-2.8445
X6.0Y-2.8386
X6.0059Y-4.5492
X6.0089Y-2.8701
X6.0108Y-3.1289
X6.0128Y-5.2657
X6.0138Y-5.2185
X6.0167Y-5.3081
X6.0207Y-5.3504
X6.0276Y-5.2421
X6.0295Y-2.8169
X6.0295Y-2.8445
X6.0315Y-5.2854
X6.0325Y-5.3287
X6.0374Y-5.3701
X6.0404Y-5.4114
X6.0453Y-5.2657
X6.0463Y-5.2185
X6.0492Y-5.3081
X6.0531Y-5.3504
X6.0531Y-5.3907
X6.0551Y-4.0128
X6.0551Y-4.0659
X6.0551Y-4.3376
X6.0561Y-5.4331
X6.0571Y-2.815
X6.0571Y-2.8455
X6.0581Y-2.877
X6.0581Y-2.9094
X6.06Y-5.2421
X6.064Y-5.2854
X6.065Y-5.3287
X6.0699Y-5.3701
X6.0728Y-5.4114
X6.0768Y-5.2648
X6.0778Y-5.2175
X6.0807Y-5.3071
X6.0827Y-2.814
X6.0827Y-2.8445
X6.0837Y-2.876
X6.0837Y-2.9085
X6.0846Y-5.3494
X6.0846Y-5.3898
X6.0876Y-5.4321
X6.0906Y-4.3612
X6.0906Y-4.3957
X6.0915Y-5.2411
X6.0935Y-4.0404
X6.0955Y-5.2844
X6.0965Y-5.3278
X6.0984Y-4.498
X6.1014Y-5.3691
X6.1043Y-5.4104
X6.1073Y-5.2648
X6.1083Y-5.2175
X6.1112Y-5.3071
X6.1152Y-5.3494
X6.1152Y-5.3898
X6.1181Y-5.4321
X6.122Y-5.2411
X6.126Y-5.2844
X6.127Y-5.3278
X6.1319Y-5.3691
X6.1348Y-5.4104
X6.1624Y-4.3602
X6.1624Y-4.439
X6.1634Y-4.0394
X6.1634Y-4.3967
X6.1673Y-4.9508
X6.1683Y-4.9193
X6.1693Y-4.8898
X6.1722Y-4.1752
X6.1722Y-4.2057
X6.1732Y-4.2372
X6.1732Y-4.2697
X6.1742Y-4.498
X6.1795Y-4.6319
X6.189Y-5.4882
X6.1998Y-4.9508
X6.2008Y-4.9193
X6.2018Y-4.8898
X6.2077Y-5.1831
X6.2077Y-5.4675
X6.2215Y-5.4892
X6.2264Y-5.1614
X6.2274Y-4.5089
X6.2274Y-5.4469
X6.2313Y-4.9498
X6.2323Y-4.9183
X6.2333Y-4.8888
X6.2392Y-5.1841
X6.2421Y-5.4685
X6.2461Y-5.4094
X6.248Y-5.128
X6.252Y-5.1604
X6.2579Y-5.4459
X6.2608Y-5.4872
X6.2618Y-4.9498
X6.2628Y-4.9183
X6.2638Y-4.8888
X6.2648Y-4.7156
X6.2648Y-4.7461
X6.2657Y-4.7776
X6.2657Y-4.81
X6.2677Y-5.185
X6.2746Y-5.4665
X6.3829Y-2.748
X6.3829Y-2.7795
X6.3829Y-3.6191
X6.3839Y-3.3376
X6.3839Y-3.4803
X6.3839Y-3.6535
X6.3839Y-3.687
X6.3848Y-3.372
X6.3848Y-3.4055
X6.3848Y-3.5148
X6.3848Y-3.5482
X6.3848Y-3.7175
X6.3848Y-3.747
X6.3848Y-3.878
X6.3858Y-3.436
X6.3858Y-3.5787
X6.3858Y-3.7815
X6.3858Y-3.815
X6.3858Y-3.9124
X6.3858Y-3.9459
X6.3868Y-3.0098
X6.3868Y-3.8455
X6.3868Y-3.9764
X6.3878Y-3.0404
X6.3878Y-3.0738
X6.3888Y-3.1083
X6.3888Y-4.0108
X6.3898Y-2.6348
X6.3898Y-4.0453
X6.3898Y-4.0787
X6.3907Y-4.1093
X6.3937Y-3.2657
X6.3937Y-3.2943
X6.3947Y-5.2362
X6.4055Y-3.3219
X6.4055Y-3.6014
X6.4065Y-3.3563
X6.4065Y-3.3898
X6.4065Y-3.6358
X6.4065Y-3.6693
X6.4075Y-3.4203
X6.4075Y-3.6998
X6.4085Y-2.9587
X6.4094Y-2.9931
X6.4094Y-3.0266
X6.4094Y-3.4636
X6.4094Y-3.7303
X6.4104Y-3.0571
X6.4104Y-3.498
X6.4104Y-3.5315
X6.4104Y-3.7648
X6.4104Y-3.7982
X6.4104Y-3.8622
X6.4114Y-3.562
X6.4114Y-3.8287
X6.4114Y-3.8927
X6.4114Y-3.9262
X6.4124Y-3.9606
X6.4144Y-3.9931
X6.4154Y-2.748
X6.4154Y-2.7795
X6.4154Y-4.0276
X6.4154Y-4.061
X6.4154Y-4.3681
X6.4163Y-4.0915
X6.4163Y-4.3927
X6.4193Y-4.4242
X6.4203Y-2.6348
X6.4242Y-3.2648
X6.4242Y-3.2933
X6.4301Y-3.3711
X6.4311Y-3.3376
X6.4311Y-4.253
X6.4321Y-4.2874
X6.4321Y-4.3209
X6.4331Y-3.3976
X6.4331Y-4.3514
X6.4341Y-3.4321
X6.4341Y-3.4656
X6.435Y-3.4961
X6.436Y-3.5276
X6.437Y-2.939
X6.437Y-3.562
X6.437Y-3.5955
X6.438Y-2.9734
X6.438Y-3.0069
X6.438Y-3.626
X6.439Y-3.0374
X6.439Y-3.6545
X6.44Y-3.689
X6.44Y-3.7224
X6.4409Y-3.753
X6.4439Y-4.437
X6.4469Y-2.747
X6.4469Y-2.7785
X6.4488Y-4.4656
X6.4518Y-2.6339
X6.4547Y-4.0965
X6.4577Y-3.2648
X6.4577Y-3.2933
X6.4577Y-4.2618
X6.4587Y-2.9183
X6.4596Y-2.9528
X6.4596Y-2.9862
X6.4596Y-4.3189
X6.4606Y-3.0167
X6.4606Y-3.3701
X6.4615Y-3.7067
X6.4616Y-3.3366
X6.4616Y-3.4409
X6.4625Y-3.7412
X6.4625Y-3.7746
X6.4626Y-3.3957
X6.4626Y-3.4754
X6.4626Y-3.5089
X6.4635Y-3.8052
X6.4636Y-3.5394
X6.4636Y-4.2923
X6.4656Y-3.5709
X6.4665Y-3.6053
X6.4665Y-3.6388
X6.4675Y-3.6693
X6.4705Y-4.1171
X6.4744Y-5.3996
X6.4754Y-4.2234
X6.4754Y-5.4459
X6.4774Y-2.747
X6.4774Y-2.7785
X6.4783Y-3.0256
X6.4793Y-3.06
X6.4793Y-3.0935
X6.4803Y-3.124
X6.4823Y-3.4272
X6.4823Y-4.2697
X6.4833Y-3.4616
X6.4833Y-3.4951
X6.4843Y-2.6339
X6.4843Y-3.5256
X6.4852Y-3.5551
X6.4852Y-3.686
X6.4852Y-4.0955
X6.4862Y-3.5896
X6.4862Y-3.623
X6.4862Y-3.7205
X6.4862Y-3.7539
X6.4872Y-3.6535
X6.4872Y-3.7844
X6.4882Y-5.375
X6.4887Y-4.4744
X6.4892Y-2.9026
X6.4902Y-2.937
X6.4902Y-2.9705
X6.4902Y-5.1929
X6.4911Y-3.001
X6.4911Y-5.4222
X6.4921Y-3.2638
X6.4921Y-3.2923
X6.4931Y-3.3947
X6.4931Y-5.1447
X6.4941Y-3.3701
X6.4941Y-4.2913
X6.4951Y-3.3366
X6.4951Y-5.0945
X6.499Y-4.248
X6.501Y-4.1161
X6.5039Y-5.2185
X6.5049Y-5.3986
X6.5059Y-4.2224
X6.5059Y-5.1683
X6.5059Y-5.4449
X6.5079Y-2.747
X6.5079Y-2.7776
X6.5098Y-5.1191
X6.5128Y-4.2687
X6.5148Y-2.8839
X6.5157Y-2.9173
X6.5187Y-4.0955
X6.5187Y-5.374
X6.5207Y-5.1919
X6.5217Y-5.4213
X6.5236Y-5.1437
X6.5256Y-5.0935
X6.5266Y-3.3947
X6.5276Y-4.2913
X6.5285Y-3.3691
X6.5295Y-3.3356
X6.5295Y-4.247
X6.5344Y-4.1161
X6.5344Y-5.2175
X6.5364Y-5.1673
X6.5384Y-5.3986
X6.5394Y-4.2224
X6.5394Y-5.4449
X6.5404Y-2.747
X6.5404Y-2.7776
X6.5404Y-5.1181
X6.5463Y-4.2687
X6.5472Y-2.8839
X6.5482Y-2.9173
X6.5517Y-4.3878
X6.5522Y-5.374
X6.5531Y-4.0945
X6.5541Y-5.1919
X6.5551Y-5.4213
X6.5571Y-5.1437
X6.5591Y-5.0935
X6.561Y-3.3937
X6.562Y-4.2904
X6.563Y-4.247
X6.5679Y-5.2175
X6.5689Y-4.1152
X6.5699Y-5.1673
X6.5719Y-2.6329
X6.5719Y-2.7461
X6.5719Y-2.7766
X6.5728Y-5.3976
X6.5738Y-4.2215
X6.5738Y-5.1181
X6.5738Y-5.4439
X6.5787Y-2.8829
X6.5797Y-2.9163
X6.5807Y-4.2677
X6.5837Y-4.5669
X6.5866Y-5.373
X6.5876Y-4.0955
X6.5886Y-5.1909
X6.5896Y-5.4203
X6.5906Y-4.4242
X6.5915Y-5.1427
X6.5925Y-4.2923
X6.5925Y-4.3947
X6.5935Y-5.0925
X6.5974Y-4.2461
X6.6024Y-2.7461
X6.6024Y-2.7766
X6.6024Y-5.2165
X6.6043Y-2.6329
X6.6043Y-4.1181
X6.6043Y-4.5886
X6.6043Y-5.1663
X6.6053Y-4.2195
X6.6053Y-4.7697
X6.6073Y-4.8189
X6.6083Y-5.1171
X6.6093Y-2.8829
X6.6102Y-2.9163
X6.6122Y-4.4695
X6.6132Y-4.4439
X6.6142Y-4.4144
X6.6152Y-4.2687
X6.6152Y-4.31
X6.6181Y-4.0945
X6.6181Y-4.5659
X6.6201Y-4.6093
X6.6211Y-4.7933
X6.623Y-4.2421
X6.623Y-4.2913
X6.624Y-4.7421
X6.6289Y-4.4911
X6.6348Y-2.9163
X6.6348Y-4.1171
X6.6348Y-4.3189
X6.6348Y-4.5876
X6.6358Y-2.6319
X6.6358Y-4.2185
X6.6358Y-4.7687
X6.6368Y-2.9469
X6.6368Y-2.9774
X6.6378Y-3.0138
X6.6378Y-4.8179
X6.6457Y-4.2677
X6.6506Y-4.6083
X6.6516Y-4.0945
X6.6516Y-4.5659
X6.6516Y-4.7923
X6.6535Y-4.2411
X6.6545Y-4.7411
X6.6565Y-4.2913
X6.6585Y-4.3169
X6.6588Y-3.0392
X6.6624Y-4.4695
X6.6663Y-2.6319
X6.6673Y-2.9163
X6.6683Y-4.1171
X6.6683Y-4.5876
X6.6693Y-2.9469
X6.6693Y-2.9774
X6.6693Y-4.2185
X6.6693Y-4.7687
X6.6703Y-3.0138
X6.6713Y-4.8179
X6.6772Y-4.3159
X6.6791Y-4.2677
X6.6811Y-3.063
X6.6821Y-4.565
X6.6841Y-4.6083
X6.6841Y-5.1191
X6.685Y-4.7923
X6.686Y-4.0935
X6.687Y-4.2411
X6.688Y-4.7411
X6.6909Y-4.2904
X6.6912Y-3.0392
X6.6978Y-4.3159
X6.6988Y-2.9154
X6.6998Y-4.438
X6.7008Y-2.9459
X6.7008Y-2.9764
X6.7018Y-3.0128
X6.7028Y-3.0876
X6.7028Y-4.1161
X6.7028Y-4.5866
X6.7037Y-4.2175
X6.7037Y-4.7677
X6.7057Y-4.8169
X6.7136Y-3.063
X6.7136Y-4.2667
X6.7185Y-3.1161
X6.7185Y-4.3159
X6.7185Y-4.6073
X6.7195Y-4.7913
X6.7205Y-3.1486
X6.7205Y-3.1831
X6.7215Y-3.2146
X6.7215Y-3.2451
X6.7215Y-4.2402
X6.7224Y-4.2884
X6.7224Y-4.7402
X6.7227Y-3.0382
X6.7228Y-4.9555
X6.7293Y-2.9154
X6.7313Y-2.9459
X6.7313Y-2.9764
X6.7323Y-3.0128
X6.7352Y-3.0876
X6.7411Y-4.4011
X6.7421Y-4.7667
X6.7421Y-4.8159
X6.7441Y-3.2687
X6.7451Y-3.062
X6.748Y-4.2116
X6.749Y-4.2461
X6.749Y-4.2795
X6.75Y-4.31
X6.751Y-3.1161
X6.752Y-2.7756
X6.752Y-2.8041
X6.752Y-2.8346
X6.753Y-2.8691
X6.753Y-2.9075
X6.753Y-3.1486
X6.753Y-3.1831
X6.7533Y-3.0382
X6.7539Y-3.2146
X6.7539Y-3.2451
X6.7589Y-4.7411
X6.7598Y-4.7894
X6.7638Y-3.9911
X6.7667Y-3.0866
X6.7697Y-3.2933
X6.7707Y-4.2244
X6.7717Y-4.2589
X6.7717Y-4.2923
X6.7726Y-4.3228
X6.7726Y-4.7657
X6.7726Y-4.815
X6.7756Y-3.062
X6.7766Y-3.2687
X6.7825Y-3.1152
X6.7844Y-2.7756
X6.7844Y-2.8041
X6.7844Y-2.8346
X6.7844Y-3.1476
X6.7844Y-3.1821
X6.7854Y-2.8691
X6.7854Y-2.9075
X6.7854Y-3.2136
X6.7854Y-3.2441
X6.7894Y-4.7402
X6.7904Y-4.7884
X6.7943Y-3.9902
X6.7963Y-3.3248
X6.7972Y-3.0866
X6.8022Y-3.2933
X6.8051Y-4.4843
X6.8061Y-4.7657
X6.8061Y-4.815
X6.8081Y-3.2677
X6.813Y-3.1152
X6.815Y-3.1476
X6.815Y-3.1821
X6.8159Y-2.7746
X6.8159Y-2.8031
X6.8159Y-2.8337
X6.8159Y-3.2136
X6.8159Y-3.2441
X6.8159Y-4.1112
X6.8169Y-2.8681
X6.8169Y-2.9065
X6.8219Y-3.3504
X6.8228Y-4.7402
X6.8238Y-4.7884
X6.8278Y-3.9902
X6.8287Y-3.3248
X6.8297Y-4.314
X6.8297Y-4.4518
X6.8337Y-3.2923
X6.8386Y-3.2677
X6.8396Y-5.4213
X6.8406Y-4.7648
X6.8406Y-4.814
X6.8465Y-2.7746
X6.8465Y-2.8031
X6.8465Y-2.8337
X6.8474Y-2.8681
X6.8474Y-2.9065
X6.8533Y-5.315
X6.8543Y-3.3504
X6.8573Y-4.7392
X6.8583Y-4.7874
X6.8593Y-3.3839
X6.8602Y-3.3238
X6.8622Y-3.9892
X6.8642Y-3.2923
X6.8701Y-4.2963
X6.874Y-4.2608
X6.877Y-2.8346
X6.877Y-2.8691
X6.8789Y-2.9045
X6.8799Y-2.8012
X6.8809Y-3.4124
X6.8809Y-4.7618
X6.8819Y-4.7963
X6.8819Y-4.8297
X6.8829Y-4.6978
X6.8829Y-4.8602
X6.8848Y-4.8917
X6.8858Y-3.3494
X6.8858Y-4.9262
X6.8858Y-4.9596
X6.8868Y-4.9902
X6.8907Y-3.3238
X6.8917Y-3.3839
X6.8927Y-5.126
X6.8967Y-4.312
X6.9006Y-3.4409
X6.9006Y-4.2736
X6.9016Y-4.0522
X6.9035Y-4.2205
X6.9045Y-3.2933
X6.9094Y-2.8346
X6.9094Y-2.8691
X6.9114Y-2.9045
X6.9124Y-2.8012
X6.9134Y-3.4124
X6.9163Y-3.3494
X6.9183Y-3.4665
X6.9232Y-3.3829
X6.9262Y-4.31
X6.9311Y-3.3228
X6.9331Y-3.4409
X6.935Y-3.4921
X6.937Y-3.2933
X6.938Y-3.5719
X6.939Y-3.6122
X6.939Y-3.7539
X6.94Y-3.5276
X6.94Y-3.6427
X6.94Y-3.7185
X6.9409Y-2.8337
X6.9409Y-2.8681
X6.9409Y-3.6791
X6.9429Y-2.9035
X6.9439Y-2.8002
X6.9449Y-3.4114
X6.9459Y-3.3514
X6.9508Y-3.4665
X6.9537Y-3.3829
X6.9636Y-3.3228
X6.9646Y-3.44
X6.9646Y-4.2205
X6.9675Y-3.4921
X6.9685Y-3.2923
X6.9705Y-3.5719
X6.9715Y-2.8337
X6.9715Y-2.8681
X6.9715Y-3.6122
X6.9715Y-3.7539
X6.9724Y-3.5276
X6.9724Y-3.6427
X6.9724Y-3.7185
X6.9734Y-2.9035
X6.9734Y-3.6791
X6.9744Y-2.8002
X6.9754Y-3.4114
X6.9783Y-3.3514
X6.9823Y-3.4656
X6.9823Y-3.936
X6.9833Y-3.8494
X6.9833Y-4.0443
X6.9951Y-3.3219
X6.9951Y-3.44
X6.997Y-2.8189
X6.997Y-2.8494
X6.998Y-2.8809
X6.998Y-2.9134
X6.999Y-3.2923
X6.999Y-3.4911
X7.002Y-3.5709
X7.003Y-3.6112
X7.003Y-3.753
X7.0039Y-3.5266
X7.0039Y-3.6417
X7.0039Y-3.7175
X7.0049Y-3.6781
X7.0098Y-3.3504
X7.0128Y-3.4656
X7.0226Y-2.8317
X7.0226Y-2.8622
X7.0236Y-2.8937
X7.0236Y-2.9262
X7.0256Y-3.3219
X7.0295Y-3.4911
X7.0325Y-3.5709
X7.0335Y-3.6112
X7.0335Y-3.753
X7.0344Y-3.5266
X7.0344Y-3.6417
X7.0344Y-3.7175
X7.0354Y-3.6781
X7.0404Y-3.3504
X7.0423Y-5.3425
X7.0472Y-2.8474
X7.0472Y-2.878
X7.0482Y-2.9094
X7.0482Y-2.9419
X7.0581Y-3.1634
X7.0728Y-3.9016
X7.0866Y-4.6969
X7.1467Y-4.6388
X7.1624Y-5.31
X7.1663Y-3.8996
X7.2195Y-4.9469
X7.2283Y-2.8957
X7.2431Y-2.8711
X7.2579Y-4.4833
X7.2608Y-2.8957
X7.2638Y-2.8179
X7.2638Y-2.8455
X7.2726Y-4.0689
X7.2756Y-2.8711
X7.2854Y-4.0148
X7.2923Y-2.8947
X7.2923Y-4.4843
X7.2963Y-2.8179
X7.2963Y-2.8455
X7.3071Y-2.8701
X7.3228Y-2.8947
X7.3278Y-2.7441
X7.3278Y-2.7746
X7.3278Y-2.8169
X7.3278Y-2.8445
X7.3287Y-2.8386
X7.3346Y-4.5492
X7.3376Y-2.8701
X7.3396Y-3.1289
X7.3415Y-5.2657
X7.3425Y-5.2185
X7.3455Y-5.3081
X7.3494Y-5.3504
X7.3563Y-5.2421
X7.3583Y-2.8169
X7.3583Y-2.8445
X7.3602Y-5.2854
X7.3612Y-5.3287
X7.3661Y-5.3701
X7.3691Y-5.4114
X7.374Y-5.2657
X7.375Y-5.2185
X7.378Y-5.3081
X7.3819Y-5.3504
X7.3819Y-5.3907
X7.3839Y-4.0128
X7.3839Y-4.0659
X7.3839Y-4.3376
X7.3848Y-5.4331
X7.3858Y-2.815
X7.3858Y-2.8455
X7.3868Y-2.877
X7.3868Y-2.9094
X7.3888Y-5.2421
X7.3927Y-5.2854
X7.3937Y-5.3287
X7.3986Y-5.3701
X7.4016Y-5.4114
X7.4055Y-5.2648
X7.4065Y-5.2175
X7.4094Y-5.3071
X7.4114Y-2.814
X7.4114Y-2.8445
X7.4124Y-2.876
X7.4124Y-2.9085
X7.4134Y-5.3494
X7.4134Y-5.3898
X7.4163Y-5.4321
X7.4193Y-4.3612
X7.4193Y-4.3957
X7.4203Y-5.2411
X7.4222Y-4.0404
X7.4242Y-5.2844
X7.4252Y-5.3278
X7.4272Y-4.498
X7.4301Y-5.3691
X7.4331Y-5.4104
X7.436Y-5.2648
X7.437Y-5.2175
X7.44Y-5.3071
X7.4439Y-5.3494
X7.4439Y-5.3898
X7.4469Y-5.4321
X7.4508Y-5.2411
X7.4547Y-5.2844
X7.4557Y-5.3278
X7.4606Y-5.3691
X7.4636Y-5.4104
X7.4911Y-4.3602
X7.4911Y-4.439
X7.4921Y-4.0394
X7.4921Y-4.3967
X7.4961Y-4.9508
X7.497Y-4.9193
X7.498Y-4.8898
X7.501Y-4.1752
X7.501Y-4.2057
X7.502Y-4.2372
X7.502Y-4.2697
X7.503Y-4.498
X7.5083Y-4.6319
X7.5177Y-5.4882
X7.5285Y-4.9508
X7.5295Y-4.9193
X7.5305Y-4.8898
X7.5364Y-5.1831
X7.5364Y-5.4675
X7.5502Y-5.4892
X7.5551Y-5.1614
X7.5561Y-4.5089
X7.5561Y-5.4469
X7.56Y-4.9498
X7.561Y-4.9183
X7.562Y-4.8888
X7.5679Y-5.1841
X7.5709Y-5.4685
X7.5748Y-5.4094
X7.5768Y-5.128
X7.5807Y-5.1604
X7.5866Y-5.4459
X7.5896Y-5.4872
X7.5906Y-4.9498
X7.5915Y-4.9183
X7.5925Y-4.8888
X7.5935Y-4.7156
X7.5935Y-4.7461
X7.5945Y-4.7776
X7.5945Y-4.81
X7.5965Y-5.185
X7.6033Y-5.4665
T2
X5.7794Y-5.1298
X5.7794Y-5.4298
X5.8794Y-5.1298
X5.8794Y-5.4298
X5.9794Y-5.1298
X5.9794Y-5.4298
X7.1082Y-5.1298
X7.1082Y-5.4298
X7.2082Y-5.1298
X7.2082Y-5.4298
X7.3082Y-5.1298
X7.3082Y-5.4298
T3
X5.126Y-5.2923
X5.2244Y-5.2923
X5.2313Y-2.9705
X5.2313Y-3.0689
X5.2313Y-3.1673
X5.2313Y-3.2657
X5.3228Y-5.2923
X5.4213Y-5.2923
X6.4547Y-5.2923
X6.5531Y-5.2923
X6.56Y-2.9705
X6.56Y-3.0689
X6.56Y-3.1673
X6.56Y-3.2657
X6.6516Y-5.2923
X6.75Y-5.2923
T4
X5.0904Y-2.689
X5.1904Y-2.689
X5.2904Y-2.689
X5.3904Y-2.689
X5.4904Y-2.689
X5.5256Y-2.9882
X5.5904Y-2.689
X5.624Y-2.9882
X5.6904Y-2.689
X5.7904Y-2.689
X5.7967Y-4.7913
X5.8904Y-2.689
X5.8967Y-4.7913
X5.9508Y-2.9754
X5.9904Y-2.689
X6.0492Y-2.9754
X6.2303Y-3.9386
X6.2303Y-4.0386
X6.2303Y-4.1386
X6.2303Y-4.2386
X6.2303Y-4.3386
X6.2303Y-4.4386
X6.4191Y-2.689
X6.5191Y-2.689
X6.6191Y-2.689
X6.7191Y-2.689
X6.8191Y-2.689
X6.8543Y-2.9882
X6.9191Y-2.689
X6.9528Y-2.9882
X7.0191Y-2.689
X7.1191Y-2.689
X7.1254Y-4.7913
X7.2191Y-2.689
X7.2254Y-4.7913
X7.2795Y-2.9754
X7.3191Y-2.689
X7.378Y-2.9754
X7.5591Y-3.9386
X7.5591Y-4.0386
X7.5591Y-4.1386
X7.5591Y-4.2386
X7.5591Y-4.3386
X7.5591Y-4.4386
M30
