%TF.GenerationSoftware,KiCad,Pcbnew,10.0.1-10.0.1~ubuntu24.04.1*%
%TF.CreationDate,2026-05-11T12:50:35+09:00*%
%TF.ProjectId,ISS_MD_SUB,4953535f-4d44-45f5-9355-422e6b696361,rev?*%
%TF.SameCoordinates,Original*%
%TF.FileFunction,Legend,Top*%
%TF.FilePolarity,Positive*%
%FSLAX46Y46*%
G04 Gerber Fmt 4.6, Leading zero omitted, Abs format (unit mm)*
G04 Created by KiCad (PCBNEW 10.0.1-10.0.1~ubuntu24.04.1) date 2026-05-11 12:50:35*
%MOMM*%
%LPD*%
G01*
G04 APERTURE LIST*
G04 Aperture macros list*
%AMRoundRect*
0 Rectangle with rounded corners*
0 $1 Rounding radius*
0 $2 $3 $4 $5 $6 $7 $8 $9 X,Y pos of 4 corners*
0 Add a 4 corners polygon primitive as box body*
4,1,4,$2,$3,$4,$5,$6,$7,$8,$9,$2,$3,0*
0 Add four circle primitives for the rounded corners*
1,1,$1+$1,$2,$3*
1,1,$1+$1,$4,$5*
1,1,$1+$1,$6,$7*
1,1,$1+$1,$8,$9*
0 Add four rect primitives between the rounded corners*
20,1,$1+$1,$2,$3,$4,$5,0*
20,1,$1+$1,$4,$5,$6,$7,0*
20,1,$1+$1,$6,$7,$8,$9,0*
20,1,$1+$1,$8,$9,$2,$3,0*%
G04 Aperture macros list end*
%ADD10C,0.150000*%
%ADD11C,0.127000*%
%ADD12C,0.200000*%
%ADD13C,0.120000*%
%ADD14C,0.152400*%
%ADD15RoundRect,0.139680X-0.912320X0.442320X-0.912320X-0.442320X0.912320X-0.442320X0.912320X0.442320X0*%
%ADD16RoundRect,0.700080X-2.821920X2.216920X-2.821920X-2.216920X2.821920X-2.216920X2.821920X2.216920X0*%
%ADD17RoundRect,0.237500X-0.250000X-0.237500X0.250000X-0.237500X0.250000X0.237500X-0.250000X0.237500X0*%
%ADD18RoundRect,0.237500X0.237500X-0.300000X0.237500X0.300000X-0.237500X0.300000X-0.237500X-0.300000X0*%
%ADD19RoundRect,0.250000X0.600000X0.750000X-0.600000X0.750000X-0.600000X-0.750000X0.600000X-0.750000X0*%
%ADD20O,1.700000X2.000000*%
%ADD21RoundRect,0.237500X0.287500X0.237500X-0.287500X0.237500X-0.287500X-0.237500X0.287500X-0.237500X0*%
%ADD22RoundRect,0.237500X-0.237500X0.300000X-0.237500X-0.300000X0.237500X-0.300000X0.237500X0.300000X0*%
%ADD23R,1.700000X1.700000*%
%ADD24C,1.700000*%
%ADD25RoundRect,0.150000X-0.150000X0.825000X-0.150000X-0.825000X0.150000X-0.825000X0.150000X0.825000X0*%
%ADD26RoundRect,0.125000X-0.625000X-0.125000X0.625000X-0.125000X0.625000X0.125000X-0.625000X0.125000X0*%
%ADD27RoundRect,0.125000X-0.125000X-0.625000X0.125000X-0.625000X0.125000X0.625000X-0.125000X0.625000X0*%
%ADD28RoundRect,0.250000X-0.600000X-0.725000X0.600000X-0.725000X0.600000X0.725000X-0.600000X0.725000X0*%
%ADD29O,1.700000X1.950000*%
%ADD30RoundRect,0.237500X-0.237500X0.250000X-0.237500X-0.250000X0.237500X-0.250000X0.237500X0.250000X0*%
%ADD31RoundRect,0.250000X-0.725000X0.600000X-0.725000X-0.600000X0.725000X-0.600000X0.725000X0.600000X0*%
%ADD32O,1.950000X1.700000*%
%ADD33R,0.660400X1.041400*%
%ADD34RoundRect,0.250000X0.550000X-0.550000X0.550000X0.550000X-0.550000X0.550000X-0.550000X-0.550000X0*%
%ADD35C,1.600000*%
%ADD36RoundRect,0.102000X-0.575000X-0.700000X0.575000X-0.700000X0.575000X0.700000X-0.575000X0.700000X0*%
G04 APERTURE END LIST*
D10*
X140868846Y-125919588D02*
X141517390Y-125919588D01*
X141517390Y-125919588D02*
X141593689Y-125881439D01*
X141593689Y-125881439D02*
X141631839Y-125843289D01*
X141631839Y-125843289D02*
X141669988Y-125766990D01*
X141669988Y-125766990D02*
X141669988Y-125614391D01*
X141669988Y-125614391D02*
X141631839Y-125538092D01*
X141631839Y-125538092D02*
X141593689Y-125499943D01*
X141593689Y-125499943D02*
X141517390Y-125461793D01*
X141517390Y-125461793D02*
X140868846Y-125461793D01*
X140868846Y-124736950D02*
X140868846Y-124889548D01*
X140868846Y-124889548D02*
X140906996Y-124965848D01*
X140906996Y-124965848D02*
X140945145Y-125003997D01*
X140945145Y-125003997D02*
X141059594Y-125080296D01*
X141059594Y-125080296D02*
X141212193Y-125118446D01*
X141212193Y-125118446D02*
X141517390Y-125118446D01*
X141517390Y-125118446D02*
X141593689Y-125080296D01*
X141593689Y-125080296D02*
X141631839Y-125042147D01*
X141631839Y-125042147D02*
X141669988Y-124965848D01*
X141669988Y-124965848D02*
X141669988Y-124813249D01*
X141669988Y-124813249D02*
X141631839Y-124736950D01*
X141631839Y-124736950D02*
X141593689Y-124698800D01*
X141593689Y-124698800D02*
X141517390Y-124660651D01*
X141517390Y-124660651D02*
X141326642Y-124660651D01*
X141326642Y-124660651D02*
X141250342Y-124698800D01*
X141250342Y-124698800D02*
X141212193Y-124736950D01*
X141212193Y-124736950D02*
X141174043Y-124813249D01*
X141174043Y-124813249D02*
X141174043Y-124965848D01*
X141174043Y-124965848D02*
X141212193Y-125042147D01*
X141212193Y-125042147D02*
X141250342Y-125080296D01*
X141250342Y-125080296D02*
X141326642Y-125118446D01*
X157645833Y-132274819D02*
X157312500Y-131798628D01*
X157074405Y-132274819D02*
X157074405Y-131274819D01*
X157074405Y-131274819D02*
X157455357Y-131274819D01*
X157455357Y-131274819D02*
X157550595Y-131322438D01*
X157550595Y-131322438D02*
X157598214Y-131370057D01*
X157598214Y-131370057D02*
X157645833Y-131465295D01*
X157645833Y-131465295D02*
X157645833Y-131608152D01*
X157645833Y-131608152D02*
X157598214Y-131703390D01*
X157598214Y-131703390D02*
X157550595Y-131751009D01*
X157550595Y-131751009D02*
X157455357Y-131798628D01*
X157455357Y-131798628D02*
X157074405Y-131798628D01*
X158550595Y-131274819D02*
X158074405Y-131274819D01*
X158074405Y-131274819D02*
X158026786Y-131751009D01*
X158026786Y-131751009D02*
X158074405Y-131703390D01*
X158074405Y-131703390D02*
X158169643Y-131655771D01*
X158169643Y-131655771D02*
X158407738Y-131655771D01*
X158407738Y-131655771D02*
X158502976Y-131703390D01*
X158502976Y-131703390D02*
X158550595Y-131751009D01*
X158550595Y-131751009D02*
X158598214Y-131846247D01*
X158598214Y-131846247D02*
X158598214Y-132084342D01*
X158598214Y-132084342D02*
X158550595Y-132179580D01*
X158550595Y-132179580D02*
X158502976Y-132227200D01*
X158502976Y-132227200D02*
X158407738Y-132274819D01*
X158407738Y-132274819D02*
X158169643Y-132274819D01*
X158169643Y-132274819D02*
X158074405Y-132227200D01*
X158074405Y-132227200D02*
X158026786Y-132179580D01*
X134404580Y-113305357D02*
X134452200Y-113352976D01*
X134452200Y-113352976D02*
X134499819Y-113495833D01*
X134499819Y-113495833D02*
X134499819Y-113591071D01*
X134499819Y-113591071D02*
X134452200Y-113733928D01*
X134452200Y-113733928D02*
X134356961Y-113829166D01*
X134356961Y-113829166D02*
X134261723Y-113876785D01*
X134261723Y-113876785D02*
X134071247Y-113924404D01*
X134071247Y-113924404D02*
X133928390Y-113924404D01*
X133928390Y-113924404D02*
X133737914Y-113876785D01*
X133737914Y-113876785D02*
X133642676Y-113829166D01*
X133642676Y-113829166D02*
X133547438Y-113733928D01*
X133547438Y-113733928D02*
X133499819Y-113591071D01*
X133499819Y-113591071D02*
X133499819Y-113495833D01*
X133499819Y-113495833D02*
X133547438Y-113352976D01*
X133547438Y-113352976D02*
X133595057Y-113305357D01*
X134499819Y-112352976D02*
X134499819Y-112924404D01*
X134499819Y-112638690D02*
X133499819Y-112638690D01*
X133499819Y-112638690D02*
X133642676Y-112733928D01*
X133642676Y-112733928D02*
X133737914Y-112829166D01*
X133737914Y-112829166D02*
X133785533Y-112924404D01*
X133499819Y-111733928D02*
X133499819Y-111638690D01*
X133499819Y-111638690D02*
X133547438Y-111543452D01*
X133547438Y-111543452D02*
X133595057Y-111495833D01*
X133595057Y-111495833D02*
X133690295Y-111448214D01*
X133690295Y-111448214D02*
X133880771Y-111400595D01*
X133880771Y-111400595D02*
X134118866Y-111400595D01*
X134118866Y-111400595D02*
X134309342Y-111448214D01*
X134309342Y-111448214D02*
X134404580Y-111495833D01*
X134404580Y-111495833D02*
X134452200Y-111543452D01*
X134452200Y-111543452D02*
X134499819Y-111638690D01*
X134499819Y-111638690D02*
X134499819Y-111733928D01*
X134499819Y-111733928D02*
X134452200Y-111829166D01*
X134452200Y-111829166D02*
X134404580Y-111876785D01*
X134404580Y-111876785D02*
X134309342Y-111924404D01*
X134309342Y-111924404D02*
X134118866Y-111972023D01*
X134118866Y-111972023D02*
X133880771Y-111972023D01*
X133880771Y-111972023D02*
X133690295Y-111924404D01*
X133690295Y-111924404D02*
X133595057Y-111876785D01*
X133595057Y-111876785D02*
X133547438Y-111829166D01*
X133547438Y-111829166D02*
X133499819Y-111733928D01*
X140790476Y-78904819D02*
X140790476Y-79619104D01*
X140790476Y-79619104D02*
X140742857Y-79761961D01*
X140742857Y-79761961D02*
X140647619Y-79857200D01*
X140647619Y-79857200D02*
X140504762Y-79904819D01*
X140504762Y-79904819D02*
X140409524Y-79904819D01*
X141790476Y-79904819D02*
X141219048Y-79904819D01*
X141504762Y-79904819D02*
X141504762Y-78904819D01*
X141504762Y-78904819D02*
X141409524Y-79047676D01*
X141409524Y-79047676D02*
X141314286Y-79142914D01*
X141314286Y-79142914D02*
X141219048Y-79190533D01*
X142695238Y-78904819D02*
X142219048Y-78904819D01*
X142219048Y-78904819D02*
X142171429Y-79381009D01*
X142171429Y-79381009D02*
X142219048Y-79333390D01*
X142219048Y-79333390D02*
X142314286Y-79285771D01*
X142314286Y-79285771D02*
X142552381Y-79285771D01*
X142552381Y-79285771D02*
X142647619Y-79333390D01*
X142647619Y-79333390D02*
X142695238Y-79381009D01*
X142695238Y-79381009D02*
X142742857Y-79476247D01*
X142742857Y-79476247D02*
X142742857Y-79714342D01*
X142742857Y-79714342D02*
X142695238Y-79809580D01*
X142695238Y-79809580D02*
X142647619Y-79857200D01*
X142647619Y-79857200D02*
X142552381Y-79904819D01*
X142552381Y-79904819D02*
X142314286Y-79904819D01*
X142314286Y-79904819D02*
X142219048Y-79857200D01*
X142219048Y-79857200D02*
X142171429Y-79809580D01*
X157086905Y-132134819D02*
X157086905Y-131134819D01*
X157086905Y-131134819D02*
X157325000Y-131134819D01*
X157325000Y-131134819D02*
X157467857Y-131182438D01*
X157467857Y-131182438D02*
X157563095Y-131277676D01*
X157563095Y-131277676D02*
X157610714Y-131372914D01*
X157610714Y-131372914D02*
X157658333Y-131563390D01*
X157658333Y-131563390D02*
X157658333Y-131706247D01*
X157658333Y-131706247D02*
X157610714Y-131896723D01*
X157610714Y-131896723D02*
X157563095Y-131991961D01*
X157563095Y-131991961D02*
X157467857Y-132087200D01*
X157467857Y-132087200D02*
X157325000Y-132134819D01*
X157325000Y-132134819D02*
X157086905Y-132134819D01*
X158515476Y-131468152D02*
X158515476Y-132134819D01*
X158277381Y-131087200D02*
X158039286Y-131801485D01*
X158039286Y-131801485D02*
X158658333Y-131801485D01*
X139264580Y-112816666D02*
X139312200Y-112864285D01*
X139312200Y-112864285D02*
X139359819Y-113007142D01*
X139359819Y-113007142D02*
X139359819Y-113102380D01*
X139359819Y-113102380D02*
X139312200Y-113245237D01*
X139312200Y-113245237D02*
X139216961Y-113340475D01*
X139216961Y-113340475D02*
X139121723Y-113388094D01*
X139121723Y-113388094D02*
X138931247Y-113435713D01*
X138931247Y-113435713D02*
X138788390Y-113435713D01*
X138788390Y-113435713D02*
X138597914Y-113388094D01*
X138597914Y-113388094D02*
X138502676Y-113340475D01*
X138502676Y-113340475D02*
X138407438Y-113245237D01*
X138407438Y-113245237D02*
X138359819Y-113102380D01*
X138359819Y-113102380D02*
X138359819Y-113007142D01*
X138359819Y-113007142D02*
X138407438Y-112864285D01*
X138407438Y-112864285D02*
X138455057Y-112816666D01*
X138693152Y-111959523D02*
X139359819Y-111959523D01*
X138312200Y-112197618D02*
X139026485Y-112435713D01*
X139026485Y-112435713D02*
X139026485Y-111816666D01*
X142219642Y-80824819D02*
X141886309Y-80348628D01*
X141648214Y-80824819D02*
X141648214Y-79824819D01*
X141648214Y-79824819D02*
X142029166Y-79824819D01*
X142029166Y-79824819D02*
X142124404Y-79872438D01*
X142124404Y-79872438D02*
X142172023Y-79920057D01*
X142172023Y-79920057D02*
X142219642Y-80015295D01*
X142219642Y-80015295D02*
X142219642Y-80158152D01*
X142219642Y-80158152D02*
X142172023Y-80253390D01*
X142172023Y-80253390D02*
X142124404Y-80301009D01*
X142124404Y-80301009D02*
X142029166Y-80348628D01*
X142029166Y-80348628D02*
X141648214Y-80348628D01*
X142600595Y-79920057D02*
X142648214Y-79872438D01*
X142648214Y-79872438D02*
X142743452Y-79824819D01*
X142743452Y-79824819D02*
X142981547Y-79824819D01*
X142981547Y-79824819D02*
X143076785Y-79872438D01*
X143076785Y-79872438D02*
X143124404Y-79920057D01*
X143124404Y-79920057D02*
X143172023Y-80015295D01*
X143172023Y-80015295D02*
X143172023Y-80110533D01*
X143172023Y-80110533D02*
X143124404Y-80253390D01*
X143124404Y-80253390D02*
X142552976Y-80824819D01*
X142552976Y-80824819D02*
X143172023Y-80824819D01*
X143552976Y-79920057D02*
X143600595Y-79872438D01*
X143600595Y-79872438D02*
X143695833Y-79824819D01*
X143695833Y-79824819D02*
X143933928Y-79824819D01*
X143933928Y-79824819D02*
X144029166Y-79872438D01*
X144029166Y-79872438D02*
X144076785Y-79920057D01*
X144076785Y-79920057D02*
X144124404Y-80015295D01*
X144124404Y-80015295D02*
X144124404Y-80110533D01*
X144124404Y-80110533D02*
X144076785Y-80253390D01*
X144076785Y-80253390D02*
X143505357Y-80824819D01*
X143505357Y-80824819D02*
X144124404Y-80824819D01*
X152066666Y-78579819D02*
X152066666Y-79294104D01*
X152066666Y-79294104D02*
X152019047Y-79436961D01*
X152019047Y-79436961D02*
X151923809Y-79532200D01*
X151923809Y-79532200D02*
X151780952Y-79579819D01*
X151780952Y-79579819D02*
X151685714Y-79579819D01*
X153019047Y-78579819D02*
X152542857Y-78579819D01*
X152542857Y-78579819D02*
X152495238Y-79056009D01*
X152495238Y-79056009D02*
X152542857Y-79008390D01*
X152542857Y-79008390D02*
X152638095Y-78960771D01*
X152638095Y-78960771D02*
X152876190Y-78960771D01*
X152876190Y-78960771D02*
X152971428Y-79008390D01*
X152971428Y-79008390D02*
X153019047Y-79056009D01*
X153019047Y-79056009D02*
X153066666Y-79151247D01*
X153066666Y-79151247D02*
X153066666Y-79389342D01*
X153066666Y-79389342D02*
X153019047Y-79484580D01*
X153019047Y-79484580D02*
X152971428Y-79532200D01*
X152971428Y-79532200D02*
X152876190Y-79579819D01*
X152876190Y-79579819D02*
X152638095Y-79579819D01*
X152638095Y-79579819D02*
X152542857Y-79532200D01*
X152542857Y-79532200D02*
X152495238Y-79484580D01*
X144309819Y-122509523D02*
X145024104Y-122509523D01*
X145024104Y-122509523D02*
X145166961Y-122557142D01*
X145166961Y-122557142D02*
X145262200Y-122652380D01*
X145262200Y-122652380D02*
X145309819Y-122795237D01*
X145309819Y-122795237D02*
X145309819Y-122890475D01*
X145309819Y-121509523D02*
X145309819Y-122080951D01*
X145309819Y-121795237D02*
X144309819Y-121795237D01*
X144309819Y-121795237D02*
X144452676Y-121890475D01*
X144452676Y-121890475D02*
X144547914Y-121985713D01*
X144547914Y-121985713D02*
X144595533Y-122080951D01*
X145309819Y-120557142D02*
X145309819Y-121128570D01*
X145309819Y-120842856D02*
X144309819Y-120842856D01*
X144309819Y-120842856D02*
X144452676Y-120938094D01*
X144452676Y-120938094D02*
X144547914Y-121033332D01*
X144547914Y-121033332D02*
X144595533Y-121128570D01*
X159179819Y-120886904D02*
X159989342Y-120886904D01*
X159989342Y-120886904D02*
X160084580Y-120839285D01*
X160084580Y-120839285D02*
X160132200Y-120791666D01*
X160132200Y-120791666D02*
X160179819Y-120696428D01*
X160179819Y-120696428D02*
X160179819Y-120505952D01*
X160179819Y-120505952D02*
X160132200Y-120410714D01*
X160132200Y-120410714D02*
X160084580Y-120363095D01*
X160084580Y-120363095D02*
X159989342Y-120315476D01*
X159989342Y-120315476D02*
X159179819Y-120315476D01*
X159513152Y-119410714D02*
X160179819Y-119410714D01*
X159132200Y-119648809D02*
X159846485Y-119886904D01*
X159846485Y-119886904D02*
X159846485Y-119267857D01*
X144213095Y-107224819D02*
X144213095Y-108034342D01*
X144213095Y-108034342D02*
X144260714Y-108129580D01*
X144260714Y-108129580D02*
X144308333Y-108177200D01*
X144308333Y-108177200D02*
X144403571Y-108224819D01*
X144403571Y-108224819D02*
X144594047Y-108224819D01*
X144594047Y-108224819D02*
X144689285Y-108177200D01*
X144689285Y-108177200D02*
X144736904Y-108129580D01*
X144736904Y-108129580D02*
X144784523Y-108034342D01*
X144784523Y-108034342D02*
X144784523Y-107224819D01*
X145213095Y-107320057D02*
X145260714Y-107272438D01*
X145260714Y-107272438D02*
X145355952Y-107224819D01*
X145355952Y-107224819D02*
X145594047Y-107224819D01*
X145594047Y-107224819D02*
X145689285Y-107272438D01*
X145689285Y-107272438D02*
X145736904Y-107320057D01*
X145736904Y-107320057D02*
X145784523Y-107415295D01*
X145784523Y-107415295D02*
X145784523Y-107510533D01*
X145784523Y-107510533D02*
X145736904Y-107653390D01*
X145736904Y-107653390D02*
X145165476Y-108224819D01*
X145165476Y-108224819D02*
X145784523Y-108224819D01*
X133616666Y-130369819D02*
X133616666Y-131084104D01*
X133616666Y-131084104D02*
X133569047Y-131226961D01*
X133569047Y-131226961D02*
X133473809Y-131322200D01*
X133473809Y-131322200D02*
X133330952Y-131369819D01*
X133330952Y-131369819D02*
X133235714Y-131369819D01*
X133997619Y-130369819D02*
X134616666Y-130369819D01*
X134616666Y-130369819D02*
X134283333Y-130750771D01*
X134283333Y-130750771D02*
X134426190Y-130750771D01*
X134426190Y-130750771D02*
X134521428Y-130798390D01*
X134521428Y-130798390D02*
X134569047Y-130846009D01*
X134569047Y-130846009D02*
X134616666Y-130941247D01*
X134616666Y-130941247D02*
X134616666Y-131179342D01*
X134616666Y-131179342D02*
X134569047Y-131274580D01*
X134569047Y-131274580D02*
X134521428Y-131322200D01*
X134521428Y-131322200D02*
X134426190Y-131369819D01*
X134426190Y-131369819D02*
X134140476Y-131369819D01*
X134140476Y-131369819D02*
X134045238Y-131322200D01*
X134045238Y-131322200D02*
X133997619Y-131274580D01*
X138684819Y-99930357D02*
X138208628Y-100263690D01*
X138684819Y-100501785D02*
X137684819Y-100501785D01*
X137684819Y-100501785D02*
X137684819Y-100120833D01*
X137684819Y-100120833D02*
X137732438Y-100025595D01*
X137732438Y-100025595D02*
X137780057Y-99977976D01*
X137780057Y-99977976D02*
X137875295Y-99930357D01*
X137875295Y-99930357D02*
X138018152Y-99930357D01*
X138018152Y-99930357D02*
X138113390Y-99977976D01*
X138113390Y-99977976D02*
X138161009Y-100025595D01*
X138161009Y-100025595D02*
X138208628Y-100120833D01*
X138208628Y-100120833D02*
X138208628Y-100501785D01*
X138684819Y-98977976D02*
X138684819Y-99549404D01*
X138684819Y-99263690D02*
X137684819Y-99263690D01*
X137684819Y-99263690D02*
X137827676Y-99358928D01*
X137827676Y-99358928D02*
X137922914Y-99454166D01*
X137922914Y-99454166D02*
X137970533Y-99549404D01*
X138018152Y-98120833D02*
X138684819Y-98120833D01*
X137637200Y-98358928D02*
X138351485Y-98597023D01*
X138351485Y-98597023D02*
X138351485Y-97977976D01*
X151444642Y-81449819D02*
X151111309Y-80973628D01*
X150873214Y-81449819D02*
X150873214Y-80449819D01*
X150873214Y-80449819D02*
X151254166Y-80449819D01*
X151254166Y-80449819D02*
X151349404Y-80497438D01*
X151349404Y-80497438D02*
X151397023Y-80545057D01*
X151397023Y-80545057D02*
X151444642Y-80640295D01*
X151444642Y-80640295D02*
X151444642Y-80783152D01*
X151444642Y-80783152D02*
X151397023Y-80878390D01*
X151397023Y-80878390D02*
X151349404Y-80926009D01*
X151349404Y-80926009D02*
X151254166Y-80973628D01*
X151254166Y-80973628D02*
X150873214Y-80973628D01*
X151825595Y-80545057D02*
X151873214Y-80497438D01*
X151873214Y-80497438D02*
X151968452Y-80449819D01*
X151968452Y-80449819D02*
X152206547Y-80449819D01*
X152206547Y-80449819D02*
X152301785Y-80497438D01*
X152301785Y-80497438D02*
X152349404Y-80545057D01*
X152349404Y-80545057D02*
X152397023Y-80640295D01*
X152397023Y-80640295D02*
X152397023Y-80735533D01*
X152397023Y-80735533D02*
X152349404Y-80878390D01*
X152349404Y-80878390D02*
X151777976Y-81449819D01*
X151777976Y-81449819D02*
X152397023Y-81449819D01*
X153349404Y-81449819D02*
X152777976Y-81449819D01*
X153063690Y-81449819D02*
X153063690Y-80449819D01*
X153063690Y-80449819D02*
X152968452Y-80592676D01*
X152968452Y-80592676D02*
X152873214Y-80687914D01*
X152873214Y-80687914D02*
X152777976Y-80735533D01*
X157683333Y-125004819D02*
X157350000Y-124528628D01*
X157111905Y-125004819D02*
X157111905Y-124004819D01*
X157111905Y-124004819D02*
X157492857Y-124004819D01*
X157492857Y-124004819D02*
X157588095Y-124052438D01*
X157588095Y-124052438D02*
X157635714Y-124100057D01*
X157635714Y-124100057D02*
X157683333Y-124195295D01*
X157683333Y-124195295D02*
X157683333Y-124338152D01*
X157683333Y-124338152D02*
X157635714Y-124433390D01*
X157635714Y-124433390D02*
X157588095Y-124481009D01*
X157588095Y-124481009D02*
X157492857Y-124528628D01*
X157492857Y-124528628D02*
X157111905Y-124528628D01*
X158540476Y-124004819D02*
X158350000Y-124004819D01*
X158350000Y-124004819D02*
X158254762Y-124052438D01*
X158254762Y-124052438D02*
X158207143Y-124100057D01*
X158207143Y-124100057D02*
X158111905Y-124242914D01*
X158111905Y-124242914D02*
X158064286Y-124433390D01*
X158064286Y-124433390D02*
X158064286Y-124814342D01*
X158064286Y-124814342D02*
X158111905Y-124909580D01*
X158111905Y-124909580D02*
X158159524Y-124957200D01*
X158159524Y-124957200D02*
X158254762Y-125004819D01*
X158254762Y-125004819D02*
X158445238Y-125004819D01*
X158445238Y-125004819D02*
X158540476Y-124957200D01*
X158540476Y-124957200D02*
X158588095Y-124909580D01*
X158588095Y-124909580D02*
X158635714Y-124814342D01*
X158635714Y-124814342D02*
X158635714Y-124576247D01*
X158635714Y-124576247D02*
X158588095Y-124481009D01*
X158588095Y-124481009D02*
X158540476Y-124433390D01*
X158540476Y-124433390D02*
X158445238Y-124385771D01*
X158445238Y-124385771D02*
X158254762Y-124385771D01*
X158254762Y-124385771D02*
X158159524Y-124433390D01*
X158159524Y-124433390D02*
X158111905Y-124481009D01*
X158111905Y-124481009D02*
X158064286Y-124576247D01*
X136589580Y-99454166D02*
X136637200Y-99501785D01*
X136637200Y-99501785D02*
X136684819Y-99644642D01*
X136684819Y-99644642D02*
X136684819Y-99739880D01*
X136684819Y-99739880D02*
X136637200Y-99882737D01*
X136637200Y-99882737D02*
X136541961Y-99977975D01*
X136541961Y-99977975D02*
X136446723Y-100025594D01*
X136446723Y-100025594D02*
X136256247Y-100073213D01*
X136256247Y-100073213D02*
X136113390Y-100073213D01*
X136113390Y-100073213D02*
X135922914Y-100025594D01*
X135922914Y-100025594D02*
X135827676Y-99977975D01*
X135827676Y-99977975D02*
X135732438Y-99882737D01*
X135732438Y-99882737D02*
X135684819Y-99739880D01*
X135684819Y-99739880D02*
X135684819Y-99644642D01*
X135684819Y-99644642D02*
X135732438Y-99501785D01*
X135732438Y-99501785D02*
X135780057Y-99454166D01*
X135684819Y-99120832D02*
X135684819Y-98501785D01*
X135684819Y-98501785D02*
X136065771Y-98835118D01*
X136065771Y-98835118D02*
X136065771Y-98692261D01*
X136065771Y-98692261D02*
X136113390Y-98597023D01*
X136113390Y-98597023D02*
X136161009Y-98549404D01*
X136161009Y-98549404D02*
X136256247Y-98501785D01*
X136256247Y-98501785D02*
X136494342Y-98501785D01*
X136494342Y-98501785D02*
X136589580Y-98549404D01*
X136589580Y-98549404D02*
X136637200Y-98597023D01*
X136637200Y-98597023D02*
X136684819Y-98692261D01*
X136684819Y-98692261D02*
X136684819Y-98977975D01*
X136684819Y-98977975D02*
X136637200Y-99073213D01*
X136637200Y-99073213D02*
X136589580Y-99120832D01*
X135107142Y-101624819D02*
X134773809Y-101148628D01*
X134535714Y-101624819D02*
X134535714Y-100624819D01*
X134535714Y-100624819D02*
X134916666Y-100624819D01*
X134916666Y-100624819D02*
X135011904Y-100672438D01*
X135011904Y-100672438D02*
X135059523Y-100720057D01*
X135059523Y-100720057D02*
X135107142Y-100815295D01*
X135107142Y-100815295D02*
X135107142Y-100958152D01*
X135107142Y-100958152D02*
X135059523Y-101053390D01*
X135059523Y-101053390D02*
X135011904Y-101101009D01*
X135011904Y-101101009D02*
X134916666Y-101148628D01*
X134916666Y-101148628D02*
X134535714Y-101148628D01*
X136059523Y-101624819D02*
X135488095Y-101624819D01*
X135773809Y-101624819D02*
X135773809Y-100624819D01*
X135773809Y-100624819D02*
X135678571Y-100767676D01*
X135678571Y-100767676D02*
X135583333Y-100862914D01*
X135583333Y-100862914D02*
X135488095Y-100910533D01*
X136392857Y-100624819D02*
X137011904Y-100624819D01*
X137011904Y-100624819D02*
X136678571Y-101005771D01*
X136678571Y-101005771D02*
X136821428Y-101005771D01*
X136821428Y-101005771D02*
X136916666Y-101053390D01*
X136916666Y-101053390D02*
X136964285Y-101101009D01*
X136964285Y-101101009D02*
X137011904Y-101196247D01*
X137011904Y-101196247D02*
X137011904Y-101434342D01*
X137011904Y-101434342D02*
X136964285Y-101529580D01*
X136964285Y-101529580D02*
X136916666Y-101577200D01*
X136916666Y-101577200D02*
X136821428Y-101624819D01*
X136821428Y-101624819D02*
X136535714Y-101624819D01*
X136535714Y-101624819D02*
X136440476Y-101577200D01*
X136440476Y-101577200D02*
X136392857Y-101529580D01*
X135839819Y-80009523D02*
X136554104Y-80009523D01*
X136554104Y-80009523D02*
X136696961Y-80057142D01*
X136696961Y-80057142D02*
X136792200Y-80152380D01*
X136792200Y-80152380D02*
X136839819Y-80295237D01*
X136839819Y-80295237D02*
X136839819Y-80390475D01*
X136839819Y-79009523D02*
X136839819Y-79580951D01*
X136839819Y-79295237D02*
X135839819Y-79295237D01*
X135839819Y-79295237D02*
X135982676Y-79390475D01*
X135982676Y-79390475D02*
X136077914Y-79485713D01*
X136077914Y-79485713D02*
X136125533Y-79580951D01*
X136173152Y-78152380D02*
X136839819Y-78152380D01*
X135792200Y-78390475D02*
X136506485Y-78628570D01*
X136506485Y-78628570D02*
X136506485Y-78009523D01*
X152319642Y-124249819D02*
X151986309Y-123773628D01*
X151748214Y-124249819D02*
X151748214Y-123249819D01*
X151748214Y-123249819D02*
X152129166Y-123249819D01*
X152129166Y-123249819D02*
X152224404Y-123297438D01*
X152224404Y-123297438D02*
X152272023Y-123345057D01*
X152272023Y-123345057D02*
X152319642Y-123440295D01*
X152319642Y-123440295D02*
X152319642Y-123583152D01*
X152319642Y-123583152D02*
X152272023Y-123678390D01*
X152272023Y-123678390D02*
X152224404Y-123726009D01*
X152224404Y-123726009D02*
X152129166Y-123773628D01*
X152129166Y-123773628D02*
X151748214Y-123773628D01*
X153272023Y-124249819D02*
X152700595Y-124249819D01*
X152986309Y-124249819D02*
X152986309Y-123249819D01*
X152986309Y-123249819D02*
X152891071Y-123392676D01*
X152891071Y-123392676D02*
X152795833Y-123487914D01*
X152795833Y-123487914D02*
X152700595Y-123535533D01*
X153748214Y-124249819D02*
X153938690Y-124249819D01*
X153938690Y-124249819D02*
X154033928Y-124202200D01*
X154033928Y-124202200D02*
X154081547Y-124154580D01*
X154081547Y-124154580D02*
X154176785Y-124011723D01*
X154176785Y-124011723D02*
X154224404Y-123821247D01*
X154224404Y-123821247D02*
X154224404Y-123440295D01*
X154224404Y-123440295D02*
X154176785Y-123345057D01*
X154176785Y-123345057D02*
X154129166Y-123297438D01*
X154129166Y-123297438D02*
X154033928Y-123249819D01*
X154033928Y-123249819D02*
X153843452Y-123249819D01*
X153843452Y-123249819D02*
X153748214Y-123297438D01*
X153748214Y-123297438D02*
X153700595Y-123345057D01*
X153700595Y-123345057D02*
X153652976Y-123440295D01*
X153652976Y-123440295D02*
X153652976Y-123678390D01*
X153652976Y-123678390D02*
X153700595Y-123773628D01*
X153700595Y-123773628D02*
X153748214Y-123821247D01*
X153748214Y-123821247D02*
X153843452Y-123868866D01*
X153843452Y-123868866D02*
X154033928Y-123868866D01*
X154033928Y-123868866D02*
X154129166Y-123821247D01*
X154129166Y-123821247D02*
X154176785Y-123773628D01*
X154176785Y-123773628D02*
X154224404Y-123678390D01*
X130266668Y-100907200D02*
X130409525Y-100954819D01*
X130409525Y-100954819D02*
X130647620Y-100954819D01*
X130647620Y-100954819D02*
X130742858Y-100907200D01*
X130742858Y-100907200D02*
X130790477Y-100859580D01*
X130790477Y-100859580D02*
X130838096Y-100764342D01*
X130838096Y-100764342D02*
X130838096Y-100669104D01*
X130838096Y-100669104D02*
X130790477Y-100573866D01*
X130790477Y-100573866D02*
X130742858Y-100526247D01*
X130742858Y-100526247D02*
X130647620Y-100478628D01*
X130647620Y-100478628D02*
X130457144Y-100431009D01*
X130457144Y-100431009D02*
X130361906Y-100383390D01*
X130361906Y-100383390D02*
X130314287Y-100335771D01*
X130314287Y-100335771D02*
X130266668Y-100240533D01*
X130266668Y-100240533D02*
X130266668Y-100145295D01*
X130266668Y-100145295D02*
X130314287Y-100050057D01*
X130314287Y-100050057D02*
X130361906Y-100002438D01*
X130361906Y-100002438D02*
X130457144Y-99954819D01*
X130457144Y-99954819D02*
X130695239Y-99954819D01*
X130695239Y-99954819D02*
X130838096Y-100002438D01*
X131171430Y-99954819D02*
X131409525Y-100954819D01*
X131409525Y-100954819D02*
X131600001Y-100240533D01*
X131600001Y-100240533D02*
X131790477Y-100954819D01*
X131790477Y-100954819D02*
X132028573Y-99954819D01*
X132885715Y-99954819D02*
X132409525Y-99954819D01*
X132409525Y-99954819D02*
X132361906Y-100431009D01*
X132361906Y-100431009D02*
X132409525Y-100383390D01*
X132409525Y-100383390D02*
X132504763Y-100335771D01*
X132504763Y-100335771D02*
X132742858Y-100335771D01*
X132742858Y-100335771D02*
X132838096Y-100383390D01*
X132838096Y-100383390D02*
X132885715Y-100431009D01*
X132885715Y-100431009D02*
X132933334Y-100526247D01*
X132933334Y-100526247D02*
X132933334Y-100764342D01*
X132933334Y-100764342D02*
X132885715Y-100859580D01*
X132885715Y-100859580D02*
X132838096Y-100907200D01*
X132838096Y-100907200D02*
X132742858Y-100954819D01*
X132742858Y-100954819D02*
X132504763Y-100954819D01*
X132504763Y-100954819D02*
X132409525Y-100907200D01*
X132409525Y-100907200D02*
X132361906Y-100859580D01*
X133139580Y-121455357D02*
X133187200Y-121502976D01*
X133187200Y-121502976D02*
X133234819Y-121645833D01*
X133234819Y-121645833D02*
X133234819Y-121741071D01*
X133234819Y-121741071D02*
X133187200Y-121883928D01*
X133187200Y-121883928D02*
X133091961Y-121979166D01*
X133091961Y-121979166D02*
X132996723Y-122026785D01*
X132996723Y-122026785D02*
X132806247Y-122074404D01*
X132806247Y-122074404D02*
X132663390Y-122074404D01*
X132663390Y-122074404D02*
X132472914Y-122026785D01*
X132472914Y-122026785D02*
X132377676Y-121979166D01*
X132377676Y-121979166D02*
X132282438Y-121883928D01*
X132282438Y-121883928D02*
X132234819Y-121741071D01*
X132234819Y-121741071D02*
X132234819Y-121645833D01*
X132234819Y-121645833D02*
X132282438Y-121502976D01*
X132282438Y-121502976D02*
X132330057Y-121455357D01*
X133234819Y-120502976D02*
X133234819Y-121074404D01*
X133234819Y-120788690D02*
X132234819Y-120788690D01*
X132234819Y-120788690D02*
X132377676Y-120883928D01*
X132377676Y-120883928D02*
X132472914Y-120979166D01*
X132472914Y-120979166D02*
X132520533Y-121074404D01*
X133234819Y-119550595D02*
X133234819Y-120122023D01*
X133234819Y-119836309D02*
X132234819Y-119836309D01*
X132234819Y-119836309D02*
X132377676Y-119931547D01*
X132377676Y-119931547D02*
X132472914Y-120026785D01*
X132472914Y-120026785D02*
X132520533Y-120122023D01*
X128554580Y-120979166D02*
X128602200Y-121026785D01*
X128602200Y-121026785D02*
X128649819Y-121169642D01*
X128649819Y-121169642D02*
X128649819Y-121264880D01*
X128649819Y-121264880D02*
X128602200Y-121407737D01*
X128602200Y-121407737D02*
X128506961Y-121502975D01*
X128506961Y-121502975D02*
X128411723Y-121550594D01*
X128411723Y-121550594D02*
X128221247Y-121598213D01*
X128221247Y-121598213D02*
X128078390Y-121598213D01*
X128078390Y-121598213D02*
X127887914Y-121550594D01*
X127887914Y-121550594D02*
X127792676Y-121502975D01*
X127792676Y-121502975D02*
X127697438Y-121407737D01*
X127697438Y-121407737D02*
X127649819Y-121264880D01*
X127649819Y-121264880D02*
X127649819Y-121169642D01*
X127649819Y-121169642D02*
X127697438Y-121026785D01*
X127697438Y-121026785D02*
X127745057Y-120979166D01*
X127649819Y-120122023D02*
X127649819Y-120312499D01*
X127649819Y-120312499D02*
X127697438Y-120407737D01*
X127697438Y-120407737D02*
X127745057Y-120455356D01*
X127745057Y-120455356D02*
X127887914Y-120550594D01*
X127887914Y-120550594D02*
X128078390Y-120598213D01*
X128078390Y-120598213D02*
X128459342Y-120598213D01*
X128459342Y-120598213D02*
X128554580Y-120550594D01*
X128554580Y-120550594D02*
X128602200Y-120502975D01*
X128602200Y-120502975D02*
X128649819Y-120407737D01*
X128649819Y-120407737D02*
X128649819Y-120217261D01*
X128649819Y-120217261D02*
X128602200Y-120122023D01*
X128602200Y-120122023D02*
X128554580Y-120074404D01*
X128554580Y-120074404D02*
X128459342Y-120026785D01*
X128459342Y-120026785D02*
X128221247Y-120026785D01*
X128221247Y-120026785D02*
X128126009Y-120074404D01*
X128126009Y-120074404D02*
X128078390Y-120122023D01*
X128078390Y-120122023D02*
X128030771Y-120217261D01*
X128030771Y-120217261D02*
X128030771Y-120407737D01*
X128030771Y-120407737D02*
X128078390Y-120502975D01*
X128078390Y-120502975D02*
X128126009Y-120550594D01*
X128126009Y-120550594D02*
X128221247Y-120598213D01*
X143784700Y-135440832D02*
X143832319Y-135297975D01*
X143832319Y-135297975D02*
X143832319Y-135059880D01*
X143832319Y-135059880D02*
X143784700Y-134964642D01*
X143784700Y-134964642D02*
X143737080Y-134917023D01*
X143737080Y-134917023D02*
X143641842Y-134869404D01*
X143641842Y-134869404D02*
X143546604Y-134869404D01*
X143546604Y-134869404D02*
X143451366Y-134917023D01*
X143451366Y-134917023D02*
X143403747Y-134964642D01*
X143403747Y-134964642D02*
X143356128Y-135059880D01*
X143356128Y-135059880D02*
X143308509Y-135250356D01*
X143308509Y-135250356D02*
X143260890Y-135345594D01*
X143260890Y-135345594D02*
X143213271Y-135393213D01*
X143213271Y-135393213D02*
X143118033Y-135440832D01*
X143118033Y-135440832D02*
X143022795Y-135440832D01*
X143022795Y-135440832D02*
X142927557Y-135393213D01*
X142927557Y-135393213D02*
X142879938Y-135345594D01*
X142879938Y-135345594D02*
X142832319Y-135250356D01*
X142832319Y-135250356D02*
X142832319Y-135012261D01*
X142832319Y-135012261D02*
X142879938Y-134869404D01*
X142832319Y-134536070D02*
X143832319Y-134297975D01*
X143832319Y-134297975D02*
X143118033Y-134107499D01*
X143118033Y-134107499D02*
X143832319Y-133917023D01*
X143832319Y-133917023D02*
X142832319Y-133678928D01*
X143165652Y-132869404D02*
X143832319Y-132869404D01*
X142784700Y-133107499D02*
X143498985Y-133345594D01*
X143498985Y-133345594D02*
X143498985Y-132726547D01*
X157036905Y-139284819D02*
X157036905Y-138284819D01*
X157036905Y-138284819D02*
X157275000Y-138284819D01*
X157275000Y-138284819D02*
X157417857Y-138332438D01*
X157417857Y-138332438D02*
X157513095Y-138427676D01*
X157513095Y-138427676D02*
X157560714Y-138522914D01*
X157560714Y-138522914D02*
X157608333Y-138713390D01*
X157608333Y-138713390D02*
X157608333Y-138856247D01*
X157608333Y-138856247D02*
X157560714Y-139046723D01*
X157560714Y-139046723D02*
X157513095Y-139141961D01*
X157513095Y-139141961D02*
X157417857Y-139237200D01*
X157417857Y-139237200D02*
X157275000Y-139284819D01*
X157275000Y-139284819D02*
X157036905Y-139284819D01*
X158513095Y-138284819D02*
X158036905Y-138284819D01*
X158036905Y-138284819D02*
X157989286Y-138761009D01*
X157989286Y-138761009D02*
X158036905Y-138713390D01*
X158036905Y-138713390D02*
X158132143Y-138665771D01*
X158132143Y-138665771D02*
X158370238Y-138665771D01*
X158370238Y-138665771D02*
X158465476Y-138713390D01*
X158465476Y-138713390D02*
X158513095Y-138761009D01*
X158513095Y-138761009D02*
X158560714Y-138856247D01*
X158560714Y-138856247D02*
X158560714Y-139094342D01*
X158560714Y-139094342D02*
X158513095Y-139189580D01*
X158513095Y-139189580D02*
X158465476Y-139237200D01*
X158465476Y-139237200D02*
X158370238Y-139284819D01*
X158370238Y-139284819D02*
X158132143Y-139284819D01*
X158132143Y-139284819D02*
X158036905Y-139237200D01*
X158036905Y-139237200D02*
X157989286Y-139189580D01*
X197701309Y-167373628D02*
X197701309Y-167849819D01*
X197367976Y-166849819D02*
X197701309Y-167373628D01*
X197701309Y-167373628D02*
X198034642Y-166849819D01*
X198320357Y-166945057D02*
X198367976Y-166897438D01*
X198367976Y-166897438D02*
X198463214Y-166849819D01*
X198463214Y-166849819D02*
X198701309Y-166849819D01*
X198701309Y-166849819D02*
X198796547Y-166897438D01*
X198796547Y-166897438D02*
X198844166Y-166945057D01*
X198844166Y-166945057D02*
X198891785Y-167040295D01*
X198891785Y-167040295D02*
X198891785Y-167135533D01*
X198891785Y-167135533D02*
X198844166Y-167278390D01*
X198844166Y-167278390D02*
X198272738Y-167849819D01*
X198272738Y-167849819D02*
X198891785Y-167849819D01*
X157440476Y-97114819D02*
X157440476Y-97829104D01*
X157440476Y-97829104D02*
X157392857Y-97971961D01*
X157392857Y-97971961D02*
X157297619Y-98067200D01*
X157297619Y-98067200D02*
X157154762Y-98114819D01*
X157154762Y-98114819D02*
X157059524Y-98114819D01*
X158440476Y-98114819D02*
X157869048Y-98114819D01*
X158154762Y-98114819D02*
X158154762Y-97114819D01*
X158154762Y-97114819D02*
X158059524Y-97257676D01*
X158059524Y-97257676D02*
X157964286Y-97352914D01*
X157964286Y-97352914D02*
X157869048Y-97400533D01*
X158773810Y-97114819D02*
X159392857Y-97114819D01*
X159392857Y-97114819D02*
X159059524Y-97495771D01*
X159059524Y-97495771D02*
X159202381Y-97495771D01*
X159202381Y-97495771D02*
X159297619Y-97543390D01*
X159297619Y-97543390D02*
X159345238Y-97591009D01*
X159345238Y-97591009D02*
X159392857Y-97686247D01*
X159392857Y-97686247D02*
X159392857Y-97924342D01*
X159392857Y-97924342D02*
X159345238Y-98019580D01*
X159345238Y-98019580D02*
X159297619Y-98067200D01*
X159297619Y-98067200D02*
X159202381Y-98114819D01*
X159202381Y-98114819D02*
X158916667Y-98114819D01*
X158916667Y-98114819D02*
X158821429Y-98067200D01*
X158821429Y-98067200D02*
X158773810Y-98019580D01*
X168154580Y-113305357D02*
X168202200Y-113352976D01*
X168202200Y-113352976D02*
X168249819Y-113495833D01*
X168249819Y-113495833D02*
X168249819Y-113591071D01*
X168249819Y-113591071D02*
X168202200Y-113733928D01*
X168202200Y-113733928D02*
X168106961Y-113829166D01*
X168106961Y-113829166D02*
X168011723Y-113876785D01*
X168011723Y-113876785D02*
X167821247Y-113924404D01*
X167821247Y-113924404D02*
X167678390Y-113924404D01*
X167678390Y-113924404D02*
X167487914Y-113876785D01*
X167487914Y-113876785D02*
X167392676Y-113829166D01*
X167392676Y-113829166D02*
X167297438Y-113733928D01*
X167297438Y-113733928D02*
X167249819Y-113591071D01*
X167249819Y-113591071D02*
X167249819Y-113495833D01*
X167249819Y-113495833D02*
X167297438Y-113352976D01*
X167297438Y-113352976D02*
X167345057Y-113305357D01*
X168249819Y-112352976D02*
X168249819Y-112924404D01*
X168249819Y-112638690D02*
X167249819Y-112638690D01*
X167249819Y-112638690D02*
X167392676Y-112733928D01*
X167392676Y-112733928D02*
X167487914Y-112829166D01*
X167487914Y-112829166D02*
X167535533Y-112924404D01*
X167345057Y-111972023D02*
X167297438Y-111924404D01*
X167297438Y-111924404D02*
X167249819Y-111829166D01*
X167249819Y-111829166D02*
X167249819Y-111591071D01*
X167249819Y-111591071D02*
X167297438Y-111495833D01*
X167297438Y-111495833D02*
X167345057Y-111448214D01*
X167345057Y-111448214D02*
X167440295Y-111400595D01*
X167440295Y-111400595D02*
X167535533Y-111400595D01*
X167535533Y-111400595D02*
X167678390Y-111448214D01*
X167678390Y-111448214D02*
X168249819Y-112019642D01*
X168249819Y-112019642D02*
X168249819Y-111400595D01*
X178059819Y-122509523D02*
X178774104Y-122509523D01*
X178774104Y-122509523D02*
X178916961Y-122557142D01*
X178916961Y-122557142D02*
X179012200Y-122652380D01*
X179012200Y-122652380D02*
X179059819Y-122795237D01*
X179059819Y-122795237D02*
X179059819Y-122890475D01*
X179059819Y-121509523D02*
X179059819Y-122080951D01*
X179059819Y-121795237D02*
X178059819Y-121795237D01*
X178059819Y-121795237D02*
X178202676Y-121890475D01*
X178202676Y-121890475D02*
X178297914Y-121985713D01*
X178297914Y-121985713D02*
X178345533Y-122080951D01*
X178155057Y-121128570D02*
X178107438Y-121080951D01*
X178107438Y-121080951D02*
X178059819Y-120985713D01*
X178059819Y-120985713D02*
X178059819Y-120747618D01*
X178059819Y-120747618D02*
X178107438Y-120652380D01*
X178107438Y-120652380D02*
X178155057Y-120604761D01*
X178155057Y-120604761D02*
X178250295Y-120557142D01*
X178250295Y-120557142D02*
X178345533Y-120557142D01*
X178345533Y-120557142D02*
X178488390Y-120604761D01*
X178488390Y-120604761D02*
X179059819Y-121176189D01*
X179059819Y-121176189D02*
X179059819Y-120557142D01*
X191433333Y-125004819D02*
X191100000Y-124528628D01*
X190861905Y-125004819D02*
X190861905Y-124004819D01*
X190861905Y-124004819D02*
X191242857Y-124004819D01*
X191242857Y-124004819D02*
X191338095Y-124052438D01*
X191338095Y-124052438D02*
X191385714Y-124100057D01*
X191385714Y-124100057D02*
X191433333Y-124195295D01*
X191433333Y-124195295D02*
X191433333Y-124338152D01*
X191433333Y-124338152D02*
X191385714Y-124433390D01*
X191385714Y-124433390D02*
X191338095Y-124481009D01*
X191338095Y-124481009D02*
X191242857Y-124528628D01*
X191242857Y-124528628D02*
X190861905Y-124528628D01*
X192004762Y-124433390D02*
X191909524Y-124385771D01*
X191909524Y-124385771D02*
X191861905Y-124338152D01*
X191861905Y-124338152D02*
X191814286Y-124242914D01*
X191814286Y-124242914D02*
X191814286Y-124195295D01*
X191814286Y-124195295D02*
X191861905Y-124100057D01*
X191861905Y-124100057D02*
X191909524Y-124052438D01*
X191909524Y-124052438D02*
X192004762Y-124004819D01*
X192004762Y-124004819D02*
X192195238Y-124004819D01*
X192195238Y-124004819D02*
X192290476Y-124052438D01*
X192290476Y-124052438D02*
X192338095Y-124100057D01*
X192338095Y-124100057D02*
X192385714Y-124195295D01*
X192385714Y-124195295D02*
X192385714Y-124242914D01*
X192385714Y-124242914D02*
X192338095Y-124338152D01*
X192338095Y-124338152D02*
X192290476Y-124385771D01*
X192290476Y-124385771D02*
X192195238Y-124433390D01*
X192195238Y-124433390D02*
X192004762Y-124433390D01*
X192004762Y-124433390D02*
X191909524Y-124481009D01*
X191909524Y-124481009D02*
X191861905Y-124528628D01*
X191861905Y-124528628D02*
X191814286Y-124623866D01*
X191814286Y-124623866D02*
X191814286Y-124814342D01*
X191814286Y-124814342D02*
X191861905Y-124909580D01*
X191861905Y-124909580D02*
X191909524Y-124957200D01*
X191909524Y-124957200D02*
X192004762Y-125004819D01*
X192004762Y-125004819D02*
X192195238Y-125004819D01*
X192195238Y-125004819D02*
X192290476Y-124957200D01*
X192290476Y-124957200D02*
X192338095Y-124909580D01*
X192338095Y-124909580D02*
X192385714Y-124814342D01*
X192385714Y-124814342D02*
X192385714Y-124623866D01*
X192385714Y-124623866D02*
X192338095Y-124528628D01*
X192338095Y-124528628D02*
X192290476Y-124481009D01*
X192290476Y-124481009D02*
X192195238Y-124433390D01*
X177534700Y-135440832D02*
X177582319Y-135297975D01*
X177582319Y-135297975D02*
X177582319Y-135059880D01*
X177582319Y-135059880D02*
X177534700Y-134964642D01*
X177534700Y-134964642D02*
X177487080Y-134917023D01*
X177487080Y-134917023D02*
X177391842Y-134869404D01*
X177391842Y-134869404D02*
X177296604Y-134869404D01*
X177296604Y-134869404D02*
X177201366Y-134917023D01*
X177201366Y-134917023D02*
X177153747Y-134964642D01*
X177153747Y-134964642D02*
X177106128Y-135059880D01*
X177106128Y-135059880D02*
X177058509Y-135250356D01*
X177058509Y-135250356D02*
X177010890Y-135345594D01*
X177010890Y-135345594D02*
X176963271Y-135393213D01*
X176963271Y-135393213D02*
X176868033Y-135440832D01*
X176868033Y-135440832D02*
X176772795Y-135440832D01*
X176772795Y-135440832D02*
X176677557Y-135393213D01*
X176677557Y-135393213D02*
X176629938Y-135345594D01*
X176629938Y-135345594D02*
X176582319Y-135250356D01*
X176582319Y-135250356D02*
X176582319Y-135012261D01*
X176582319Y-135012261D02*
X176629938Y-134869404D01*
X176582319Y-134536070D02*
X177582319Y-134297975D01*
X177582319Y-134297975D02*
X176868033Y-134107499D01*
X176868033Y-134107499D02*
X177582319Y-133917023D01*
X177582319Y-133917023D02*
X176582319Y-133678928D01*
X176582319Y-132869404D02*
X176582319Y-133059880D01*
X176582319Y-133059880D02*
X176629938Y-133155118D01*
X176629938Y-133155118D02*
X176677557Y-133202737D01*
X176677557Y-133202737D02*
X176820414Y-133297975D01*
X176820414Y-133297975D02*
X177010890Y-133345594D01*
X177010890Y-133345594D02*
X177391842Y-133345594D01*
X177391842Y-133345594D02*
X177487080Y-133297975D01*
X177487080Y-133297975D02*
X177534700Y-133250356D01*
X177534700Y-133250356D02*
X177582319Y-133155118D01*
X177582319Y-133155118D02*
X177582319Y-132964642D01*
X177582319Y-132964642D02*
X177534700Y-132869404D01*
X177534700Y-132869404D02*
X177487080Y-132821785D01*
X177487080Y-132821785D02*
X177391842Y-132774166D01*
X177391842Y-132774166D02*
X177153747Y-132774166D01*
X177153747Y-132774166D02*
X177058509Y-132821785D01*
X177058509Y-132821785D02*
X177010890Y-132869404D01*
X177010890Y-132869404D02*
X176963271Y-132964642D01*
X176963271Y-132964642D02*
X176963271Y-133155118D01*
X176963271Y-133155118D02*
X177010890Y-133250356D01*
X177010890Y-133250356D02*
X177058509Y-133297975D01*
X177058509Y-133297975D02*
X177153747Y-133345594D01*
X185816666Y-78579819D02*
X185816666Y-79294104D01*
X185816666Y-79294104D02*
X185769047Y-79436961D01*
X185769047Y-79436961D02*
X185673809Y-79532200D01*
X185673809Y-79532200D02*
X185530952Y-79579819D01*
X185530952Y-79579819D02*
X185435714Y-79579819D01*
X186721428Y-78579819D02*
X186530952Y-78579819D01*
X186530952Y-78579819D02*
X186435714Y-78627438D01*
X186435714Y-78627438D02*
X186388095Y-78675057D01*
X186388095Y-78675057D02*
X186292857Y-78817914D01*
X186292857Y-78817914D02*
X186245238Y-79008390D01*
X186245238Y-79008390D02*
X186245238Y-79389342D01*
X186245238Y-79389342D02*
X186292857Y-79484580D01*
X186292857Y-79484580D02*
X186340476Y-79532200D01*
X186340476Y-79532200D02*
X186435714Y-79579819D01*
X186435714Y-79579819D02*
X186626190Y-79579819D01*
X186626190Y-79579819D02*
X186721428Y-79532200D01*
X186721428Y-79532200D02*
X186769047Y-79484580D01*
X186769047Y-79484580D02*
X186816666Y-79389342D01*
X186816666Y-79389342D02*
X186816666Y-79151247D01*
X186816666Y-79151247D02*
X186769047Y-79056009D01*
X186769047Y-79056009D02*
X186721428Y-79008390D01*
X186721428Y-79008390D02*
X186626190Y-78960771D01*
X186626190Y-78960771D02*
X186435714Y-78960771D01*
X186435714Y-78960771D02*
X186340476Y-79008390D01*
X186340476Y-79008390D02*
X186292857Y-79056009D01*
X186292857Y-79056009D02*
X186245238Y-79151247D01*
X191395833Y-132274819D02*
X191062500Y-131798628D01*
X190824405Y-132274819D02*
X190824405Y-131274819D01*
X190824405Y-131274819D02*
X191205357Y-131274819D01*
X191205357Y-131274819D02*
X191300595Y-131322438D01*
X191300595Y-131322438D02*
X191348214Y-131370057D01*
X191348214Y-131370057D02*
X191395833Y-131465295D01*
X191395833Y-131465295D02*
X191395833Y-131608152D01*
X191395833Y-131608152D02*
X191348214Y-131703390D01*
X191348214Y-131703390D02*
X191300595Y-131751009D01*
X191300595Y-131751009D02*
X191205357Y-131798628D01*
X191205357Y-131798628D02*
X190824405Y-131798628D01*
X191729167Y-131274819D02*
X192395833Y-131274819D01*
X192395833Y-131274819D02*
X191967262Y-132274819D01*
X170339580Y-99454166D02*
X170387200Y-99501785D01*
X170387200Y-99501785D02*
X170434819Y-99644642D01*
X170434819Y-99644642D02*
X170434819Y-99739880D01*
X170434819Y-99739880D02*
X170387200Y-99882737D01*
X170387200Y-99882737D02*
X170291961Y-99977975D01*
X170291961Y-99977975D02*
X170196723Y-100025594D01*
X170196723Y-100025594D02*
X170006247Y-100073213D01*
X170006247Y-100073213D02*
X169863390Y-100073213D01*
X169863390Y-100073213D02*
X169672914Y-100025594D01*
X169672914Y-100025594D02*
X169577676Y-99977975D01*
X169577676Y-99977975D02*
X169482438Y-99882737D01*
X169482438Y-99882737D02*
X169434819Y-99739880D01*
X169434819Y-99739880D02*
X169434819Y-99644642D01*
X169434819Y-99644642D02*
X169482438Y-99501785D01*
X169482438Y-99501785D02*
X169530057Y-99454166D01*
X169434819Y-98549404D02*
X169434819Y-99025594D01*
X169434819Y-99025594D02*
X169911009Y-99073213D01*
X169911009Y-99073213D02*
X169863390Y-99025594D01*
X169863390Y-99025594D02*
X169815771Y-98930356D01*
X169815771Y-98930356D02*
X169815771Y-98692261D01*
X169815771Y-98692261D02*
X169863390Y-98597023D01*
X169863390Y-98597023D02*
X169911009Y-98549404D01*
X169911009Y-98549404D02*
X170006247Y-98501785D01*
X170006247Y-98501785D02*
X170244342Y-98501785D01*
X170244342Y-98501785D02*
X170339580Y-98549404D01*
X170339580Y-98549404D02*
X170387200Y-98597023D01*
X170387200Y-98597023D02*
X170434819Y-98692261D01*
X170434819Y-98692261D02*
X170434819Y-98930356D01*
X170434819Y-98930356D02*
X170387200Y-99025594D01*
X170387200Y-99025594D02*
X170339580Y-99073213D01*
X192929819Y-120886904D02*
X193739342Y-120886904D01*
X193739342Y-120886904D02*
X193834580Y-120839285D01*
X193834580Y-120839285D02*
X193882200Y-120791666D01*
X193882200Y-120791666D02*
X193929819Y-120696428D01*
X193929819Y-120696428D02*
X193929819Y-120505952D01*
X193929819Y-120505952D02*
X193882200Y-120410714D01*
X193882200Y-120410714D02*
X193834580Y-120363095D01*
X193834580Y-120363095D02*
X193739342Y-120315476D01*
X193739342Y-120315476D02*
X192929819Y-120315476D01*
X192929819Y-119363095D02*
X192929819Y-119839285D01*
X192929819Y-119839285D02*
X193406009Y-119886904D01*
X193406009Y-119886904D02*
X193358390Y-119839285D01*
X193358390Y-119839285D02*
X193310771Y-119744047D01*
X193310771Y-119744047D02*
X193310771Y-119505952D01*
X193310771Y-119505952D02*
X193358390Y-119410714D01*
X193358390Y-119410714D02*
X193406009Y-119363095D01*
X193406009Y-119363095D02*
X193501247Y-119315476D01*
X193501247Y-119315476D02*
X193739342Y-119315476D01*
X193739342Y-119315476D02*
X193834580Y-119363095D01*
X193834580Y-119363095D02*
X193882200Y-119410714D01*
X193882200Y-119410714D02*
X193929819Y-119505952D01*
X193929819Y-119505952D02*
X193929819Y-119744047D01*
X193929819Y-119744047D02*
X193882200Y-119839285D01*
X193882200Y-119839285D02*
X193834580Y-119886904D01*
X168857142Y-101624819D02*
X168523809Y-101148628D01*
X168285714Y-101624819D02*
X168285714Y-100624819D01*
X168285714Y-100624819D02*
X168666666Y-100624819D01*
X168666666Y-100624819D02*
X168761904Y-100672438D01*
X168761904Y-100672438D02*
X168809523Y-100720057D01*
X168809523Y-100720057D02*
X168857142Y-100815295D01*
X168857142Y-100815295D02*
X168857142Y-100958152D01*
X168857142Y-100958152D02*
X168809523Y-101053390D01*
X168809523Y-101053390D02*
X168761904Y-101101009D01*
X168761904Y-101101009D02*
X168666666Y-101148628D01*
X168666666Y-101148628D02*
X168285714Y-101148628D01*
X169809523Y-101624819D02*
X169238095Y-101624819D01*
X169523809Y-101624819D02*
X169523809Y-100624819D01*
X169523809Y-100624819D02*
X169428571Y-100767676D01*
X169428571Y-100767676D02*
X169333333Y-100862914D01*
X169333333Y-100862914D02*
X169238095Y-100910533D01*
X170714285Y-100624819D02*
X170238095Y-100624819D01*
X170238095Y-100624819D02*
X170190476Y-101101009D01*
X170190476Y-101101009D02*
X170238095Y-101053390D01*
X170238095Y-101053390D02*
X170333333Y-101005771D01*
X170333333Y-101005771D02*
X170571428Y-101005771D01*
X170571428Y-101005771D02*
X170666666Y-101053390D01*
X170666666Y-101053390D02*
X170714285Y-101101009D01*
X170714285Y-101101009D02*
X170761904Y-101196247D01*
X170761904Y-101196247D02*
X170761904Y-101434342D01*
X170761904Y-101434342D02*
X170714285Y-101529580D01*
X170714285Y-101529580D02*
X170666666Y-101577200D01*
X170666666Y-101577200D02*
X170571428Y-101624819D01*
X170571428Y-101624819D02*
X170333333Y-101624819D01*
X170333333Y-101624819D02*
X170238095Y-101577200D01*
X170238095Y-101577200D02*
X170190476Y-101529580D01*
X162304580Y-120979166D02*
X162352200Y-121026785D01*
X162352200Y-121026785D02*
X162399819Y-121169642D01*
X162399819Y-121169642D02*
X162399819Y-121264880D01*
X162399819Y-121264880D02*
X162352200Y-121407737D01*
X162352200Y-121407737D02*
X162256961Y-121502975D01*
X162256961Y-121502975D02*
X162161723Y-121550594D01*
X162161723Y-121550594D02*
X161971247Y-121598213D01*
X161971247Y-121598213D02*
X161828390Y-121598213D01*
X161828390Y-121598213D02*
X161637914Y-121550594D01*
X161637914Y-121550594D02*
X161542676Y-121502975D01*
X161542676Y-121502975D02*
X161447438Y-121407737D01*
X161447438Y-121407737D02*
X161399819Y-121264880D01*
X161399819Y-121264880D02*
X161399819Y-121169642D01*
X161399819Y-121169642D02*
X161447438Y-121026785D01*
X161447438Y-121026785D02*
X161495057Y-120979166D01*
X161828390Y-120407737D02*
X161780771Y-120502975D01*
X161780771Y-120502975D02*
X161733152Y-120550594D01*
X161733152Y-120550594D02*
X161637914Y-120598213D01*
X161637914Y-120598213D02*
X161590295Y-120598213D01*
X161590295Y-120598213D02*
X161495057Y-120550594D01*
X161495057Y-120550594D02*
X161447438Y-120502975D01*
X161447438Y-120502975D02*
X161399819Y-120407737D01*
X161399819Y-120407737D02*
X161399819Y-120217261D01*
X161399819Y-120217261D02*
X161447438Y-120122023D01*
X161447438Y-120122023D02*
X161495057Y-120074404D01*
X161495057Y-120074404D02*
X161590295Y-120026785D01*
X161590295Y-120026785D02*
X161637914Y-120026785D01*
X161637914Y-120026785D02*
X161733152Y-120074404D01*
X161733152Y-120074404D02*
X161780771Y-120122023D01*
X161780771Y-120122023D02*
X161828390Y-120217261D01*
X161828390Y-120217261D02*
X161828390Y-120407737D01*
X161828390Y-120407737D02*
X161876009Y-120502975D01*
X161876009Y-120502975D02*
X161923628Y-120550594D01*
X161923628Y-120550594D02*
X162018866Y-120598213D01*
X162018866Y-120598213D02*
X162209342Y-120598213D01*
X162209342Y-120598213D02*
X162304580Y-120550594D01*
X162304580Y-120550594D02*
X162352200Y-120502975D01*
X162352200Y-120502975D02*
X162399819Y-120407737D01*
X162399819Y-120407737D02*
X162399819Y-120217261D01*
X162399819Y-120217261D02*
X162352200Y-120122023D01*
X162352200Y-120122023D02*
X162304580Y-120074404D01*
X162304580Y-120074404D02*
X162209342Y-120026785D01*
X162209342Y-120026785D02*
X162018866Y-120026785D01*
X162018866Y-120026785D02*
X161923628Y-120074404D01*
X161923628Y-120074404D02*
X161876009Y-120122023D01*
X161876009Y-120122023D02*
X161828390Y-120217261D01*
X177963095Y-107224819D02*
X177963095Y-108034342D01*
X177963095Y-108034342D02*
X178010714Y-108129580D01*
X178010714Y-108129580D02*
X178058333Y-108177200D01*
X178058333Y-108177200D02*
X178153571Y-108224819D01*
X178153571Y-108224819D02*
X178344047Y-108224819D01*
X178344047Y-108224819D02*
X178439285Y-108177200D01*
X178439285Y-108177200D02*
X178486904Y-108129580D01*
X178486904Y-108129580D02*
X178534523Y-108034342D01*
X178534523Y-108034342D02*
X178534523Y-107224819D01*
X178915476Y-107224819D02*
X179534523Y-107224819D01*
X179534523Y-107224819D02*
X179201190Y-107605771D01*
X179201190Y-107605771D02*
X179344047Y-107605771D01*
X179344047Y-107605771D02*
X179439285Y-107653390D01*
X179439285Y-107653390D02*
X179486904Y-107701009D01*
X179486904Y-107701009D02*
X179534523Y-107796247D01*
X179534523Y-107796247D02*
X179534523Y-108034342D01*
X179534523Y-108034342D02*
X179486904Y-108129580D01*
X179486904Y-108129580D02*
X179439285Y-108177200D01*
X179439285Y-108177200D02*
X179344047Y-108224819D01*
X179344047Y-108224819D02*
X179058333Y-108224819D01*
X179058333Y-108224819D02*
X178963095Y-108177200D01*
X178963095Y-108177200D02*
X178915476Y-108129580D01*
X175969642Y-80824819D02*
X175636309Y-80348628D01*
X175398214Y-80824819D02*
X175398214Y-79824819D01*
X175398214Y-79824819D02*
X175779166Y-79824819D01*
X175779166Y-79824819D02*
X175874404Y-79872438D01*
X175874404Y-79872438D02*
X175922023Y-79920057D01*
X175922023Y-79920057D02*
X175969642Y-80015295D01*
X175969642Y-80015295D02*
X175969642Y-80158152D01*
X175969642Y-80158152D02*
X175922023Y-80253390D01*
X175922023Y-80253390D02*
X175874404Y-80301009D01*
X175874404Y-80301009D02*
X175779166Y-80348628D01*
X175779166Y-80348628D02*
X175398214Y-80348628D01*
X176350595Y-79920057D02*
X176398214Y-79872438D01*
X176398214Y-79872438D02*
X176493452Y-79824819D01*
X176493452Y-79824819D02*
X176731547Y-79824819D01*
X176731547Y-79824819D02*
X176826785Y-79872438D01*
X176826785Y-79872438D02*
X176874404Y-79920057D01*
X176874404Y-79920057D02*
X176922023Y-80015295D01*
X176922023Y-80015295D02*
X176922023Y-80110533D01*
X176922023Y-80110533D02*
X176874404Y-80253390D01*
X176874404Y-80253390D02*
X176302976Y-80824819D01*
X176302976Y-80824819D02*
X176922023Y-80824819D01*
X177779166Y-79824819D02*
X177588690Y-79824819D01*
X177588690Y-79824819D02*
X177493452Y-79872438D01*
X177493452Y-79872438D02*
X177445833Y-79920057D01*
X177445833Y-79920057D02*
X177350595Y-80062914D01*
X177350595Y-80062914D02*
X177302976Y-80253390D01*
X177302976Y-80253390D02*
X177302976Y-80634342D01*
X177302976Y-80634342D02*
X177350595Y-80729580D01*
X177350595Y-80729580D02*
X177398214Y-80777200D01*
X177398214Y-80777200D02*
X177493452Y-80824819D01*
X177493452Y-80824819D02*
X177683928Y-80824819D01*
X177683928Y-80824819D02*
X177779166Y-80777200D01*
X177779166Y-80777200D02*
X177826785Y-80729580D01*
X177826785Y-80729580D02*
X177874404Y-80634342D01*
X177874404Y-80634342D02*
X177874404Y-80396247D01*
X177874404Y-80396247D02*
X177826785Y-80301009D01*
X177826785Y-80301009D02*
X177779166Y-80253390D01*
X177779166Y-80253390D02*
X177683928Y-80205771D01*
X177683928Y-80205771D02*
X177493452Y-80205771D01*
X177493452Y-80205771D02*
X177398214Y-80253390D01*
X177398214Y-80253390D02*
X177350595Y-80301009D01*
X177350595Y-80301009D02*
X177302976Y-80396247D01*
X173014580Y-112816666D02*
X173062200Y-112864285D01*
X173062200Y-112864285D02*
X173109819Y-113007142D01*
X173109819Y-113007142D02*
X173109819Y-113102380D01*
X173109819Y-113102380D02*
X173062200Y-113245237D01*
X173062200Y-113245237D02*
X172966961Y-113340475D01*
X172966961Y-113340475D02*
X172871723Y-113388094D01*
X172871723Y-113388094D02*
X172681247Y-113435713D01*
X172681247Y-113435713D02*
X172538390Y-113435713D01*
X172538390Y-113435713D02*
X172347914Y-113388094D01*
X172347914Y-113388094D02*
X172252676Y-113340475D01*
X172252676Y-113340475D02*
X172157438Y-113245237D01*
X172157438Y-113245237D02*
X172109819Y-113102380D01*
X172109819Y-113102380D02*
X172109819Y-113007142D01*
X172109819Y-113007142D02*
X172157438Y-112864285D01*
X172157438Y-112864285D02*
X172205057Y-112816666D01*
X172109819Y-112483332D02*
X172109819Y-111816666D01*
X172109819Y-111816666D02*
X173109819Y-112245237D01*
X190836905Y-132134819D02*
X190836905Y-131134819D01*
X190836905Y-131134819D02*
X191075000Y-131134819D01*
X191075000Y-131134819D02*
X191217857Y-131182438D01*
X191217857Y-131182438D02*
X191313095Y-131277676D01*
X191313095Y-131277676D02*
X191360714Y-131372914D01*
X191360714Y-131372914D02*
X191408333Y-131563390D01*
X191408333Y-131563390D02*
X191408333Y-131706247D01*
X191408333Y-131706247D02*
X191360714Y-131896723D01*
X191360714Y-131896723D02*
X191313095Y-131991961D01*
X191313095Y-131991961D02*
X191217857Y-132087200D01*
X191217857Y-132087200D02*
X191075000Y-132134819D01*
X191075000Y-132134819D02*
X190836905Y-132134819D01*
X192265476Y-131134819D02*
X192075000Y-131134819D01*
X192075000Y-131134819D02*
X191979762Y-131182438D01*
X191979762Y-131182438D02*
X191932143Y-131230057D01*
X191932143Y-131230057D02*
X191836905Y-131372914D01*
X191836905Y-131372914D02*
X191789286Y-131563390D01*
X191789286Y-131563390D02*
X191789286Y-131944342D01*
X191789286Y-131944342D02*
X191836905Y-132039580D01*
X191836905Y-132039580D02*
X191884524Y-132087200D01*
X191884524Y-132087200D02*
X191979762Y-132134819D01*
X191979762Y-132134819D02*
X192170238Y-132134819D01*
X192170238Y-132134819D02*
X192265476Y-132087200D01*
X192265476Y-132087200D02*
X192313095Y-132039580D01*
X192313095Y-132039580D02*
X192360714Y-131944342D01*
X192360714Y-131944342D02*
X192360714Y-131706247D01*
X192360714Y-131706247D02*
X192313095Y-131611009D01*
X192313095Y-131611009D02*
X192265476Y-131563390D01*
X192265476Y-131563390D02*
X192170238Y-131515771D01*
X192170238Y-131515771D02*
X191979762Y-131515771D01*
X191979762Y-131515771D02*
X191884524Y-131563390D01*
X191884524Y-131563390D02*
X191836905Y-131611009D01*
X191836905Y-131611009D02*
X191789286Y-131706247D01*
X186069642Y-124249819D02*
X185736309Y-123773628D01*
X185498214Y-124249819D02*
X185498214Y-123249819D01*
X185498214Y-123249819D02*
X185879166Y-123249819D01*
X185879166Y-123249819D02*
X185974404Y-123297438D01*
X185974404Y-123297438D02*
X186022023Y-123345057D01*
X186022023Y-123345057D02*
X186069642Y-123440295D01*
X186069642Y-123440295D02*
X186069642Y-123583152D01*
X186069642Y-123583152D02*
X186022023Y-123678390D01*
X186022023Y-123678390D02*
X185974404Y-123726009D01*
X185974404Y-123726009D02*
X185879166Y-123773628D01*
X185879166Y-123773628D02*
X185498214Y-123773628D01*
X186450595Y-123345057D02*
X186498214Y-123297438D01*
X186498214Y-123297438D02*
X186593452Y-123249819D01*
X186593452Y-123249819D02*
X186831547Y-123249819D01*
X186831547Y-123249819D02*
X186926785Y-123297438D01*
X186926785Y-123297438D02*
X186974404Y-123345057D01*
X186974404Y-123345057D02*
X187022023Y-123440295D01*
X187022023Y-123440295D02*
X187022023Y-123535533D01*
X187022023Y-123535533D02*
X186974404Y-123678390D01*
X186974404Y-123678390D02*
X186402976Y-124249819D01*
X186402976Y-124249819D02*
X187022023Y-124249819D01*
X187641071Y-123249819D02*
X187736309Y-123249819D01*
X187736309Y-123249819D02*
X187831547Y-123297438D01*
X187831547Y-123297438D02*
X187879166Y-123345057D01*
X187879166Y-123345057D02*
X187926785Y-123440295D01*
X187926785Y-123440295D02*
X187974404Y-123630771D01*
X187974404Y-123630771D02*
X187974404Y-123868866D01*
X187974404Y-123868866D02*
X187926785Y-124059342D01*
X187926785Y-124059342D02*
X187879166Y-124154580D01*
X187879166Y-124154580D02*
X187831547Y-124202200D01*
X187831547Y-124202200D02*
X187736309Y-124249819D01*
X187736309Y-124249819D02*
X187641071Y-124249819D01*
X187641071Y-124249819D02*
X187545833Y-124202200D01*
X187545833Y-124202200D02*
X187498214Y-124154580D01*
X187498214Y-124154580D02*
X187450595Y-124059342D01*
X187450595Y-124059342D02*
X187402976Y-123868866D01*
X187402976Y-123868866D02*
X187402976Y-123630771D01*
X187402976Y-123630771D02*
X187450595Y-123440295D01*
X187450595Y-123440295D02*
X187498214Y-123345057D01*
X187498214Y-123345057D02*
X187545833Y-123297438D01*
X187545833Y-123297438D02*
X187641071Y-123249819D01*
X169589819Y-80009523D02*
X170304104Y-80009523D01*
X170304104Y-80009523D02*
X170446961Y-80057142D01*
X170446961Y-80057142D02*
X170542200Y-80152380D01*
X170542200Y-80152380D02*
X170589819Y-80295237D01*
X170589819Y-80295237D02*
X170589819Y-80390475D01*
X170589819Y-79009523D02*
X170589819Y-79580951D01*
X170589819Y-79295237D02*
X169589819Y-79295237D01*
X169589819Y-79295237D02*
X169732676Y-79390475D01*
X169732676Y-79390475D02*
X169827914Y-79485713D01*
X169827914Y-79485713D02*
X169875533Y-79580951D01*
X169589819Y-78676189D02*
X169589819Y-78009523D01*
X169589819Y-78009523D02*
X170589819Y-78438094D01*
X167366666Y-130369819D02*
X167366666Y-131084104D01*
X167366666Y-131084104D02*
X167319047Y-131226961D01*
X167319047Y-131226961D02*
X167223809Y-131322200D01*
X167223809Y-131322200D02*
X167080952Y-131369819D01*
X167080952Y-131369819D02*
X166985714Y-131369819D01*
X168271428Y-130703152D02*
X168271428Y-131369819D01*
X168033333Y-130322200D02*
X167795238Y-131036485D01*
X167795238Y-131036485D02*
X168414285Y-131036485D01*
X191190476Y-97114819D02*
X191190476Y-97829104D01*
X191190476Y-97829104D02*
X191142857Y-97971961D01*
X191142857Y-97971961D02*
X191047619Y-98067200D01*
X191047619Y-98067200D02*
X190904762Y-98114819D01*
X190904762Y-98114819D02*
X190809524Y-98114819D01*
X192190476Y-98114819D02*
X191619048Y-98114819D01*
X191904762Y-98114819D02*
X191904762Y-97114819D01*
X191904762Y-97114819D02*
X191809524Y-97257676D01*
X191809524Y-97257676D02*
X191714286Y-97352914D01*
X191714286Y-97352914D02*
X191619048Y-97400533D01*
X193047619Y-97114819D02*
X192857143Y-97114819D01*
X192857143Y-97114819D02*
X192761905Y-97162438D01*
X192761905Y-97162438D02*
X192714286Y-97210057D01*
X192714286Y-97210057D02*
X192619048Y-97352914D01*
X192619048Y-97352914D02*
X192571429Y-97543390D01*
X192571429Y-97543390D02*
X192571429Y-97924342D01*
X192571429Y-97924342D02*
X192619048Y-98019580D01*
X192619048Y-98019580D02*
X192666667Y-98067200D01*
X192666667Y-98067200D02*
X192761905Y-98114819D01*
X192761905Y-98114819D02*
X192952381Y-98114819D01*
X192952381Y-98114819D02*
X193047619Y-98067200D01*
X193047619Y-98067200D02*
X193095238Y-98019580D01*
X193095238Y-98019580D02*
X193142857Y-97924342D01*
X193142857Y-97924342D02*
X193142857Y-97686247D01*
X193142857Y-97686247D02*
X193095238Y-97591009D01*
X193095238Y-97591009D02*
X193047619Y-97543390D01*
X193047619Y-97543390D02*
X192952381Y-97495771D01*
X192952381Y-97495771D02*
X192761905Y-97495771D01*
X192761905Y-97495771D02*
X192666667Y-97543390D01*
X192666667Y-97543390D02*
X192619048Y-97591009D01*
X192619048Y-97591009D02*
X192571429Y-97686247D01*
X231451309Y-167373628D02*
X231451309Y-167849819D01*
X231117976Y-166849819D02*
X231451309Y-167373628D01*
X231451309Y-167373628D02*
X231784642Y-166849819D01*
X232022738Y-166849819D02*
X232641785Y-166849819D01*
X232641785Y-166849819D02*
X232308452Y-167230771D01*
X232308452Y-167230771D02*
X232451309Y-167230771D01*
X232451309Y-167230771D02*
X232546547Y-167278390D01*
X232546547Y-167278390D02*
X232594166Y-167326009D01*
X232594166Y-167326009D02*
X232641785Y-167421247D01*
X232641785Y-167421247D02*
X232641785Y-167659342D01*
X232641785Y-167659342D02*
X232594166Y-167754580D01*
X232594166Y-167754580D02*
X232546547Y-167802200D01*
X232546547Y-167802200D02*
X232451309Y-167849819D01*
X232451309Y-167849819D02*
X232165595Y-167849819D01*
X232165595Y-167849819D02*
X232070357Y-167802200D01*
X232070357Y-167802200D02*
X232022738Y-167754580D01*
X190786905Y-139284819D02*
X190786905Y-138284819D01*
X190786905Y-138284819D02*
X191025000Y-138284819D01*
X191025000Y-138284819D02*
X191167857Y-138332438D01*
X191167857Y-138332438D02*
X191263095Y-138427676D01*
X191263095Y-138427676D02*
X191310714Y-138522914D01*
X191310714Y-138522914D02*
X191358333Y-138713390D01*
X191358333Y-138713390D02*
X191358333Y-138856247D01*
X191358333Y-138856247D02*
X191310714Y-139046723D01*
X191310714Y-139046723D02*
X191263095Y-139141961D01*
X191263095Y-139141961D02*
X191167857Y-139237200D01*
X191167857Y-139237200D02*
X191025000Y-139284819D01*
X191025000Y-139284819D02*
X190786905Y-139284819D01*
X191691667Y-138284819D02*
X192358333Y-138284819D01*
X192358333Y-138284819D02*
X191929762Y-139284819D01*
X174540476Y-78904819D02*
X174540476Y-79619104D01*
X174540476Y-79619104D02*
X174492857Y-79761961D01*
X174492857Y-79761961D02*
X174397619Y-79857200D01*
X174397619Y-79857200D02*
X174254762Y-79904819D01*
X174254762Y-79904819D02*
X174159524Y-79904819D01*
X175540476Y-79904819D02*
X174969048Y-79904819D01*
X175254762Y-79904819D02*
X175254762Y-78904819D01*
X175254762Y-78904819D02*
X175159524Y-79047676D01*
X175159524Y-79047676D02*
X175064286Y-79142914D01*
X175064286Y-79142914D02*
X174969048Y-79190533D01*
X176111905Y-79333390D02*
X176016667Y-79285771D01*
X176016667Y-79285771D02*
X175969048Y-79238152D01*
X175969048Y-79238152D02*
X175921429Y-79142914D01*
X175921429Y-79142914D02*
X175921429Y-79095295D01*
X175921429Y-79095295D02*
X175969048Y-79000057D01*
X175969048Y-79000057D02*
X176016667Y-78952438D01*
X176016667Y-78952438D02*
X176111905Y-78904819D01*
X176111905Y-78904819D02*
X176302381Y-78904819D01*
X176302381Y-78904819D02*
X176397619Y-78952438D01*
X176397619Y-78952438D02*
X176445238Y-79000057D01*
X176445238Y-79000057D02*
X176492857Y-79095295D01*
X176492857Y-79095295D02*
X176492857Y-79142914D01*
X176492857Y-79142914D02*
X176445238Y-79238152D01*
X176445238Y-79238152D02*
X176397619Y-79285771D01*
X176397619Y-79285771D02*
X176302381Y-79333390D01*
X176302381Y-79333390D02*
X176111905Y-79333390D01*
X176111905Y-79333390D02*
X176016667Y-79381009D01*
X176016667Y-79381009D02*
X175969048Y-79428628D01*
X175969048Y-79428628D02*
X175921429Y-79523866D01*
X175921429Y-79523866D02*
X175921429Y-79714342D01*
X175921429Y-79714342D02*
X175969048Y-79809580D01*
X175969048Y-79809580D02*
X176016667Y-79857200D01*
X176016667Y-79857200D02*
X176111905Y-79904819D01*
X176111905Y-79904819D02*
X176302381Y-79904819D01*
X176302381Y-79904819D02*
X176397619Y-79857200D01*
X176397619Y-79857200D02*
X176445238Y-79809580D01*
X176445238Y-79809580D02*
X176492857Y-79714342D01*
X176492857Y-79714342D02*
X176492857Y-79523866D01*
X176492857Y-79523866D02*
X176445238Y-79428628D01*
X176445238Y-79428628D02*
X176397619Y-79381009D01*
X176397619Y-79381009D02*
X176302381Y-79333390D01*
X185194642Y-81449819D02*
X184861309Y-80973628D01*
X184623214Y-81449819D02*
X184623214Y-80449819D01*
X184623214Y-80449819D02*
X185004166Y-80449819D01*
X185004166Y-80449819D02*
X185099404Y-80497438D01*
X185099404Y-80497438D02*
X185147023Y-80545057D01*
X185147023Y-80545057D02*
X185194642Y-80640295D01*
X185194642Y-80640295D02*
X185194642Y-80783152D01*
X185194642Y-80783152D02*
X185147023Y-80878390D01*
X185147023Y-80878390D02*
X185099404Y-80926009D01*
X185099404Y-80926009D02*
X185004166Y-80973628D01*
X185004166Y-80973628D02*
X184623214Y-80973628D01*
X185575595Y-80545057D02*
X185623214Y-80497438D01*
X185623214Y-80497438D02*
X185718452Y-80449819D01*
X185718452Y-80449819D02*
X185956547Y-80449819D01*
X185956547Y-80449819D02*
X186051785Y-80497438D01*
X186051785Y-80497438D02*
X186099404Y-80545057D01*
X186099404Y-80545057D02*
X186147023Y-80640295D01*
X186147023Y-80640295D02*
X186147023Y-80735533D01*
X186147023Y-80735533D02*
X186099404Y-80878390D01*
X186099404Y-80878390D02*
X185527976Y-81449819D01*
X185527976Y-81449819D02*
X186147023Y-81449819D01*
X187051785Y-80449819D02*
X186575595Y-80449819D01*
X186575595Y-80449819D02*
X186527976Y-80926009D01*
X186527976Y-80926009D02*
X186575595Y-80878390D01*
X186575595Y-80878390D02*
X186670833Y-80830771D01*
X186670833Y-80830771D02*
X186908928Y-80830771D01*
X186908928Y-80830771D02*
X187004166Y-80878390D01*
X187004166Y-80878390D02*
X187051785Y-80926009D01*
X187051785Y-80926009D02*
X187099404Y-81021247D01*
X187099404Y-81021247D02*
X187099404Y-81259342D01*
X187099404Y-81259342D02*
X187051785Y-81354580D01*
X187051785Y-81354580D02*
X187004166Y-81402200D01*
X187004166Y-81402200D02*
X186908928Y-81449819D01*
X186908928Y-81449819D02*
X186670833Y-81449819D01*
X186670833Y-81449819D02*
X186575595Y-81402200D01*
X186575595Y-81402200D02*
X186527976Y-81354580D01*
X172434819Y-99930357D02*
X171958628Y-100263690D01*
X172434819Y-100501785D02*
X171434819Y-100501785D01*
X171434819Y-100501785D02*
X171434819Y-100120833D01*
X171434819Y-100120833D02*
X171482438Y-100025595D01*
X171482438Y-100025595D02*
X171530057Y-99977976D01*
X171530057Y-99977976D02*
X171625295Y-99930357D01*
X171625295Y-99930357D02*
X171768152Y-99930357D01*
X171768152Y-99930357D02*
X171863390Y-99977976D01*
X171863390Y-99977976D02*
X171911009Y-100025595D01*
X171911009Y-100025595D02*
X171958628Y-100120833D01*
X171958628Y-100120833D02*
X171958628Y-100501785D01*
X172434819Y-98977976D02*
X172434819Y-99549404D01*
X172434819Y-99263690D02*
X171434819Y-99263690D01*
X171434819Y-99263690D02*
X171577676Y-99358928D01*
X171577676Y-99358928D02*
X171672914Y-99454166D01*
X171672914Y-99454166D02*
X171720533Y-99549404D01*
X171434819Y-98120833D02*
X171434819Y-98311309D01*
X171434819Y-98311309D02*
X171482438Y-98406547D01*
X171482438Y-98406547D02*
X171530057Y-98454166D01*
X171530057Y-98454166D02*
X171672914Y-98549404D01*
X171672914Y-98549404D02*
X171863390Y-98597023D01*
X171863390Y-98597023D02*
X172244342Y-98597023D01*
X172244342Y-98597023D02*
X172339580Y-98549404D01*
X172339580Y-98549404D02*
X172387200Y-98501785D01*
X172387200Y-98501785D02*
X172434819Y-98406547D01*
X172434819Y-98406547D02*
X172434819Y-98216071D01*
X172434819Y-98216071D02*
X172387200Y-98120833D01*
X172387200Y-98120833D02*
X172339580Y-98073214D01*
X172339580Y-98073214D02*
X172244342Y-98025595D01*
X172244342Y-98025595D02*
X172006247Y-98025595D01*
X172006247Y-98025595D02*
X171911009Y-98073214D01*
X171911009Y-98073214D02*
X171863390Y-98120833D01*
X171863390Y-98120833D02*
X171815771Y-98216071D01*
X171815771Y-98216071D02*
X171815771Y-98406547D01*
X171815771Y-98406547D02*
X171863390Y-98501785D01*
X171863390Y-98501785D02*
X171911009Y-98549404D01*
X171911009Y-98549404D02*
X172006247Y-98597023D01*
X174618846Y-125919588D02*
X175267390Y-125919588D01*
X175267390Y-125919588D02*
X175343689Y-125881439D01*
X175343689Y-125881439D02*
X175381839Y-125843289D01*
X175381839Y-125843289D02*
X175419988Y-125766990D01*
X175419988Y-125766990D02*
X175419988Y-125614391D01*
X175419988Y-125614391D02*
X175381839Y-125538092D01*
X175381839Y-125538092D02*
X175343689Y-125499943D01*
X175343689Y-125499943D02*
X175267390Y-125461793D01*
X175267390Y-125461793D02*
X174618846Y-125461793D01*
X174618846Y-125156596D02*
X174618846Y-124622501D01*
X174618846Y-124622501D02*
X175419988Y-124965848D01*
X166889580Y-121455357D02*
X166937200Y-121502976D01*
X166937200Y-121502976D02*
X166984819Y-121645833D01*
X166984819Y-121645833D02*
X166984819Y-121741071D01*
X166984819Y-121741071D02*
X166937200Y-121883928D01*
X166937200Y-121883928D02*
X166841961Y-121979166D01*
X166841961Y-121979166D02*
X166746723Y-122026785D01*
X166746723Y-122026785D02*
X166556247Y-122074404D01*
X166556247Y-122074404D02*
X166413390Y-122074404D01*
X166413390Y-122074404D02*
X166222914Y-122026785D01*
X166222914Y-122026785D02*
X166127676Y-121979166D01*
X166127676Y-121979166D02*
X166032438Y-121883928D01*
X166032438Y-121883928D02*
X165984819Y-121741071D01*
X165984819Y-121741071D02*
X165984819Y-121645833D01*
X165984819Y-121645833D02*
X166032438Y-121502976D01*
X166032438Y-121502976D02*
X166080057Y-121455357D01*
X166984819Y-120502976D02*
X166984819Y-121074404D01*
X166984819Y-120788690D02*
X165984819Y-120788690D01*
X165984819Y-120788690D02*
X166127676Y-120883928D01*
X166127676Y-120883928D02*
X166222914Y-120979166D01*
X166222914Y-120979166D02*
X166270533Y-121074404D01*
X165984819Y-120169642D02*
X165984819Y-119550595D01*
X165984819Y-119550595D02*
X166365771Y-119883928D01*
X166365771Y-119883928D02*
X166365771Y-119741071D01*
X166365771Y-119741071D02*
X166413390Y-119645833D01*
X166413390Y-119645833D02*
X166461009Y-119598214D01*
X166461009Y-119598214D02*
X166556247Y-119550595D01*
X166556247Y-119550595D02*
X166794342Y-119550595D01*
X166794342Y-119550595D02*
X166889580Y-119598214D01*
X166889580Y-119598214D02*
X166937200Y-119645833D01*
X166937200Y-119645833D02*
X166984819Y-119741071D01*
X166984819Y-119741071D02*
X166984819Y-120026785D01*
X166984819Y-120026785D02*
X166937200Y-120122023D01*
X166937200Y-120122023D02*
X166889580Y-120169642D01*
X164016668Y-100907200D02*
X164159525Y-100954819D01*
X164159525Y-100954819D02*
X164397620Y-100954819D01*
X164397620Y-100954819D02*
X164492858Y-100907200D01*
X164492858Y-100907200D02*
X164540477Y-100859580D01*
X164540477Y-100859580D02*
X164588096Y-100764342D01*
X164588096Y-100764342D02*
X164588096Y-100669104D01*
X164588096Y-100669104D02*
X164540477Y-100573866D01*
X164540477Y-100573866D02*
X164492858Y-100526247D01*
X164492858Y-100526247D02*
X164397620Y-100478628D01*
X164397620Y-100478628D02*
X164207144Y-100431009D01*
X164207144Y-100431009D02*
X164111906Y-100383390D01*
X164111906Y-100383390D02*
X164064287Y-100335771D01*
X164064287Y-100335771D02*
X164016668Y-100240533D01*
X164016668Y-100240533D02*
X164016668Y-100145295D01*
X164016668Y-100145295D02*
X164064287Y-100050057D01*
X164064287Y-100050057D02*
X164111906Y-100002438D01*
X164111906Y-100002438D02*
X164207144Y-99954819D01*
X164207144Y-99954819D02*
X164445239Y-99954819D01*
X164445239Y-99954819D02*
X164588096Y-100002438D01*
X164921430Y-99954819D02*
X165159525Y-100954819D01*
X165159525Y-100954819D02*
X165350001Y-100240533D01*
X165350001Y-100240533D02*
X165540477Y-100954819D01*
X165540477Y-100954819D02*
X165778573Y-99954819D01*
X166064287Y-99954819D02*
X166730953Y-99954819D01*
X166730953Y-99954819D02*
X166302382Y-100954819D01*
%TO.C,U6*%
D11*
X132685000Y-122500000D02*
X132685000Y-129240000D01*
X132685000Y-129240000D02*
X138785000Y-129240000D01*
X138785000Y-122500000D02*
X132685000Y-122500000D01*
X138785000Y-122748000D02*
X138785000Y-122500000D01*
X138785000Y-129240000D02*
X138785000Y-128992000D01*
D12*
X130390000Y-122570000D02*
G75*
G02*
X130190000Y-122570000I-100000J0D01*
G01*
X130190000Y-122570000D02*
G75*
G02*
X130390000Y-122570000I100000J0D01*
G01*
%TO.C,R5*%
D13*
X157557776Y-132727500D02*
X158067224Y-132727500D01*
X157557776Y-133772500D02*
X158067224Y-133772500D01*
%TO.C,C10*%
X134965000Y-112808767D02*
X134965000Y-112516233D01*
X135985000Y-112808767D02*
X135985000Y-112516233D01*
%TO.C,J15*%
X137800000Y-76100000D02*
X138550000Y-76100000D01*
X138550000Y-73150000D02*
X141600000Y-73150000D01*
X138550000Y-76100000D02*
X138550000Y-73150000D01*
X144450000Y-78650000D02*
X145700000Y-78650000D01*
X144650000Y-73150000D02*
X141600000Y-73150000D01*
X144650000Y-76100000D02*
X144650000Y-73150000D01*
X145400000Y-76100000D02*
X144650000Y-76100000D01*
X145700000Y-78650000D02*
X145700000Y-77400000D01*
X137800000Y-77600000D02*
X139600000Y-77600000D01*
X139600000Y-78350000D01*
X137800000Y-78350000D01*
X137800000Y-77600000D01*
X141100000Y-77600000D02*
X142100000Y-77600000D01*
X142100000Y-78350000D01*
X141100000Y-78350000D01*
X141100000Y-77600000D01*
X143600000Y-77600000D02*
X145400000Y-77600000D01*
X145400000Y-78350000D01*
X143600000Y-78350000D01*
X143600000Y-77600000D01*
X137790000Y-72390000D02*
X145410000Y-72390000D01*
X145410000Y-78360000D01*
X137790000Y-78360000D01*
X137790000Y-72390000D01*
%TO.C,D4*%
X157025000Y-130985000D02*
X159485000Y-130985000D01*
X159485000Y-129515000D02*
X157025000Y-129515000D01*
X159485000Y-130985000D02*
X159485000Y-129515000D01*
%TO.C,C4*%
X136965000Y-112503733D02*
X136965000Y-112796267D01*
X137985000Y-112503733D02*
X137985000Y-112796267D01*
%TO.C,R22*%
X142607776Y-81277500D02*
X143117224Y-81277500D01*
X142607776Y-82322500D02*
X143117224Y-82322500D01*
%TO.C,J5*%
X148600000Y-75775000D02*
X149350000Y-75775000D01*
X149350000Y-72825000D02*
X152400000Y-72825000D01*
X149350000Y-75775000D02*
X149350000Y-72825000D01*
X155250000Y-78325000D02*
X156500000Y-78325000D01*
X155450000Y-72825000D02*
X152400000Y-72825000D01*
X155450000Y-75775000D02*
X155450000Y-72825000D01*
X156200000Y-75775000D02*
X155450000Y-75775000D01*
X156500000Y-78325000D02*
X156500000Y-77075000D01*
X148600000Y-77275000D02*
X150400000Y-77275000D01*
X150400000Y-78025000D01*
X148600000Y-78025000D01*
X148600000Y-77275000D01*
X151900000Y-77275000D02*
X152900000Y-77275000D01*
X152900000Y-78025000D01*
X151900000Y-78025000D01*
X151900000Y-77275000D01*
X154400000Y-77275000D02*
X156200000Y-77275000D01*
X156200000Y-78025000D01*
X154400000Y-78025000D01*
X154400000Y-77275000D01*
X148590000Y-72065000D02*
X156210000Y-72065000D01*
X156210000Y-78035000D01*
X148590000Y-78035000D01*
X148590000Y-72065000D01*
%TO.C,J11*%
X145855000Y-123080000D02*
X145855000Y-121700000D01*
X147235000Y-123080000D02*
X145855000Y-123080000D01*
X148505000Y-120320000D02*
X151155000Y-120320000D01*
X148505000Y-123080000D02*
X148505000Y-120320000D01*
X148505000Y-123080000D02*
X151155000Y-123080000D01*
X151155000Y-123080000D02*
X151155000Y-120320000D01*
%TO.C,U4*%
X153765000Y-118065000D02*
X153860000Y-118065000D01*
X153765000Y-122185000D02*
X153765000Y-118065000D01*
X153860000Y-122185000D02*
X153765000Y-122185000D01*
X158790000Y-118065000D02*
X158885000Y-118065000D01*
X158885000Y-118065000D02*
X158885000Y-122185000D01*
X158885000Y-122185000D02*
X158790000Y-122185000D01*
X159125000Y-117765000D02*
X158795000Y-117525000D01*
X159125000Y-117285000D01*
X159125000Y-117765000D01*
G36*
X159125000Y-117765000D02*
G01*
X158795000Y-117525000D01*
X159125000Y-117285000D01*
X159125000Y-117765000D01*
G37*
%TO.C,U2*%
X141365000Y-110040000D02*
X141665000Y-110040000D01*
X141365000Y-110340000D02*
X141365000Y-110040000D01*
X141365000Y-117260000D02*
X141365000Y-116960000D01*
X141665000Y-117260000D02*
X141365000Y-117260000D01*
X148285000Y-110040000D02*
X148585000Y-110040000D01*
X148585000Y-110040000D02*
X148585000Y-110340000D01*
X148585000Y-116960000D02*
X148585000Y-117260000D01*
X148585000Y-117260000D02*
X148285000Y-117260000D01*
X140725000Y-110330000D02*
X140385000Y-109860000D01*
X141065000Y-109860000D01*
X140725000Y-110330000D01*
G36*
X140725000Y-110330000D02*
G01*
X140385000Y-109860000D01*
X141065000Y-109860000D01*
X140725000Y-110330000D01*
G37*
%TO.C,J3*%
X127640000Y-132015000D02*
X129060000Y-132015000D01*
X127640000Y-143735000D02*
X127640000Y-132015000D01*
X129060000Y-132015000D02*
X129060000Y-136515000D01*
X129060000Y-136515000D02*
X133950000Y-136515000D01*
X129900000Y-132325000D02*
X130500000Y-132325000D01*
X130200000Y-132925000D02*
X129900000Y-132325000D01*
X130500000Y-132325000D02*
X130200000Y-132925000D01*
X133950000Y-143735000D02*
X127640000Y-143735000D01*
X133950000Y-143735000D02*
X140260000Y-143735000D01*
X138840000Y-132015000D02*
X138840000Y-136515000D01*
X138840000Y-136515000D02*
X133950000Y-136515000D01*
X140260000Y-132015000D02*
X138840000Y-132015000D01*
X140260000Y-143735000D02*
X140260000Y-132015000D01*
X129950000Y-137625000D02*
X130450000Y-137625000D01*
X130450000Y-143125000D01*
X129950000Y-143125000D01*
X129950000Y-137625000D01*
X132450000Y-137625000D02*
X132950000Y-137625000D01*
X132950000Y-143125000D01*
X132450000Y-143125000D01*
X132450000Y-137625000D01*
X134950000Y-137625000D02*
X135450000Y-137625000D01*
X135450000Y-143125000D01*
X134950000Y-143125000D01*
X134950000Y-137625000D01*
X137450000Y-137625000D02*
X137950000Y-137625000D01*
X137950000Y-143125000D01*
X137450000Y-143125000D01*
X137450000Y-137625000D01*
%TO.C,R14*%
X136277500Y-99032776D02*
X136277500Y-99542224D01*
X137322500Y-99032776D02*
X137322500Y-99542224D01*
%TO.C,R21*%
X151832776Y-81902500D02*
X152342224Y-81902500D01*
X151832776Y-82947500D02*
X152342224Y-82947500D01*
%TO.C,R6*%
X157532776Y-126652500D02*
X158042224Y-126652500D01*
X157532776Y-127697500D02*
X158042224Y-127697500D01*
%TO.C,C3*%
X134290000Y-99141233D02*
X134290000Y-99433767D01*
X135310000Y-99141233D02*
X135310000Y-99433767D01*
%TO.C,R13*%
X135495276Y-102077500D02*
X136004724Y-102077500D01*
X135495276Y-103122500D02*
X136004724Y-103122500D01*
%TO.C,J14*%
X123565000Y-72890000D02*
X135285000Y-72890000D01*
X123565000Y-79200000D02*
X123565000Y-72890000D01*
X123565000Y-79200000D02*
X123565000Y-85510000D01*
X123565000Y-85510000D02*
X135285000Y-85510000D01*
X130785000Y-74310000D02*
X130785000Y-79200000D01*
X130785000Y-84090000D02*
X130785000Y-79200000D01*
X134375000Y-75450000D02*
X134975000Y-75150000D01*
X134975000Y-75150000D02*
X134975000Y-75750000D01*
X134975000Y-75750000D02*
X134375000Y-75450000D01*
X135285000Y-72890000D02*
X135285000Y-74310000D01*
X135285000Y-74310000D02*
X130785000Y-74310000D01*
X135285000Y-84090000D02*
X130785000Y-84090000D01*
X135285000Y-85510000D02*
X135285000Y-84090000D01*
X124175000Y-75200000D02*
X129675000Y-75200000D01*
X129675000Y-75700000D01*
X124175000Y-75700000D01*
X124175000Y-75200000D01*
X124175000Y-77700000D02*
X129675000Y-77700000D01*
X129675000Y-78200000D01*
X124175000Y-78200000D01*
X124175000Y-77700000D01*
X124175000Y-80200000D02*
X129675000Y-80200000D01*
X129675000Y-80700000D01*
X124175000Y-80700000D01*
X124175000Y-80200000D01*
X124175000Y-82700000D02*
X129675000Y-82700000D01*
X129675000Y-83200000D01*
X124175000Y-83200000D01*
X124175000Y-82700000D01*
%TO.C,R19*%
X152707776Y-124702500D02*
X153217224Y-124702500D01*
X152707776Y-125747500D02*
X153217224Y-125747500D01*
%TO.C,SW5*%
D14*
X129872801Y-99029553D02*
X129872801Y-101970447D01*
X131187942Y-102925700D02*
X132012060Y-102925700D01*
X132012060Y-98074300D02*
X131187942Y-98074300D01*
X133327201Y-101970447D02*
X133327201Y-99029553D01*
X127815001Y-98425000D02*
G75*
G02*
X127561001Y-98425000I-127000J0D01*
G01*
X127561001Y-98425000D02*
G75*
G02*
X127815001Y-98425000I127000J0D01*
G01*
%TO.C,C11*%
D13*
X130840000Y-120666233D02*
X130840000Y-120958767D01*
X131860000Y-120666233D02*
X131860000Y-120958767D01*
%TO.C,C6*%
X129115000Y-120958767D02*
X129115000Y-120666233D01*
X130135000Y-120958767D02*
X130135000Y-120666233D01*
%TO.C,SW4*%
X144137500Y-139297500D02*
X144137500Y-137914500D01*
X144137500Y-139297500D02*
X145520500Y-139297500D01*
X144377500Y-129157500D02*
X154297500Y-129157500D01*
X144377500Y-139057500D02*
X144377500Y-129157500D01*
X144377500Y-139057500D02*
X154297500Y-139057500D01*
X146162500Y-134784167D02*
X147432500Y-134784167D01*
X148702500Y-134784167D02*
X149972500Y-134784167D01*
X151242500Y-134784167D02*
X152512500Y-134784167D01*
X154297500Y-139057500D02*
X154297500Y-129157500D01*
X146162500Y-132077500D02*
X147432500Y-132077500D01*
X147432500Y-136137500D01*
X146162500Y-136137500D01*
X146162500Y-132077500D01*
X146162500Y-134784167D02*
X147432500Y-134784167D01*
X147432500Y-136137500D01*
X146162500Y-136137500D01*
X146162500Y-134784167D01*
G36*
X146162500Y-134784167D02*
G01*
X147432500Y-134784167D01*
X147432500Y-136137500D01*
X146162500Y-136137500D01*
X146162500Y-134784167D01*
G37*
X148702500Y-132077500D02*
X149972500Y-132077500D01*
X149972500Y-136137500D01*
X148702500Y-136137500D01*
X148702500Y-132077500D01*
X148702500Y-134784167D02*
X149972500Y-134784167D01*
X149972500Y-136137500D01*
X148702500Y-136137500D01*
X148702500Y-134784167D01*
G36*
X148702500Y-134784167D02*
G01*
X149972500Y-134784167D01*
X149972500Y-136137500D01*
X148702500Y-136137500D01*
X148702500Y-134784167D01*
G37*
X151242500Y-132077500D02*
X152512500Y-132077500D01*
X152512500Y-136137500D01*
X151242500Y-136137500D01*
X151242500Y-132077500D01*
X151242500Y-134784167D02*
X152512500Y-134784167D01*
X152512500Y-136137500D01*
X151242500Y-136137500D01*
X151242500Y-134784167D01*
G36*
X151242500Y-134784167D02*
G01*
X152512500Y-134784167D01*
X152512500Y-136137500D01*
X151242500Y-136137500D01*
X151242500Y-134784167D01*
G37*
%TO.C,J9*%
X127965000Y-66970000D02*
X127965000Y-69630000D01*
X150885000Y-66970000D02*
X127965000Y-66970000D01*
X150885000Y-66970000D02*
X150885000Y-69630000D01*
X150885000Y-69630000D02*
X127965000Y-69630000D01*
X153485000Y-68300000D02*
X153485000Y-69630000D01*
X153485000Y-69630000D02*
X152155000Y-69630000D01*
%TO.C,D5*%
X156975000Y-138135000D02*
X159435000Y-138135000D01*
X159435000Y-136665000D02*
X156975000Y-136665000D01*
X159435000Y-138135000D02*
X159435000Y-136665000D01*
%TO.C,Y2*%
D11*
X130612500Y-112470000D02*
X130612500Y-112630000D01*
X133112500Y-112470000D02*
X133112500Y-112630000D01*
D12*
X129837500Y-111450000D02*
G75*
G02*
X129637500Y-111450000I-100000J0D01*
G01*
X129637500Y-111450000D02*
G75*
G02*
X129837500Y-111450000I100000J0D01*
G01*
%TO.C,J13*%
D13*
X156870000Y-98660000D02*
X158250000Y-98660000D01*
X156870000Y-100040000D02*
X156870000Y-98660000D01*
X156870000Y-101310000D02*
X156870000Y-114120000D01*
X156870000Y-101310000D02*
X159630000Y-101310000D01*
X156870000Y-114120000D02*
X159630000Y-114120000D01*
X159630000Y-101310000D02*
X159630000Y-114120000D01*
%TO.C,C12*%
X168715000Y-112808767D02*
X168715000Y-112516233D01*
X169735000Y-112808767D02*
X169735000Y-112516233D01*
%TO.C,J10*%
X161715000Y-66970000D02*
X161715000Y-69630000D01*
X184635000Y-66970000D02*
X161715000Y-66970000D01*
X184635000Y-66970000D02*
X184635000Y-69630000D01*
X184635000Y-69630000D02*
X161715000Y-69630000D01*
X187235000Y-68300000D02*
X187235000Y-69630000D01*
X187235000Y-69630000D02*
X185905000Y-69630000D01*
%TO.C,J12*%
X179605000Y-123080000D02*
X179605000Y-121700000D01*
X180985000Y-123080000D02*
X179605000Y-123080000D01*
X182255000Y-120320000D02*
X184905000Y-120320000D01*
X182255000Y-123080000D02*
X182255000Y-120320000D01*
X182255000Y-123080000D02*
X184905000Y-123080000D01*
X184905000Y-123080000D02*
X184905000Y-120320000D01*
%TO.C,R8*%
X191282776Y-126652500D02*
X191792224Y-126652500D01*
X191282776Y-127697500D02*
X191792224Y-127697500D01*
%TO.C,SW6*%
X177887500Y-139297500D02*
X177887500Y-137914500D01*
X177887500Y-139297500D02*
X179270500Y-139297500D01*
X178127500Y-129157500D02*
X188047500Y-129157500D01*
X178127500Y-139057500D02*
X178127500Y-129157500D01*
X178127500Y-139057500D02*
X188047500Y-139057500D01*
X179912500Y-134784167D02*
X181182500Y-134784167D01*
X182452500Y-134784167D02*
X183722500Y-134784167D01*
X184992500Y-134784167D02*
X186262500Y-134784167D01*
X188047500Y-139057500D02*
X188047500Y-129157500D01*
X179912500Y-132077500D02*
X181182500Y-132077500D01*
X181182500Y-136137500D01*
X179912500Y-136137500D01*
X179912500Y-132077500D01*
X179912500Y-134784167D02*
X181182500Y-134784167D01*
X181182500Y-136137500D01*
X179912500Y-136137500D01*
X179912500Y-134784167D01*
G36*
X179912500Y-134784167D02*
G01*
X181182500Y-134784167D01*
X181182500Y-136137500D01*
X179912500Y-136137500D01*
X179912500Y-134784167D01*
G37*
X182452500Y-132077500D02*
X183722500Y-132077500D01*
X183722500Y-136137500D01*
X182452500Y-136137500D01*
X182452500Y-132077500D01*
X182452500Y-134784167D02*
X183722500Y-134784167D01*
X183722500Y-136137500D01*
X182452500Y-136137500D01*
X182452500Y-134784167D01*
G36*
X182452500Y-134784167D02*
G01*
X183722500Y-134784167D01*
X183722500Y-136137500D01*
X182452500Y-136137500D01*
X182452500Y-134784167D01*
G37*
X184992500Y-132077500D02*
X186262500Y-132077500D01*
X186262500Y-136137500D01*
X184992500Y-136137500D01*
X184992500Y-132077500D01*
X184992500Y-134784167D02*
X186262500Y-134784167D01*
X186262500Y-136137500D01*
X184992500Y-136137500D01*
X184992500Y-134784167D01*
G36*
X184992500Y-134784167D02*
G01*
X186262500Y-134784167D01*
X186262500Y-136137500D01*
X184992500Y-136137500D01*
X184992500Y-134784167D01*
G37*
%TO.C,J6*%
X182350000Y-75775000D02*
X183100000Y-75775000D01*
X183100000Y-72825000D02*
X186150000Y-72825000D01*
X183100000Y-75775000D02*
X183100000Y-72825000D01*
X189000000Y-78325000D02*
X190250000Y-78325000D01*
X189200000Y-72825000D02*
X186150000Y-72825000D01*
X189200000Y-75775000D02*
X189200000Y-72825000D01*
X189950000Y-75775000D02*
X189200000Y-75775000D01*
X190250000Y-78325000D02*
X190250000Y-77075000D01*
X182350000Y-77275000D02*
X184150000Y-77275000D01*
X184150000Y-78025000D01*
X182350000Y-78025000D01*
X182350000Y-77275000D01*
X185650000Y-77275000D02*
X186650000Y-77275000D01*
X186650000Y-78025000D01*
X185650000Y-78025000D01*
X185650000Y-77275000D01*
X188150000Y-77275000D02*
X189950000Y-77275000D01*
X189950000Y-78025000D01*
X188150000Y-78025000D01*
X188150000Y-77275000D01*
X182340000Y-72065000D02*
X189960000Y-72065000D01*
X189960000Y-78035000D01*
X182340000Y-78035000D01*
X182340000Y-72065000D01*
%TO.C,R7*%
X191307776Y-132727500D02*
X191817224Y-132727500D01*
X191307776Y-133772500D02*
X191817224Y-133772500D01*
%TO.C,C5*%
X168040000Y-99141233D02*
X168040000Y-99433767D01*
X169060000Y-99141233D02*
X169060000Y-99433767D01*
%TO.C,U5*%
X187515000Y-118065000D02*
X187610000Y-118065000D01*
X187515000Y-122185000D02*
X187515000Y-118065000D01*
X187610000Y-122185000D02*
X187515000Y-122185000D01*
X192540000Y-118065000D02*
X192635000Y-118065000D01*
X192635000Y-118065000D02*
X192635000Y-122185000D01*
X192635000Y-122185000D02*
X192540000Y-122185000D01*
X192875000Y-117765000D02*
X192545000Y-117525000D01*
X192875000Y-117285000D01*
X192875000Y-117765000D01*
G36*
X192875000Y-117765000D02*
G01*
X192545000Y-117525000D01*
X192875000Y-117285000D01*
X192875000Y-117765000D01*
G37*
%TO.C,R15*%
X169245276Y-102077500D02*
X169754724Y-102077500D01*
X169245276Y-103122500D02*
X169754724Y-103122500D01*
%TO.C,C8*%
X162865000Y-120958767D02*
X162865000Y-120666233D01*
X163885000Y-120958767D02*
X163885000Y-120666233D01*
%TO.C,U3*%
X175115000Y-110040000D02*
X175415000Y-110040000D01*
X175115000Y-110340000D02*
X175115000Y-110040000D01*
X175115000Y-117260000D02*
X175115000Y-116960000D01*
X175415000Y-117260000D02*
X175115000Y-117260000D01*
X182035000Y-110040000D02*
X182335000Y-110040000D01*
X182335000Y-110040000D02*
X182335000Y-110340000D01*
X182335000Y-116960000D02*
X182335000Y-117260000D01*
X182335000Y-117260000D02*
X182035000Y-117260000D01*
X174475000Y-110330000D02*
X174135000Y-109860000D01*
X174815000Y-109860000D01*
X174475000Y-110330000D01*
G36*
X174475000Y-110330000D02*
G01*
X174135000Y-109860000D01*
X174815000Y-109860000D01*
X174475000Y-110330000D01*
G37*
%TO.C,R26*%
X176357776Y-81277500D02*
X176867224Y-81277500D01*
X176357776Y-82322500D02*
X176867224Y-82322500D01*
%TO.C,C7*%
X170715000Y-112503733D02*
X170715000Y-112796267D01*
X171735000Y-112503733D02*
X171735000Y-112796267D01*
%TO.C,D6*%
X190775000Y-130985000D02*
X193235000Y-130985000D01*
X193235000Y-129515000D02*
X190775000Y-129515000D01*
X193235000Y-130985000D02*
X193235000Y-129515000D01*
%TO.C,R20*%
X186457776Y-124702500D02*
X186967224Y-124702500D01*
X186457776Y-125747500D02*
X186967224Y-125747500D01*
%TO.C,J17*%
X157315000Y-72890000D02*
X169035000Y-72890000D01*
X157315000Y-79200000D02*
X157315000Y-72890000D01*
X157315000Y-79200000D02*
X157315000Y-85510000D01*
X157315000Y-85510000D02*
X169035000Y-85510000D01*
X164535000Y-74310000D02*
X164535000Y-79200000D01*
X164535000Y-84090000D02*
X164535000Y-79200000D01*
X168125000Y-75450000D02*
X168725000Y-75150000D01*
X168725000Y-75150000D02*
X168725000Y-75750000D01*
X168725000Y-75750000D02*
X168125000Y-75450000D01*
X169035000Y-72890000D02*
X169035000Y-74310000D01*
X169035000Y-74310000D02*
X164535000Y-74310000D01*
X169035000Y-84090000D02*
X164535000Y-84090000D01*
X169035000Y-85510000D02*
X169035000Y-84090000D01*
X157925000Y-75200000D02*
X163425000Y-75200000D01*
X163425000Y-75700000D01*
X157925000Y-75700000D01*
X157925000Y-75200000D01*
X157925000Y-77700000D02*
X163425000Y-77700000D01*
X163425000Y-78200000D01*
X157925000Y-78200000D01*
X157925000Y-77700000D01*
X157925000Y-80200000D02*
X163425000Y-80200000D01*
X163425000Y-80700000D01*
X157925000Y-80700000D01*
X157925000Y-80200000D01*
X157925000Y-82700000D02*
X163425000Y-82700000D01*
X163425000Y-83200000D01*
X157925000Y-83200000D01*
X157925000Y-82700000D01*
%TO.C,J4*%
X161390000Y-132015000D02*
X162810000Y-132015000D01*
X161390000Y-143735000D02*
X161390000Y-132015000D01*
X162810000Y-132015000D02*
X162810000Y-136515000D01*
X162810000Y-136515000D02*
X167700000Y-136515000D01*
X163650000Y-132325000D02*
X164250000Y-132325000D01*
X163950000Y-132925000D02*
X163650000Y-132325000D01*
X164250000Y-132325000D02*
X163950000Y-132925000D01*
X167700000Y-143735000D02*
X161390000Y-143735000D01*
X167700000Y-143735000D02*
X174010000Y-143735000D01*
X172590000Y-132015000D02*
X172590000Y-136515000D01*
X172590000Y-136515000D02*
X167700000Y-136515000D01*
X174010000Y-132015000D02*
X172590000Y-132015000D01*
X174010000Y-143735000D02*
X174010000Y-132015000D01*
X163700000Y-137625000D02*
X164200000Y-137625000D01*
X164200000Y-143125000D01*
X163700000Y-143125000D01*
X163700000Y-137625000D01*
X166200000Y-137625000D02*
X166700000Y-137625000D01*
X166700000Y-143125000D01*
X166200000Y-143125000D01*
X166200000Y-137625000D01*
X168700000Y-137625000D02*
X169200000Y-137625000D01*
X169200000Y-143125000D01*
X168700000Y-143125000D01*
X168700000Y-137625000D01*
X171200000Y-137625000D02*
X171700000Y-137625000D01*
X171700000Y-143125000D01*
X171200000Y-143125000D01*
X171200000Y-137625000D01*
%TO.C,J16*%
X190620000Y-98660000D02*
X192000000Y-98660000D01*
X190620000Y-100040000D02*
X190620000Y-98660000D01*
X190620000Y-101310000D02*
X190620000Y-114120000D01*
X190620000Y-101310000D02*
X193380000Y-101310000D01*
X190620000Y-114120000D02*
X193380000Y-114120000D01*
X193380000Y-101310000D02*
X193380000Y-114120000D01*
%TO.C,Y3*%
D11*
X164362500Y-112470000D02*
X164362500Y-112630000D01*
X166862500Y-112470000D02*
X166862500Y-112630000D01*
D12*
X163587500Y-111450000D02*
G75*
G02*
X163387500Y-111450000I-100000J0D01*
G01*
X163387500Y-111450000D02*
G75*
G02*
X163587500Y-111450000I100000J0D01*
G01*
%TO.C,D7*%
D13*
X190725000Y-138135000D02*
X193185000Y-138135000D01*
X193185000Y-136665000D02*
X190725000Y-136665000D01*
X193185000Y-138135000D02*
X193185000Y-136665000D01*
%TO.C,J18*%
X171550000Y-76100000D02*
X172300000Y-76100000D01*
X172300000Y-73150000D02*
X175350000Y-73150000D01*
X172300000Y-76100000D02*
X172300000Y-73150000D01*
X178200000Y-78650000D02*
X179450000Y-78650000D01*
X178400000Y-73150000D02*
X175350000Y-73150000D01*
X178400000Y-76100000D02*
X178400000Y-73150000D01*
X179150000Y-76100000D02*
X178400000Y-76100000D01*
X179450000Y-78650000D02*
X179450000Y-77400000D01*
X171550000Y-77600000D02*
X173350000Y-77600000D01*
X173350000Y-78350000D01*
X171550000Y-78350000D01*
X171550000Y-77600000D01*
X174850000Y-77600000D02*
X175850000Y-77600000D01*
X175850000Y-78350000D01*
X174850000Y-78350000D01*
X174850000Y-77600000D01*
X177350000Y-77600000D02*
X179150000Y-77600000D01*
X179150000Y-78350000D01*
X177350000Y-78350000D01*
X177350000Y-77600000D01*
X171540000Y-72390000D02*
X179160000Y-72390000D01*
X179160000Y-78360000D01*
X171540000Y-78360000D01*
X171540000Y-72390000D01*
%TO.C,R25*%
X185582776Y-81902500D02*
X186092224Y-81902500D01*
X185582776Y-82947500D02*
X186092224Y-82947500D01*
%TO.C,R16*%
X170027500Y-99032776D02*
X170027500Y-99542224D01*
X171072500Y-99032776D02*
X171072500Y-99542224D01*
%TO.C,U7*%
D11*
X166435000Y-122500000D02*
X166435000Y-129240000D01*
X166435000Y-129240000D02*
X172535000Y-129240000D01*
X172535000Y-122500000D02*
X166435000Y-122500000D01*
X172535000Y-122748000D02*
X172535000Y-122500000D01*
X172535000Y-129240000D02*
X172535000Y-128992000D01*
D12*
X164140000Y-122570000D02*
G75*
G02*
X163940000Y-122570000I-100000J0D01*
G01*
X163940000Y-122570000D02*
G75*
G02*
X164140000Y-122570000I100000J0D01*
G01*
%TO.C,C13*%
D13*
X164590000Y-120666233D02*
X164590000Y-120958767D01*
X165610000Y-120666233D02*
X165610000Y-120958767D01*
%TO.C,SW7*%
D14*
X163622801Y-99029553D02*
X163622801Y-101970447D01*
X164937942Y-102925700D02*
X165762060Y-102925700D01*
X165762060Y-98074300D02*
X164937942Y-98074300D01*
X167077201Y-101970447D02*
X167077201Y-99029553D01*
X161565001Y-98425000D02*
G75*
G02*
X161311001Y-98425000I-127000J0D01*
G01*
X161311001Y-98425000D02*
G75*
G02*
X161565001Y-98425000I127000J0D01*
G01*
%TD*%
%LPC*%
D15*
%TO.C,U6*%
X130300000Y-123590000D03*
D16*
X137010000Y-125870000D03*
D15*
X130300000Y-128150000D03*
%TD*%
D17*
%TO.C,R5*%
X156900000Y-133250000D03*
X158725000Y-133250000D03*
%TD*%
D18*
%TO.C,C10*%
X135475000Y-113525000D03*
X135475000Y-111800000D03*
%TD*%
D19*
%TO.C,J15*%
X142850000Y-75900000D03*
D20*
X140350000Y-75900000D03*
%TD*%
D21*
%TO.C,D4*%
X158700000Y-130250000D03*
X156950000Y-130250000D03*
%TD*%
D22*
%TO.C,C4*%
X137475000Y-111787500D03*
X137475000Y-113512500D03*
%TD*%
D17*
%TO.C,R22*%
X141950000Y-81800000D03*
X143775000Y-81800000D03*
%TD*%
D19*
%TO.C,J5*%
X153650000Y-75575000D03*
D20*
X151150000Y-75575000D03*
%TD*%
D23*
%TO.C,J11*%
X147235000Y-121700000D03*
D24*
X149775000Y-121700000D03*
%TD*%
D25*
%TO.C,U4*%
X158230000Y-117650000D03*
X156960000Y-117650000D03*
X155690000Y-117650000D03*
X154420000Y-117650000D03*
X154420000Y-122600000D03*
X155690000Y-122600000D03*
X156960000Y-122600000D03*
X158230000Y-122600000D03*
%TD*%
D26*
%TO.C,U2*%
X140800000Y-110850000D03*
X140800000Y-111650000D03*
X140800000Y-112450000D03*
X140800000Y-113250000D03*
X140800000Y-114050000D03*
X140800000Y-114850000D03*
X140800000Y-115650000D03*
X140800000Y-116450000D03*
D27*
X142175000Y-117825000D03*
X142975000Y-117825000D03*
X143775000Y-117825000D03*
X144575000Y-117825000D03*
X145375000Y-117825000D03*
X146175000Y-117825000D03*
X146975000Y-117825000D03*
X147775000Y-117825000D03*
D26*
X149150000Y-116450000D03*
X149150000Y-115650000D03*
X149150000Y-114850000D03*
X149150000Y-114050000D03*
X149150000Y-113250000D03*
X149150000Y-112450000D03*
X149150000Y-111650000D03*
X149150000Y-110850000D03*
D27*
X147775000Y-109475000D03*
X146975000Y-109475000D03*
X146175000Y-109475000D03*
X145375000Y-109475000D03*
X144575000Y-109475000D03*
X143775000Y-109475000D03*
X142975000Y-109475000D03*
X142175000Y-109475000D03*
%TD*%
D28*
%TO.C,J3*%
X130200000Y-134425000D03*
D29*
X132700000Y-134425000D03*
X135200000Y-134425000D03*
X137700000Y-134425000D03*
%TD*%
D30*
%TO.C,R14*%
X136800000Y-98375000D03*
X136800000Y-100200000D03*
%TD*%
D17*
%TO.C,R21*%
X151175000Y-82425000D03*
X153000000Y-82425000D03*
%TD*%
%TO.C,R6*%
X156875000Y-127175000D03*
X158700000Y-127175000D03*
%TD*%
D22*
%TO.C,C3*%
X134800000Y-98425000D03*
X134800000Y-100150000D03*
%TD*%
D17*
%TO.C,R13*%
X134837500Y-102600000D03*
X136662500Y-102600000D03*
%TD*%
D31*
%TO.C,J14*%
X132875000Y-75450000D03*
D32*
X132875000Y-77950000D03*
X132875000Y-80450000D03*
X132875000Y-82950000D03*
%TD*%
D17*
%TO.C,R19*%
X152050000Y-125225000D03*
X153875000Y-125225000D03*
%TD*%
D33*
%TO.C,SW5*%
X130525002Y-98425000D03*
X130525002Y-102575000D03*
X132675000Y-98425000D03*
X132675000Y-102575000D03*
%TD*%
D22*
%TO.C,C11*%
X131350000Y-119950000D03*
X131350000Y-121675000D03*
%TD*%
D18*
%TO.C,C6*%
X129625000Y-121675000D03*
X129625000Y-119950000D03*
%TD*%
D34*
%TO.C,SW4*%
X146797500Y-137917500D03*
D35*
X149337500Y-137917500D03*
X151877500Y-137917500D03*
X151877500Y-130297500D03*
X149337500Y-130297500D03*
X146797500Y-130297500D03*
%TD*%
D23*
%TO.C,J9*%
X152155000Y-68300000D03*
D24*
X149615000Y-68300000D03*
X147075000Y-68300000D03*
X144535000Y-68300000D03*
X141995000Y-68300000D03*
X139455000Y-68300000D03*
X136915000Y-68300000D03*
X134375000Y-68300000D03*
X131835000Y-68300000D03*
X129295000Y-68300000D03*
%TD*%
D21*
%TO.C,D5*%
X158650000Y-137400000D03*
X156900000Y-137400000D03*
%TD*%
D36*
%TO.C,Y2*%
X131062500Y-111450000D03*
X131062500Y-113650000D03*
X132662500Y-113650000D03*
X132662500Y-111450000D03*
%TD*%
D23*
%TO.C,J13*%
X158250000Y-100040000D03*
D24*
X158250000Y-102580000D03*
X158250000Y-105120000D03*
X158250000Y-107660000D03*
X158250000Y-110200000D03*
X158250000Y-112740000D03*
%TD*%
D18*
%TO.C,C12*%
X169225000Y-113525000D03*
X169225000Y-111800000D03*
%TD*%
D23*
%TO.C,J10*%
X185905000Y-68300000D03*
D24*
X183365000Y-68300000D03*
X180825000Y-68300000D03*
X178285000Y-68300000D03*
X175745000Y-68300000D03*
X173205000Y-68300000D03*
X170665000Y-68300000D03*
X168125000Y-68300000D03*
X165585000Y-68300000D03*
X163045000Y-68300000D03*
%TD*%
D23*
%TO.C,J12*%
X180985000Y-121700000D03*
D24*
X183525000Y-121700000D03*
%TD*%
D17*
%TO.C,R8*%
X190625000Y-127175000D03*
X192450000Y-127175000D03*
%TD*%
D34*
%TO.C,SW6*%
X180547500Y-137917500D03*
D35*
X183087500Y-137917500D03*
X185627500Y-137917500D03*
X185627500Y-130297500D03*
X183087500Y-130297500D03*
X180547500Y-130297500D03*
%TD*%
D19*
%TO.C,J6*%
X187400000Y-75575000D03*
D20*
X184900000Y-75575000D03*
%TD*%
D17*
%TO.C,R7*%
X190650000Y-133250000D03*
X192475000Y-133250000D03*
%TD*%
D22*
%TO.C,C5*%
X168550000Y-98425000D03*
X168550000Y-100150000D03*
%TD*%
D25*
%TO.C,U5*%
X191980000Y-117650000D03*
X190710000Y-117650000D03*
X189440000Y-117650000D03*
X188170000Y-117650000D03*
X188170000Y-122600000D03*
X189440000Y-122600000D03*
X190710000Y-122600000D03*
X191980000Y-122600000D03*
%TD*%
D17*
%TO.C,R15*%
X168587500Y-102600000D03*
X170412500Y-102600000D03*
%TD*%
D18*
%TO.C,C8*%
X163375000Y-121675000D03*
X163375000Y-119950000D03*
%TD*%
D26*
%TO.C,U3*%
X174550000Y-110850000D03*
X174550000Y-111650000D03*
X174550000Y-112450000D03*
X174550000Y-113250000D03*
X174550000Y-114050000D03*
X174550000Y-114850000D03*
X174550000Y-115650000D03*
X174550000Y-116450000D03*
D27*
X175925000Y-117825000D03*
X176725000Y-117825000D03*
X177525000Y-117825000D03*
X178325000Y-117825000D03*
X179125000Y-117825000D03*
X179925000Y-117825000D03*
X180725000Y-117825000D03*
X181525000Y-117825000D03*
D26*
X182900000Y-116450000D03*
X182900000Y-115650000D03*
X182900000Y-114850000D03*
X182900000Y-114050000D03*
X182900000Y-113250000D03*
X182900000Y-112450000D03*
X182900000Y-111650000D03*
X182900000Y-110850000D03*
D27*
X181525000Y-109475000D03*
X180725000Y-109475000D03*
X179925000Y-109475000D03*
X179125000Y-109475000D03*
X178325000Y-109475000D03*
X177525000Y-109475000D03*
X176725000Y-109475000D03*
X175925000Y-109475000D03*
%TD*%
D17*
%TO.C,R26*%
X175700000Y-81800000D03*
X177525000Y-81800000D03*
%TD*%
D22*
%TO.C,C7*%
X171225000Y-111787500D03*
X171225000Y-113512500D03*
%TD*%
D21*
%TO.C,D6*%
X192450000Y-130250000D03*
X190700000Y-130250000D03*
%TD*%
D17*
%TO.C,R20*%
X185800000Y-125225000D03*
X187625000Y-125225000D03*
%TD*%
D31*
%TO.C,J17*%
X166625000Y-75450000D03*
D32*
X166625000Y-77950000D03*
X166625000Y-80450000D03*
X166625000Y-82950000D03*
%TD*%
D28*
%TO.C,J4*%
X163950000Y-134425000D03*
D29*
X166450000Y-134425000D03*
X168950000Y-134425000D03*
X171450000Y-134425000D03*
%TD*%
D23*
%TO.C,J16*%
X192000000Y-100040000D03*
D24*
X192000000Y-102580000D03*
X192000000Y-105120000D03*
X192000000Y-107660000D03*
X192000000Y-110200000D03*
X192000000Y-112740000D03*
%TD*%
D36*
%TO.C,Y3*%
X164812500Y-111450000D03*
X164812500Y-113650000D03*
X166412500Y-113650000D03*
X166412500Y-111450000D03*
%TD*%
D21*
%TO.C,D7*%
X192400000Y-137400000D03*
X190650000Y-137400000D03*
%TD*%
D19*
%TO.C,J18*%
X176600000Y-75900000D03*
D20*
X174100000Y-75900000D03*
%TD*%
D17*
%TO.C,R25*%
X184925000Y-82425000D03*
X186750000Y-82425000D03*
%TD*%
D30*
%TO.C,R16*%
X170550000Y-98375000D03*
X170550000Y-100200000D03*
%TD*%
D15*
%TO.C,U7*%
X164050000Y-123590000D03*
D16*
X170760000Y-125870000D03*
D15*
X164050000Y-128150000D03*
%TD*%
D22*
%TO.C,C13*%
X165100000Y-119950000D03*
X165100000Y-121675000D03*
%TD*%
D33*
%TO.C,SW7*%
X164275002Y-98425000D03*
X164275002Y-102575000D03*
X166425000Y-98425000D03*
X166425000Y-102575000D03*
%TD*%
%LPD*%
M02*
