M48
; DRILL file KiCad 10.0.1-10.0.1~ubuntu24.04.1 date 2026-05-10T22:06:31
; FORMAT={-:-/ absolute / inch / decimal}
; #@! TF.CreationDate,2026-05-10T22:06:31+09:00
; #@! TF.GenerationSoftware,Kicad,Pcbnew,10.0.1-10.0.1~ubuntu24.04.1
; #@! TF.FileFunction,Plated,1,2,PTH
FMAT,2
INCH
; #@! TA.AperFunction,Plated,PTH,ViaDrill
T1C0.0118
; #@! TA.AperFunction,Plated,PTH,ComponentDrill
T2C0.0374
; #@! TA.AperFunction,Plated,PTH,ComponentDrill
T3C0.0394
%
G90
G05
T1
X4.9734Y-1.2352
X4.9734Y-1.2746
X4.9734Y-1.314
X5.003Y-1.6368
X5.003Y-1.6762
X5.003Y-1.7156
X5.003Y-1.7549
X5.003Y-1.7943
X5.003Y-1.8337
X5.003Y-1.873
X5.003Y-1.9124
X5.003Y-1.9518
X5.003Y-1.9911
X5.003Y-2.0354
X5.003Y-2.0748
X5.003Y-2.1142
X5.003Y-2.1535
X5.003Y-2.1929
X5.003Y-2.2323
X5.003Y-2.2717
X5.003Y-2.311
X5.003Y-2.3504
X5.003Y-2.3898
X5.0079Y-2.8533
X5.0079Y-2.8927
X5.0079Y-2.9321
X5.0079Y-2.9715
X5.0079Y-3.0108
X5.0079Y-3.0502
X5.0079Y-3.0896
X5.0079Y-3.1289
X5.0128Y-1.2352
X5.0128Y-1.2746
X5.0128Y-1.314
X5.0207Y-2.3317
X5.0207Y-2.3711
X5.0207Y-2.4104
X5.0207Y-2.4498
X5.0207Y-2.4892
X5.0207Y-2.5285
X5.0207Y-2.5679
X5.0207Y-2.6073
X5.0207Y-2.6467
X5.0207Y-2.686
X5.0266Y-1.6545
X5.0266Y-1.7343
X5.0276Y-1.7776
X5.0285Y-1.6949
X5.0285Y-1.814
X5.0295Y-1.8524
X5.0305Y-1.8917
X5.0315Y-1.935
X5.0315Y-1.9744
X5.0315Y-2.0138
X5.0315Y-2.0531
X5.0315Y-2.0925
X5.0315Y-2.1319
X5.0315Y-2.1713
X5.0315Y-2.2106
X5.0315Y-2.25
X5.0315Y-2.2894
X5.0522Y-1.2352
X5.0522Y-1.2746
X5.0522Y-1.314
X5.0531Y-2.8543
X5.0551Y-3.1703
X5.061Y-3.3986
X5.0669Y-2.9272
X5.0669Y-3.0906
X5.0699Y-2.7835
X5.0699Y-2.8228
X5.0768Y-3.5984
X5.0778Y-3.4665
X5.0915Y-1.2352
X5.0915Y-1.2746
X5.0915Y-1.314
X5.0925Y-2.8543
X5.0974Y-3.1703
X5.1093Y-2.7835
X5.1093Y-2.8228
X5.124Y-3.312
X5.1309Y-1.2352
X5.1309Y-1.2746
X5.1309Y-1.314
X5.1319Y-2.8543
X5.1368Y-3.1693
X5.1457Y-3.5984
X5.1486Y-2.7835
X5.1486Y-2.8228
X5.1594Y-3.4636
X5.1663Y-1.5522
X5.1703Y-1.2352
X5.1703Y-1.2746
X5.1703Y-1.314
X5.1713Y-2.8543
X5.1772Y-1.4734
X5.188Y-2.7835
X5.188Y-2.8228
X5.2096Y-1.2352
X5.2096Y-1.2746
X5.2096Y-1.314
X5.2106Y-2.8543
X5.2274Y-2.7835
X5.2274Y-2.8228
X5.249Y-1.2352
X5.249Y-1.2746
X5.249Y-1.314
X5.25Y-2.8543
X5.2589Y-1.6437
X5.2589Y-3.6998
X5.2589Y-3.7392
X5.2589Y-3.7785
X5.2589Y-3.8179
X5.2589Y-3.8573
X5.2667Y-2.7835
X5.2667Y-2.8228
X5.2884Y-1.2352
X5.2884Y-1.2746
X5.2884Y-1.314
X5.2894Y-2.8543
X5.2913Y-3.2874
X5.2982Y-3.6998
X5.2982Y-3.7392
X5.2982Y-3.7785
X5.2982Y-3.8179
X5.2982Y-3.8573
X5.3041Y-3.5699
X5.3061Y-2.7835
X5.3061Y-2.8228
X5.3209Y-4.0664
X5.3278Y-1.2352
X5.3278Y-1.2746
X5.3278Y-1.314
X5.3287Y-2.8543
X5.3376Y-3.6998
X5.3376Y-3.7392
X5.3376Y-3.7785
X5.3376Y-3.8179
X5.3376Y-3.8573
X5.3455Y-2.7835
X5.3455Y-2.8228
X5.3671Y-1.2352
X5.3671Y-1.2746
X5.3671Y-1.314
X5.3671Y-3.2874
X5.377Y-3.6998
X5.377Y-3.7392
X5.377Y-3.7785
X5.377Y-3.8179
X5.377Y-3.8573
X5.4065Y-1.2352
X5.4065Y-1.2746
X5.4065Y-1.314
X5.4094Y-3.2402
X5.4134Y-3.0384
X5.4163Y-3.6998
X5.4163Y-3.7392
X5.4163Y-3.7785
X5.4163Y-3.8179
X5.4163Y-3.8573
X5.4459Y-1.2352
X5.4459Y-1.2746
X5.4459Y-1.314
X5.4526Y-2.8699
X5.4557Y-3.6998
X5.4557Y-3.7392
X5.4557Y-3.7785
X5.4557Y-3.8179
X5.4557Y-3.8573
X5.4587Y-3.001
X5.4685Y-3.0906
X5.4852Y-1.2352
X5.4852Y-1.2746
X5.4852Y-1.314
X5.4852Y-3.0394
X5.4951Y-3.6998
X5.4951Y-3.7392
X5.4951Y-3.7785
X5.4951Y-3.8179
X5.4951Y-3.8573
X5.499Y-4.1181
X5.499Y-4.1575
X5.499Y-4.1969
X5.499Y-4.2362
X5.499Y-4.2756
X5.5157Y-4.0164
X5.5246Y-1.2352
X5.5246Y-1.2746
X5.5246Y-1.314
X5.5285Y-3.002
X5.5384Y-4.1181
X5.5384Y-4.1575
X5.5384Y-4.1969
X5.5384Y-4.2362
X5.5384Y-4.2756
X5.5551Y-2.7707
X5.564Y-1.2352
X5.564Y-1.2746
X5.564Y-1.314
X5.5719Y-3.3091
X5.5778Y-4.1181
X5.5778Y-4.1575
X5.5778Y-4.1969
X5.5778Y-4.2362
X5.5778Y-4.2756
X5.6033Y-1.2352
X5.6033Y-1.2746
X5.6033Y-1.314
X5.6083Y-4.435
X5.6191Y-3.7116
X5.625Y-3.3091
X5.6427Y-1.2352
X5.6427Y-1.2746
X5.6427Y-1.314
X5.6821Y-1.2352
X5.6821Y-1.2746
X5.6821Y-1.314
X5.7067Y-3.9026
X5.7215Y-1.2352
X5.7215Y-1.2746
X5.7215Y-1.314
X5.7293Y-2.8996
X5.7313Y-3.8652
X5.7392Y-2.7707
X5.751Y-3.9026
X5.7579Y-3.3661
X5.7579Y-3.4055
X5.7579Y-3.4449
X5.7579Y-3.4843
X5.7579Y-3.5236
X5.7608Y-1.2352
X5.7608Y-1.2746
X5.7608Y-1.314
X5.7648Y-3.8317
X5.7657Y-4.0789
X5.7677Y-3.8642
X5.7835Y-3.2884
X5.7844Y-3.9026
X5.7864Y-4.4341
X5.7913Y-3.8061
X5.7953Y-3.8445
X5.7972Y-3.3661
X5.7972Y-3.4055
X5.7972Y-3.4449
X5.7972Y-3.4843
X5.7972Y-3.5236
X5.8002Y-1.2352
X5.8002Y-1.2746
X5.8002Y-1.314
X5.8051Y-3.0748
X5.814Y-3.2992
X5.8179Y-3.5492
X5.8179Y-3.5886
X5.8179Y-3.628
X5.8179Y-3.6673
X5.8179Y-3.7067
X5.8179Y-3.7461
X5.8179Y-3.7854
X5.8179Y-3.8248
X5.8179Y-3.8642
X5.8179Y-3.9035
X5.8366Y-3.3661
X5.8366Y-3.4055
X5.8366Y-3.4449
X5.8366Y-3.4843
X5.8366Y-3.5236
X5.8396Y-1.2352
X5.8396Y-1.2746
X5.8396Y-1.314
X5.8602Y-3.5502
X5.8602Y-3.5896
X5.8602Y-3.6289
X5.8602Y-3.6683
X5.8602Y-3.7077
X5.8602Y-3.747
X5.8602Y-3.7864
X5.8602Y-3.8258
X5.8602Y-3.8652
X5.8602Y-3.9045
X5.876Y-3.3661
X5.876Y-3.4055
X5.876Y-3.4449
X5.876Y-3.4843
X5.876Y-3.5236
X5.8789Y-1.2352
X5.8789Y-1.2746
X5.8789Y-1.314
X5.9183Y-1.2352
X5.9183Y-1.2746
X5.9183Y-1.314
X5.9577Y-1.2352
X5.9577Y-1.2746
X5.9577Y-1.314
X5.997Y-1.2352
X5.997Y-1.2746
X5.997Y-1.314
X5.997Y-4.1132
X5.997Y-4.1526
X5.997Y-4.1919
X5.997Y-4.2313
X5.997Y-4.2707
X5.998Y-3.5344
X5.998Y-3.5738
X5.998Y-3.6132
X5.998Y-3.6526
X5.998Y-3.6919
X5.998Y-3.7254
X5.998Y-3.7648
X5.998Y-3.8041
X5.998Y-3.8435
X5.998Y-3.8829
X5.998Y-3.9213
X5.998Y-3.9606
X5.998Y-4.0
X5.998Y-4.0394
X5.998Y-4.0787
X6.0Y-3.3376
X6.0Y-3.377
X6.0Y-3.4163
X6.0Y-3.4557
X6.0Y-3.4951
X6.0364Y-1.2352
X6.0364Y-1.2746
X6.0364Y-1.314
X6.0364Y-4.1132
X6.0364Y-4.1526
X6.0364Y-4.1919
X6.0364Y-4.2313
X6.0364Y-4.2707
X6.0374Y-3.5344
X6.0374Y-3.5738
X6.0374Y-3.6132
X6.0374Y-3.6526
X6.0374Y-3.6919
X6.0374Y-3.7254
X6.0374Y-3.7648
X6.0374Y-3.8041
X6.0374Y-3.8435
X6.0374Y-3.8829
X6.0374Y-3.9213
X6.0374Y-3.9606
X6.0374Y-4.0
X6.0374Y-4.0394
X6.0374Y-4.0787
X6.0394Y-3.3376
X6.0394Y-3.377
X6.0394Y-3.4163
X6.0394Y-3.4557
X6.0394Y-3.4951
X6.0758Y-1.2352
X6.0758Y-1.2746
X6.0758Y-1.314
X6.0758Y-4.1132
X6.0758Y-4.1526
X6.0758Y-4.1919
X6.0758Y-4.2313
X6.0758Y-4.2707
X6.0768Y-3.5344
X6.0768Y-3.5738
X6.0768Y-3.6132
X6.0768Y-3.6526
X6.0768Y-3.6919
X6.0768Y-3.7254
X6.0768Y-3.7648
X6.0768Y-3.8041
X6.0768Y-3.8435
X6.0768Y-3.8829
X6.0768Y-3.9213
X6.0768Y-3.9606
X6.0768Y-4.0
X6.0768Y-4.0394
X6.0768Y-4.0787
X6.0787Y-3.3376
X6.0787Y-3.377
X6.0787Y-3.4163
X6.0787Y-3.4557
X6.0787Y-3.4951
X6.1152Y-1.2352
X6.1152Y-1.2746
X6.1152Y-1.314
X6.1152Y-4.1132
X6.1152Y-4.1526
X6.1152Y-4.1919
X6.1152Y-4.2313
X6.1152Y-4.2707
X6.1161Y-3.5344
X6.1161Y-3.5738
X6.1161Y-3.6132
X6.1161Y-3.6526
X6.1161Y-3.6919
X6.1161Y-3.7254
X6.1161Y-3.7648
X6.1161Y-3.8041
X6.1161Y-3.8435
X6.1161Y-3.8829
X6.1161Y-3.9213
X6.1161Y-3.9606
X6.1161Y-4.0
X6.1161Y-4.0394
X6.1161Y-4.0787
X6.1181Y-3.3376
X6.1181Y-3.377
X6.1181Y-3.4163
X6.1181Y-3.4557
X6.1181Y-3.4951
X6.125Y-1.753
X6.125Y-1.7923
X6.125Y-1.8317
X6.125Y-1.8711
X6.125Y-1.9104
X6.125Y-1.9498
X6.125Y-1.9892
X6.125Y-2.0285
X6.125Y-2.0679
X6.125Y-2.1073
X6.125Y-2.1467
X6.125Y-2.186
X6.125Y-2.2254
X6.125Y-2.2648
X6.125Y-2.3041
X6.125Y-2.3435
X6.125Y-2.3829
X6.125Y-2.4222
X6.125Y-2.4616
X6.125Y-2.501
X6.1506Y-1.2569
X6.1506Y-1.2963
X6.1506Y-1.3356
X6.1506Y-1.375
X6.1506Y-1.4144
X6.1506Y-1.4537
X6.1506Y-1.4931
X6.1506Y-1.5325
X6.1506Y-1.5719
X6.1506Y-1.6112
X6.1506Y-1.6506
X6.1506Y-1.69
X6.1506Y-1.7293
X6.1506Y-1.7687
X6.1506Y-1.8081
X6.1506Y-1.8474
X6.1506Y-1.8868
X6.1506Y-1.9262
X6.1506Y-1.9656
X6.1506Y-2.0049
X6.1545Y-4.1132
X6.1545Y-4.1526
X6.1545Y-4.1919
X6.1545Y-4.2313
X6.1545Y-4.2707
X6.1555Y-3.5344
X6.1555Y-3.5738
X6.1555Y-3.6132
X6.1555Y-3.6526
X6.1555Y-3.6919
X6.1555Y-3.7254
X6.1555Y-3.7648
X6.1555Y-3.8041
X6.1555Y-3.8435
X6.1555Y-3.8829
X6.1555Y-3.9213
X6.1555Y-3.9606
X6.1555Y-4.0
X6.1555Y-4.0394
X6.1555Y-4.0787
X6.1575Y-3.3376
X6.1575Y-3.377
X6.1575Y-3.4163
X6.1575Y-3.4557
X6.1575Y-3.4951
X6.1742Y-1.2382
X6.1742Y-1.2776
X6.1742Y-1.3169
X6.1742Y-1.3563
X6.1742Y-1.3957
X6.1742Y-1.435
X6.1742Y-1.4744
X6.1742Y-1.5138
X6.1742Y-1.5531
X6.1742Y-1.5925
X6.1742Y-1.6319
X6.1742Y-1.6713
X6.1742Y-1.7106
X6.1742Y-1.75
X6.1742Y-1.7894
X6.1742Y-1.8287
X6.1742Y-1.8681
X6.1742Y-1.9075
X6.1742Y-1.9469
X6.1742Y-1.9862
X6.1742Y-2.0295
X6.1742Y-2.0689
X6.1742Y-2.1083
X6.1742Y-2.1476
X6.1742Y-2.187
X6.1742Y-2.2264
X6.1742Y-2.2657
X6.1742Y-2.3051
X6.1742Y-2.3445
X6.1742Y-2.3839
X6.1742Y-2.4232
X6.1742Y-2.4626
X6.1742Y-2.502
X6.1742Y-2.5413
X6.1742Y-2.5807
X6.1742Y-2.6201
X6.1742Y-2.6594
X6.1742Y-2.6988
X6.1742Y-2.7382
X6.1742Y-2.7776
T2
X5.0807Y-4.249
X5.123Y-1.428
X5.123Y-1.7185
X5.1791Y-4.249
X5.2215Y-1.428
X5.2215Y-1.7185
X5.2776Y-4.249
X5.3199Y-1.428
X5.3199Y-1.7185
X5.376Y-4.249
X5.4183Y-1.428
X5.4183Y-1.7185
X5.7037Y-1.426
X5.7047Y-1.7116
X5.8022Y-1.426
X5.8031Y-1.7116
X5.9006Y-1.426
X5.9016Y-1.7116
X5.999Y-1.426
X6.0Y-1.7116
T3
X5.1201Y-3.9305
X5.1201Y-4.0305
X5.1791Y-2.4354
X5.1791Y-2.5354
X6.1063Y-2.703
X6.1063Y-2.803
X6.1063Y-2.903
X6.1063Y-3.003
X6.1063Y-3.103
X6.1063Y-3.203
M30
