%TF.GenerationSoftware,KiCad,Pcbnew,10.0.1-10.0.1~ubuntu24.04.1*%
%TF.CreationDate,2026-05-10T22:06:31+09:00*%
%TF.ProjectId,2026-Node,32303236-2d4e-46f6-9465-2e6b69636164,rev?*%
%TF.SameCoordinates,Original*%
%TF.FileFunction,Paste,Top*%
%TF.FilePolarity,Positive*%
%FSLAX46Y46*%
G04 Gerber Fmt 4.6, Leading zero omitted, Abs format (unit mm)*
G04 Created by KiCad (PCBNEW 10.0.1-10.0.1~ubuntu24.04.1) date 2026-05-10 22:06:31*
%MOMM*%
%LPD*%
G01*
G04 APERTURE LIST*
G04 Aperture macros list*
%AMRoundRect*
0 Rectangle with rounded corners*
0 $1 Rounding radius*
0 $2 $3 $4 $5 $6 $7 $8 $9 X,Y pos of 4 corners*
0 Add a 4 corners polygon primitive as box body*
4,1,4,$2,$3,$4,$5,$6,$7,$8,$9,$2,$3,0*
0 Add four circle primitives for the rounded corners*
1,1,$1+$1,$2,$3*
1,1,$1+$1,$4,$5*
1,1,$1+$1,$6,$7*
1,1,$1+$1,$8,$9*
0 Add four rect primitives between the rounded corners*
20,1,$1+$1,$2,$3,$4,$5,0*
20,1,$1+$1,$4,$5,$6,$7,0*
20,1,$1+$1,$6,$7,$8,$9,0*
20,1,$1+$1,$8,$9,$2,$3,0*%
G04 Aperture macros list end*
%ADD10C,0.010000*%
%ADD11RoundRect,0.237500X-0.237500X0.300000X-0.237500X-0.300000X0.237500X-0.300000X0.237500X0.300000X0*%
%ADD12RoundRect,0.237500X0.250000X0.237500X-0.250000X0.237500X-0.250000X-0.237500X0.250000X-0.237500X0*%
%ADD13RoundRect,0.075000X-0.700000X-0.075000X0.700000X-0.075000X0.700000X0.075000X-0.700000X0.075000X0*%
%ADD14RoundRect,0.075000X-0.075000X-0.700000X0.075000X-0.700000X0.075000X0.700000X-0.075000X0.700000X0*%
%ADD15RoundRect,0.115200X-0.364800X-0.834800X0.364800X-0.834800X0.364800X0.834800X-0.364800X0.834800X0*%
%ADD16RoundRect,0.150000X-0.825000X-0.150000X0.825000X-0.150000X0.825000X0.150000X-0.825000X0.150000X0*%
%ADD17RoundRect,0.237500X0.300000X0.237500X-0.300000X0.237500X-0.300000X-0.237500X0.300000X-0.237500X0*%
%ADD18RoundRect,0.150000X0.825000X0.150000X-0.825000X0.150000X-0.825000X-0.150000X0.825000X-0.150000X0*%
%ADD19R,1.150000X1.400000*%
%ADD20RoundRect,0.237500X-0.237500X0.250000X-0.237500X-0.250000X0.237500X-0.250000X0.237500X0.250000X0*%
%ADD21RoundRect,0.237500X-0.300000X-0.237500X0.300000X-0.237500X0.300000X0.237500X-0.300000X0.237500X0*%
%ADD22RoundRect,0.237500X-0.250000X-0.237500X0.250000X-0.237500X0.250000X0.237500X-0.250000X0.237500X0*%
%ADD23R,0.660400X1.041400*%
G04 APERTURE END LIST*
D10*
%TO.C,U2*%
X148230350Y-105768065D02*
X144666980Y-105768065D01*
X144666980Y-101442000D01*
X148230350Y-101442000D01*
X148230350Y-105768065D01*
G36*
X148230350Y-105768065D02*
G01*
X144666980Y-105768065D01*
X144666980Y-101442000D01*
X148230350Y-101442000D01*
X148230350Y-105768065D01*
G37*
%TD*%
D11*
%TO.C,C3*%
X130700000Y-89675000D03*
X130700000Y-91400000D03*
%TD*%
D12*
%TO.C,R4*%
X130912500Y-96475000D03*
X129087500Y-96475000D03*
%TD*%
D13*
%TO.C,U1*%
X133100000Y-82900000D03*
X133100000Y-83400000D03*
X133100000Y-83900000D03*
X133100000Y-84400000D03*
X133100000Y-84900000D03*
X133100000Y-85400000D03*
X133100000Y-85900000D03*
X133100000Y-86400000D03*
X133100000Y-86900000D03*
X133100000Y-87400000D03*
X133100000Y-87900000D03*
X133100000Y-88400000D03*
X133100000Y-88900000D03*
X133100000Y-89400000D03*
X133100000Y-89900000D03*
X133100000Y-90400000D03*
D14*
X135025000Y-92325000D03*
X135525000Y-92325000D03*
X136025000Y-92325000D03*
X136525000Y-92325000D03*
X137025000Y-92325000D03*
X137525000Y-92325000D03*
X138025000Y-92325000D03*
X138525000Y-92325000D03*
X139025000Y-92325000D03*
X139525000Y-92325000D03*
X140025000Y-92325000D03*
X140525000Y-92325000D03*
X141025000Y-92325000D03*
X141525000Y-92325000D03*
X142025000Y-92325000D03*
X142525000Y-92325000D03*
D13*
X144450000Y-90400000D03*
X144450000Y-89900000D03*
X144450000Y-89400000D03*
X144450000Y-88900000D03*
X144450000Y-88400000D03*
X144450000Y-87900000D03*
X144450000Y-87400000D03*
X144450000Y-86900000D03*
X144450000Y-86400000D03*
X144450000Y-85900000D03*
X144450000Y-85400000D03*
X144450000Y-84900000D03*
X144450000Y-84400000D03*
X144450000Y-83900000D03*
X144450000Y-83400000D03*
X144450000Y-82900000D03*
D14*
X142525000Y-80975000D03*
X142025000Y-80975000D03*
X141525000Y-80975000D03*
X141025000Y-80975000D03*
X140525000Y-80975000D03*
X140025000Y-80975000D03*
X139525000Y-80975000D03*
X139025000Y-80975000D03*
X138525000Y-80975000D03*
X138025000Y-80975000D03*
X137525000Y-80975000D03*
X137025000Y-80975000D03*
X136525000Y-80975000D03*
X136025000Y-80975000D03*
X135525000Y-80975000D03*
X135025000Y-80975000D03*
%TD*%
D15*
%TO.C,U2*%
X144170000Y-110315000D03*
X148730000Y-110315000D03*
%TD*%
D16*
%TO.C,U3*%
X138150000Y-66762500D03*
X138150000Y-68032500D03*
X138150000Y-69302500D03*
X138150000Y-70572500D03*
X143100000Y-70572500D03*
X143100000Y-69302500D03*
X143100000Y-68032500D03*
X143100000Y-66762500D03*
%TD*%
D17*
%TO.C,C5*%
X148700000Y-112625000D03*
X146975000Y-112625000D03*
%TD*%
D18*
%TO.C,U4*%
X140100000Y-103287500D03*
X140100000Y-102017500D03*
X140100000Y-100747500D03*
X140100000Y-99477500D03*
X135150000Y-99477500D03*
X135150000Y-100747500D03*
X135150000Y-102017500D03*
X135150000Y-103287500D03*
%TD*%
D19*
%TO.C,Y1*%
X128550000Y-84125000D03*
X128550000Y-86325000D03*
X130150000Y-86325000D03*
X130150000Y-84125000D03*
%TD*%
D12*
%TO.C,R2*%
X138900000Y-78500000D03*
X137075000Y-78500000D03*
%TD*%
D20*
%TO.C,R3*%
X145725000Y-63400000D03*
X145725000Y-65225000D03*
%TD*%
D11*
%TO.C,C2*%
X128950000Y-89675000D03*
X128950000Y-91400000D03*
%TD*%
D17*
%TO.C,C4*%
X144175000Y-112650000D03*
X142450000Y-112650000D03*
%TD*%
D21*
%TO.C,C6*%
X141525000Y-96125000D03*
X143250000Y-96125000D03*
%TD*%
%TO.C,C1*%
X132962500Y-78475000D03*
X134687500Y-78475000D03*
%TD*%
D22*
%TO.C,R1*%
X132862500Y-74325000D03*
X134687500Y-74325000D03*
%TD*%
D23*
%TO.C,SW1*%
X128700002Y-74350000D03*
X128700002Y-78500000D03*
X130850000Y-74350000D03*
X130850000Y-78500000D03*
%TD*%
M02*
