M48
; DRILL file KiCad 10.0.1-10.0.1~ubuntu24.04.1 date 2026-05-10T17:15:29
; FORMAT={-:-/ absolute / inch / decimal}
; #@! TF.CreationDate,2026-05-10T17:15:29+09:00
; #@! TF.GenerationSoftware,Kicad,Pcbnew,10.0.1-10.0.1~ubuntu24.04.1
; #@! TF.FileFunction,Plated,1,2,PTH
FMAT,2
INCH
; #@! TA.AperFunction,Plated,PTH,ViaDrill
T1C0.0118
; #@! TA.AperFunction,Plated,PTH,ComponentDrill
T2C0.0374
; #@! TA.AperFunction,Plated,PTH,ComponentDrill
T3C0.0394
%
G90
G05
T1
X3.6811Y-4.6142
X3.6811Y-4.689
X3.7244Y-3.7559
X3.7244Y-3.878
X3.7677Y-4.6142
X3.7756Y-4.689
X3.9331Y-3.6959
X4.0394Y-3.185
X4.0394Y-3.2756
X4.2184Y-4.032
X4.3228Y-4.0276
X4.3425Y-4.5551
X4.3425Y-4.689
X4.4764Y-3.4724
X4.5Y-3.8268
X4.5551Y-3.5197
X4.5669Y-4.0039
X4.5906Y-3.7795
X4.6693Y-4.6929
X4.6693Y-4.7874
X4.688Y-3.6132
X4.7047Y-4.6929
X4.7047Y-4.7874
X4.7126Y-3.5866
X4.7362Y-4.6535
X4.7362Y-4.7874
X4.752Y-3.685
X4.752Y-3.7441
X4.752Y-4.5551
X4.752Y-4.5945
X4.7559Y-3.4724
X4.7924Y-3.6073
X4.8071Y-3.5591
X4.8189Y-3.4173
X4.8465Y-3.7795
X4.8661Y-3.3543
X4.8661Y-3.4764
X4.8819Y-3.5236
X4.8819Y-3.7087
X4.9055Y-3.4882
X4.9409Y-3.6575
X5.0039Y-3.4882
X5.0472Y-3.6535
X5.0984Y-4.0157
X5.1299Y-4.0925
X5.1496Y-4.1732
X5.1811Y-4.0709
X5.2559Y-3.9882
X5.2717Y-4.1594
X5.311Y-4.5276
X5.3268Y-3.9764
X5.3268Y-4.0945
X5.3661Y-3.4803
X5.378Y-4.5276
X5.7087Y-4.3898
X5.7087Y-4.4213
X6.1378Y-4.5522
X6.1378Y-4.6535
X6.7205Y-3.6732
X6.7244Y-3.8346
X7.0079Y-4.1969
X7.0276Y-4.7362
X7.0472Y-5.2795
X7.0945Y-4.7126
X7.0984Y-4.1535
X7.126Y-5.2047
T2
X4.2953Y-4.8465
X4.2953Y-5.2087
X4.3937Y-4.8465
X4.3937Y-5.2087
X4.4921Y-4.8465
X4.4921Y-5.2087
X4.5906Y-4.8465
X4.5906Y-5.2087
X4.9409Y-3.2795
X5.0394Y-3.2795
X5.1378Y-3.2795
X5.3819Y-3.3317
X5.3858Y-3.7175
X5.4803Y-3.3317
X5.4843Y-3.7175
X5.5709Y-4.0236
X5.5709Y-4.122
X5.5709Y-4.2205
X5.5709Y-4.3189
X5.5787Y-3.3317
X5.5827Y-3.7175
X5.8465Y-3.3327
X5.8465Y-3.7205
X5.8848Y-4.0256
X5.8848Y-4.124
X5.8848Y-4.2224
X5.8848Y-4.3209
X5.9449Y-3.3327
X5.9449Y-3.7205
X6.0433Y-3.3327
X6.0433Y-3.7205
X6.9352Y-3.4823
X6.9352Y-3.5807
X6.9352Y-3.6791
X6.9352Y-3.7776
X6.9352Y-4.0161
X6.9352Y-4.1146
X6.9352Y-4.213
X6.9352Y-4.3114
X6.9352Y-4.55
X6.9352Y-4.6484
X6.9352Y-4.7469
X6.9352Y-4.8453
X6.9352Y-5.0839
X6.9352Y-5.1823
X6.9352Y-5.2807
X6.9352Y-5.3791
T3
X4.2126Y-3.252
X4.3126Y-3.252
X4.4126Y-3.252
X4.5126Y-3.252
X4.6126Y-3.252
X4.7126Y-3.252
X4.8583Y-5.2087
X4.8661Y-4.8425
X4.9567Y-5.2087
X4.9646Y-4.8425
X5.4055Y-5.2896
X5.5039Y-5.2896
X5.5709Y-4.5748
X5.5709Y-4.6732
X5.7776Y-5.2896
X5.876Y-5.2896
X5.8809Y-4.5768
X5.8809Y-4.6752
X6.1496Y-5.2896
X6.248Y-5.2896
X6.5217Y-5.2896
X6.6201Y-5.2896
M30
