%TF.GenerationSoftware,KiCad,Pcbnew,10.0.1-10.0.1~ubuntu24.04.1*%
%TF.CreationDate,2026-05-10T17:16:30+09:00*%
%TF.ProjectId,ISS_MD_SUB,4953535f-4d44-45f5-9355-422e6b696361,rev?*%
%TF.SameCoordinates,Original*%
%TF.FileFunction,Legend,Top*%
%TF.FilePolarity,Positive*%
%FSLAX46Y46*%
G04 Gerber Fmt 4.6, Leading zero omitted, Abs format (unit mm)*
G04 Created by KiCad (PCBNEW 10.0.1-10.0.1~ubuntu24.04.1) date 2026-05-10 17:16:30*
%MOMM*%
%LPD*%
G01*
G04 APERTURE LIST*
G04 Aperture macros list*
%AMRoundRect*
0 Rectangle with rounded corners*
0 $1 Rounding radius*
0 $2 $3 $4 $5 $6 $7 $8 $9 X,Y pos of 4 corners*
0 Add a 4 corners polygon primitive as box body*
4,1,4,$2,$3,$4,$5,$6,$7,$8,$9,$2,$3,0*
0 Add four circle primitives for the rounded corners*
1,1,$1+$1,$2,$3*
1,1,$1+$1,$4,$5*
1,1,$1+$1,$6,$7*
1,1,$1+$1,$8,$9*
0 Add four rect primitives between the rounded corners*
20,1,$1+$1,$2,$3,$4,$5,0*
20,1,$1+$1,$4,$5,$6,$7,0*
20,1,$1+$1,$6,$7,$8,$9,0*
20,1,$1+$1,$8,$9,$2,$3,0*%
G04 Aperture macros list end*
%ADD10C,0.150000*%
%ADD11C,0.120000*%
%ADD12C,0.152400*%
%ADD13C,0.127000*%
%ADD14C,0.200000*%
%ADD15RoundRect,0.237500X0.237500X-0.300000X0.237500X0.300000X-0.237500X0.300000X-0.237500X-0.300000X0*%
%ADD16R,1.700000X1.700000*%
%ADD17C,1.700000*%
%ADD18RoundRect,0.250000X0.550000X-0.550000X0.550000X0.550000X-0.550000X0.550000X-0.550000X-0.550000X0*%
%ADD19C,1.600000*%
%ADD20RoundRect,0.250000X-0.600000X-0.725000X0.600000X-0.725000X0.600000X0.725000X-0.600000X0.725000X0*%
%ADD21O,1.700000X1.950000*%
%ADD22RoundRect,0.237500X-0.250000X-0.237500X0.250000X-0.237500X0.250000X0.237500X-0.250000X0.237500X0*%
%ADD23RoundRect,0.250000X0.600000X0.750000X-0.600000X0.750000X-0.600000X-0.750000X0.600000X-0.750000X0*%
%ADD24O,1.700000X2.000000*%
%ADD25RoundRect,0.237500X-0.237500X0.300000X-0.237500X-0.300000X0.237500X-0.300000X0.237500X0.300000X0*%
%ADD26R,0.660400X1.041400*%
%ADD27RoundRect,0.150000X-0.150000X0.825000X-0.150000X-0.825000X0.150000X-0.825000X0.150000X0.825000X0*%
%ADD28RoundRect,0.237500X0.287500X0.237500X-0.287500X0.237500X-0.287500X-0.237500X0.287500X-0.237500X0*%
%ADD29RoundRect,0.102000X-0.575000X-0.700000X0.575000X-0.700000X0.575000X0.700000X-0.575000X0.700000X0*%
%ADD30RoundRect,0.125000X-0.625000X-0.125000X0.625000X-0.125000X0.625000X0.125000X-0.625000X0.125000X0*%
%ADD31RoundRect,0.125000X-0.125000X-0.625000X0.125000X-0.625000X0.125000X0.625000X-0.125000X0.625000X0*%
%ADD32RoundRect,0.139680X-0.912320X0.442320X-0.912320X-0.442320X0.912320X-0.442320X0.912320X0.442320X0*%
%ADD33RoundRect,0.700080X-2.821920X2.216920X-2.821920X-2.216920X2.821920X-2.216920X2.821920X2.216920X0*%
%ADD34RoundRect,0.250000X-0.725000X0.600000X-0.725000X-0.600000X0.725000X-0.600000X0.725000X0.600000X0*%
%ADD35O,1.950000X1.700000*%
%ADD36RoundRect,0.237500X-0.237500X0.250000X-0.237500X-0.250000X0.237500X-0.250000X0.237500X0.250000X0*%
G04 APERTURE END LIST*
D10*
X151279580Y-113305357D02*
X151327200Y-113352976D01*
X151327200Y-113352976D02*
X151374819Y-113495833D01*
X151374819Y-113495833D02*
X151374819Y-113591071D01*
X151374819Y-113591071D02*
X151327200Y-113733928D01*
X151327200Y-113733928D02*
X151231961Y-113829166D01*
X151231961Y-113829166D02*
X151136723Y-113876785D01*
X151136723Y-113876785D02*
X150946247Y-113924404D01*
X150946247Y-113924404D02*
X150803390Y-113924404D01*
X150803390Y-113924404D02*
X150612914Y-113876785D01*
X150612914Y-113876785D02*
X150517676Y-113829166D01*
X150517676Y-113829166D02*
X150422438Y-113733928D01*
X150422438Y-113733928D02*
X150374819Y-113591071D01*
X150374819Y-113591071D02*
X150374819Y-113495833D01*
X150374819Y-113495833D02*
X150422438Y-113352976D01*
X150422438Y-113352976D02*
X150470057Y-113305357D01*
X151374819Y-112352976D02*
X151374819Y-112924404D01*
X151374819Y-112638690D02*
X150374819Y-112638690D01*
X150374819Y-112638690D02*
X150517676Y-112733928D01*
X150517676Y-112733928D02*
X150612914Y-112829166D01*
X150612914Y-112829166D02*
X150660533Y-112924404D01*
X150374819Y-111733928D02*
X150374819Y-111638690D01*
X150374819Y-111638690D02*
X150422438Y-111543452D01*
X150422438Y-111543452D02*
X150470057Y-111495833D01*
X150470057Y-111495833D02*
X150565295Y-111448214D01*
X150565295Y-111448214D02*
X150755771Y-111400595D01*
X150755771Y-111400595D02*
X150993866Y-111400595D01*
X150993866Y-111400595D02*
X151184342Y-111448214D01*
X151184342Y-111448214D02*
X151279580Y-111495833D01*
X151279580Y-111495833D02*
X151327200Y-111543452D01*
X151327200Y-111543452D02*
X151374819Y-111638690D01*
X151374819Y-111638690D02*
X151374819Y-111733928D01*
X151374819Y-111733928D02*
X151327200Y-111829166D01*
X151327200Y-111829166D02*
X151279580Y-111876785D01*
X151279580Y-111876785D02*
X151184342Y-111924404D01*
X151184342Y-111924404D02*
X150993866Y-111972023D01*
X150993866Y-111972023D02*
X150755771Y-111972023D01*
X150755771Y-111972023D02*
X150565295Y-111924404D01*
X150565295Y-111924404D02*
X150470057Y-111876785D01*
X150470057Y-111876785D02*
X150422438Y-111829166D01*
X150422438Y-111829166D02*
X150374819Y-111733928D01*
X161184819Y-122509523D02*
X161899104Y-122509523D01*
X161899104Y-122509523D02*
X162041961Y-122557142D01*
X162041961Y-122557142D02*
X162137200Y-122652380D01*
X162137200Y-122652380D02*
X162184819Y-122795237D01*
X162184819Y-122795237D02*
X162184819Y-122890475D01*
X162184819Y-121509523D02*
X162184819Y-122080951D01*
X162184819Y-121795237D02*
X161184819Y-121795237D01*
X161184819Y-121795237D02*
X161327676Y-121890475D01*
X161327676Y-121890475D02*
X161422914Y-121985713D01*
X161422914Y-121985713D02*
X161470533Y-122080951D01*
X162184819Y-120557142D02*
X162184819Y-121128570D01*
X162184819Y-120842856D02*
X161184819Y-120842856D01*
X161184819Y-120842856D02*
X161327676Y-120938094D01*
X161327676Y-120938094D02*
X161422914Y-121033332D01*
X161422914Y-121033332D02*
X161470533Y-121128570D01*
X126859700Y-135440832D02*
X126907319Y-135297975D01*
X126907319Y-135297975D02*
X126907319Y-135059880D01*
X126907319Y-135059880D02*
X126859700Y-134964642D01*
X126859700Y-134964642D02*
X126812080Y-134917023D01*
X126812080Y-134917023D02*
X126716842Y-134869404D01*
X126716842Y-134869404D02*
X126621604Y-134869404D01*
X126621604Y-134869404D02*
X126526366Y-134917023D01*
X126526366Y-134917023D02*
X126478747Y-134964642D01*
X126478747Y-134964642D02*
X126431128Y-135059880D01*
X126431128Y-135059880D02*
X126383509Y-135250356D01*
X126383509Y-135250356D02*
X126335890Y-135345594D01*
X126335890Y-135345594D02*
X126288271Y-135393213D01*
X126288271Y-135393213D02*
X126193033Y-135440832D01*
X126193033Y-135440832D02*
X126097795Y-135440832D01*
X126097795Y-135440832D02*
X126002557Y-135393213D01*
X126002557Y-135393213D02*
X125954938Y-135345594D01*
X125954938Y-135345594D02*
X125907319Y-135250356D01*
X125907319Y-135250356D02*
X125907319Y-135012261D01*
X125907319Y-135012261D02*
X125954938Y-134869404D01*
X125907319Y-134536070D02*
X126907319Y-134297975D01*
X126907319Y-134297975D02*
X126193033Y-134107499D01*
X126193033Y-134107499D02*
X126907319Y-133917023D01*
X126907319Y-133917023D02*
X125907319Y-133678928D01*
X126002557Y-133345594D02*
X125954938Y-133297975D01*
X125954938Y-133297975D02*
X125907319Y-133202737D01*
X125907319Y-133202737D02*
X125907319Y-132964642D01*
X125907319Y-132964642D02*
X125954938Y-132869404D01*
X125954938Y-132869404D02*
X126002557Y-132821785D01*
X126002557Y-132821785D02*
X126097795Y-132774166D01*
X126097795Y-132774166D02*
X126193033Y-132774166D01*
X126193033Y-132774166D02*
X126335890Y-132821785D01*
X126335890Y-132821785D02*
X126907319Y-133393213D01*
X126907319Y-133393213D02*
X126907319Y-132774166D01*
X116691666Y-130369819D02*
X116691666Y-131084104D01*
X116691666Y-131084104D02*
X116644047Y-131226961D01*
X116644047Y-131226961D02*
X116548809Y-131322200D01*
X116548809Y-131322200D02*
X116405952Y-131369819D01*
X116405952Y-131369819D02*
X116310714Y-131369819D01*
X117120238Y-130465057D02*
X117167857Y-130417438D01*
X117167857Y-130417438D02*
X117263095Y-130369819D01*
X117263095Y-130369819D02*
X117501190Y-130369819D01*
X117501190Y-130369819D02*
X117596428Y-130417438D01*
X117596428Y-130417438D02*
X117644047Y-130465057D01*
X117644047Y-130465057D02*
X117691666Y-130560295D01*
X117691666Y-130560295D02*
X117691666Y-130655533D01*
X117691666Y-130655533D02*
X117644047Y-130798390D01*
X117644047Y-130798390D02*
X117072619Y-131369819D01*
X117072619Y-131369819D02*
X117691666Y-131369819D01*
X174558333Y-125004819D02*
X174225000Y-124528628D01*
X173986905Y-125004819D02*
X173986905Y-124004819D01*
X173986905Y-124004819D02*
X174367857Y-124004819D01*
X174367857Y-124004819D02*
X174463095Y-124052438D01*
X174463095Y-124052438D02*
X174510714Y-124100057D01*
X174510714Y-124100057D02*
X174558333Y-124195295D01*
X174558333Y-124195295D02*
X174558333Y-124338152D01*
X174558333Y-124338152D02*
X174510714Y-124433390D01*
X174510714Y-124433390D02*
X174463095Y-124481009D01*
X174463095Y-124481009D02*
X174367857Y-124528628D01*
X174367857Y-124528628D02*
X173986905Y-124528628D01*
X175415476Y-124004819D02*
X175225000Y-124004819D01*
X175225000Y-124004819D02*
X175129762Y-124052438D01*
X175129762Y-124052438D02*
X175082143Y-124100057D01*
X175082143Y-124100057D02*
X174986905Y-124242914D01*
X174986905Y-124242914D02*
X174939286Y-124433390D01*
X174939286Y-124433390D02*
X174939286Y-124814342D01*
X174939286Y-124814342D02*
X174986905Y-124909580D01*
X174986905Y-124909580D02*
X175034524Y-124957200D01*
X175034524Y-124957200D02*
X175129762Y-125004819D01*
X175129762Y-125004819D02*
X175320238Y-125004819D01*
X175320238Y-125004819D02*
X175415476Y-124957200D01*
X175415476Y-124957200D02*
X175463095Y-124909580D01*
X175463095Y-124909580D02*
X175510714Y-124814342D01*
X175510714Y-124814342D02*
X175510714Y-124576247D01*
X175510714Y-124576247D02*
X175463095Y-124481009D01*
X175463095Y-124481009D02*
X175415476Y-124433390D01*
X175415476Y-124433390D02*
X175320238Y-124385771D01*
X175320238Y-124385771D02*
X175129762Y-124385771D01*
X175129762Y-124385771D02*
X175034524Y-124433390D01*
X175034524Y-124433390D02*
X174986905Y-124481009D01*
X174986905Y-124481009D02*
X174939286Y-124576247D01*
X135394642Y-124249819D02*
X135061309Y-123773628D01*
X134823214Y-124249819D02*
X134823214Y-123249819D01*
X134823214Y-123249819D02*
X135204166Y-123249819D01*
X135204166Y-123249819D02*
X135299404Y-123297438D01*
X135299404Y-123297438D02*
X135347023Y-123345057D01*
X135347023Y-123345057D02*
X135394642Y-123440295D01*
X135394642Y-123440295D02*
X135394642Y-123583152D01*
X135394642Y-123583152D02*
X135347023Y-123678390D01*
X135347023Y-123678390D02*
X135299404Y-123726009D01*
X135299404Y-123726009D02*
X135204166Y-123773628D01*
X135204166Y-123773628D02*
X134823214Y-123773628D01*
X136347023Y-124249819D02*
X135775595Y-124249819D01*
X136061309Y-124249819D02*
X136061309Y-123249819D01*
X136061309Y-123249819D02*
X135966071Y-123392676D01*
X135966071Y-123392676D02*
X135870833Y-123487914D01*
X135870833Y-123487914D02*
X135775595Y-123535533D01*
X137251785Y-123249819D02*
X136775595Y-123249819D01*
X136775595Y-123249819D02*
X136727976Y-123726009D01*
X136727976Y-123726009D02*
X136775595Y-123678390D01*
X136775595Y-123678390D02*
X136870833Y-123630771D01*
X136870833Y-123630771D02*
X137108928Y-123630771D01*
X137108928Y-123630771D02*
X137204166Y-123678390D01*
X137204166Y-123678390D02*
X137251785Y-123726009D01*
X137251785Y-123726009D02*
X137299404Y-123821247D01*
X137299404Y-123821247D02*
X137299404Y-124059342D01*
X137299404Y-124059342D02*
X137251785Y-124154580D01*
X137251785Y-124154580D02*
X137204166Y-124202200D01*
X137204166Y-124202200D02*
X137108928Y-124249819D01*
X137108928Y-124249819D02*
X136870833Y-124249819D01*
X136870833Y-124249819D02*
X136775595Y-124202200D01*
X136775595Y-124202200D02*
X136727976Y-124154580D01*
X160659700Y-135440832D02*
X160707319Y-135297975D01*
X160707319Y-135297975D02*
X160707319Y-135059880D01*
X160707319Y-135059880D02*
X160659700Y-134964642D01*
X160659700Y-134964642D02*
X160612080Y-134917023D01*
X160612080Y-134917023D02*
X160516842Y-134869404D01*
X160516842Y-134869404D02*
X160421604Y-134869404D01*
X160421604Y-134869404D02*
X160326366Y-134917023D01*
X160326366Y-134917023D02*
X160278747Y-134964642D01*
X160278747Y-134964642D02*
X160231128Y-135059880D01*
X160231128Y-135059880D02*
X160183509Y-135250356D01*
X160183509Y-135250356D02*
X160135890Y-135345594D01*
X160135890Y-135345594D02*
X160088271Y-135393213D01*
X160088271Y-135393213D02*
X159993033Y-135440832D01*
X159993033Y-135440832D02*
X159897795Y-135440832D01*
X159897795Y-135440832D02*
X159802557Y-135393213D01*
X159802557Y-135393213D02*
X159754938Y-135345594D01*
X159754938Y-135345594D02*
X159707319Y-135250356D01*
X159707319Y-135250356D02*
X159707319Y-135012261D01*
X159707319Y-135012261D02*
X159754938Y-134869404D01*
X159707319Y-134536070D02*
X160707319Y-134297975D01*
X160707319Y-134297975D02*
X159993033Y-134107499D01*
X159993033Y-134107499D02*
X160707319Y-133917023D01*
X160707319Y-133917023D02*
X159707319Y-133678928D01*
X160040652Y-132869404D02*
X160707319Y-132869404D01*
X159659700Y-133107499D02*
X160373985Y-133345594D01*
X160373985Y-133345594D02*
X160373985Y-132726547D01*
X168941666Y-78579819D02*
X168941666Y-79294104D01*
X168941666Y-79294104D02*
X168894047Y-79436961D01*
X168894047Y-79436961D02*
X168798809Y-79532200D01*
X168798809Y-79532200D02*
X168655952Y-79579819D01*
X168655952Y-79579819D02*
X168560714Y-79579819D01*
X169894047Y-78579819D02*
X169417857Y-78579819D01*
X169417857Y-78579819D02*
X169370238Y-79056009D01*
X169370238Y-79056009D02*
X169417857Y-79008390D01*
X169417857Y-79008390D02*
X169513095Y-78960771D01*
X169513095Y-78960771D02*
X169751190Y-78960771D01*
X169751190Y-78960771D02*
X169846428Y-79008390D01*
X169846428Y-79008390D02*
X169894047Y-79056009D01*
X169894047Y-79056009D02*
X169941666Y-79151247D01*
X169941666Y-79151247D02*
X169941666Y-79389342D01*
X169941666Y-79389342D02*
X169894047Y-79484580D01*
X169894047Y-79484580D02*
X169846428Y-79532200D01*
X169846428Y-79532200D02*
X169751190Y-79579819D01*
X169751190Y-79579819D02*
X169513095Y-79579819D01*
X169513095Y-79579819D02*
X169417857Y-79532200D01*
X169417857Y-79532200D02*
X169370238Y-79484580D01*
X174520833Y-132274819D02*
X174187500Y-131798628D01*
X173949405Y-132274819D02*
X173949405Y-131274819D01*
X173949405Y-131274819D02*
X174330357Y-131274819D01*
X174330357Y-131274819D02*
X174425595Y-131322438D01*
X174425595Y-131322438D02*
X174473214Y-131370057D01*
X174473214Y-131370057D02*
X174520833Y-131465295D01*
X174520833Y-131465295D02*
X174520833Y-131608152D01*
X174520833Y-131608152D02*
X174473214Y-131703390D01*
X174473214Y-131703390D02*
X174425595Y-131751009D01*
X174425595Y-131751009D02*
X174330357Y-131798628D01*
X174330357Y-131798628D02*
X173949405Y-131798628D01*
X175425595Y-131274819D02*
X174949405Y-131274819D01*
X174949405Y-131274819D02*
X174901786Y-131751009D01*
X174901786Y-131751009D02*
X174949405Y-131703390D01*
X174949405Y-131703390D02*
X175044643Y-131655771D01*
X175044643Y-131655771D02*
X175282738Y-131655771D01*
X175282738Y-131655771D02*
X175377976Y-131703390D01*
X175377976Y-131703390D02*
X175425595Y-131751009D01*
X175425595Y-131751009D02*
X175473214Y-131846247D01*
X175473214Y-131846247D02*
X175473214Y-132084342D01*
X175473214Y-132084342D02*
X175425595Y-132179580D01*
X175425595Y-132179580D02*
X175377976Y-132227200D01*
X175377976Y-132227200D02*
X175282738Y-132274819D01*
X175282738Y-132274819D02*
X175044643Y-132274819D01*
X175044643Y-132274819D02*
X174949405Y-132227200D01*
X174949405Y-132227200D02*
X174901786Y-132179580D01*
X140720833Y-132274819D02*
X140387500Y-131798628D01*
X140149405Y-132274819D02*
X140149405Y-131274819D01*
X140149405Y-131274819D02*
X140530357Y-131274819D01*
X140530357Y-131274819D02*
X140625595Y-131322438D01*
X140625595Y-131322438D02*
X140673214Y-131370057D01*
X140673214Y-131370057D02*
X140720833Y-131465295D01*
X140720833Y-131465295D02*
X140720833Y-131608152D01*
X140720833Y-131608152D02*
X140673214Y-131703390D01*
X140673214Y-131703390D02*
X140625595Y-131751009D01*
X140625595Y-131751009D02*
X140530357Y-131798628D01*
X140530357Y-131798628D02*
X140149405Y-131798628D01*
X141054167Y-131274819D02*
X141673214Y-131274819D01*
X141673214Y-131274819D02*
X141339881Y-131655771D01*
X141339881Y-131655771D02*
X141482738Y-131655771D01*
X141482738Y-131655771D02*
X141577976Y-131703390D01*
X141577976Y-131703390D02*
X141625595Y-131751009D01*
X141625595Y-131751009D02*
X141673214Y-131846247D01*
X141673214Y-131846247D02*
X141673214Y-132084342D01*
X141673214Y-132084342D02*
X141625595Y-132179580D01*
X141625595Y-132179580D02*
X141577976Y-132227200D01*
X141577976Y-132227200D02*
X141482738Y-132274819D01*
X141482738Y-132274819D02*
X141197024Y-132274819D01*
X141197024Y-132274819D02*
X141101786Y-132227200D01*
X141101786Y-132227200D02*
X141054167Y-132179580D01*
X153464580Y-99454166D02*
X153512200Y-99501785D01*
X153512200Y-99501785D02*
X153559819Y-99644642D01*
X153559819Y-99644642D02*
X153559819Y-99739880D01*
X153559819Y-99739880D02*
X153512200Y-99882737D01*
X153512200Y-99882737D02*
X153416961Y-99977975D01*
X153416961Y-99977975D02*
X153321723Y-100025594D01*
X153321723Y-100025594D02*
X153131247Y-100073213D01*
X153131247Y-100073213D02*
X152988390Y-100073213D01*
X152988390Y-100073213D02*
X152797914Y-100025594D01*
X152797914Y-100025594D02*
X152702676Y-99977975D01*
X152702676Y-99977975D02*
X152607438Y-99882737D01*
X152607438Y-99882737D02*
X152559819Y-99739880D01*
X152559819Y-99739880D02*
X152559819Y-99644642D01*
X152559819Y-99644642D02*
X152607438Y-99501785D01*
X152607438Y-99501785D02*
X152655057Y-99454166D01*
X152559819Y-99120832D02*
X152559819Y-98501785D01*
X152559819Y-98501785D02*
X152940771Y-98835118D01*
X152940771Y-98835118D02*
X152940771Y-98692261D01*
X152940771Y-98692261D02*
X152988390Y-98597023D01*
X152988390Y-98597023D02*
X153036009Y-98549404D01*
X153036009Y-98549404D02*
X153131247Y-98501785D01*
X153131247Y-98501785D02*
X153369342Y-98501785D01*
X153369342Y-98501785D02*
X153464580Y-98549404D01*
X153464580Y-98549404D02*
X153512200Y-98597023D01*
X153512200Y-98597023D02*
X153559819Y-98692261D01*
X153559819Y-98692261D02*
X153559819Y-98977975D01*
X153559819Y-98977975D02*
X153512200Y-99073213D01*
X153512200Y-99073213D02*
X153464580Y-99120832D01*
X123865476Y-78904819D02*
X123865476Y-79619104D01*
X123865476Y-79619104D02*
X123817857Y-79761961D01*
X123817857Y-79761961D02*
X123722619Y-79857200D01*
X123722619Y-79857200D02*
X123579762Y-79904819D01*
X123579762Y-79904819D02*
X123484524Y-79904819D01*
X124865476Y-79904819D02*
X124294048Y-79904819D01*
X124579762Y-79904819D02*
X124579762Y-78904819D01*
X124579762Y-78904819D02*
X124484524Y-79047676D01*
X124484524Y-79047676D02*
X124389286Y-79142914D01*
X124389286Y-79142914D02*
X124294048Y-79190533D01*
X125246429Y-79000057D02*
X125294048Y-78952438D01*
X125294048Y-78952438D02*
X125389286Y-78904819D01*
X125389286Y-78904819D02*
X125627381Y-78904819D01*
X125627381Y-78904819D02*
X125722619Y-78952438D01*
X125722619Y-78952438D02*
X125770238Y-79000057D01*
X125770238Y-79000057D02*
X125817857Y-79095295D01*
X125817857Y-79095295D02*
X125817857Y-79190533D01*
X125817857Y-79190533D02*
X125770238Y-79333390D01*
X125770238Y-79333390D02*
X125198810Y-79904819D01*
X125198810Y-79904819D02*
X125817857Y-79904819D01*
X119664580Y-99454166D02*
X119712200Y-99501785D01*
X119712200Y-99501785D02*
X119759819Y-99644642D01*
X119759819Y-99644642D02*
X119759819Y-99739880D01*
X119759819Y-99739880D02*
X119712200Y-99882737D01*
X119712200Y-99882737D02*
X119616961Y-99977975D01*
X119616961Y-99977975D02*
X119521723Y-100025594D01*
X119521723Y-100025594D02*
X119331247Y-100073213D01*
X119331247Y-100073213D02*
X119188390Y-100073213D01*
X119188390Y-100073213D02*
X118997914Y-100025594D01*
X118997914Y-100025594D02*
X118902676Y-99977975D01*
X118902676Y-99977975D02*
X118807438Y-99882737D01*
X118807438Y-99882737D02*
X118759819Y-99739880D01*
X118759819Y-99739880D02*
X118759819Y-99644642D01*
X118759819Y-99644642D02*
X118807438Y-99501785D01*
X118807438Y-99501785D02*
X118855057Y-99454166D01*
X119759819Y-98501785D02*
X119759819Y-99073213D01*
X119759819Y-98787499D02*
X118759819Y-98787499D01*
X118759819Y-98787499D02*
X118902676Y-98882737D01*
X118902676Y-98882737D02*
X118997914Y-98977975D01*
X118997914Y-98977975D02*
X119045533Y-99073213D01*
X117479580Y-112829166D02*
X117527200Y-112876785D01*
X117527200Y-112876785D02*
X117574819Y-113019642D01*
X117574819Y-113019642D02*
X117574819Y-113114880D01*
X117574819Y-113114880D02*
X117527200Y-113257737D01*
X117527200Y-113257737D02*
X117431961Y-113352975D01*
X117431961Y-113352975D02*
X117336723Y-113400594D01*
X117336723Y-113400594D02*
X117146247Y-113448213D01*
X117146247Y-113448213D02*
X117003390Y-113448213D01*
X117003390Y-113448213D02*
X116812914Y-113400594D01*
X116812914Y-113400594D02*
X116717676Y-113352975D01*
X116717676Y-113352975D02*
X116622438Y-113257737D01*
X116622438Y-113257737D02*
X116574819Y-113114880D01*
X116574819Y-113114880D02*
X116574819Y-113019642D01*
X116574819Y-113019642D02*
X116622438Y-112876785D01*
X116622438Y-112876785D02*
X116670057Y-112829166D01*
X117003390Y-112257737D02*
X116955771Y-112352975D01*
X116955771Y-112352975D02*
X116908152Y-112400594D01*
X116908152Y-112400594D02*
X116812914Y-112448213D01*
X116812914Y-112448213D02*
X116765295Y-112448213D01*
X116765295Y-112448213D02*
X116670057Y-112400594D01*
X116670057Y-112400594D02*
X116622438Y-112352975D01*
X116622438Y-112352975D02*
X116574819Y-112257737D01*
X116574819Y-112257737D02*
X116574819Y-112067261D01*
X116574819Y-112067261D02*
X116622438Y-111972023D01*
X116622438Y-111972023D02*
X116670057Y-111924404D01*
X116670057Y-111924404D02*
X116765295Y-111876785D01*
X116765295Y-111876785D02*
X116812914Y-111876785D01*
X116812914Y-111876785D02*
X116908152Y-111924404D01*
X116908152Y-111924404D02*
X116955771Y-111972023D01*
X116955771Y-111972023D02*
X117003390Y-112067261D01*
X117003390Y-112067261D02*
X117003390Y-112257737D01*
X117003390Y-112257737D02*
X117051009Y-112352975D01*
X117051009Y-112352975D02*
X117098628Y-112400594D01*
X117098628Y-112400594D02*
X117193866Y-112448213D01*
X117193866Y-112448213D02*
X117384342Y-112448213D01*
X117384342Y-112448213D02*
X117479580Y-112400594D01*
X117479580Y-112400594D02*
X117527200Y-112352975D01*
X117527200Y-112352975D02*
X117574819Y-112257737D01*
X117574819Y-112257737D02*
X117574819Y-112067261D01*
X117574819Y-112067261D02*
X117527200Y-111972023D01*
X117527200Y-111972023D02*
X117479580Y-111924404D01*
X117479580Y-111924404D02*
X117384342Y-111876785D01*
X117384342Y-111876785D02*
X117193866Y-111876785D01*
X117193866Y-111876785D02*
X117098628Y-111924404D01*
X117098628Y-111924404D02*
X117051009Y-111972023D01*
X117051009Y-111972023D02*
X117003390Y-112067261D01*
X125294642Y-80824819D02*
X124961309Y-80348628D01*
X124723214Y-80824819D02*
X124723214Y-79824819D01*
X124723214Y-79824819D02*
X125104166Y-79824819D01*
X125104166Y-79824819D02*
X125199404Y-79872438D01*
X125199404Y-79872438D02*
X125247023Y-79920057D01*
X125247023Y-79920057D02*
X125294642Y-80015295D01*
X125294642Y-80015295D02*
X125294642Y-80158152D01*
X125294642Y-80158152D02*
X125247023Y-80253390D01*
X125247023Y-80253390D02*
X125199404Y-80301009D01*
X125199404Y-80301009D02*
X125104166Y-80348628D01*
X125104166Y-80348628D02*
X124723214Y-80348628D01*
X126247023Y-80824819D02*
X125675595Y-80824819D01*
X125961309Y-80824819D02*
X125961309Y-79824819D01*
X125961309Y-79824819D02*
X125866071Y-79967676D01*
X125866071Y-79967676D02*
X125770833Y-80062914D01*
X125770833Y-80062914D02*
X125675595Y-80110533D01*
X126580357Y-79824819D02*
X127247023Y-79824819D01*
X127247023Y-79824819D02*
X126818452Y-80824819D01*
X113341668Y-100907200D02*
X113484525Y-100954819D01*
X113484525Y-100954819D02*
X113722620Y-100954819D01*
X113722620Y-100954819D02*
X113817858Y-100907200D01*
X113817858Y-100907200D02*
X113865477Y-100859580D01*
X113865477Y-100859580D02*
X113913096Y-100764342D01*
X113913096Y-100764342D02*
X113913096Y-100669104D01*
X113913096Y-100669104D02*
X113865477Y-100573866D01*
X113865477Y-100573866D02*
X113817858Y-100526247D01*
X113817858Y-100526247D02*
X113722620Y-100478628D01*
X113722620Y-100478628D02*
X113532144Y-100431009D01*
X113532144Y-100431009D02*
X113436906Y-100383390D01*
X113436906Y-100383390D02*
X113389287Y-100335771D01*
X113389287Y-100335771D02*
X113341668Y-100240533D01*
X113341668Y-100240533D02*
X113341668Y-100145295D01*
X113341668Y-100145295D02*
X113389287Y-100050057D01*
X113389287Y-100050057D02*
X113436906Y-100002438D01*
X113436906Y-100002438D02*
X113532144Y-99954819D01*
X113532144Y-99954819D02*
X113770239Y-99954819D01*
X113770239Y-99954819D02*
X113913096Y-100002438D01*
X114246430Y-99954819D02*
X114484525Y-100954819D01*
X114484525Y-100954819D02*
X114675001Y-100240533D01*
X114675001Y-100240533D02*
X114865477Y-100954819D01*
X114865477Y-100954819D02*
X115103573Y-99954819D01*
X115389287Y-99954819D02*
X116008334Y-99954819D01*
X116008334Y-99954819D02*
X115675001Y-100335771D01*
X115675001Y-100335771D02*
X115817858Y-100335771D01*
X115817858Y-100335771D02*
X115913096Y-100383390D01*
X115913096Y-100383390D02*
X115960715Y-100431009D01*
X115960715Y-100431009D02*
X116008334Y-100526247D01*
X116008334Y-100526247D02*
X116008334Y-100764342D01*
X116008334Y-100764342D02*
X115960715Y-100859580D01*
X115960715Y-100859580D02*
X115913096Y-100907200D01*
X115913096Y-100907200D02*
X115817858Y-100954819D01*
X115817858Y-100954819D02*
X115532144Y-100954819D01*
X115532144Y-100954819D02*
X115436906Y-100907200D01*
X115436906Y-100907200D02*
X115389287Y-100859580D01*
X116214580Y-120979166D02*
X116262200Y-121026785D01*
X116262200Y-121026785D02*
X116309819Y-121169642D01*
X116309819Y-121169642D02*
X116309819Y-121264880D01*
X116309819Y-121264880D02*
X116262200Y-121407737D01*
X116262200Y-121407737D02*
X116166961Y-121502975D01*
X116166961Y-121502975D02*
X116071723Y-121550594D01*
X116071723Y-121550594D02*
X115881247Y-121598213D01*
X115881247Y-121598213D02*
X115738390Y-121598213D01*
X115738390Y-121598213D02*
X115547914Y-121550594D01*
X115547914Y-121550594D02*
X115452676Y-121502975D01*
X115452676Y-121502975D02*
X115357438Y-121407737D01*
X115357438Y-121407737D02*
X115309819Y-121264880D01*
X115309819Y-121264880D02*
X115309819Y-121169642D01*
X115309819Y-121169642D02*
X115357438Y-121026785D01*
X115357438Y-121026785D02*
X115405057Y-120979166D01*
X116309819Y-120502975D02*
X116309819Y-120312499D01*
X116309819Y-120312499D02*
X116262200Y-120217261D01*
X116262200Y-120217261D02*
X116214580Y-120169642D01*
X116214580Y-120169642D02*
X116071723Y-120074404D01*
X116071723Y-120074404D02*
X115881247Y-120026785D01*
X115881247Y-120026785D02*
X115500295Y-120026785D01*
X115500295Y-120026785D02*
X115405057Y-120074404D01*
X115405057Y-120074404D02*
X115357438Y-120122023D01*
X115357438Y-120122023D02*
X115309819Y-120217261D01*
X115309819Y-120217261D02*
X115309819Y-120407737D01*
X115309819Y-120407737D02*
X115357438Y-120502975D01*
X115357438Y-120502975D02*
X115405057Y-120550594D01*
X115405057Y-120550594D02*
X115500295Y-120598213D01*
X115500295Y-120598213D02*
X115738390Y-120598213D01*
X115738390Y-120598213D02*
X115833628Y-120550594D01*
X115833628Y-120550594D02*
X115881247Y-120502975D01*
X115881247Y-120502975D02*
X115928866Y-120407737D01*
X115928866Y-120407737D02*
X115928866Y-120217261D01*
X115928866Y-120217261D02*
X115881247Y-120122023D01*
X115881247Y-120122023D02*
X115833628Y-120074404D01*
X115833628Y-120074404D02*
X115738390Y-120026785D01*
X176054819Y-120886904D02*
X176864342Y-120886904D01*
X176864342Y-120886904D02*
X176959580Y-120839285D01*
X176959580Y-120839285D02*
X177007200Y-120791666D01*
X177007200Y-120791666D02*
X177054819Y-120696428D01*
X177054819Y-120696428D02*
X177054819Y-120505952D01*
X177054819Y-120505952D02*
X177007200Y-120410714D01*
X177007200Y-120410714D02*
X176959580Y-120363095D01*
X176959580Y-120363095D02*
X176864342Y-120315476D01*
X176864342Y-120315476D02*
X176054819Y-120315476D01*
X176388152Y-119410714D02*
X177054819Y-119410714D01*
X176007200Y-119648809D02*
X176721485Y-119886904D01*
X176721485Y-119886904D02*
X176721485Y-119267857D01*
X151982142Y-101624819D02*
X151648809Y-101148628D01*
X151410714Y-101624819D02*
X151410714Y-100624819D01*
X151410714Y-100624819D02*
X151791666Y-100624819D01*
X151791666Y-100624819D02*
X151886904Y-100672438D01*
X151886904Y-100672438D02*
X151934523Y-100720057D01*
X151934523Y-100720057D02*
X151982142Y-100815295D01*
X151982142Y-100815295D02*
X151982142Y-100958152D01*
X151982142Y-100958152D02*
X151934523Y-101053390D01*
X151934523Y-101053390D02*
X151886904Y-101101009D01*
X151886904Y-101101009D02*
X151791666Y-101148628D01*
X151791666Y-101148628D02*
X151410714Y-101148628D01*
X152934523Y-101624819D02*
X152363095Y-101624819D01*
X152648809Y-101624819D02*
X152648809Y-100624819D01*
X152648809Y-100624819D02*
X152553571Y-100767676D01*
X152553571Y-100767676D02*
X152458333Y-100862914D01*
X152458333Y-100862914D02*
X152363095Y-100910533D01*
X153267857Y-100624819D02*
X153886904Y-100624819D01*
X153886904Y-100624819D02*
X153553571Y-101005771D01*
X153553571Y-101005771D02*
X153696428Y-101005771D01*
X153696428Y-101005771D02*
X153791666Y-101053390D01*
X153791666Y-101053390D02*
X153839285Y-101101009D01*
X153839285Y-101101009D02*
X153886904Y-101196247D01*
X153886904Y-101196247D02*
X153886904Y-101434342D01*
X153886904Y-101434342D02*
X153839285Y-101529580D01*
X153839285Y-101529580D02*
X153791666Y-101577200D01*
X153791666Y-101577200D02*
X153696428Y-101624819D01*
X153696428Y-101624819D02*
X153410714Y-101624819D01*
X153410714Y-101624819D02*
X153315476Y-101577200D01*
X153315476Y-101577200D02*
X153267857Y-101529580D01*
X140161905Y-132134819D02*
X140161905Y-131134819D01*
X140161905Y-131134819D02*
X140400000Y-131134819D01*
X140400000Y-131134819D02*
X140542857Y-131182438D01*
X140542857Y-131182438D02*
X140638095Y-131277676D01*
X140638095Y-131277676D02*
X140685714Y-131372914D01*
X140685714Y-131372914D02*
X140733333Y-131563390D01*
X140733333Y-131563390D02*
X140733333Y-131706247D01*
X140733333Y-131706247D02*
X140685714Y-131896723D01*
X140685714Y-131896723D02*
X140638095Y-131991961D01*
X140638095Y-131991961D02*
X140542857Y-132087200D01*
X140542857Y-132087200D02*
X140400000Y-132134819D01*
X140400000Y-132134819D02*
X140161905Y-132134819D01*
X141114286Y-131230057D02*
X141161905Y-131182438D01*
X141161905Y-131182438D02*
X141257143Y-131134819D01*
X141257143Y-131134819D02*
X141495238Y-131134819D01*
X141495238Y-131134819D02*
X141590476Y-131182438D01*
X141590476Y-131182438D02*
X141638095Y-131230057D01*
X141638095Y-131230057D02*
X141685714Y-131325295D01*
X141685714Y-131325295D02*
X141685714Y-131420533D01*
X141685714Y-131420533D02*
X141638095Y-131563390D01*
X141638095Y-131563390D02*
X141066667Y-132134819D01*
X141066667Y-132134819D02*
X141685714Y-132134819D01*
X180776309Y-167373628D02*
X180776309Y-167849819D01*
X180442976Y-166849819D02*
X180776309Y-167373628D01*
X180776309Y-167373628D02*
X181109642Y-166849819D01*
X181966785Y-167849819D02*
X181395357Y-167849819D01*
X181681071Y-167849819D02*
X181681071Y-166849819D01*
X181681071Y-166849819D02*
X181585833Y-166992676D01*
X181585833Y-166992676D02*
X181490595Y-167087914D01*
X181490595Y-167087914D02*
X181395357Y-167135533D01*
X145429580Y-120979166D02*
X145477200Y-121026785D01*
X145477200Y-121026785D02*
X145524819Y-121169642D01*
X145524819Y-121169642D02*
X145524819Y-121264880D01*
X145524819Y-121264880D02*
X145477200Y-121407737D01*
X145477200Y-121407737D02*
X145381961Y-121502975D01*
X145381961Y-121502975D02*
X145286723Y-121550594D01*
X145286723Y-121550594D02*
X145096247Y-121598213D01*
X145096247Y-121598213D02*
X144953390Y-121598213D01*
X144953390Y-121598213D02*
X144762914Y-121550594D01*
X144762914Y-121550594D02*
X144667676Y-121502975D01*
X144667676Y-121502975D02*
X144572438Y-121407737D01*
X144572438Y-121407737D02*
X144524819Y-121264880D01*
X144524819Y-121264880D02*
X144524819Y-121169642D01*
X144524819Y-121169642D02*
X144572438Y-121026785D01*
X144572438Y-121026785D02*
X144620057Y-120979166D01*
X144524819Y-120122023D02*
X144524819Y-120312499D01*
X144524819Y-120312499D02*
X144572438Y-120407737D01*
X144572438Y-120407737D02*
X144620057Y-120455356D01*
X144620057Y-120455356D02*
X144762914Y-120550594D01*
X144762914Y-120550594D02*
X144953390Y-120598213D01*
X144953390Y-120598213D02*
X145334342Y-120598213D01*
X145334342Y-120598213D02*
X145429580Y-120550594D01*
X145429580Y-120550594D02*
X145477200Y-120502975D01*
X145477200Y-120502975D02*
X145524819Y-120407737D01*
X145524819Y-120407737D02*
X145524819Y-120217261D01*
X145524819Y-120217261D02*
X145477200Y-120122023D01*
X145477200Y-120122023D02*
X145429580Y-120074404D01*
X145429580Y-120074404D02*
X145334342Y-120026785D01*
X145334342Y-120026785D02*
X145096247Y-120026785D01*
X145096247Y-120026785D02*
X145001009Y-120074404D01*
X145001009Y-120074404D02*
X144953390Y-120122023D01*
X144953390Y-120122023D02*
X144905771Y-120217261D01*
X144905771Y-120217261D02*
X144905771Y-120407737D01*
X144905771Y-120407737D02*
X144953390Y-120502975D01*
X144953390Y-120502975D02*
X145001009Y-120550594D01*
X145001009Y-120550594D02*
X145096247Y-120598213D01*
X161088095Y-107224819D02*
X161088095Y-108034342D01*
X161088095Y-108034342D02*
X161135714Y-108129580D01*
X161135714Y-108129580D02*
X161183333Y-108177200D01*
X161183333Y-108177200D02*
X161278571Y-108224819D01*
X161278571Y-108224819D02*
X161469047Y-108224819D01*
X161469047Y-108224819D02*
X161564285Y-108177200D01*
X161564285Y-108177200D02*
X161611904Y-108129580D01*
X161611904Y-108129580D02*
X161659523Y-108034342D01*
X161659523Y-108034342D02*
X161659523Y-107224819D01*
X162088095Y-107320057D02*
X162135714Y-107272438D01*
X162135714Y-107272438D02*
X162230952Y-107224819D01*
X162230952Y-107224819D02*
X162469047Y-107224819D01*
X162469047Y-107224819D02*
X162564285Y-107272438D01*
X162564285Y-107272438D02*
X162611904Y-107320057D01*
X162611904Y-107320057D02*
X162659523Y-107415295D01*
X162659523Y-107415295D02*
X162659523Y-107510533D01*
X162659523Y-107510533D02*
X162611904Y-107653390D01*
X162611904Y-107653390D02*
X162040476Y-108224819D01*
X162040476Y-108224819D02*
X162659523Y-108224819D01*
X142254819Y-120886904D02*
X143064342Y-120886904D01*
X143064342Y-120886904D02*
X143159580Y-120839285D01*
X143159580Y-120839285D02*
X143207200Y-120791666D01*
X143207200Y-120791666D02*
X143254819Y-120696428D01*
X143254819Y-120696428D02*
X143254819Y-120505952D01*
X143254819Y-120505952D02*
X143207200Y-120410714D01*
X143207200Y-120410714D02*
X143159580Y-120363095D01*
X143159580Y-120363095D02*
X143064342Y-120315476D01*
X143064342Y-120315476D02*
X142254819Y-120315476D01*
X142254819Y-119934523D02*
X142254819Y-119315476D01*
X142254819Y-119315476D02*
X142635771Y-119648809D01*
X142635771Y-119648809D02*
X142635771Y-119505952D01*
X142635771Y-119505952D02*
X142683390Y-119410714D01*
X142683390Y-119410714D02*
X142731009Y-119363095D01*
X142731009Y-119363095D02*
X142826247Y-119315476D01*
X142826247Y-119315476D02*
X143064342Y-119315476D01*
X143064342Y-119315476D02*
X143159580Y-119363095D01*
X143159580Y-119363095D02*
X143207200Y-119410714D01*
X143207200Y-119410714D02*
X143254819Y-119505952D01*
X143254819Y-119505952D02*
X143254819Y-119791666D01*
X143254819Y-119791666D02*
X143207200Y-119886904D01*
X143207200Y-119886904D02*
X143159580Y-119934523D01*
X159094642Y-80824819D02*
X158761309Y-80348628D01*
X158523214Y-80824819D02*
X158523214Y-79824819D01*
X158523214Y-79824819D02*
X158904166Y-79824819D01*
X158904166Y-79824819D02*
X158999404Y-79872438D01*
X158999404Y-79872438D02*
X159047023Y-79920057D01*
X159047023Y-79920057D02*
X159094642Y-80015295D01*
X159094642Y-80015295D02*
X159094642Y-80158152D01*
X159094642Y-80158152D02*
X159047023Y-80253390D01*
X159047023Y-80253390D02*
X158999404Y-80301009D01*
X158999404Y-80301009D02*
X158904166Y-80348628D01*
X158904166Y-80348628D02*
X158523214Y-80348628D01*
X159475595Y-79920057D02*
X159523214Y-79872438D01*
X159523214Y-79872438D02*
X159618452Y-79824819D01*
X159618452Y-79824819D02*
X159856547Y-79824819D01*
X159856547Y-79824819D02*
X159951785Y-79872438D01*
X159951785Y-79872438D02*
X159999404Y-79920057D01*
X159999404Y-79920057D02*
X160047023Y-80015295D01*
X160047023Y-80015295D02*
X160047023Y-80110533D01*
X160047023Y-80110533D02*
X159999404Y-80253390D01*
X159999404Y-80253390D02*
X159427976Y-80824819D01*
X159427976Y-80824819D02*
X160047023Y-80824819D01*
X160427976Y-79920057D02*
X160475595Y-79872438D01*
X160475595Y-79872438D02*
X160570833Y-79824819D01*
X160570833Y-79824819D02*
X160808928Y-79824819D01*
X160808928Y-79824819D02*
X160904166Y-79872438D01*
X160904166Y-79872438D02*
X160951785Y-79920057D01*
X160951785Y-79920057D02*
X160999404Y-80015295D01*
X160999404Y-80015295D02*
X160999404Y-80110533D01*
X160999404Y-80110533D02*
X160951785Y-80253390D01*
X160951785Y-80253390D02*
X160380357Y-80824819D01*
X160380357Y-80824819D02*
X160999404Y-80824819D01*
X127288095Y-107224819D02*
X127288095Y-108034342D01*
X127288095Y-108034342D02*
X127335714Y-108129580D01*
X127335714Y-108129580D02*
X127383333Y-108177200D01*
X127383333Y-108177200D02*
X127478571Y-108224819D01*
X127478571Y-108224819D02*
X127669047Y-108224819D01*
X127669047Y-108224819D02*
X127764285Y-108177200D01*
X127764285Y-108177200D02*
X127811904Y-108129580D01*
X127811904Y-108129580D02*
X127859523Y-108034342D01*
X127859523Y-108034342D02*
X127859523Y-107224819D01*
X128859523Y-108224819D02*
X128288095Y-108224819D01*
X128573809Y-108224819D02*
X128573809Y-107224819D01*
X128573809Y-107224819D02*
X128478571Y-107367676D01*
X128478571Y-107367676D02*
X128383333Y-107462914D01*
X128383333Y-107462914D02*
X128288095Y-107510533D01*
X156139580Y-112816666D02*
X156187200Y-112864285D01*
X156187200Y-112864285D02*
X156234819Y-113007142D01*
X156234819Y-113007142D02*
X156234819Y-113102380D01*
X156234819Y-113102380D02*
X156187200Y-113245237D01*
X156187200Y-113245237D02*
X156091961Y-113340475D01*
X156091961Y-113340475D02*
X155996723Y-113388094D01*
X155996723Y-113388094D02*
X155806247Y-113435713D01*
X155806247Y-113435713D02*
X155663390Y-113435713D01*
X155663390Y-113435713D02*
X155472914Y-113388094D01*
X155472914Y-113388094D02*
X155377676Y-113340475D01*
X155377676Y-113340475D02*
X155282438Y-113245237D01*
X155282438Y-113245237D02*
X155234819Y-113102380D01*
X155234819Y-113102380D02*
X155234819Y-113007142D01*
X155234819Y-113007142D02*
X155282438Y-112864285D01*
X155282438Y-112864285D02*
X155330057Y-112816666D01*
X155568152Y-111959523D02*
X156234819Y-111959523D01*
X155187200Y-112197618D02*
X155901485Y-112435713D01*
X155901485Y-112435713D02*
X155901485Y-111816666D01*
X173961905Y-132134819D02*
X173961905Y-131134819D01*
X173961905Y-131134819D02*
X174200000Y-131134819D01*
X174200000Y-131134819D02*
X174342857Y-131182438D01*
X174342857Y-131182438D02*
X174438095Y-131277676D01*
X174438095Y-131277676D02*
X174485714Y-131372914D01*
X174485714Y-131372914D02*
X174533333Y-131563390D01*
X174533333Y-131563390D02*
X174533333Y-131706247D01*
X174533333Y-131706247D02*
X174485714Y-131896723D01*
X174485714Y-131896723D02*
X174438095Y-131991961D01*
X174438095Y-131991961D02*
X174342857Y-132087200D01*
X174342857Y-132087200D02*
X174200000Y-132134819D01*
X174200000Y-132134819D02*
X173961905Y-132134819D01*
X175390476Y-131468152D02*
X175390476Y-132134819D01*
X175152381Y-131087200D02*
X174914286Y-131801485D01*
X174914286Y-131801485D02*
X175533333Y-131801485D01*
X123943846Y-125919588D02*
X124592390Y-125919588D01*
X124592390Y-125919588D02*
X124668689Y-125881439D01*
X124668689Y-125881439D02*
X124706839Y-125843289D01*
X124706839Y-125843289D02*
X124744988Y-125766990D01*
X124744988Y-125766990D02*
X124744988Y-125614391D01*
X124744988Y-125614391D02*
X124706839Y-125538092D01*
X124706839Y-125538092D02*
X124668689Y-125499943D01*
X124668689Y-125499943D02*
X124592390Y-125461793D01*
X124592390Y-125461793D02*
X123943846Y-125461793D01*
X123943846Y-124698800D02*
X123943846Y-125080296D01*
X123943846Y-125080296D02*
X124325342Y-125118446D01*
X124325342Y-125118446D02*
X124287193Y-125080296D01*
X124287193Y-125080296D02*
X124249043Y-125003997D01*
X124249043Y-125003997D02*
X124249043Y-124813249D01*
X124249043Y-124813249D02*
X124287193Y-124736950D01*
X124287193Y-124736950D02*
X124325342Y-124698800D01*
X124325342Y-124698800D02*
X124401642Y-124660651D01*
X124401642Y-124660651D02*
X124592390Y-124660651D01*
X124592390Y-124660651D02*
X124668689Y-124698800D01*
X124668689Y-124698800D02*
X124706839Y-124736950D01*
X124706839Y-124736950D02*
X124744988Y-124813249D01*
X124744988Y-124813249D02*
X124744988Y-125003997D01*
X124744988Y-125003997D02*
X124706839Y-125080296D01*
X124706839Y-125080296D02*
X124668689Y-125118446D01*
X111629580Y-120979166D02*
X111677200Y-121026785D01*
X111677200Y-121026785D02*
X111724819Y-121169642D01*
X111724819Y-121169642D02*
X111724819Y-121264880D01*
X111724819Y-121264880D02*
X111677200Y-121407737D01*
X111677200Y-121407737D02*
X111581961Y-121502975D01*
X111581961Y-121502975D02*
X111486723Y-121550594D01*
X111486723Y-121550594D02*
X111296247Y-121598213D01*
X111296247Y-121598213D02*
X111153390Y-121598213D01*
X111153390Y-121598213D02*
X110962914Y-121550594D01*
X110962914Y-121550594D02*
X110867676Y-121502975D01*
X110867676Y-121502975D02*
X110772438Y-121407737D01*
X110772438Y-121407737D02*
X110724819Y-121264880D01*
X110724819Y-121264880D02*
X110724819Y-121169642D01*
X110724819Y-121169642D02*
X110772438Y-121026785D01*
X110772438Y-121026785D02*
X110820057Y-120979166D01*
X110724819Y-120074404D02*
X110724819Y-120550594D01*
X110724819Y-120550594D02*
X111201009Y-120598213D01*
X111201009Y-120598213D02*
X111153390Y-120550594D01*
X111153390Y-120550594D02*
X111105771Y-120455356D01*
X111105771Y-120455356D02*
X111105771Y-120217261D01*
X111105771Y-120217261D02*
X111153390Y-120122023D01*
X111153390Y-120122023D02*
X111201009Y-120074404D01*
X111201009Y-120074404D02*
X111296247Y-120026785D01*
X111296247Y-120026785D02*
X111534342Y-120026785D01*
X111534342Y-120026785D02*
X111629580Y-120074404D01*
X111629580Y-120074404D02*
X111677200Y-120122023D01*
X111677200Y-120122023D02*
X111724819Y-120217261D01*
X111724819Y-120217261D02*
X111724819Y-120455356D01*
X111724819Y-120455356D02*
X111677200Y-120550594D01*
X111677200Y-120550594D02*
X111629580Y-120598213D01*
X140111905Y-139284819D02*
X140111905Y-138284819D01*
X140111905Y-138284819D02*
X140350000Y-138284819D01*
X140350000Y-138284819D02*
X140492857Y-138332438D01*
X140492857Y-138332438D02*
X140588095Y-138427676D01*
X140588095Y-138427676D02*
X140635714Y-138522914D01*
X140635714Y-138522914D02*
X140683333Y-138713390D01*
X140683333Y-138713390D02*
X140683333Y-138856247D01*
X140683333Y-138856247D02*
X140635714Y-139046723D01*
X140635714Y-139046723D02*
X140588095Y-139141961D01*
X140588095Y-139141961D02*
X140492857Y-139237200D01*
X140492857Y-139237200D02*
X140350000Y-139284819D01*
X140350000Y-139284819D02*
X140111905Y-139284819D01*
X141016667Y-138284819D02*
X141635714Y-138284819D01*
X141635714Y-138284819D02*
X141302381Y-138665771D01*
X141302381Y-138665771D02*
X141445238Y-138665771D01*
X141445238Y-138665771D02*
X141540476Y-138713390D01*
X141540476Y-138713390D02*
X141588095Y-138761009D01*
X141588095Y-138761009D02*
X141635714Y-138856247D01*
X141635714Y-138856247D02*
X141635714Y-139094342D01*
X141635714Y-139094342D02*
X141588095Y-139189580D01*
X141588095Y-139189580D02*
X141540476Y-139237200D01*
X141540476Y-139237200D02*
X141445238Y-139284819D01*
X141445238Y-139284819D02*
X141159524Y-139284819D01*
X141159524Y-139284819D02*
X141064286Y-139237200D01*
X141064286Y-139237200D02*
X141016667Y-139189580D01*
X169194642Y-124249819D02*
X168861309Y-123773628D01*
X168623214Y-124249819D02*
X168623214Y-123249819D01*
X168623214Y-123249819D02*
X169004166Y-123249819D01*
X169004166Y-123249819D02*
X169099404Y-123297438D01*
X169099404Y-123297438D02*
X169147023Y-123345057D01*
X169147023Y-123345057D02*
X169194642Y-123440295D01*
X169194642Y-123440295D02*
X169194642Y-123583152D01*
X169194642Y-123583152D02*
X169147023Y-123678390D01*
X169147023Y-123678390D02*
X169099404Y-123726009D01*
X169099404Y-123726009D02*
X169004166Y-123773628D01*
X169004166Y-123773628D02*
X168623214Y-123773628D01*
X170147023Y-124249819D02*
X169575595Y-124249819D01*
X169861309Y-124249819D02*
X169861309Y-123249819D01*
X169861309Y-123249819D02*
X169766071Y-123392676D01*
X169766071Y-123392676D02*
X169670833Y-123487914D01*
X169670833Y-123487914D02*
X169575595Y-123535533D01*
X170623214Y-124249819D02*
X170813690Y-124249819D01*
X170813690Y-124249819D02*
X170908928Y-124202200D01*
X170908928Y-124202200D02*
X170956547Y-124154580D01*
X170956547Y-124154580D02*
X171051785Y-124011723D01*
X171051785Y-124011723D02*
X171099404Y-123821247D01*
X171099404Y-123821247D02*
X171099404Y-123440295D01*
X171099404Y-123440295D02*
X171051785Y-123345057D01*
X171051785Y-123345057D02*
X171004166Y-123297438D01*
X171004166Y-123297438D02*
X170908928Y-123249819D01*
X170908928Y-123249819D02*
X170718452Y-123249819D01*
X170718452Y-123249819D02*
X170623214Y-123297438D01*
X170623214Y-123297438D02*
X170575595Y-123345057D01*
X170575595Y-123345057D02*
X170527976Y-123440295D01*
X170527976Y-123440295D02*
X170527976Y-123678390D01*
X170527976Y-123678390D02*
X170575595Y-123773628D01*
X170575595Y-123773628D02*
X170623214Y-123821247D01*
X170623214Y-123821247D02*
X170718452Y-123868866D01*
X170718452Y-123868866D02*
X170908928Y-123868866D01*
X170908928Y-123868866D02*
X171004166Y-123821247D01*
X171004166Y-123821247D02*
X171051785Y-123773628D01*
X171051785Y-123773628D02*
X171099404Y-123678390D01*
X134519642Y-81449819D02*
X134186309Y-80973628D01*
X133948214Y-81449819D02*
X133948214Y-80449819D01*
X133948214Y-80449819D02*
X134329166Y-80449819D01*
X134329166Y-80449819D02*
X134424404Y-80497438D01*
X134424404Y-80497438D02*
X134472023Y-80545057D01*
X134472023Y-80545057D02*
X134519642Y-80640295D01*
X134519642Y-80640295D02*
X134519642Y-80783152D01*
X134519642Y-80783152D02*
X134472023Y-80878390D01*
X134472023Y-80878390D02*
X134424404Y-80926009D01*
X134424404Y-80926009D02*
X134329166Y-80973628D01*
X134329166Y-80973628D02*
X133948214Y-80973628D01*
X135472023Y-81449819D02*
X134900595Y-81449819D01*
X135186309Y-81449819D02*
X135186309Y-80449819D01*
X135186309Y-80449819D02*
X135091071Y-80592676D01*
X135091071Y-80592676D02*
X134995833Y-80687914D01*
X134995833Y-80687914D02*
X134900595Y-80735533D01*
X136329166Y-80449819D02*
X136138690Y-80449819D01*
X136138690Y-80449819D02*
X136043452Y-80497438D01*
X136043452Y-80497438D02*
X135995833Y-80545057D01*
X135995833Y-80545057D02*
X135900595Y-80687914D01*
X135900595Y-80687914D02*
X135852976Y-80878390D01*
X135852976Y-80878390D02*
X135852976Y-81259342D01*
X135852976Y-81259342D02*
X135900595Y-81354580D01*
X135900595Y-81354580D02*
X135948214Y-81402200D01*
X135948214Y-81402200D02*
X136043452Y-81449819D01*
X136043452Y-81449819D02*
X136233928Y-81449819D01*
X136233928Y-81449819D02*
X136329166Y-81402200D01*
X136329166Y-81402200D02*
X136376785Y-81354580D01*
X136376785Y-81354580D02*
X136424404Y-81259342D01*
X136424404Y-81259342D02*
X136424404Y-81021247D01*
X136424404Y-81021247D02*
X136376785Y-80926009D01*
X136376785Y-80926009D02*
X136329166Y-80878390D01*
X136329166Y-80878390D02*
X136233928Y-80830771D01*
X136233928Y-80830771D02*
X136043452Y-80830771D01*
X136043452Y-80830771D02*
X135948214Y-80878390D01*
X135948214Y-80878390D02*
X135900595Y-80926009D01*
X135900595Y-80926009D02*
X135852976Y-81021247D01*
X135141666Y-78579819D02*
X135141666Y-79294104D01*
X135141666Y-79294104D02*
X135094047Y-79436961D01*
X135094047Y-79436961D02*
X134998809Y-79532200D01*
X134998809Y-79532200D02*
X134855952Y-79579819D01*
X134855952Y-79579819D02*
X134760714Y-79579819D01*
X136046428Y-78913152D02*
X136046428Y-79579819D01*
X135808333Y-78532200D02*
X135570238Y-79246485D01*
X135570238Y-79246485D02*
X136189285Y-79246485D01*
X152714819Y-80009523D02*
X153429104Y-80009523D01*
X153429104Y-80009523D02*
X153571961Y-80057142D01*
X153571961Y-80057142D02*
X153667200Y-80152380D01*
X153667200Y-80152380D02*
X153714819Y-80295237D01*
X153714819Y-80295237D02*
X153714819Y-80390475D01*
X153714819Y-79009523D02*
X153714819Y-79580951D01*
X153714819Y-79295237D02*
X152714819Y-79295237D01*
X152714819Y-79295237D02*
X152857676Y-79390475D01*
X152857676Y-79390475D02*
X152952914Y-79485713D01*
X152952914Y-79485713D02*
X153000533Y-79580951D01*
X153048152Y-78152380D02*
X153714819Y-78152380D01*
X152667200Y-78390475D02*
X153381485Y-78628570D01*
X153381485Y-78628570D02*
X153381485Y-78009523D01*
X150491666Y-130369819D02*
X150491666Y-131084104D01*
X150491666Y-131084104D02*
X150444047Y-131226961D01*
X150444047Y-131226961D02*
X150348809Y-131322200D01*
X150348809Y-131322200D02*
X150205952Y-131369819D01*
X150205952Y-131369819D02*
X150110714Y-131369819D01*
X150872619Y-130369819D02*
X151491666Y-130369819D01*
X151491666Y-130369819D02*
X151158333Y-130750771D01*
X151158333Y-130750771D02*
X151301190Y-130750771D01*
X151301190Y-130750771D02*
X151396428Y-130798390D01*
X151396428Y-130798390D02*
X151444047Y-130846009D01*
X151444047Y-130846009D02*
X151491666Y-130941247D01*
X151491666Y-130941247D02*
X151491666Y-131179342D01*
X151491666Y-131179342D02*
X151444047Y-131274580D01*
X151444047Y-131274580D02*
X151396428Y-131322200D01*
X151396428Y-131322200D02*
X151301190Y-131369819D01*
X151301190Y-131369819D02*
X151015476Y-131369819D01*
X151015476Y-131369819D02*
X150920238Y-131322200D01*
X150920238Y-131322200D02*
X150872619Y-131274580D01*
X118914819Y-80009523D02*
X119629104Y-80009523D01*
X119629104Y-80009523D02*
X119771961Y-80057142D01*
X119771961Y-80057142D02*
X119867200Y-80152380D01*
X119867200Y-80152380D02*
X119914819Y-80295237D01*
X119914819Y-80295237D02*
X119914819Y-80390475D01*
X119914819Y-79009523D02*
X119914819Y-79580951D01*
X119914819Y-79295237D02*
X118914819Y-79295237D01*
X118914819Y-79295237D02*
X119057676Y-79390475D01*
X119057676Y-79390475D02*
X119152914Y-79485713D01*
X119152914Y-79485713D02*
X119200533Y-79580951D01*
X118914819Y-78390475D02*
X118914819Y-78295237D01*
X118914819Y-78295237D02*
X118962438Y-78199999D01*
X118962438Y-78199999D02*
X119010057Y-78152380D01*
X119010057Y-78152380D02*
X119105295Y-78104761D01*
X119105295Y-78104761D02*
X119295771Y-78057142D01*
X119295771Y-78057142D02*
X119533866Y-78057142D01*
X119533866Y-78057142D02*
X119724342Y-78104761D01*
X119724342Y-78104761D02*
X119819580Y-78152380D01*
X119819580Y-78152380D02*
X119867200Y-78199999D01*
X119867200Y-78199999D02*
X119914819Y-78295237D01*
X119914819Y-78295237D02*
X119914819Y-78390475D01*
X119914819Y-78390475D02*
X119867200Y-78485713D01*
X119867200Y-78485713D02*
X119819580Y-78533332D01*
X119819580Y-78533332D02*
X119724342Y-78580951D01*
X119724342Y-78580951D02*
X119533866Y-78628570D01*
X119533866Y-78628570D02*
X119295771Y-78628570D01*
X119295771Y-78628570D02*
X119105295Y-78580951D01*
X119105295Y-78580951D02*
X119010057Y-78533332D01*
X119010057Y-78533332D02*
X118962438Y-78485713D01*
X118962438Y-78485713D02*
X118914819Y-78390475D01*
X127384819Y-122033333D02*
X128099104Y-122033333D01*
X128099104Y-122033333D02*
X128241961Y-122080952D01*
X128241961Y-122080952D02*
X128337200Y-122176190D01*
X128337200Y-122176190D02*
X128384819Y-122319047D01*
X128384819Y-122319047D02*
X128384819Y-122414285D01*
X127384819Y-121652380D02*
X127384819Y-120985714D01*
X127384819Y-120985714D02*
X128384819Y-121414285D01*
X118182142Y-101624819D02*
X117848809Y-101148628D01*
X117610714Y-101624819D02*
X117610714Y-100624819D01*
X117610714Y-100624819D02*
X117991666Y-100624819D01*
X117991666Y-100624819D02*
X118086904Y-100672438D01*
X118086904Y-100672438D02*
X118134523Y-100720057D01*
X118134523Y-100720057D02*
X118182142Y-100815295D01*
X118182142Y-100815295D02*
X118182142Y-100958152D01*
X118182142Y-100958152D02*
X118134523Y-101053390D01*
X118134523Y-101053390D02*
X118086904Y-101101009D01*
X118086904Y-101101009D02*
X117991666Y-101148628D01*
X117991666Y-101148628D02*
X117610714Y-101148628D01*
X119134523Y-101624819D02*
X118563095Y-101624819D01*
X118848809Y-101624819D02*
X118848809Y-100624819D01*
X118848809Y-100624819D02*
X118753571Y-100767676D01*
X118753571Y-100767676D02*
X118658333Y-100862914D01*
X118658333Y-100862914D02*
X118563095Y-100910533D01*
X120086904Y-101624819D02*
X119515476Y-101624819D01*
X119801190Y-101624819D02*
X119801190Y-100624819D01*
X119801190Y-100624819D02*
X119705952Y-100767676D01*
X119705952Y-100767676D02*
X119610714Y-100862914D01*
X119610714Y-100862914D02*
X119515476Y-100910533D01*
X140991666Y-97114819D02*
X140991666Y-97829104D01*
X140991666Y-97829104D02*
X140944047Y-97971961D01*
X140944047Y-97971961D02*
X140848809Y-98067200D01*
X140848809Y-98067200D02*
X140705952Y-98114819D01*
X140705952Y-98114819D02*
X140610714Y-98114819D01*
X141610714Y-97543390D02*
X141515476Y-97495771D01*
X141515476Y-97495771D02*
X141467857Y-97448152D01*
X141467857Y-97448152D02*
X141420238Y-97352914D01*
X141420238Y-97352914D02*
X141420238Y-97305295D01*
X141420238Y-97305295D02*
X141467857Y-97210057D01*
X141467857Y-97210057D02*
X141515476Y-97162438D01*
X141515476Y-97162438D02*
X141610714Y-97114819D01*
X141610714Y-97114819D02*
X141801190Y-97114819D01*
X141801190Y-97114819D02*
X141896428Y-97162438D01*
X141896428Y-97162438D02*
X141944047Y-97210057D01*
X141944047Y-97210057D02*
X141991666Y-97305295D01*
X141991666Y-97305295D02*
X141991666Y-97352914D01*
X141991666Y-97352914D02*
X141944047Y-97448152D01*
X141944047Y-97448152D02*
X141896428Y-97495771D01*
X141896428Y-97495771D02*
X141801190Y-97543390D01*
X141801190Y-97543390D02*
X141610714Y-97543390D01*
X141610714Y-97543390D02*
X141515476Y-97591009D01*
X141515476Y-97591009D02*
X141467857Y-97638628D01*
X141467857Y-97638628D02*
X141420238Y-97733866D01*
X141420238Y-97733866D02*
X141420238Y-97924342D01*
X141420238Y-97924342D02*
X141467857Y-98019580D01*
X141467857Y-98019580D02*
X141515476Y-98067200D01*
X141515476Y-98067200D02*
X141610714Y-98114819D01*
X141610714Y-98114819D02*
X141801190Y-98114819D01*
X141801190Y-98114819D02*
X141896428Y-98067200D01*
X141896428Y-98067200D02*
X141944047Y-98019580D01*
X141944047Y-98019580D02*
X141991666Y-97924342D01*
X141991666Y-97924342D02*
X141991666Y-97733866D01*
X141991666Y-97733866D02*
X141944047Y-97638628D01*
X141944047Y-97638628D02*
X141896428Y-97591009D01*
X141896428Y-97591009D02*
X141801190Y-97543390D01*
X174315476Y-97114819D02*
X174315476Y-97829104D01*
X174315476Y-97829104D02*
X174267857Y-97971961D01*
X174267857Y-97971961D02*
X174172619Y-98067200D01*
X174172619Y-98067200D02*
X174029762Y-98114819D01*
X174029762Y-98114819D02*
X173934524Y-98114819D01*
X175315476Y-98114819D02*
X174744048Y-98114819D01*
X175029762Y-98114819D02*
X175029762Y-97114819D01*
X175029762Y-97114819D02*
X174934524Y-97257676D01*
X174934524Y-97257676D02*
X174839286Y-97352914D01*
X174839286Y-97352914D02*
X174744048Y-97400533D01*
X175648810Y-97114819D02*
X176267857Y-97114819D01*
X176267857Y-97114819D02*
X175934524Y-97495771D01*
X175934524Y-97495771D02*
X176077381Y-97495771D01*
X176077381Y-97495771D02*
X176172619Y-97543390D01*
X176172619Y-97543390D02*
X176220238Y-97591009D01*
X176220238Y-97591009D02*
X176267857Y-97686247D01*
X176267857Y-97686247D02*
X176267857Y-97924342D01*
X176267857Y-97924342D02*
X176220238Y-98019580D01*
X176220238Y-98019580D02*
X176172619Y-98067200D01*
X176172619Y-98067200D02*
X176077381Y-98114819D01*
X176077381Y-98114819D02*
X175791667Y-98114819D01*
X175791667Y-98114819D02*
X175696429Y-98067200D01*
X175696429Y-98067200D02*
X175648810Y-98019580D01*
X214576309Y-167373628D02*
X214576309Y-167849819D01*
X214242976Y-166849819D02*
X214576309Y-167373628D01*
X214576309Y-167373628D02*
X214909642Y-166849819D01*
X215195357Y-166945057D02*
X215242976Y-166897438D01*
X215242976Y-166897438D02*
X215338214Y-166849819D01*
X215338214Y-166849819D02*
X215576309Y-166849819D01*
X215576309Y-166849819D02*
X215671547Y-166897438D01*
X215671547Y-166897438D02*
X215719166Y-166945057D01*
X215719166Y-166945057D02*
X215766785Y-167040295D01*
X215766785Y-167040295D02*
X215766785Y-167135533D01*
X215766785Y-167135533D02*
X215719166Y-167278390D01*
X215719166Y-167278390D02*
X215147738Y-167849819D01*
X215147738Y-167849819D02*
X215766785Y-167849819D01*
X121759819Y-99930357D02*
X121283628Y-100263690D01*
X121759819Y-100501785D02*
X120759819Y-100501785D01*
X120759819Y-100501785D02*
X120759819Y-100120833D01*
X120759819Y-100120833D02*
X120807438Y-100025595D01*
X120807438Y-100025595D02*
X120855057Y-99977976D01*
X120855057Y-99977976D02*
X120950295Y-99930357D01*
X120950295Y-99930357D02*
X121093152Y-99930357D01*
X121093152Y-99930357D02*
X121188390Y-99977976D01*
X121188390Y-99977976D02*
X121236009Y-100025595D01*
X121236009Y-100025595D02*
X121283628Y-100120833D01*
X121283628Y-100120833D02*
X121283628Y-100501785D01*
X121759819Y-98977976D02*
X121759819Y-99549404D01*
X121759819Y-99263690D02*
X120759819Y-99263690D01*
X120759819Y-99263690D02*
X120902676Y-99358928D01*
X120902676Y-99358928D02*
X120997914Y-99454166D01*
X120997914Y-99454166D02*
X121045533Y-99549404D01*
X120855057Y-98597023D02*
X120807438Y-98549404D01*
X120807438Y-98549404D02*
X120759819Y-98454166D01*
X120759819Y-98454166D02*
X120759819Y-98216071D01*
X120759819Y-98216071D02*
X120807438Y-98120833D01*
X120807438Y-98120833D02*
X120855057Y-98073214D01*
X120855057Y-98073214D02*
X120950295Y-98025595D01*
X120950295Y-98025595D02*
X121045533Y-98025595D01*
X121045533Y-98025595D02*
X121188390Y-98073214D01*
X121188390Y-98073214D02*
X121759819Y-98644642D01*
X121759819Y-98644642D02*
X121759819Y-98025595D01*
X122339580Y-112816666D02*
X122387200Y-112864285D01*
X122387200Y-112864285D02*
X122434819Y-113007142D01*
X122434819Y-113007142D02*
X122434819Y-113102380D01*
X122434819Y-113102380D02*
X122387200Y-113245237D01*
X122387200Y-113245237D02*
X122291961Y-113340475D01*
X122291961Y-113340475D02*
X122196723Y-113388094D01*
X122196723Y-113388094D02*
X122006247Y-113435713D01*
X122006247Y-113435713D02*
X121863390Y-113435713D01*
X121863390Y-113435713D02*
X121672914Y-113388094D01*
X121672914Y-113388094D02*
X121577676Y-113340475D01*
X121577676Y-113340475D02*
X121482438Y-113245237D01*
X121482438Y-113245237D02*
X121434819Y-113102380D01*
X121434819Y-113102380D02*
X121434819Y-113007142D01*
X121434819Y-113007142D02*
X121482438Y-112864285D01*
X121482438Y-112864285D02*
X121530057Y-112816666D01*
X121530057Y-112435713D02*
X121482438Y-112388094D01*
X121482438Y-112388094D02*
X121434819Y-112292856D01*
X121434819Y-112292856D02*
X121434819Y-112054761D01*
X121434819Y-112054761D02*
X121482438Y-111959523D01*
X121482438Y-111959523D02*
X121530057Y-111911904D01*
X121530057Y-111911904D02*
X121625295Y-111864285D01*
X121625295Y-111864285D02*
X121720533Y-111864285D01*
X121720533Y-111864285D02*
X121863390Y-111911904D01*
X121863390Y-111911904D02*
X122434819Y-112483332D01*
X122434819Y-112483332D02*
X122434819Y-111864285D01*
X173911905Y-139284819D02*
X173911905Y-138284819D01*
X173911905Y-138284819D02*
X174150000Y-138284819D01*
X174150000Y-138284819D02*
X174292857Y-138332438D01*
X174292857Y-138332438D02*
X174388095Y-138427676D01*
X174388095Y-138427676D02*
X174435714Y-138522914D01*
X174435714Y-138522914D02*
X174483333Y-138713390D01*
X174483333Y-138713390D02*
X174483333Y-138856247D01*
X174483333Y-138856247D02*
X174435714Y-139046723D01*
X174435714Y-139046723D02*
X174388095Y-139141961D01*
X174388095Y-139141961D02*
X174292857Y-139237200D01*
X174292857Y-139237200D02*
X174150000Y-139284819D01*
X174150000Y-139284819D02*
X173911905Y-139284819D01*
X175388095Y-138284819D02*
X174911905Y-138284819D01*
X174911905Y-138284819D02*
X174864286Y-138761009D01*
X174864286Y-138761009D02*
X174911905Y-138713390D01*
X174911905Y-138713390D02*
X175007143Y-138665771D01*
X175007143Y-138665771D02*
X175245238Y-138665771D01*
X175245238Y-138665771D02*
X175340476Y-138713390D01*
X175340476Y-138713390D02*
X175388095Y-138761009D01*
X175388095Y-138761009D02*
X175435714Y-138856247D01*
X175435714Y-138856247D02*
X175435714Y-139094342D01*
X175435714Y-139094342D02*
X175388095Y-139189580D01*
X175388095Y-139189580D02*
X175340476Y-139237200D01*
X175340476Y-139237200D02*
X175245238Y-139284819D01*
X175245238Y-139284819D02*
X175007143Y-139284819D01*
X175007143Y-139284819D02*
X174911905Y-139237200D01*
X174911905Y-139237200D02*
X174864286Y-139189580D01*
X157665476Y-78904819D02*
X157665476Y-79619104D01*
X157665476Y-79619104D02*
X157617857Y-79761961D01*
X157617857Y-79761961D02*
X157522619Y-79857200D01*
X157522619Y-79857200D02*
X157379762Y-79904819D01*
X157379762Y-79904819D02*
X157284524Y-79904819D01*
X158665476Y-79904819D02*
X158094048Y-79904819D01*
X158379762Y-79904819D02*
X158379762Y-78904819D01*
X158379762Y-78904819D02*
X158284524Y-79047676D01*
X158284524Y-79047676D02*
X158189286Y-79142914D01*
X158189286Y-79142914D02*
X158094048Y-79190533D01*
X159570238Y-78904819D02*
X159094048Y-78904819D01*
X159094048Y-78904819D02*
X159046429Y-79381009D01*
X159046429Y-79381009D02*
X159094048Y-79333390D01*
X159094048Y-79333390D02*
X159189286Y-79285771D01*
X159189286Y-79285771D02*
X159427381Y-79285771D01*
X159427381Y-79285771D02*
X159522619Y-79333390D01*
X159522619Y-79333390D02*
X159570238Y-79381009D01*
X159570238Y-79381009D02*
X159617857Y-79476247D01*
X159617857Y-79476247D02*
X159617857Y-79714342D01*
X159617857Y-79714342D02*
X159570238Y-79809580D01*
X159570238Y-79809580D02*
X159522619Y-79857200D01*
X159522619Y-79857200D02*
X159427381Y-79904819D01*
X159427381Y-79904819D02*
X159189286Y-79904819D01*
X159189286Y-79904819D02*
X159094048Y-79857200D01*
X159094048Y-79857200D02*
X159046429Y-79809580D01*
X140758333Y-125004819D02*
X140425000Y-124528628D01*
X140186905Y-125004819D02*
X140186905Y-124004819D01*
X140186905Y-124004819D02*
X140567857Y-124004819D01*
X140567857Y-124004819D02*
X140663095Y-124052438D01*
X140663095Y-124052438D02*
X140710714Y-124100057D01*
X140710714Y-124100057D02*
X140758333Y-124195295D01*
X140758333Y-124195295D02*
X140758333Y-124338152D01*
X140758333Y-124338152D02*
X140710714Y-124433390D01*
X140710714Y-124433390D02*
X140663095Y-124481009D01*
X140663095Y-124481009D02*
X140567857Y-124528628D01*
X140567857Y-124528628D02*
X140186905Y-124528628D01*
X141615476Y-124338152D02*
X141615476Y-125004819D01*
X141377381Y-123957200D02*
X141139286Y-124671485D01*
X141139286Y-124671485D02*
X141758333Y-124671485D01*
X168319642Y-81449819D02*
X167986309Y-80973628D01*
X167748214Y-81449819D02*
X167748214Y-80449819D01*
X167748214Y-80449819D02*
X168129166Y-80449819D01*
X168129166Y-80449819D02*
X168224404Y-80497438D01*
X168224404Y-80497438D02*
X168272023Y-80545057D01*
X168272023Y-80545057D02*
X168319642Y-80640295D01*
X168319642Y-80640295D02*
X168319642Y-80783152D01*
X168319642Y-80783152D02*
X168272023Y-80878390D01*
X168272023Y-80878390D02*
X168224404Y-80926009D01*
X168224404Y-80926009D02*
X168129166Y-80973628D01*
X168129166Y-80973628D02*
X167748214Y-80973628D01*
X168700595Y-80545057D02*
X168748214Y-80497438D01*
X168748214Y-80497438D02*
X168843452Y-80449819D01*
X168843452Y-80449819D02*
X169081547Y-80449819D01*
X169081547Y-80449819D02*
X169176785Y-80497438D01*
X169176785Y-80497438D02*
X169224404Y-80545057D01*
X169224404Y-80545057D02*
X169272023Y-80640295D01*
X169272023Y-80640295D02*
X169272023Y-80735533D01*
X169272023Y-80735533D02*
X169224404Y-80878390D01*
X169224404Y-80878390D02*
X168652976Y-81449819D01*
X168652976Y-81449819D02*
X169272023Y-81449819D01*
X170224404Y-81449819D02*
X169652976Y-81449819D01*
X169938690Y-81449819D02*
X169938690Y-80449819D01*
X169938690Y-80449819D02*
X169843452Y-80592676D01*
X169843452Y-80592676D02*
X169748214Y-80687914D01*
X169748214Y-80687914D02*
X169652976Y-80735533D01*
X155559819Y-99930357D02*
X155083628Y-100263690D01*
X155559819Y-100501785D02*
X154559819Y-100501785D01*
X154559819Y-100501785D02*
X154559819Y-100120833D01*
X154559819Y-100120833D02*
X154607438Y-100025595D01*
X154607438Y-100025595D02*
X154655057Y-99977976D01*
X154655057Y-99977976D02*
X154750295Y-99930357D01*
X154750295Y-99930357D02*
X154893152Y-99930357D01*
X154893152Y-99930357D02*
X154988390Y-99977976D01*
X154988390Y-99977976D02*
X155036009Y-100025595D01*
X155036009Y-100025595D02*
X155083628Y-100120833D01*
X155083628Y-100120833D02*
X155083628Y-100501785D01*
X155559819Y-98977976D02*
X155559819Y-99549404D01*
X155559819Y-99263690D02*
X154559819Y-99263690D01*
X154559819Y-99263690D02*
X154702676Y-99358928D01*
X154702676Y-99358928D02*
X154797914Y-99454166D01*
X154797914Y-99454166D02*
X154845533Y-99549404D01*
X154893152Y-98120833D02*
X155559819Y-98120833D01*
X154512200Y-98358928D02*
X155226485Y-98597023D01*
X155226485Y-98597023D02*
X155226485Y-97977976D01*
X157743846Y-125919588D02*
X158392390Y-125919588D01*
X158392390Y-125919588D02*
X158468689Y-125881439D01*
X158468689Y-125881439D02*
X158506839Y-125843289D01*
X158506839Y-125843289D02*
X158544988Y-125766990D01*
X158544988Y-125766990D02*
X158544988Y-125614391D01*
X158544988Y-125614391D02*
X158506839Y-125538092D01*
X158506839Y-125538092D02*
X158468689Y-125499943D01*
X158468689Y-125499943D02*
X158392390Y-125461793D01*
X158392390Y-125461793D02*
X157743846Y-125461793D01*
X157743846Y-124736950D02*
X157743846Y-124889548D01*
X157743846Y-124889548D02*
X157781996Y-124965848D01*
X157781996Y-124965848D02*
X157820145Y-125003997D01*
X157820145Y-125003997D02*
X157934594Y-125080296D01*
X157934594Y-125080296D02*
X158087193Y-125118446D01*
X158087193Y-125118446D02*
X158392390Y-125118446D01*
X158392390Y-125118446D02*
X158468689Y-125080296D01*
X158468689Y-125080296D02*
X158506839Y-125042147D01*
X158506839Y-125042147D02*
X158544988Y-124965848D01*
X158544988Y-124965848D02*
X158544988Y-124813249D01*
X158544988Y-124813249D02*
X158506839Y-124736950D01*
X158506839Y-124736950D02*
X158468689Y-124698800D01*
X158468689Y-124698800D02*
X158392390Y-124660651D01*
X158392390Y-124660651D02*
X158201642Y-124660651D01*
X158201642Y-124660651D02*
X158125342Y-124698800D01*
X158125342Y-124698800D02*
X158087193Y-124736950D01*
X158087193Y-124736950D02*
X158049043Y-124813249D01*
X158049043Y-124813249D02*
X158049043Y-124965848D01*
X158049043Y-124965848D02*
X158087193Y-125042147D01*
X158087193Y-125042147D02*
X158125342Y-125080296D01*
X158125342Y-125080296D02*
X158201642Y-125118446D01*
X150014580Y-121455357D02*
X150062200Y-121502976D01*
X150062200Y-121502976D02*
X150109819Y-121645833D01*
X150109819Y-121645833D02*
X150109819Y-121741071D01*
X150109819Y-121741071D02*
X150062200Y-121883928D01*
X150062200Y-121883928D02*
X149966961Y-121979166D01*
X149966961Y-121979166D02*
X149871723Y-122026785D01*
X149871723Y-122026785D02*
X149681247Y-122074404D01*
X149681247Y-122074404D02*
X149538390Y-122074404D01*
X149538390Y-122074404D02*
X149347914Y-122026785D01*
X149347914Y-122026785D02*
X149252676Y-121979166D01*
X149252676Y-121979166D02*
X149157438Y-121883928D01*
X149157438Y-121883928D02*
X149109819Y-121741071D01*
X149109819Y-121741071D02*
X149109819Y-121645833D01*
X149109819Y-121645833D02*
X149157438Y-121502976D01*
X149157438Y-121502976D02*
X149205057Y-121455357D01*
X150109819Y-120502976D02*
X150109819Y-121074404D01*
X150109819Y-120788690D02*
X149109819Y-120788690D01*
X149109819Y-120788690D02*
X149252676Y-120883928D01*
X149252676Y-120883928D02*
X149347914Y-120979166D01*
X149347914Y-120979166D02*
X149395533Y-121074404D01*
X150109819Y-119550595D02*
X150109819Y-120122023D01*
X150109819Y-119836309D02*
X149109819Y-119836309D01*
X149109819Y-119836309D02*
X149252676Y-119931547D01*
X149252676Y-119931547D02*
X149347914Y-120026785D01*
X149347914Y-120026785D02*
X149395533Y-120122023D01*
X147141668Y-100907200D02*
X147284525Y-100954819D01*
X147284525Y-100954819D02*
X147522620Y-100954819D01*
X147522620Y-100954819D02*
X147617858Y-100907200D01*
X147617858Y-100907200D02*
X147665477Y-100859580D01*
X147665477Y-100859580D02*
X147713096Y-100764342D01*
X147713096Y-100764342D02*
X147713096Y-100669104D01*
X147713096Y-100669104D02*
X147665477Y-100573866D01*
X147665477Y-100573866D02*
X147617858Y-100526247D01*
X147617858Y-100526247D02*
X147522620Y-100478628D01*
X147522620Y-100478628D02*
X147332144Y-100431009D01*
X147332144Y-100431009D02*
X147236906Y-100383390D01*
X147236906Y-100383390D02*
X147189287Y-100335771D01*
X147189287Y-100335771D02*
X147141668Y-100240533D01*
X147141668Y-100240533D02*
X147141668Y-100145295D01*
X147141668Y-100145295D02*
X147189287Y-100050057D01*
X147189287Y-100050057D02*
X147236906Y-100002438D01*
X147236906Y-100002438D02*
X147332144Y-99954819D01*
X147332144Y-99954819D02*
X147570239Y-99954819D01*
X147570239Y-99954819D02*
X147713096Y-100002438D01*
X148046430Y-99954819D02*
X148284525Y-100954819D01*
X148284525Y-100954819D02*
X148475001Y-100240533D01*
X148475001Y-100240533D02*
X148665477Y-100954819D01*
X148665477Y-100954819D02*
X148903573Y-99954819D01*
X149760715Y-99954819D02*
X149284525Y-99954819D01*
X149284525Y-99954819D02*
X149236906Y-100431009D01*
X149236906Y-100431009D02*
X149284525Y-100383390D01*
X149284525Y-100383390D02*
X149379763Y-100335771D01*
X149379763Y-100335771D02*
X149617858Y-100335771D01*
X149617858Y-100335771D02*
X149713096Y-100383390D01*
X149713096Y-100383390D02*
X149760715Y-100431009D01*
X149760715Y-100431009D02*
X149808334Y-100526247D01*
X149808334Y-100526247D02*
X149808334Y-100764342D01*
X149808334Y-100764342D02*
X149760715Y-100859580D01*
X149760715Y-100859580D02*
X149713096Y-100907200D01*
X149713096Y-100907200D02*
X149617858Y-100954819D01*
X149617858Y-100954819D02*
X149379763Y-100954819D01*
X149379763Y-100954819D02*
X149284525Y-100907200D01*
X149284525Y-100907200D02*
X149236906Y-100859580D01*
%TO.C,C10*%
D11*
X151840000Y-112808767D02*
X151840000Y-112516233D01*
X152860000Y-112808767D02*
X152860000Y-112516233D01*
%TO.C,J9*%
X144840000Y-66970000D02*
X144840000Y-69630000D01*
X167760000Y-66970000D02*
X144840000Y-66970000D01*
X167760000Y-66970000D02*
X167760000Y-69630000D01*
X167760000Y-69630000D02*
X144840000Y-69630000D01*
X170360000Y-68300000D02*
X170360000Y-69630000D01*
X170360000Y-69630000D02*
X169030000Y-69630000D01*
%TO.C,J11*%
X162730000Y-123080000D02*
X162730000Y-121700000D01*
X164110000Y-123080000D02*
X162730000Y-123080000D01*
X165380000Y-120320000D02*
X168030000Y-120320000D01*
X165380000Y-123080000D02*
X165380000Y-120320000D01*
X165380000Y-123080000D02*
X168030000Y-123080000D01*
X168030000Y-123080000D02*
X168030000Y-120320000D01*
%TO.C,SW2*%
X127212500Y-139297500D02*
X127212500Y-137914500D01*
X127212500Y-139297500D02*
X128595500Y-139297500D01*
X127452500Y-129157500D02*
X137372500Y-129157500D01*
X127452500Y-139057500D02*
X127452500Y-129157500D01*
X127452500Y-139057500D02*
X137372500Y-139057500D01*
X129237500Y-134784167D02*
X130507500Y-134784167D01*
X131777500Y-134784167D02*
X133047500Y-134784167D01*
X134317500Y-134784167D02*
X135587500Y-134784167D01*
X137372500Y-139057500D02*
X137372500Y-129157500D01*
X129237500Y-132077500D02*
X130507500Y-132077500D01*
X130507500Y-136137500D01*
X129237500Y-136137500D01*
X129237500Y-132077500D01*
X129237500Y-134784167D02*
X130507500Y-134784167D01*
X130507500Y-136137500D01*
X129237500Y-136137500D01*
X129237500Y-134784167D01*
G36*
X129237500Y-134784167D02*
G01*
X130507500Y-134784167D01*
X130507500Y-136137500D01*
X129237500Y-136137500D01*
X129237500Y-134784167D01*
G37*
X131777500Y-132077500D02*
X133047500Y-132077500D01*
X133047500Y-136137500D01*
X131777500Y-136137500D01*
X131777500Y-132077500D01*
X131777500Y-134784167D02*
X133047500Y-134784167D01*
X133047500Y-136137500D01*
X131777500Y-136137500D01*
X131777500Y-134784167D01*
G36*
X131777500Y-134784167D02*
G01*
X133047500Y-134784167D01*
X133047500Y-136137500D01*
X131777500Y-136137500D01*
X131777500Y-134784167D01*
G37*
X134317500Y-132077500D02*
X135587500Y-132077500D01*
X135587500Y-136137500D01*
X134317500Y-136137500D01*
X134317500Y-132077500D01*
X134317500Y-134784167D02*
X135587500Y-134784167D01*
X135587500Y-136137500D01*
X134317500Y-136137500D01*
X134317500Y-134784167D01*
G36*
X134317500Y-134784167D02*
G01*
X135587500Y-134784167D01*
X135587500Y-136137500D01*
X134317500Y-136137500D01*
X134317500Y-134784167D01*
G37*
%TO.C,J2*%
X110715000Y-132015000D02*
X112135000Y-132015000D01*
X110715000Y-143735000D02*
X110715000Y-132015000D01*
X112135000Y-132015000D02*
X112135000Y-136515000D01*
X112135000Y-136515000D02*
X117025000Y-136515000D01*
X112975000Y-132325000D02*
X113575000Y-132325000D01*
X113275000Y-132925000D02*
X112975000Y-132325000D01*
X113575000Y-132325000D02*
X113275000Y-132925000D01*
X117025000Y-143735000D02*
X110715000Y-143735000D01*
X117025000Y-143735000D02*
X123335000Y-143735000D01*
X121915000Y-132015000D02*
X121915000Y-136515000D01*
X121915000Y-136515000D02*
X117025000Y-136515000D01*
X123335000Y-132015000D02*
X121915000Y-132015000D01*
X123335000Y-143735000D02*
X123335000Y-132015000D01*
X113025000Y-137625000D02*
X113525000Y-137625000D01*
X113525000Y-143125000D01*
X113025000Y-143125000D01*
X113025000Y-137625000D01*
X115525000Y-137625000D02*
X116025000Y-137625000D01*
X116025000Y-143125000D01*
X115525000Y-143125000D01*
X115525000Y-137625000D01*
X118025000Y-137625000D02*
X118525000Y-137625000D01*
X118525000Y-143125000D01*
X118025000Y-143125000D01*
X118025000Y-137625000D01*
X120525000Y-137625000D02*
X121025000Y-137625000D01*
X121025000Y-143125000D01*
X120525000Y-143125000D01*
X120525000Y-137625000D01*
%TO.C,R6*%
X174407776Y-126652500D02*
X174917224Y-126652500D01*
X174407776Y-127697500D02*
X174917224Y-127697500D01*
%TO.C,R15*%
X135782776Y-124702500D02*
X136292224Y-124702500D01*
X135782776Y-125747500D02*
X136292224Y-125747500D01*
%TO.C,SW4*%
X161012500Y-139297500D02*
X161012500Y-137914500D01*
X161012500Y-139297500D02*
X162395500Y-139297500D01*
X161252500Y-129157500D02*
X171172500Y-129157500D01*
X161252500Y-139057500D02*
X161252500Y-129157500D01*
X161252500Y-139057500D02*
X171172500Y-139057500D01*
X163037500Y-134784167D02*
X164307500Y-134784167D01*
X165577500Y-134784167D02*
X166847500Y-134784167D01*
X168117500Y-134784167D02*
X169387500Y-134784167D01*
X171172500Y-139057500D02*
X171172500Y-129157500D01*
X163037500Y-132077500D02*
X164307500Y-132077500D01*
X164307500Y-136137500D01*
X163037500Y-136137500D01*
X163037500Y-132077500D01*
X163037500Y-134784167D02*
X164307500Y-134784167D01*
X164307500Y-136137500D01*
X163037500Y-136137500D01*
X163037500Y-134784167D01*
G36*
X163037500Y-134784167D02*
G01*
X164307500Y-134784167D01*
X164307500Y-136137500D01*
X163037500Y-136137500D01*
X163037500Y-134784167D01*
G37*
X165577500Y-132077500D02*
X166847500Y-132077500D01*
X166847500Y-136137500D01*
X165577500Y-136137500D01*
X165577500Y-132077500D01*
X165577500Y-134784167D02*
X166847500Y-134784167D01*
X166847500Y-136137500D01*
X165577500Y-136137500D01*
X165577500Y-134784167D01*
G36*
X165577500Y-134784167D02*
G01*
X166847500Y-134784167D01*
X166847500Y-136137500D01*
X165577500Y-136137500D01*
X165577500Y-134784167D01*
G37*
X168117500Y-132077500D02*
X169387500Y-132077500D01*
X169387500Y-136137500D01*
X168117500Y-136137500D01*
X168117500Y-132077500D01*
X168117500Y-134784167D02*
X169387500Y-134784167D01*
X169387500Y-136137500D01*
X168117500Y-136137500D01*
X168117500Y-134784167D01*
G36*
X168117500Y-134784167D02*
G01*
X169387500Y-134784167D01*
X169387500Y-136137500D01*
X168117500Y-136137500D01*
X168117500Y-134784167D01*
G37*
%TO.C,J5*%
X165475000Y-75775000D02*
X166225000Y-75775000D01*
X166225000Y-72825000D02*
X169275000Y-72825000D01*
X166225000Y-75775000D02*
X166225000Y-72825000D01*
X172125000Y-78325000D02*
X173375000Y-78325000D01*
X172325000Y-72825000D02*
X169275000Y-72825000D01*
X172325000Y-75775000D02*
X172325000Y-72825000D01*
X173075000Y-75775000D02*
X172325000Y-75775000D01*
X173375000Y-78325000D02*
X173375000Y-77075000D01*
X165475000Y-77275000D02*
X167275000Y-77275000D01*
X167275000Y-78025000D01*
X165475000Y-78025000D01*
X165475000Y-77275000D01*
X168775000Y-77275000D02*
X169775000Y-77275000D01*
X169775000Y-78025000D01*
X168775000Y-78025000D01*
X168775000Y-77275000D01*
X171275000Y-77275000D02*
X173075000Y-77275000D01*
X173075000Y-78025000D01*
X171275000Y-78025000D01*
X171275000Y-77275000D01*
X165465000Y-72065000D02*
X173085000Y-72065000D01*
X173085000Y-78035000D01*
X165465000Y-78035000D01*
X165465000Y-72065000D01*
%TO.C,R5*%
X174432776Y-132727500D02*
X174942224Y-132727500D01*
X174432776Y-133772500D02*
X174942224Y-133772500D01*
%TO.C,R3*%
X140632776Y-132727500D02*
X141142224Y-132727500D01*
X140632776Y-133772500D02*
X141142224Y-133772500D01*
%TO.C,J6*%
X111040000Y-66970000D02*
X111040000Y-69630000D01*
X133960000Y-66970000D02*
X111040000Y-66970000D01*
X133960000Y-66970000D02*
X133960000Y-69630000D01*
X133960000Y-69630000D02*
X111040000Y-69630000D01*
X136560000Y-68300000D02*
X136560000Y-69630000D01*
X136560000Y-69630000D02*
X135230000Y-69630000D01*
%TO.C,C3*%
X151165000Y-99141233D02*
X151165000Y-99433767D01*
X152185000Y-99141233D02*
X152185000Y-99433767D01*
%TO.C,J12*%
X120875000Y-76100000D02*
X121625000Y-76100000D01*
X121625000Y-73150000D02*
X124675000Y-73150000D01*
X121625000Y-76100000D02*
X121625000Y-73150000D01*
X127525000Y-78650000D02*
X128775000Y-78650000D01*
X127725000Y-73150000D02*
X124675000Y-73150000D01*
X127725000Y-76100000D02*
X127725000Y-73150000D01*
X128475000Y-76100000D02*
X127725000Y-76100000D01*
X128775000Y-78650000D02*
X128775000Y-77400000D01*
X120875000Y-77600000D02*
X122675000Y-77600000D01*
X122675000Y-78350000D01*
X120875000Y-78350000D01*
X120875000Y-77600000D01*
X124175000Y-77600000D02*
X125175000Y-77600000D01*
X125175000Y-78350000D01*
X124175000Y-78350000D01*
X124175000Y-77600000D01*
X126675000Y-77600000D02*
X128475000Y-77600000D01*
X128475000Y-78350000D01*
X126675000Y-78350000D01*
X126675000Y-77600000D01*
X120865000Y-72390000D02*
X128485000Y-72390000D01*
X128485000Y-78360000D01*
X120865000Y-78360000D01*
X120865000Y-72390000D01*
%TO.C,C1*%
X117365000Y-99141233D02*
X117365000Y-99433767D01*
X118385000Y-99141233D02*
X118385000Y-99433767D01*
%TO.C,C8*%
X118040000Y-112808767D02*
X118040000Y-112516233D01*
X119060000Y-112808767D02*
X119060000Y-112516233D01*
%TO.C,R17*%
X125682776Y-81277500D02*
X126192224Y-81277500D01*
X125682776Y-82322500D02*
X126192224Y-82322500D01*
%TO.C,SW3*%
D12*
X112947801Y-99029553D02*
X112947801Y-101970447D01*
X114262942Y-102925700D02*
X115087060Y-102925700D01*
X115087060Y-98074300D02*
X114262942Y-98074300D01*
X116402201Y-101970447D02*
X116402201Y-99029553D01*
X110890001Y-98425000D02*
G75*
G02*
X110636001Y-98425000I-127000J0D01*
G01*
X110636001Y-98425000D02*
G75*
G02*
X110890001Y-98425000I127000J0D01*
G01*
%TO.C,C9*%
D11*
X113915000Y-120666233D02*
X113915000Y-120958767D01*
X114935000Y-120666233D02*
X114935000Y-120958767D01*
%TO.C,U4*%
X170640000Y-118065000D02*
X170735000Y-118065000D01*
X170640000Y-122185000D02*
X170640000Y-118065000D01*
X170735000Y-122185000D02*
X170640000Y-122185000D01*
X175665000Y-118065000D02*
X175760000Y-118065000D01*
X175760000Y-118065000D02*
X175760000Y-122185000D01*
X175760000Y-122185000D02*
X175665000Y-122185000D01*
X176000000Y-117765000D02*
X175670000Y-117525000D01*
X176000000Y-117285000D01*
X176000000Y-117765000D01*
G36*
X176000000Y-117765000D02*
G01*
X175670000Y-117525000D01*
X176000000Y-117285000D01*
X176000000Y-117765000D01*
G37*
%TO.C,R13*%
X152370276Y-102077500D02*
X152879724Y-102077500D01*
X152370276Y-103122500D02*
X152879724Y-103122500D01*
%TO.C,D2*%
X140100000Y-130985000D02*
X142560000Y-130985000D01*
X142560000Y-129515000D02*
X140100000Y-129515000D01*
X142560000Y-130985000D02*
X142560000Y-129515000D01*
%TO.C,Y1*%
D13*
X113687500Y-112470000D02*
X113687500Y-112630000D01*
X116187500Y-112470000D02*
X116187500Y-112630000D01*
D14*
X112912500Y-111450000D02*
G75*
G02*
X112712500Y-111450000I-100000J0D01*
G01*
X112712500Y-111450000D02*
G75*
G02*
X112912500Y-111450000I100000J0D01*
G01*
%TO.C,C6*%
D11*
X145990000Y-120958767D02*
X145990000Y-120666233D01*
X147010000Y-120958767D02*
X147010000Y-120666233D01*
%TO.C,U2*%
X158240000Y-110040000D02*
X158540000Y-110040000D01*
X158240000Y-110340000D02*
X158240000Y-110040000D01*
X158240000Y-117260000D02*
X158240000Y-116960000D01*
X158540000Y-117260000D02*
X158240000Y-117260000D01*
X165160000Y-110040000D02*
X165460000Y-110040000D01*
X165460000Y-110040000D02*
X165460000Y-110340000D01*
X165460000Y-116960000D02*
X165460000Y-117260000D01*
X165460000Y-117260000D02*
X165160000Y-117260000D01*
X157600000Y-110330000D02*
X157260000Y-109860000D01*
X157940000Y-109860000D01*
X157600000Y-110330000D01*
G36*
X157600000Y-110330000D02*
G01*
X157260000Y-109860000D01*
X157940000Y-109860000D01*
X157600000Y-110330000D01*
G37*
%TO.C,U3*%
X136840000Y-118065000D02*
X136935000Y-118065000D01*
X136840000Y-122185000D02*
X136840000Y-118065000D01*
X136935000Y-122185000D02*
X136840000Y-122185000D01*
X141865000Y-118065000D02*
X141960000Y-118065000D01*
X141960000Y-118065000D02*
X141960000Y-122185000D01*
X141960000Y-122185000D02*
X141865000Y-122185000D01*
X142200000Y-117765000D02*
X141870000Y-117525000D01*
X142200000Y-117285000D01*
X142200000Y-117765000D01*
G36*
X142200000Y-117765000D02*
G01*
X141870000Y-117525000D01*
X142200000Y-117285000D01*
X142200000Y-117765000D01*
G37*
%TO.C,R22*%
X159482776Y-81277500D02*
X159992224Y-81277500D01*
X159482776Y-82322500D02*
X159992224Y-82322500D01*
%TO.C,U1*%
X124440000Y-110040000D02*
X124740000Y-110040000D01*
X124440000Y-110340000D02*
X124440000Y-110040000D01*
X124440000Y-117260000D02*
X124440000Y-116960000D01*
X124740000Y-117260000D02*
X124440000Y-117260000D01*
X131360000Y-110040000D02*
X131660000Y-110040000D01*
X131660000Y-110040000D02*
X131660000Y-110340000D01*
X131660000Y-116960000D02*
X131660000Y-117260000D01*
X131660000Y-117260000D02*
X131360000Y-117260000D01*
X123800000Y-110330000D02*
X123460000Y-109860000D01*
X124140000Y-109860000D01*
X123800000Y-110330000D01*
G36*
X123800000Y-110330000D02*
G01*
X123460000Y-109860000D01*
X124140000Y-109860000D01*
X123800000Y-110330000D01*
G37*
%TO.C,C4*%
X153840000Y-112503733D02*
X153840000Y-112796267D01*
X154860000Y-112503733D02*
X154860000Y-112796267D01*
%TO.C,D4*%
X173900000Y-130985000D02*
X176360000Y-130985000D01*
X176360000Y-129515000D02*
X173900000Y-129515000D01*
X176360000Y-130985000D02*
X176360000Y-129515000D01*
%TO.C,U5*%
D13*
X115760000Y-122500000D02*
X115760000Y-129240000D01*
X115760000Y-129240000D02*
X121860000Y-129240000D01*
X121860000Y-122500000D02*
X115760000Y-122500000D01*
X121860000Y-122748000D02*
X121860000Y-122500000D01*
X121860000Y-129240000D02*
X121860000Y-128992000D01*
D14*
X113465000Y-122570000D02*
G75*
G02*
X113265000Y-122570000I-100000J0D01*
G01*
X113265000Y-122570000D02*
G75*
G02*
X113465000Y-122570000I100000J0D01*
G01*
%TO.C,C5*%
D11*
X112190000Y-120958767D02*
X112190000Y-120666233D01*
X113210000Y-120958767D02*
X113210000Y-120666233D01*
%TO.C,D3*%
X140050000Y-138135000D02*
X142510000Y-138135000D01*
X142510000Y-136665000D02*
X140050000Y-136665000D01*
X142510000Y-138135000D02*
X142510000Y-136665000D01*
%TO.C,R19*%
X169582776Y-124702500D02*
X170092224Y-124702500D01*
X169582776Y-125747500D02*
X170092224Y-125747500D01*
%TO.C,R16*%
X134907776Y-81902500D02*
X135417224Y-81902500D01*
X134907776Y-82947500D02*
X135417224Y-82947500D01*
%TO.C,J4*%
X131675000Y-75775000D02*
X132425000Y-75775000D01*
X132425000Y-72825000D02*
X135475000Y-72825000D01*
X132425000Y-75775000D02*
X132425000Y-72825000D01*
X138325000Y-78325000D02*
X139575000Y-78325000D01*
X138525000Y-72825000D02*
X135475000Y-72825000D01*
X138525000Y-75775000D02*
X138525000Y-72825000D01*
X139275000Y-75775000D02*
X138525000Y-75775000D01*
X139575000Y-78325000D02*
X139575000Y-77075000D01*
X131675000Y-77275000D02*
X133475000Y-77275000D01*
X133475000Y-78025000D01*
X131675000Y-78025000D01*
X131675000Y-77275000D01*
X134975000Y-77275000D02*
X135975000Y-77275000D01*
X135975000Y-78025000D01*
X134975000Y-78025000D01*
X134975000Y-77275000D01*
X137475000Y-77275000D02*
X139275000Y-77275000D01*
X139275000Y-78025000D01*
X137475000Y-78025000D01*
X137475000Y-77275000D01*
X131665000Y-72065000D02*
X139285000Y-72065000D01*
X139285000Y-78035000D01*
X131665000Y-78035000D01*
X131665000Y-72065000D01*
%TO.C,J14*%
X140440000Y-72890000D02*
X152160000Y-72890000D01*
X140440000Y-79200000D02*
X140440000Y-72890000D01*
X140440000Y-79200000D02*
X140440000Y-85510000D01*
X140440000Y-85510000D02*
X152160000Y-85510000D01*
X147660000Y-74310000D02*
X147660000Y-79200000D01*
X147660000Y-84090000D02*
X147660000Y-79200000D01*
X151250000Y-75450000D02*
X151850000Y-75150000D01*
X151850000Y-75150000D02*
X151850000Y-75750000D01*
X151850000Y-75750000D02*
X151250000Y-75450000D01*
X152160000Y-72890000D02*
X152160000Y-74310000D01*
X152160000Y-74310000D02*
X147660000Y-74310000D01*
X152160000Y-84090000D02*
X147660000Y-84090000D01*
X152160000Y-85510000D02*
X152160000Y-84090000D01*
X141050000Y-75200000D02*
X146550000Y-75200000D01*
X146550000Y-75700000D01*
X141050000Y-75700000D01*
X141050000Y-75200000D01*
X141050000Y-77700000D02*
X146550000Y-77700000D01*
X146550000Y-78200000D01*
X141050000Y-78200000D01*
X141050000Y-77700000D01*
X141050000Y-80200000D02*
X146550000Y-80200000D01*
X146550000Y-80700000D01*
X141050000Y-80700000D01*
X141050000Y-80200000D01*
X141050000Y-82700000D02*
X146550000Y-82700000D01*
X146550000Y-83200000D01*
X141050000Y-83200000D01*
X141050000Y-82700000D01*
%TO.C,J3*%
X144515000Y-132015000D02*
X145935000Y-132015000D01*
X144515000Y-143735000D02*
X144515000Y-132015000D01*
X145935000Y-132015000D02*
X145935000Y-136515000D01*
X145935000Y-136515000D02*
X150825000Y-136515000D01*
X146775000Y-132325000D02*
X147375000Y-132325000D01*
X147075000Y-132925000D02*
X146775000Y-132325000D01*
X147375000Y-132325000D02*
X147075000Y-132925000D01*
X150825000Y-143735000D02*
X144515000Y-143735000D01*
X150825000Y-143735000D02*
X157135000Y-143735000D01*
X155715000Y-132015000D02*
X155715000Y-136515000D01*
X155715000Y-136515000D02*
X150825000Y-136515000D01*
X157135000Y-132015000D02*
X155715000Y-132015000D01*
X157135000Y-143735000D02*
X157135000Y-132015000D01*
X146825000Y-137625000D02*
X147325000Y-137625000D01*
X147325000Y-143125000D01*
X146825000Y-143125000D01*
X146825000Y-137625000D01*
X149325000Y-137625000D02*
X149825000Y-137625000D01*
X149825000Y-143125000D01*
X149325000Y-143125000D01*
X149325000Y-137625000D01*
X151825000Y-137625000D02*
X152325000Y-137625000D01*
X152325000Y-143125000D01*
X151825000Y-143125000D01*
X151825000Y-137625000D01*
X154325000Y-137625000D02*
X154825000Y-137625000D01*
X154825000Y-143125000D01*
X154325000Y-143125000D01*
X154325000Y-137625000D01*
%TO.C,J10*%
X106640000Y-72890000D02*
X118360000Y-72890000D01*
X106640000Y-79200000D02*
X106640000Y-72890000D01*
X106640000Y-79200000D02*
X106640000Y-85510000D01*
X106640000Y-85510000D02*
X118360000Y-85510000D01*
X113860000Y-74310000D02*
X113860000Y-79200000D01*
X113860000Y-84090000D02*
X113860000Y-79200000D01*
X117450000Y-75450000D02*
X118050000Y-75150000D01*
X118050000Y-75150000D02*
X118050000Y-75750000D01*
X118050000Y-75750000D02*
X117450000Y-75450000D01*
X118360000Y-72890000D02*
X118360000Y-74310000D01*
X118360000Y-74310000D02*
X113860000Y-74310000D01*
X118360000Y-84090000D02*
X113860000Y-84090000D01*
X118360000Y-85510000D02*
X118360000Y-84090000D01*
X107250000Y-75200000D02*
X112750000Y-75200000D01*
X112750000Y-75700000D01*
X107250000Y-75700000D01*
X107250000Y-75200000D01*
X107250000Y-77700000D02*
X112750000Y-77700000D01*
X112750000Y-78200000D01*
X107250000Y-78200000D01*
X107250000Y-77700000D01*
X107250000Y-80200000D02*
X112750000Y-80200000D01*
X112750000Y-80700000D01*
X107250000Y-80700000D01*
X107250000Y-80200000D01*
X107250000Y-82700000D02*
X112750000Y-82700000D01*
X112750000Y-83200000D01*
X107250000Y-83200000D01*
X107250000Y-82700000D01*
%TO.C,J7*%
X128930000Y-123080000D02*
X128930000Y-121700000D01*
X130310000Y-123080000D02*
X128930000Y-123080000D01*
X131580000Y-120320000D02*
X134230000Y-120320000D01*
X131580000Y-123080000D02*
X131580000Y-120320000D01*
X131580000Y-123080000D02*
X134230000Y-123080000D01*
X134230000Y-123080000D02*
X134230000Y-120320000D01*
%TO.C,R11*%
X118570276Y-102077500D02*
X119079724Y-102077500D01*
X118570276Y-103122500D02*
X119079724Y-103122500D01*
%TO.C,J8*%
X139945000Y-98660000D02*
X141325000Y-98660000D01*
X139945000Y-100040000D02*
X139945000Y-98660000D01*
X139945000Y-101310000D02*
X139945000Y-114120000D01*
X139945000Y-101310000D02*
X142705000Y-101310000D01*
X139945000Y-114120000D02*
X142705000Y-114120000D01*
X142705000Y-101310000D02*
X142705000Y-114120000D01*
%TO.C,J13*%
X173745000Y-98660000D02*
X175125000Y-98660000D01*
X173745000Y-100040000D02*
X173745000Y-98660000D01*
X173745000Y-101310000D02*
X173745000Y-114120000D01*
X173745000Y-101310000D02*
X176505000Y-101310000D01*
X173745000Y-114120000D02*
X176505000Y-114120000D01*
X176505000Y-101310000D02*
X176505000Y-114120000D01*
%TO.C,Y2*%
D13*
X147487500Y-112470000D02*
X147487500Y-112630000D01*
X149987500Y-112470000D02*
X149987500Y-112630000D01*
D14*
X146712500Y-111450000D02*
G75*
G02*
X146512500Y-111450000I-100000J0D01*
G01*
X146512500Y-111450000D02*
G75*
G02*
X146712500Y-111450000I100000J0D01*
G01*
%TO.C,R12*%
D11*
X119352500Y-99032776D02*
X119352500Y-99542224D01*
X120397500Y-99032776D02*
X120397500Y-99542224D01*
%TO.C,C2*%
X120040000Y-112503733D02*
X120040000Y-112796267D01*
X121060000Y-112503733D02*
X121060000Y-112796267D01*
%TO.C,D5*%
X173850000Y-138135000D02*
X176310000Y-138135000D01*
X176310000Y-136665000D02*
X173850000Y-136665000D01*
X176310000Y-138135000D02*
X176310000Y-136665000D01*
%TO.C,J15*%
X154675000Y-76100000D02*
X155425000Y-76100000D01*
X155425000Y-73150000D02*
X158475000Y-73150000D01*
X155425000Y-76100000D02*
X155425000Y-73150000D01*
X161325000Y-78650000D02*
X162575000Y-78650000D01*
X161525000Y-73150000D02*
X158475000Y-73150000D01*
X161525000Y-76100000D02*
X161525000Y-73150000D01*
X162275000Y-76100000D02*
X161525000Y-76100000D01*
X162575000Y-78650000D02*
X162575000Y-77400000D01*
X154675000Y-77600000D02*
X156475000Y-77600000D01*
X156475000Y-78350000D01*
X154675000Y-78350000D01*
X154675000Y-77600000D01*
X157975000Y-77600000D02*
X158975000Y-77600000D01*
X158975000Y-78350000D01*
X157975000Y-78350000D01*
X157975000Y-77600000D01*
X160475000Y-77600000D02*
X162275000Y-77600000D01*
X162275000Y-78350000D01*
X160475000Y-78350000D01*
X160475000Y-77600000D01*
X154665000Y-72390000D02*
X162285000Y-72390000D01*
X162285000Y-78360000D01*
X154665000Y-78360000D01*
X154665000Y-72390000D01*
%TO.C,R4*%
X140607776Y-126652500D02*
X141117224Y-126652500D01*
X140607776Y-127697500D02*
X141117224Y-127697500D01*
%TO.C,R21*%
X168707776Y-81902500D02*
X169217224Y-81902500D01*
X168707776Y-82947500D02*
X169217224Y-82947500D01*
%TO.C,R14*%
X153152500Y-99032776D02*
X153152500Y-99542224D01*
X154197500Y-99032776D02*
X154197500Y-99542224D01*
%TO.C,U6*%
D13*
X149560000Y-122500000D02*
X149560000Y-129240000D01*
X149560000Y-129240000D02*
X155660000Y-129240000D01*
X155660000Y-122500000D02*
X149560000Y-122500000D01*
X155660000Y-122748000D02*
X155660000Y-122500000D01*
X155660000Y-129240000D02*
X155660000Y-128992000D01*
D14*
X147265000Y-122570000D02*
G75*
G02*
X147065000Y-122570000I-100000J0D01*
G01*
X147065000Y-122570000D02*
G75*
G02*
X147265000Y-122570000I100000J0D01*
G01*
%TO.C,C11*%
D11*
X147715000Y-120666233D02*
X147715000Y-120958767D01*
X148735000Y-120666233D02*
X148735000Y-120958767D01*
%TO.C,SW5*%
D12*
X146747801Y-99029553D02*
X146747801Y-101970447D01*
X148062942Y-102925700D02*
X148887060Y-102925700D01*
X148887060Y-98074300D02*
X148062942Y-98074300D01*
X150202201Y-101970447D02*
X150202201Y-99029553D01*
X144690001Y-98425000D02*
G75*
G02*
X144436001Y-98425000I-127000J0D01*
G01*
X144436001Y-98425000D02*
G75*
G02*
X144690001Y-98425000I127000J0D01*
G01*
%TD*%
%LPC*%
D15*
%TO.C,C10*%
X152350000Y-113525000D03*
X152350000Y-111800000D03*
%TD*%
D16*
%TO.C,J9*%
X169030000Y-68300000D03*
D17*
X166490000Y-68300000D03*
X163950000Y-68300000D03*
X161410000Y-68300000D03*
X158870000Y-68300000D03*
X156330000Y-68300000D03*
X153790000Y-68300000D03*
X151250000Y-68300000D03*
X148710000Y-68300000D03*
X146170000Y-68300000D03*
%TD*%
D16*
%TO.C,J11*%
X164110000Y-121700000D03*
D17*
X166650000Y-121700000D03*
%TD*%
D18*
%TO.C,SW2*%
X129872500Y-137917500D03*
D19*
X132412500Y-137917500D03*
X134952500Y-137917500D03*
X134952500Y-130297500D03*
X132412500Y-130297500D03*
X129872500Y-130297500D03*
%TD*%
D20*
%TO.C,J2*%
X113275000Y-134425000D03*
D21*
X115775000Y-134425000D03*
X118275000Y-134425000D03*
X120775000Y-134425000D03*
%TD*%
D22*
%TO.C,R6*%
X173750000Y-127175000D03*
X175575000Y-127175000D03*
%TD*%
%TO.C,R15*%
X135125000Y-125225000D03*
X136950000Y-125225000D03*
%TD*%
D18*
%TO.C,SW4*%
X163672500Y-137917500D03*
D19*
X166212500Y-137917500D03*
X168752500Y-137917500D03*
X168752500Y-130297500D03*
X166212500Y-130297500D03*
X163672500Y-130297500D03*
%TD*%
D23*
%TO.C,J5*%
X170525000Y-75575000D03*
D24*
X168025000Y-75575000D03*
%TD*%
D22*
%TO.C,R5*%
X173775000Y-133250000D03*
X175600000Y-133250000D03*
%TD*%
%TO.C,R3*%
X139975000Y-133250000D03*
X141800000Y-133250000D03*
%TD*%
D16*
%TO.C,J6*%
X135230000Y-68300000D03*
D17*
X132690000Y-68300000D03*
X130150000Y-68300000D03*
X127610000Y-68300000D03*
X125070000Y-68300000D03*
X122530000Y-68300000D03*
X119990000Y-68300000D03*
X117450000Y-68300000D03*
X114910000Y-68300000D03*
X112370000Y-68300000D03*
%TD*%
D25*
%TO.C,C3*%
X151675000Y-98425000D03*
X151675000Y-100150000D03*
%TD*%
D23*
%TO.C,J12*%
X125925000Y-75900000D03*
D24*
X123425000Y-75900000D03*
%TD*%
D25*
%TO.C,C1*%
X117875000Y-98425000D03*
X117875000Y-100150000D03*
%TD*%
D15*
%TO.C,C8*%
X118550000Y-113525000D03*
X118550000Y-111800000D03*
%TD*%
D22*
%TO.C,R17*%
X125025000Y-81800000D03*
X126850000Y-81800000D03*
%TD*%
D26*
%TO.C,SW3*%
X113600002Y-98425000D03*
X113600002Y-102575000D03*
X115750000Y-98425000D03*
X115750000Y-102575000D03*
%TD*%
D25*
%TO.C,C9*%
X114425000Y-119950000D03*
X114425000Y-121675000D03*
%TD*%
D27*
%TO.C,U4*%
X175105000Y-117650000D03*
X173835000Y-117650000D03*
X172565000Y-117650000D03*
X171295000Y-117650000D03*
X171295000Y-122600000D03*
X172565000Y-122600000D03*
X173835000Y-122600000D03*
X175105000Y-122600000D03*
%TD*%
D22*
%TO.C,R13*%
X151712500Y-102600000D03*
X153537500Y-102600000D03*
%TD*%
D28*
%TO.C,D2*%
X141775000Y-130250000D03*
X140025000Y-130250000D03*
%TD*%
D29*
%TO.C,Y1*%
X114137500Y-111450000D03*
X114137500Y-113650000D03*
X115737500Y-113650000D03*
X115737500Y-111450000D03*
%TD*%
D15*
%TO.C,C6*%
X146500000Y-121675000D03*
X146500000Y-119950000D03*
%TD*%
D30*
%TO.C,U2*%
X157675000Y-110850000D03*
X157675000Y-111650000D03*
X157675000Y-112450000D03*
X157675000Y-113250000D03*
X157675000Y-114050000D03*
X157675000Y-114850000D03*
X157675000Y-115650000D03*
X157675000Y-116450000D03*
D31*
X159050000Y-117825000D03*
X159850000Y-117825000D03*
X160650000Y-117825000D03*
X161450000Y-117825000D03*
X162250000Y-117825000D03*
X163050000Y-117825000D03*
X163850000Y-117825000D03*
X164650000Y-117825000D03*
D30*
X166025000Y-116450000D03*
X166025000Y-115650000D03*
X166025000Y-114850000D03*
X166025000Y-114050000D03*
X166025000Y-113250000D03*
X166025000Y-112450000D03*
X166025000Y-111650000D03*
X166025000Y-110850000D03*
D31*
X164650000Y-109475000D03*
X163850000Y-109475000D03*
X163050000Y-109475000D03*
X162250000Y-109475000D03*
X161450000Y-109475000D03*
X160650000Y-109475000D03*
X159850000Y-109475000D03*
X159050000Y-109475000D03*
%TD*%
D27*
%TO.C,U3*%
X141305000Y-117650000D03*
X140035000Y-117650000D03*
X138765000Y-117650000D03*
X137495000Y-117650000D03*
X137495000Y-122600000D03*
X138765000Y-122600000D03*
X140035000Y-122600000D03*
X141305000Y-122600000D03*
%TD*%
D22*
%TO.C,R22*%
X158825000Y-81800000D03*
X160650000Y-81800000D03*
%TD*%
D30*
%TO.C,U1*%
X123875000Y-110850000D03*
X123875000Y-111650000D03*
X123875000Y-112450000D03*
X123875000Y-113250000D03*
X123875000Y-114050000D03*
X123875000Y-114850000D03*
X123875000Y-115650000D03*
X123875000Y-116450000D03*
D31*
X125250000Y-117825000D03*
X126050000Y-117825000D03*
X126850000Y-117825000D03*
X127650000Y-117825000D03*
X128450000Y-117825000D03*
X129250000Y-117825000D03*
X130050000Y-117825000D03*
X130850000Y-117825000D03*
D30*
X132225000Y-116450000D03*
X132225000Y-115650000D03*
X132225000Y-114850000D03*
X132225000Y-114050000D03*
X132225000Y-113250000D03*
X132225000Y-112450000D03*
X132225000Y-111650000D03*
X132225000Y-110850000D03*
D31*
X130850000Y-109475000D03*
X130050000Y-109475000D03*
X129250000Y-109475000D03*
X128450000Y-109475000D03*
X127650000Y-109475000D03*
X126850000Y-109475000D03*
X126050000Y-109475000D03*
X125250000Y-109475000D03*
%TD*%
D25*
%TO.C,C4*%
X154350000Y-111787500D03*
X154350000Y-113512500D03*
%TD*%
D28*
%TO.C,D4*%
X175575000Y-130250000D03*
X173825000Y-130250000D03*
%TD*%
D32*
%TO.C,U5*%
X113375000Y-123590000D03*
D33*
X120085000Y-125870000D03*
D32*
X113375000Y-128150000D03*
%TD*%
D15*
%TO.C,C5*%
X112700000Y-121675000D03*
X112700000Y-119950000D03*
%TD*%
D28*
%TO.C,D3*%
X141725000Y-137400000D03*
X139975000Y-137400000D03*
%TD*%
D22*
%TO.C,R19*%
X168925000Y-125225000D03*
X170750000Y-125225000D03*
%TD*%
%TO.C,R16*%
X134250000Y-82425000D03*
X136075000Y-82425000D03*
%TD*%
D23*
%TO.C,J4*%
X136725000Y-75575000D03*
D24*
X134225000Y-75575000D03*
%TD*%
D34*
%TO.C,J14*%
X149750000Y-75450000D03*
D35*
X149750000Y-77950000D03*
X149750000Y-80450000D03*
X149750000Y-82950000D03*
%TD*%
D20*
%TO.C,J3*%
X147075000Y-134425000D03*
D21*
X149575000Y-134425000D03*
X152075000Y-134425000D03*
X154575000Y-134425000D03*
%TD*%
D34*
%TO.C,J10*%
X115950000Y-75450000D03*
D35*
X115950000Y-77950000D03*
X115950000Y-80450000D03*
X115950000Y-82950000D03*
%TD*%
D16*
%TO.C,J7*%
X130310000Y-121700000D03*
D17*
X132850000Y-121700000D03*
%TD*%
D22*
%TO.C,R11*%
X117912500Y-102600000D03*
X119737500Y-102600000D03*
%TD*%
D16*
%TO.C,J8*%
X141325000Y-100040000D03*
D17*
X141325000Y-102580000D03*
X141325000Y-105120000D03*
X141325000Y-107660000D03*
X141325000Y-110200000D03*
X141325000Y-112740000D03*
%TD*%
D16*
%TO.C,J13*%
X175125000Y-100040000D03*
D17*
X175125000Y-102580000D03*
X175125000Y-105120000D03*
X175125000Y-107660000D03*
X175125000Y-110200000D03*
X175125000Y-112740000D03*
%TD*%
D29*
%TO.C,Y2*%
X147937500Y-111450000D03*
X147937500Y-113650000D03*
X149537500Y-113650000D03*
X149537500Y-111450000D03*
%TD*%
D36*
%TO.C,R12*%
X119875000Y-98375000D03*
X119875000Y-100200000D03*
%TD*%
D25*
%TO.C,C2*%
X120550000Y-111787500D03*
X120550000Y-113512500D03*
%TD*%
D28*
%TO.C,D5*%
X175525000Y-137400000D03*
X173775000Y-137400000D03*
%TD*%
D23*
%TO.C,J15*%
X159725000Y-75900000D03*
D24*
X157225000Y-75900000D03*
%TD*%
D22*
%TO.C,R4*%
X139950000Y-127175000D03*
X141775000Y-127175000D03*
%TD*%
%TO.C,R21*%
X168050000Y-82425000D03*
X169875000Y-82425000D03*
%TD*%
D36*
%TO.C,R14*%
X153675000Y-98375000D03*
X153675000Y-100200000D03*
%TD*%
D32*
%TO.C,U6*%
X147175000Y-123590000D03*
D33*
X153885000Y-125870000D03*
D32*
X147175000Y-128150000D03*
%TD*%
D25*
%TO.C,C11*%
X148225000Y-119950000D03*
X148225000Y-121675000D03*
%TD*%
D26*
%TO.C,SW5*%
X147400002Y-98425000D03*
X147400002Y-102575000D03*
X149550000Y-98425000D03*
X149550000Y-102575000D03*
%TD*%
%LPD*%
M02*
