M48
; DRILL file KiCad 10.0.1-10.0.1~ubuntu24.04.1 date 2026-05-10T17:16:30
; FORMAT={-:-/ absolute / inch / decimal}
; #@! TF.CreationDate,2026-05-10T17:16:30+09:00
; #@! TF.GenerationSoftware,Kicad,Pcbnew,10.0.1-10.0.1~ubuntu24.04.1
; #@! TF.FileFunction,Plated,1,2,PTH
FMAT,2
INCH
; #@! TA.AperFunction,Plated,PTH,ViaDrill
T1C0.0118
; #@! TA.AperFunction,Plated,PTH,ComponentDrill
T2C0.0315
; #@! TA.AperFunction,Plated,PTH,ComponentDrill
T3C0.0374
; #@! TA.AperFunction,Plated,PTH,ComponentDrill
T4C0.0394
%
G90
G05
T1
X4.3878Y-2.748
X4.3878Y-2.7795
X4.3878Y-3.6191
X4.3888Y-3.3376
X4.3888Y-3.4803
X4.3888Y-3.6535
X4.3888Y-3.687
X4.3898Y-3.372
X4.3898Y-3.4055
X4.3898Y-3.5148
X4.3898Y-3.5482
X4.3898Y-3.7175
X4.3898Y-3.747
X4.3898Y-3.878
X4.3907Y-3.436
X4.3907Y-3.5787
X4.3907Y-3.7815
X4.3907Y-3.815
X4.3907Y-3.9124
X4.3907Y-3.9459
X4.3917Y-3.0098
X4.3917Y-3.8455
X4.3917Y-3.9764
X4.3927Y-3.0404
X4.3927Y-3.0738
X4.3937Y-3.1083
X4.3937Y-4.0108
X4.3947Y-2.6348
X4.3947Y-4.0453
X4.3947Y-4.0787
X4.3957Y-4.1093
X4.3986Y-3.2657
X4.3986Y-3.2943
X4.3996Y-5.2362
X4.4104Y-3.3219
X4.4104Y-3.6014
X4.4114Y-3.3563
X4.4114Y-3.3898
X4.4114Y-3.6358
X4.4114Y-3.6693
X4.4124Y-3.4203
X4.4124Y-3.6998
X4.4134Y-2.9587
X4.4144Y-2.9931
X4.4144Y-3.0266
X4.4144Y-3.4636
X4.4144Y-3.7303
X4.4154Y-3.0571
X4.4154Y-3.498
X4.4154Y-3.5315
X4.4154Y-3.7648
X4.4154Y-3.7982
X4.4154Y-3.8622
X4.4163Y-3.562
X4.4163Y-3.8287
X4.4163Y-3.8927
X4.4163Y-3.9262
X4.4173Y-3.9606
X4.4193Y-3.9931
X4.4203Y-2.748
X4.4203Y-2.7795
X4.4203Y-4.0276
X4.4203Y-4.061
X4.4203Y-4.3681
X4.4213Y-4.0915
X4.4213Y-4.3927
X4.4242Y-4.4242
X4.4252Y-2.6348
X4.4291Y-3.2648
X4.4291Y-3.2933
X4.435Y-3.3711
X4.436Y-3.3376
X4.436Y-4.253
X4.437Y-4.2874
X4.437Y-4.3209
X4.438Y-3.3976
X4.438Y-4.3514
X4.439Y-3.4321
X4.439Y-3.4656
X4.44Y-3.4961
X4.4409Y-3.5276
X4.4419Y-2.939
X4.4419Y-3.562
X4.4419Y-3.5955
X4.4429Y-2.9734
X4.4429Y-3.0069
X4.4429Y-3.626
X4.4439Y-3.0374
X4.4439Y-3.6545
X4.4449Y-3.689
X4.4449Y-3.7224
X4.4459Y-3.753
X4.4488Y-4.437
X4.4518Y-2.747
X4.4518Y-2.7785
X4.4537Y-4.4656
X4.4567Y-2.6339
X4.4596Y-4.0965
X4.4626Y-3.2648
X4.4626Y-3.2933
X4.4626Y-4.2618
X4.4636Y-2.9183
X4.4646Y-2.9528
X4.4646Y-2.9862
X4.4646Y-4.3189
X4.4656Y-3.0167
X4.4656Y-3.3701
X4.4665Y-3.7067
X4.4665Y-3.3366
X4.4665Y-3.4409
X4.4674Y-3.7412
X4.4674Y-3.7746
X4.4675Y-3.3957
X4.4675Y-3.4754
X4.4675Y-3.5089
X4.4684Y-3.8052
X4.4685Y-3.5394
X4.4685Y-4.2923
X4.4705Y-3.5709
X4.4715Y-3.6053
X4.4715Y-3.6388
X4.4724Y-3.6693
X4.4754Y-4.1171
X4.4793Y-5.3996
X4.4803Y-4.2234
X4.4803Y-5.4459
X4.4823Y-2.747
X4.4823Y-2.7785
X4.4833Y-3.0256
X4.4843Y-3.06
X4.4843Y-3.0935
X4.4852Y-3.124
X4.4872Y-3.4272
X4.4872Y-4.2697
X4.4882Y-3.4616
X4.4882Y-3.4951
X4.4892Y-2.6339
X4.4892Y-3.5256
X4.4902Y-3.5551
X4.4902Y-3.686
X4.4902Y-4.0955
X4.4911Y-3.5896
X4.4911Y-3.623
X4.4911Y-3.7205
X4.4911Y-3.7539
X4.4921Y-3.6535
X4.4921Y-3.7844
X4.4931Y-5.375
X4.4936Y-4.4744
X4.4941Y-2.9026
X4.4951Y-2.937
X4.4951Y-2.9705
X4.4951Y-5.1929
X4.4961Y-3.001
X4.4961Y-5.4222
X4.497Y-3.2638
X4.497Y-3.2923
X4.498Y-3.3947
X4.498Y-5.1447
X4.499Y-3.3701
X4.499Y-4.2913
X4.5Y-3.3366
X4.5Y-5.0945
X4.5039Y-4.248
X4.5059Y-4.1161
X4.5089Y-5.2185
X4.5098Y-5.3986
X4.5108Y-4.2224
X4.5108Y-5.1683
X4.5108Y-5.4449
X4.5128Y-2.747
X4.5128Y-2.7776
X4.5148Y-5.1191
X4.5177Y-4.2687
X4.5197Y-2.8839
X4.5207Y-2.9173
X4.5236Y-4.0955
X4.5236Y-5.374
X4.5256Y-5.1919
X4.5266Y-5.4213
X4.5285Y-5.1437
X4.5305Y-5.0935
X4.5315Y-3.3947
X4.5325Y-4.2913
X4.5335Y-3.3691
X4.5344Y-3.3356
X4.5344Y-4.247
X4.5394Y-4.1161
X4.5394Y-5.2175
X4.5413Y-5.1673
X4.5433Y-5.3986
X4.5443Y-4.2224
X4.5443Y-5.4449
X4.5453Y-2.747
X4.5453Y-2.7776
X4.5453Y-5.1181
X4.5512Y-4.2687
X4.5522Y-2.8839
X4.5531Y-2.9173
X4.5566Y-4.3878
X4.5571Y-5.374
X4.5581Y-4.0945
X4.5591Y-5.1919
X4.56Y-5.4213
X4.562Y-5.1437
X4.564Y-5.0935
X4.5659Y-3.3937
X4.5669Y-4.2904
X4.5679Y-4.247
X4.5728Y-5.2175
X4.5738Y-4.1152
X4.5748Y-5.1673
X4.5768Y-2.6329
X4.5768Y-2.7461
X4.5768Y-2.7766
X4.5778Y-5.3976
X4.5787Y-4.2215
X4.5787Y-5.1181
X4.5787Y-5.4439
X4.5837Y-2.8829
X4.5846Y-2.9163
X4.5856Y-4.2677
X4.5886Y-4.5669
X4.5915Y-5.373
X4.5925Y-4.0955
X4.5935Y-5.1909
X4.5945Y-5.4203
X4.5955Y-4.4242
X4.5965Y-5.1427
X4.5974Y-4.2923
X4.5974Y-4.3947
X4.5984Y-5.0925
X4.6024Y-4.2461
X4.6073Y-2.7461
X4.6073Y-2.7766
X4.6073Y-5.2165
X4.6093Y-2.6329
X4.6093Y-4.1181
X4.6093Y-4.5886
X4.6093Y-5.1663
X4.6102Y-4.2195
X4.6102Y-4.7697
X4.6122Y-4.8189
X4.6132Y-5.1171
X4.6142Y-2.8829
X4.6152Y-2.9163
X4.6171Y-4.4695
X4.6181Y-4.4439
X4.6191Y-4.4144
X4.6201Y-4.2687
X4.6201Y-4.31
X4.623Y-4.0945
X4.623Y-4.5659
X4.625Y-4.6093
X4.626Y-4.7933
X4.628Y-4.2421
X4.628Y-4.2913
X4.6289Y-4.7421
X4.6339Y-4.4911
X4.6398Y-2.9163
X4.6398Y-4.1171
X4.6398Y-4.3189
X4.6398Y-4.5876
X4.6407Y-2.6319
X4.6407Y-4.2185
X4.6407Y-4.7687
X4.6417Y-2.9469
X4.6417Y-2.9774
X4.6427Y-3.0138
X4.6427Y-4.8179
X4.6506Y-4.2677
X4.6555Y-4.6083
X4.6565Y-4.0945
X4.6565Y-4.5659
X4.6565Y-4.7923
X4.6585Y-4.2411
X4.6594Y-4.7411
X4.6614Y-4.2913
X4.6634Y-4.3169
X4.6637Y-3.0392
X4.6673Y-4.4695
X4.6713Y-2.6319
X4.6722Y-2.9163
X4.6732Y-4.1171
X4.6732Y-4.5876
X4.6742Y-2.9469
X4.6742Y-2.9774
X4.6742Y-4.2185
X4.6742Y-4.7687
X4.6752Y-3.0138
X4.6762Y-4.8179
X4.6821Y-4.3159
X4.6841Y-4.2677
X4.686Y-3.063
X4.687Y-4.565
X4.689Y-4.6083
X4.689Y-5.1191
X4.69Y-4.7923
X4.6909Y-4.0935
X4.6919Y-4.2411
X4.6929Y-4.7411
X4.6959Y-4.2904
X4.6962Y-3.0392
X4.7028Y-4.3159
X4.7037Y-2.9154
X4.7047Y-4.438
X4.7057Y-2.9459
X4.7057Y-2.9764
X4.7067Y-3.0128
X4.7077Y-3.0876
X4.7077Y-4.1161
X4.7077Y-4.5866
X4.7087Y-4.2175
X4.7087Y-4.7677
X4.7106Y-4.8169
X4.7185Y-3.063
X4.7185Y-4.2667
X4.7234Y-3.1161
X4.7234Y-4.3159
X4.7234Y-4.6073
X4.7244Y-4.7913
X4.7254Y-3.1486
X4.7254Y-3.1831
X4.7264Y-3.2146
X4.7264Y-3.2451
X4.7264Y-4.2402
X4.7274Y-4.2884
X4.7274Y-4.7402
X4.7277Y-3.0382
X4.7278Y-4.9555
X4.7343Y-2.9154
X4.7362Y-2.9459
X4.7362Y-2.9764
X4.7372Y-3.0128
X4.7402Y-3.0876
X4.7461Y-4.4011
X4.747Y-4.7667
X4.747Y-4.8159
X4.749Y-3.2687
X4.75Y-3.062
X4.753Y-4.2116
X4.7539Y-4.2461
X4.7539Y-4.2795
X4.7549Y-4.31
X4.7559Y-3.1161
X4.7569Y-2.7756
X4.7569Y-2.8041
X4.7569Y-2.8346
X4.7579Y-2.8691
X4.7579Y-2.9075
X4.7579Y-3.1486
X4.7579Y-3.1831
X4.7582Y-3.0382
X4.7589Y-3.2146
X4.7589Y-3.2451
X4.7638Y-4.7411
X4.7648Y-4.7894
X4.7687Y-3.9911
X4.7717Y-3.0866
X4.7746Y-3.2933
X4.7756Y-4.2244
X4.7766Y-4.2589
X4.7766Y-4.2923
X4.7776Y-4.3228
X4.7776Y-4.7657
X4.7776Y-4.815
X4.7805Y-3.062
X4.7815Y-3.2687
X4.7874Y-3.1152
X4.7894Y-2.7756
X4.7894Y-2.8041
X4.7894Y-2.8346
X4.7894Y-3.1476
X4.7894Y-3.1821
X4.7904Y-2.8691
X4.7904Y-2.9075
X4.7904Y-3.2136
X4.7904Y-3.2441
X4.7943Y-4.7402
X4.7953Y-4.7884
X4.7992Y-3.9902
X4.8012Y-3.3248
X4.8022Y-3.0866
X4.8071Y-3.2933
X4.81Y-4.4843
X4.811Y-4.7657
X4.811Y-4.815
X4.813Y-3.2677
X4.8179Y-3.1152
X4.8199Y-3.1476
X4.8199Y-3.1821
X4.8209Y-2.7746
X4.8209Y-2.8031
X4.8209Y-2.8337
X4.8209Y-3.2136
X4.8209Y-3.2441
X4.8209Y-4.1112
X4.8219Y-2.8681
X4.8219Y-2.9065
X4.8268Y-3.3504
X4.8278Y-4.7402
X4.8287Y-4.7884
X4.8327Y-3.9902
X4.8337Y-3.3248
X4.8346Y-4.314
X4.8346Y-4.4518
X4.8386Y-3.2923
X4.8435Y-3.2677
X4.8445Y-5.4213
X4.8455Y-4.7648
X4.8455Y-4.814
X4.8514Y-2.7746
X4.8514Y-2.8031
X4.8514Y-2.8337
X4.8524Y-2.8681
X4.8524Y-2.9065
X4.8583Y-5.315
X4.8593Y-3.3504
X4.8622Y-4.7392
X4.8632Y-4.7874
X4.8642Y-3.3839
X4.8652Y-3.3238
X4.8671Y-3.9892
X4.8691Y-3.2923
X4.875Y-4.2963
X4.8789Y-4.2608
X4.8819Y-2.8346
X4.8819Y-2.8691
X4.8839Y-2.9045
X4.8848Y-2.8012
X4.8858Y-3.4124
X4.8858Y-4.7618
X4.8868Y-4.7963
X4.8868Y-4.8297
X4.8878Y-4.6978
X4.8878Y-4.8602
X4.8898Y-4.8917
X4.8907Y-3.3494
X4.8907Y-4.9262
X4.8907Y-4.9596
X4.8917Y-4.9902
X4.8957Y-3.3238
X4.8967Y-3.3839
X4.8976Y-5.126
X4.9016Y-4.312
X4.9055Y-3.4409
X4.9055Y-4.2736
X4.9065Y-4.0522
X4.9085Y-4.2205
X4.9094Y-3.2933
X4.9144Y-2.8346
X4.9144Y-2.8691
X4.9163Y-2.9045
X4.9173Y-2.8012
X4.9183Y-3.4124
X4.9213Y-3.3494
X4.9232Y-3.4665
X4.9281Y-3.3829
X4.9311Y-4.31
X4.936Y-3.3228
X4.938Y-3.4409
X4.94Y-3.4921
X4.9419Y-3.2933
X4.9429Y-3.5719
X4.9439Y-3.6122
X4.9439Y-3.7539
X4.9449Y-3.5276
X4.9449Y-3.6427
X4.9449Y-3.7185
X4.9459Y-2.8337
X4.9459Y-2.8681
X4.9459Y-3.6791
X4.9478Y-2.9035
X4.9488Y-2.8002
X4.9498Y-3.4114
X4.9508Y-3.3514
X4.9557Y-3.4665
X4.9587Y-3.3829
X4.9685Y-3.3228
X4.9695Y-3.44
X4.9695Y-4.2205
X4.9724Y-3.4921
X4.9734Y-3.2923
X4.9754Y-3.5719
X4.9764Y-2.8337
X4.9764Y-2.8681
X4.9764Y-3.6122
X4.9764Y-3.7539
X4.9774Y-3.5276
X4.9774Y-3.6427
X4.9774Y-3.7185
X4.9783Y-2.9035
X4.9783Y-3.6791
X4.9793Y-2.8002
X4.9803Y-3.4114
X4.9833Y-3.3514
X4.9872Y-3.4656
X4.9872Y-3.936
X4.9882Y-3.8494
X4.9882Y-4.0443
X5.0Y-3.3219
X5.0Y-3.44
X5.002Y-2.8189
X5.002Y-2.8494
X5.003Y-2.8809
X5.003Y-2.9134
X5.0039Y-3.2923
X5.0039Y-3.4911
X5.0069Y-3.5709
X5.0079Y-3.6112
X5.0079Y-3.753
X5.0089Y-3.5266
X5.0089Y-3.6417
X5.0089Y-3.7175
X5.0098Y-3.6781
X5.0148Y-3.3504
X5.0177Y-3.4656
X5.0276Y-2.8317
X5.0276Y-2.8622
X5.0285Y-2.8937
X5.0285Y-2.9262
X5.0305Y-3.3219
X5.0344Y-3.4911
X5.0374Y-3.5709
X5.0384Y-3.6112
X5.0384Y-3.753
X5.0394Y-3.5266
X5.0394Y-3.6417
X5.0394Y-3.7175
X5.0404Y-3.6781
X5.0453Y-3.3504
X5.0472Y-5.3425
X5.0522Y-2.8474
X5.0522Y-2.878
X5.0531Y-2.9094
X5.0531Y-2.9419
X5.063Y-3.1634
X5.0778Y-3.9016
X5.0915Y-4.6969
X5.1516Y-4.6388
X5.1673Y-5.31
X5.1713Y-3.8996
X5.2244Y-4.9469
X5.2333Y-2.8957
X5.248Y-2.8711
X5.2628Y-4.4833
X5.2657Y-2.8957
X5.2687Y-2.8179
X5.2687Y-2.8455
X5.2776Y-4.0689
X5.2805Y-2.8711
X5.2904Y-4.0148
X5.2972Y-2.8947
X5.2972Y-4.4843
X5.3012Y-2.8179
X5.3012Y-2.8455
X5.312Y-2.8701
X5.3278Y-2.8947
X5.3327Y-2.7441
X5.3327Y-2.7746
X5.3327Y-2.8169
X5.3327Y-2.8445
X5.3337Y-2.8386
X5.3396Y-4.5492
X5.3425Y-2.8701
X5.3445Y-3.1289
X5.3465Y-5.2657
X5.3474Y-5.2185
X5.3504Y-5.3081
X5.3543Y-5.3504
X5.3612Y-5.2421
X5.3632Y-2.8169
X5.3632Y-2.8445
X5.3652Y-5.2854
X5.3661Y-5.3287
X5.3711Y-5.3701
X5.374Y-5.4114
X5.3789Y-5.2657
X5.3799Y-5.2185
X5.3829Y-5.3081
X5.3868Y-5.3504
X5.3868Y-5.3907
X5.3888Y-4.0128
X5.3888Y-4.0659
X5.3888Y-4.3376
X5.3898Y-5.4331
X5.3907Y-2.815
X5.3907Y-2.8455
X5.3917Y-2.877
X5.3917Y-2.9094
X5.3937Y-5.2421
X5.3976Y-5.2854
X5.3986Y-5.3287
X5.4035Y-5.3701
X5.4065Y-5.4114
X5.4104Y-5.2648
X5.4114Y-5.2175
X5.4144Y-5.3071
X5.4163Y-2.814
X5.4163Y-2.8445
X5.4173Y-2.876
X5.4173Y-2.9085
X5.4183Y-5.3494
X5.4183Y-5.3898
X5.4213Y-5.4321
X5.4242Y-4.3612
X5.4242Y-4.3957
X5.4252Y-5.2411
X5.4272Y-4.0404
X5.4291Y-5.2844
X5.4301Y-5.3278
X5.4321Y-4.498
X5.435Y-5.3691
X5.438Y-5.4104
X5.4409Y-5.2648
X5.4419Y-5.2175
X5.4449Y-5.3071
X5.4488Y-5.3494
X5.4488Y-5.3898
X5.4518Y-5.4321
X5.4557Y-5.2411
X5.4596Y-5.2844
X5.4606Y-5.3278
X5.4656Y-5.3691
X5.4685Y-5.4104
X5.4961Y-4.3602
X5.4961Y-4.439
X5.497Y-4.0394
X5.497Y-4.3967
X5.501Y-4.9508
X5.502Y-4.9193
X5.503Y-4.8898
X5.5059Y-4.1752
X5.5059Y-4.2057
X5.5069Y-4.2372
X5.5069Y-4.2697
X5.5079Y-4.498
X5.5132Y-4.6319
X5.5226Y-5.4882
X5.5335Y-4.9508
X5.5344Y-4.9193
X5.5354Y-4.8898
X5.5413Y-5.1831
X5.5413Y-5.4675
X5.5551Y-5.4892
X5.56Y-5.1614
X5.561Y-4.5089
X5.561Y-5.4469
X5.565Y-4.9498
X5.5659Y-4.9183
X5.5669Y-4.8888
X5.5728Y-5.1841
X5.5758Y-5.4685
X5.5797Y-5.4094
X5.5817Y-5.128
X5.5856Y-5.1604
X5.5915Y-5.4459
X5.5945Y-5.4872
X5.5955Y-4.9498
X5.5965Y-4.9183
X5.5974Y-4.8888
X5.5984Y-4.7156
X5.5984Y-4.7461
X5.5994Y-4.7776
X5.5994Y-4.81
X5.6014Y-5.185
X5.6083Y-5.4665
X5.7185Y-2.748
X5.7185Y-2.7795
X5.7185Y-3.6191
X5.7195Y-3.3376
X5.7195Y-3.4803
X5.7195Y-3.6535
X5.7195Y-3.687
X5.7205Y-3.372
X5.7205Y-3.4055
X5.7205Y-3.5148
X5.7205Y-3.5482
X5.7205Y-3.7175
X5.7205Y-3.747
X5.7205Y-3.878
X5.7215Y-3.436
X5.7215Y-3.5787
X5.7215Y-3.7815
X5.7215Y-3.815
X5.7215Y-3.9124
X5.7215Y-3.9459
X5.7224Y-3.0098
X5.7224Y-3.8455
X5.7224Y-3.9764
X5.7234Y-3.0404
X5.7234Y-3.0738
X5.7244Y-3.1083
X5.7244Y-4.0108
X5.7254Y-2.6348
X5.7254Y-4.0453
X5.7254Y-4.0787
X5.7264Y-4.1093
X5.7293Y-3.2657
X5.7293Y-3.2943
X5.7303Y-5.2362
X5.7411Y-3.3219
X5.7411Y-3.6014
X5.7421Y-3.3563
X5.7421Y-3.3898
X5.7421Y-3.6358
X5.7421Y-3.6693
X5.7431Y-3.4203
X5.7431Y-3.6998
X5.7441Y-2.9587
X5.7451Y-2.9931
X5.7451Y-3.0266
X5.7451Y-3.4636
X5.7451Y-3.7303
X5.7461Y-3.0571
X5.7461Y-3.498
X5.7461Y-3.5315
X5.7461Y-3.7648
X5.7461Y-3.7982
X5.7461Y-3.8622
X5.747Y-3.562
X5.747Y-3.8287
X5.747Y-3.8927
X5.747Y-3.9262
X5.748Y-3.9606
X5.75Y-3.9931
X5.751Y-2.748
X5.751Y-2.7795
X5.751Y-4.0276
X5.751Y-4.061
X5.751Y-4.3681
X5.752Y-4.0915
X5.752Y-4.3927
X5.7549Y-4.4242
X5.7559Y-2.6348
X5.7598Y-3.2648
X5.7598Y-3.2933
X5.7657Y-3.3711
X5.7667Y-3.3376
X5.7667Y-4.253
X5.7677Y-4.2874
X5.7677Y-4.3209
X5.7687Y-3.3976
X5.7687Y-4.3514
X5.7697Y-3.4321
X5.7697Y-3.4656
X5.7707Y-3.4961
X5.7717Y-3.5276
X5.7726Y-2.939
X5.7726Y-3.562
X5.7726Y-3.5955
X5.7736Y-2.9734
X5.7736Y-3.0069
X5.7736Y-3.626
X5.7746Y-3.0374
X5.7746Y-3.6545
X5.7756Y-3.689
X5.7756Y-3.7224
X5.7766Y-3.753
X5.7795Y-4.437
X5.7825Y-2.747
X5.7825Y-2.7785
X5.7844Y-4.4656
X5.7874Y-2.6339
X5.7904Y-4.0965
X5.7933Y-3.2648
X5.7933Y-3.2933
X5.7933Y-4.2618
X5.7943Y-2.9183
X5.7953Y-2.9528
X5.7953Y-2.9862
X5.7953Y-4.3189
X5.7963Y-3.0167
X5.7963Y-3.3701
X5.7972Y-3.7067
X5.7972Y-3.3366
X5.7972Y-3.4409
X5.7981Y-3.7412
X5.7981Y-3.7746
X5.7982Y-3.3957
X5.7982Y-3.4754
X5.7982Y-3.5089
X5.7991Y-3.8052
X5.7992Y-3.5394
X5.7992Y-4.2923
X5.8012Y-3.5709
X5.8022Y-3.6053
X5.8022Y-3.6388
X5.8031Y-3.6693
X5.8061Y-4.1171
X5.81Y-5.3996
X5.811Y-4.2234
X5.811Y-5.4459
X5.813Y-2.747
X5.813Y-2.7785
X5.814Y-3.0256
X5.815Y-3.06
X5.815Y-3.0935
X5.8159Y-3.124
X5.8179Y-3.4272
X5.8179Y-4.2697
X5.8189Y-3.4616
X5.8189Y-3.4951
X5.8199Y-2.6339
X5.8199Y-3.5256
X5.8209Y-3.5551
X5.8209Y-3.686
X5.8209Y-4.0955
X5.8219Y-3.5896
X5.8219Y-3.623
X5.8219Y-3.7205
X5.8219Y-3.7539
X5.8228Y-3.6535
X5.8228Y-3.7844
X5.8238Y-5.375
X5.8243Y-4.4744
X5.8248Y-2.9026
X5.8258Y-2.937
X5.8258Y-2.9705
X5.8258Y-5.1929
X5.8268Y-3.001
X5.8268Y-5.4222
X5.8278Y-3.2638
X5.8278Y-3.2923
X5.8287Y-3.3947
X5.8287Y-5.1447
X5.8297Y-3.3701
X5.8297Y-4.2913
X5.8307Y-3.3366
X5.8307Y-5.0945
X5.8346Y-4.248
X5.8366Y-4.1161
X5.8396Y-5.2185
X5.8406Y-5.3986
X5.8415Y-4.2224
X5.8415Y-5.1683
X5.8415Y-5.4449
X5.8435Y-2.747
X5.8435Y-2.7776
X5.8455Y-5.1191
X5.8484Y-4.2687
X5.8504Y-2.8839
X5.8514Y-2.9173
X5.8543Y-4.0955
X5.8543Y-5.374
X5.8563Y-5.1919
X5.8573Y-5.4213
X5.8593Y-5.1437
X5.8612Y-5.0935
X5.8622Y-3.3947
X5.8632Y-4.2913
X5.8642Y-3.3691
X5.8652Y-3.3356
X5.8652Y-4.247
X5.8701Y-4.1161
X5.8701Y-5.2175
X5.872Y-5.1673
X5.874Y-5.3986
X5.875Y-4.2224
X5.875Y-5.4449
X5.876Y-2.747
X5.876Y-2.7776
X5.876Y-5.1181
X5.8819Y-4.2687
X5.8829Y-2.8839
X5.8839Y-2.9173
X5.8873Y-4.3878
X5.8878Y-5.374
X5.8888Y-4.0945
X5.8898Y-5.1919
X5.8907Y-5.4213
X5.8927Y-5.1437
X5.8947Y-5.0935
X5.8967Y-3.3937
X5.8976Y-4.2904
X5.8986Y-4.247
X5.9035Y-5.2175
X5.9045Y-4.1152
X5.9055Y-5.1673
X5.9075Y-2.6329
X5.9075Y-2.7461
X5.9075Y-2.7766
X5.9085Y-5.3976
X5.9094Y-4.2215
X5.9094Y-5.1181
X5.9094Y-5.4439
X5.9144Y-2.8829
X5.9154Y-2.9163
X5.9163Y-4.2677
X5.9193Y-4.5669
X5.9222Y-5.373
X5.9232Y-4.0955
X5.9242Y-5.1909
X5.9252Y-5.4203
X5.9262Y-4.4242
X5.9272Y-5.1427
X5.9281Y-4.2923
X5.9281Y-4.3947
X5.9291Y-5.0925
X5.9331Y-4.2461
X5.938Y-2.7461
X5.938Y-2.7766
X5.938Y-5.2165
X5.94Y-2.6329
X5.94Y-4.1181
X5.94Y-4.5886
X5.94Y-5.1663
X5.9409Y-4.2195
X5.9409Y-4.7697
X5.9429Y-4.8189
X5.9439Y-5.1171
X5.9449Y-2.8829
X5.9459Y-2.9163
X5.9478Y-4.4695
X5.9488Y-4.4439
X5.9498Y-4.4144
X5.9508Y-4.2687
X5.9508Y-4.31
X5.9537Y-4.0945
X5.9537Y-4.5659
X5.9557Y-4.6093
X5.9567Y-4.7933
X5.9587Y-4.2421
X5.9587Y-4.2913
X5.9596Y-4.7421
X5.9646Y-4.4911
X5.9705Y-2.9163
X5.9705Y-4.1171
X5.9705Y-4.3189
X5.9705Y-4.5876
X5.9715Y-2.6319
X5.9715Y-4.2185
X5.9715Y-4.7687
X5.9724Y-2.9469
X5.9724Y-2.9774
X5.9734Y-3.0138
X5.9734Y-4.8179
X5.9813Y-4.2677
X5.9862Y-4.6083
X5.9872Y-4.0945
X5.9872Y-4.5659
X5.9872Y-4.7923
X5.9892Y-4.2411
X5.9902Y-4.7411
X5.9921Y-4.2913
X5.9941Y-4.3169
X5.9944Y-3.0392
X5.998Y-4.4695
X6.002Y-2.6319
X6.003Y-2.9163
X6.0039Y-4.1171
X6.0039Y-4.5876
X6.0049Y-2.9469
X6.0049Y-2.9774
X6.0049Y-4.2185
X6.0049Y-4.7687
X6.0059Y-3.0138
X6.0069Y-4.8179
X6.0128Y-4.3159
X6.0148Y-4.2677
X6.0167Y-3.063
X6.0177Y-4.565
X6.0197Y-4.6083
X6.0197Y-5.1191
X6.0207Y-4.7923
X6.0217Y-4.0935
X6.0226Y-4.2411
X6.0236Y-4.7411
X6.0266Y-4.2904
X6.0269Y-3.0392
X6.0335Y-4.3159
X6.0344Y-2.9154
X6.0354Y-4.438
X6.0364Y-2.9459
X6.0364Y-2.9764
X6.0374Y-3.0128
X6.0384Y-3.0876
X6.0384Y-4.1161
X6.0384Y-4.5866
X6.0394Y-4.2175
X6.0394Y-4.7677
X6.0413Y-4.8169
X6.0492Y-3.063
X6.0492Y-4.2667
X6.0541Y-3.1161
X6.0541Y-4.3159
X6.0541Y-4.6073
X6.0551Y-4.7913
X6.0561Y-3.1486
X6.0561Y-3.1831
X6.0571Y-3.2146
X6.0571Y-3.2451
X6.0571Y-4.2402
X6.0581Y-4.2884
X6.0581Y-4.7402
X6.0584Y-3.0382
X6.0585Y-4.9555
X6.065Y-2.9154
X6.0669Y-2.9459
X6.0669Y-2.9764
X6.0679Y-3.0128
X6.0709Y-3.0876
X6.0768Y-4.4011
X6.0778Y-4.7667
X6.0778Y-4.8159
X6.0797Y-3.2687
X6.0807Y-3.062
X6.0837Y-4.2116
X6.0846Y-4.2461
X6.0846Y-4.2795
X6.0856Y-4.31
X6.0866Y-3.1161
X6.0876Y-2.7756
X6.0876Y-2.8041
X6.0876Y-2.8346
X6.0886Y-2.8691
X6.0886Y-2.9075
X6.0886Y-3.1486
X6.0886Y-3.1831
X6.0889Y-3.0382
X6.0896Y-3.2146
X6.0896Y-3.2451
X6.0945Y-4.7411
X6.0955Y-4.7894
X6.0994Y-3.9911
X6.1024Y-3.0866
X6.1053Y-3.2933
X6.1063Y-4.2244
X6.1073Y-4.2589
X6.1073Y-4.2923
X6.1083Y-4.3228
X6.1083Y-4.7657
X6.1083Y-4.815
X6.1112Y-3.062
X6.1122Y-3.2687
X6.1181Y-3.1152
X6.1201Y-2.7756
X6.1201Y-2.8041
X6.1201Y-2.8346
X6.1201Y-3.1476
X6.1201Y-3.1821
X6.1211Y-2.8691
X6.1211Y-2.9075
X6.1211Y-3.2136
X6.1211Y-3.2441
X6.125Y-4.7402
X6.126Y-4.7884
X6.1299Y-3.9902
X6.1319Y-3.3248
X6.1329Y-3.0866
X6.1378Y-3.2933
X6.1407Y-4.4843
X6.1417Y-4.7657
X6.1417Y-4.815
X6.1437Y-3.2677
X6.1486Y-3.1152
X6.1506Y-3.1476
X6.1506Y-3.1821
X6.1516Y-2.7746
X6.1516Y-2.8031
X6.1516Y-2.8337
X6.1516Y-3.2136
X6.1516Y-3.2441
X6.1516Y-4.1112
X6.1526Y-2.8681
X6.1526Y-2.9065
X6.1575Y-3.3504
X6.1585Y-4.7402
X6.1594Y-4.7884
X6.1634Y-3.9902
X6.1644Y-3.3248
X6.1654Y-4.314
X6.1654Y-4.4518
X6.1693Y-3.2923
X6.1742Y-3.2677
X6.1752Y-5.4213
X6.1762Y-4.7648
X6.1762Y-4.814
X6.1821Y-2.7746
X6.1821Y-2.8031
X6.1821Y-2.8337
X6.1831Y-2.8681
X6.1831Y-2.9065
X6.189Y-5.315
X6.19Y-3.3504
X6.1929Y-4.7392
X6.1939Y-4.7874
X6.1949Y-3.3839
X6.1959Y-3.3238
X6.1978Y-3.9892
X6.1998Y-3.2923
X6.2057Y-4.2963
X6.2096Y-4.2608
X6.2126Y-2.8346
X6.2126Y-2.8691
X6.2146Y-2.9045
X6.2156Y-2.8012
X6.2165Y-3.4124
X6.2165Y-4.7618
X6.2175Y-4.7963
X6.2175Y-4.8297
X6.2185Y-4.6978
X6.2185Y-4.8602
X6.2205Y-4.8917
X6.2215Y-3.3494
X6.2215Y-4.9262
X6.2215Y-4.9596
X6.2224Y-4.9902
X6.2264Y-3.3238
X6.2274Y-3.3839
X6.2283Y-5.126
X6.2323Y-4.312
X6.2362Y-3.4409
X6.2362Y-4.2736
X6.2372Y-4.0522
X6.2392Y-4.2205
X6.2402Y-3.2933
X6.2451Y-2.8346
X6.2451Y-2.8691
X6.247Y-2.9045
X6.248Y-2.8012
X6.249Y-3.4124
X6.252Y-3.3494
X6.2539Y-3.4665
X6.2589Y-3.3829
X6.2618Y-4.31
X6.2667Y-3.3228
X6.2687Y-3.4409
X6.2707Y-3.4921
X6.2726Y-3.2933
X6.2736Y-3.5719
X6.2746Y-3.6122
X6.2746Y-3.7539
X6.2756Y-3.5276
X6.2756Y-3.6427
X6.2756Y-3.7185
X6.2766Y-2.8337
X6.2766Y-2.8681
X6.2766Y-3.6791
X6.2785Y-2.9035
X6.2795Y-2.8002
X6.2805Y-3.4114
X6.2815Y-3.3514
X6.2864Y-3.4665
X6.2894Y-3.3829
X6.2992Y-3.3228
X6.3002Y-3.44
X6.3002Y-4.2205
X6.3031Y-3.4921
X6.3041Y-3.2923
X6.3061Y-3.5719
X6.3071Y-2.8337
X6.3071Y-2.8681
X6.3071Y-3.6122
X6.3071Y-3.7539
X6.3081Y-3.5276
X6.3081Y-3.6427
X6.3081Y-3.7185
X6.3091Y-2.9035
X6.3091Y-3.6791
X6.31Y-2.8002
X6.311Y-3.4114
X6.314Y-3.3514
X6.3179Y-3.4656
X6.3179Y-3.936
X6.3189Y-3.8494
X6.3189Y-4.0443
X6.3307Y-3.3219
X6.3307Y-3.44
X6.3327Y-2.8189
X6.3327Y-2.8494
X6.3337Y-2.8809
X6.3337Y-2.9134
X6.3346Y-3.2923
X6.3346Y-3.4911
X6.3376Y-3.5709
X6.3386Y-3.6112
X6.3386Y-3.753
X6.3396Y-3.5266
X6.3396Y-3.6417
X6.3396Y-3.7175
X6.3406Y-3.6781
X6.3455Y-3.3504
X6.3484Y-3.4656
X6.3583Y-2.8317
X6.3583Y-2.8622
X6.3593Y-2.8937
X6.3593Y-2.9262
X6.3612Y-3.3219
X6.3652Y-3.4911
X6.3681Y-3.5709
X6.3691Y-3.6112
X6.3691Y-3.753
X6.3701Y-3.5266
X6.3701Y-3.6417
X6.3701Y-3.7175
X6.3711Y-3.6781
X6.376Y-3.3504
X6.378Y-5.3425
X6.3829Y-2.8474
X6.3829Y-2.878
X6.3839Y-2.9094
X6.3839Y-2.9419
X6.3937Y-3.1634
X6.4085Y-3.9016
X6.4222Y-4.6969
X6.4823Y-4.6388
X6.498Y-5.31
X6.502Y-3.8996
X6.5551Y-4.9469
X6.564Y-2.8957
X6.5787Y-2.8711
X6.5935Y-4.4833
X6.5965Y-2.8957
X6.5994Y-2.8179
X6.5994Y-2.8455
X6.6083Y-4.0689
X6.6112Y-2.8711
X6.6211Y-4.0148
X6.628Y-2.8947
X6.628Y-4.4843
X6.6319Y-2.8179
X6.6319Y-2.8455
X6.6427Y-2.8701
X6.6585Y-2.8947
X6.6634Y-2.7441
X6.6634Y-2.7746
X6.6634Y-2.8169
X6.6634Y-2.8445
X6.6644Y-2.8386
X6.6703Y-4.5492
X6.6732Y-2.8701
X6.6752Y-3.1289
X6.6772Y-5.2657
X6.6781Y-5.2185
X6.6811Y-5.3081
X6.685Y-5.3504
X6.6919Y-5.2421
X6.6939Y-2.8169
X6.6939Y-2.8445
X6.6959Y-5.2854
X6.6969Y-5.3287
X6.7018Y-5.3701
X6.7047Y-5.4114
X6.7096Y-5.2657
X6.7106Y-5.2185
X6.7136Y-5.3081
X6.7175Y-5.3504
X6.7175Y-5.3907
X6.7195Y-4.0128
X6.7195Y-4.0659
X6.7195Y-4.3376
X6.7205Y-5.4331
X6.7215Y-2.815
X6.7215Y-2.8455
X6.7224Y-2.877
X6.7224Y-2.9094
X6.7244Y-5.2421
X6.7283Y-5.2854
X6.7293Y-5.3287
X6.7343Y-5.3701
X6.7372Y-5.4114
X6.7411Y-5.2648
X6.7421Y-5.2175
X6.7451Y-5.3071
X6.747Y-2.814
X6.747Y-2.8445
X6.748Y-2.876
X6.748Y-2.9085
X6.749Y-5.3494
X6.749Y-5.3898
X6.752Y-5.4321
X6.7549Y-4.3612
X6.7549Y-4.3957
X6.7559Y-5.2411
X6.7579Y-4.0404
X6.7598Y-5.2844
X6.7608Y-5.3278
X6.7628Y-4.498
X6.7657Y-5.3691
X6.7687Y-5.4104
X6.7717Y-5.2648
X6.7726Y-5.2175
X6.7756Y-5.3071
X6.7795Y-5.3494
X6.7795Y-5.3898
X6.7825Y-5.4321
X6.7864Y-5.2411
X6.7904Y-5.2844
X6.7913Y-5.3278
X6.7963Y-5.3691
X6.7992Y-5.4104
X6.8268Y-4.3602
X6.8268Y-4.439
X6.8278Y-4.0394
X6.8278Y-4.3967
X6.8317Y-4.9508
X6.8327Y-4.9193
X6.8337Y-4.8898
X6.8366Y-4.1752
X6.8366Y-4.2057
X6.8376Y-4.2372
X6.8376Y-4.2697
X6.8386Y-4.498
X6.8439Y-4.6319
X6.8533Y-5.4882
X6.8642Y-4.9508
X6.8652Y-4.9193
X6.8661Y-4.8898
X6.872Y-5.1831
X6.872Y-5.4675
X6.8858Y-5.4892
X6.8907Y-5.1614
X6.8917Y-4.5089
X6.8917Y-5.4469
X6.8957Y-4.9498
X6.8967Y-4.9183
X6.8976Y-4.8888
X6.9035Y-5.1841
X6.9065Y-5.4685
X6.9104Y-5.4094
X6.9124Y-5.128
X6.9163Y-5.1604
X6.9222Y-5.4459
X6.9252Y-5.4872
X6.9262Y-4.9498
X6.9272Y-4.9183
X6.9281Y-4.8888
X6.9291Y-4.7156
X6.9291Y-4.7461
X6.9301Y-4.7776
X6.9301Y-4.81
X6.9321Y-5.185
X6.939Y-5.4665
T2
X5.1131Y-5.1298
X5.1131Y-5.4298
X5.2131Y-5.1298
X5.2131Y-5.4298
X5.3131Y-5.1298
X5.3131Y-5.4298
X6.4438Y-5.1298
X6.4438Y-5.4298
X6.5438Y-5.1298
X6.5438Y-5.4298
X6.6438Y-5.1298
X6.6438Y-5.4298
T3
X4.4596Y-5.2923
X4.5581Y-5.2923
X4.565Y-2.9705
X4.565Y-3.0689
X4.565Y-3.1673
X4.565Y-3.2657
X4.6565Y-5.2923
X4.7549Y-5.2923
X5.7904Y-5.2923
X5.8888Y-5.2923
X5.8957Y-2.9705
X5.8957Y-3.0689
X5.8957Y-3.1673
X5.8957Y-3.2657
X5.9872Y-5.2923
X6.0856Y-5.2923
T4
X4.424Y-2.689
X4.524Y-2.689
X4.624Y-2.689
X4.724Y-2.689
X4.824Y-2.689
X4.8593Y-2.9882
X4.924Y-2.689
X4.9577Y-2.9882
X5.024Y-2.689
X5.124Y-2.689
X5.1303Y-4.7913
X5.224Y-2.689
X5.2303Y-4.7913
X5.2844Y-2.9754
X5.324Y-2.689
X5.3829Y-2.9754
X5.564Y-3.9386
X5.564Y-4.0386
X5.564Y-4.1386
X5.564Y-4.2386
X5.564Y-4.3386
X5.564Y-4.4386
X5.7547Y-2.689
X5.8547Y-2.689
X5.9547Y-2.689
X6.0547Y-2.689
X6.1547Y-2.689
X6.19Y-2.9882
X6.2547Y-2.689
X6.2884Y-2.9882
X6.3547Y-2.689
X6.4547Y-2.689
X6.461Y-4.7913
X6.5547Y-2.689
X6.561Y-4.7913
X6.6152Y-2.9754
X6.6547Y-2.689
X6.7136Y-2.9754
X6.8947Y-3.9386
X6.8947Y-4.0386
X6.8947Y-4.1386
X6.8947Y-4.2386
X6.8947Y-4.3386
X6.8947Y-4.4386
M30
