%TF.GenerationSoftware,KiCad,Pcbnew,10.0.1-10.0.1~ubuntu24.04.1*%
%TF.CreationDate,2026-05-10T17:15:29+09:00*%
%TF.ProjectId,2026B-main,32303236-422d-46d6-9169-6e2e6b696361,rev?*%
%TF.SameCoordinates,Original*%
%TF.FileFunction,Legend,Top*%
%TF.FilePolarity,Positive*%
%FSLAX46Y46*%
G04 Gerber Fmt 4.6, Leading zero omitted, Abs format (unit mm)*
G04 Created by KiCad (PCBNEW 10.0.1-10.0.1~ubuntu24.04.1) date 2026-05-10 17:15:29*
%MOMM*%
%LPD*%
G01*
G04 APERTURE LIST*
G04 Aperture macros list*
%AMRoundRect*
0 Rectangle with rounded corners*
0 $1 Rounding radius*
0 $2 $3 $4 $5 $6 $7 $8 $9 X,Y pos of 4 corners*
0 Add a 4 corners polygon primitive as box body*
4,1,4,$2,$3,$4,$5,$6,$7,$8,$9,$2,$3,0*
0 Add four circle primitives for the rounded corners*
1,1,$1+$1,$2,$3*
1,1,$1+$1,$4,$5*
1,1,$1+$1,$6,$7*
1,1,$1+$1,$8,$9*
0 Add four rect primitives between the rounded corners*
20,1,$1+$1,$2,$3,$4,$5,0*
20,1,$1+$1,$4,$5,$6,$7,0*
20,1,$1+$1,$6,$7,$8,$9,0*
20,1,$1+$1,$8,$9,$2,$3,0*%
G04 Aperture macros list end*
%ADD10C,0.150000*%
%ADD11C,0.120000*%
%ADD12C,0.152400*%
%ADD13C,0.127000*%
%ADD14C,0.200000*%
%ADD15RoundRect,0.237500X-0.237500X0.300000X-0.237500X-0.300000X0.237500X-0.300000X0.237500X0.300000X0*%
%ADD16RoundRect,0.237500X0.287500X0.237500X-0.287500X0.237500X-0.287500X-0.237500X0.287500X-0.237500X0*%
%ADD17R,1.700000X1.700000*%
%ADD18C,1.700000*%
%ADD19RoundRect,0.250000X-0.600000X-0.750000X0.600000X-0.750000X0.600000X0.750000X-0.600000X0.750000X0*%
%ADD20O,1.700000X2.000000*%
%ADD21C,1.000000*%
%ADD22RoundRect,0.125000X-0.875000X0.125000X-0.875000X-0.125000X0.875000X-0.125000X0.875000X0.125000X0*%
%ADD23RoundRect,0.250000X-0.600000X0.750000X-0.600000X-0.750000X0.600000X-0.750000X0.600000X0.750000X0*%
%ADD24RoundRect,0.237500X-0.300000X-0.237500X0.300000X-0.237500X0.300000X0.237500X-0.300000X0.237500X0*%
%ADD25R,0.660400X1.041400*%
%ADD26RoundRect,0.250000X0.600000X0.725000X-0.600000X0.725000X-0.600000X-0.725000X0.600000X-0.725000X0*%
%ADD27O,1.700000X1.950000*%
%ADD28C,1.200000*%
%ADD29RoundRect,0.250000X0.750000X-0.600000X0.750000X0.600000X-0.750000X0.600000X-0.750000X-0.600000X0*%
%ADD30O,2.000000X1.700000*%
%ADD31RoundRect,0.139680X-0.912320X0.442320X-0.912320X-0.442320X0.912320X-0.442320X0.912320X0.442320X0*%
%ADD32RoundRect,0.700080X-2.821920X2.216920X-2.821920X-2.216920X2.821920X-2.216920X2.821920X2.216920X0*%
%ADD33RoundRect,0.237500X0.237500X-0.250000X0.237500X0.250000X-0.237500X0.250000X-0.237500X-0.250000X0*%
%ADD34C,3.200000*%
%ADD35RoundRect,0.237500X0.237500X-0.300000X0.237500X0.300000X-0.237500X0.300000X-0.237500X-0.300000X0*%
%ADD36RoundRect,0.250000X0.725000X-0.600000X0.725000X0.600000X-0.725000X0.600000X-0.725000X-0.600000X0*%
%ADD37O,1.950000X1.700000*%
%ADD38RoundRect,0.237500X-0.237500X0.250000X-0.237500X-0.250000X0.237500X-0.250000X0.237500X0.250000X0*%
%ADD39RoundRect,0.150000X-0.825000X-0.150000X0.825000X-0.150000X0.825000X0.150000X-0.825000X0.150000X0*%
%ADD40RoundRect,0.237500X-0.250000X-0.237500X0.250000X-0.237500X0.250000X0.237500X-0.250000X0.237500X0*%
%ADD41RoundRect,0.102000X-0.575000X-0.700000X0.575000X-0.700000X0.575000X0.700000X-0.575000X0.700000X0*%
%ADD42RoundRect,0.250000X-0.600000X-0.725000X0.600000X-0.725000X0.600000X0.725000X-0.600000X0.725000X0*%
%ADD43RoundRect,0.075000X-0.700000X-0.075000X0.700000X-0.075000X0.700000X0.075000X-0.700000X0.075000X0*%
%ADD44RoundRect,0.075000X-0.075000X-0.700000X0.075000X-0.700000X0.075000X0.700000X-0.075000X0.700000X0*%
G04 APERTURE END LIST*
D10*
X96449580Y-92191666D02*
X96497200Y-92239285D01*
X96497200Y-92239285D02*
X96544819Y-92382142D01*
X96544819Y-92382142D02*
X96544819Y-92477380D01*
X96544819Y-92477380D02*
X96497200Y-92620237D01*
X96497200Y-92620237D02*
X96401961Y-92715475D01*
X96401961Y-92715475D02*
X96306723Y-92763094D01*
X96306723Y-92763094D02*
X96116247Y-92810713D01*
X96116247Y-92810713D02*
X95973390Y-92810713D01*
X95973390Y-92810713D02*
X95782914Y-92763094D01*
X95782914Y-92763094D02*
X95687676Y-92715475D01*
X95687676Y-92715475D02*
X95592438Y-92620237D01*
X95592438Y-92620237D02*
X95544819Y-92477380D01*
X95544819Y-92477380D02*
X95544819Y-92382142D01*
X95544819Y-92382142D02*
X95592438Y-92239285D01*
X95592438Y-92239285D02*
X95640057Y-92191666D01*
X95640057Y-91810713D02*
X95592438Y-91763094D01*
X95592438Y-91763094D02*
X95544819Y-91667856D01*
X95544819Y-91667856D02*
X95544819Y-91429761D01*
X95544819Y-91429761D02*
X95592438Y-91334523D01*
X95592438Y-91334523D02*
X95640057Y-91286904D01*
X95640057Y-91286904D02*
X95735295Y-91239285D01*
X95735295Y-91239285D02*
X95830533Y-91239285D01*
X95830533Y-91239285D02*
X95973390Y-91286904D01*
X95973390Y-91286904D02*
X96544819Y-91858332D01*
X96544819Y-91858332D02*
X96544819Y-91239285D01*
X89336905Y-108584819D02*
X89336905Y-107584819D01*
X89336905Y-107584819D02*
X89575000Y-107584819D01*
X89575000Y-107584819D02*
X89717857Y-107632438D01*
X89717857Y-107632438D02*
X89813095Y-107727676D01*
X89813095Y-107727676D02*
X89860714Y-107822914D01*
X89860714Y-107822914D02*
X89908333Y-108013390D01*
X89908333Y-108013390D02*
X89908333Y-108156247D01*
X89908333Y-108156247D02*
X89860714Y-108346723D01*
X89860714Y-108346723D02*
X89813095Y-108441961D01*
X89813095Y-108441961D02*
X89717857Y-108537200D01*
X89717857Y-108537200D02*
X89575000Y-108584819D01*
X89575000Y-108584819D02*
X89336905Y-108584819D01*
X90289286Y-107680057D02*
X90336905Y-107632438D01*
X90336905Y-107632438D02*
X90432143Y-107584819D01*
X90432143Y-107584819D02*
X90670238Y-107584819D01*
X90670238Y-107584819D02*
X90765476Y-107632438D01*
X90765476Y-107632438D02*
X90813095Y-107680057D01*
X90813095Y-107680057D02*
X90860714Y-107775295D01*
X90860714Y-107775295D02*
X90860714Y-107870533D01*
X90860714Y-107870533D02*
X90813095Y-108013390D01*
X90813095Y-108013390D02*
X90241667Y-108584819D01*
X90241667Y-108584819D02*
X90860714Y-108584819D01*
X121534819Y-82933333D02*
X122249104Y-82933333D01*
X122249104Y-82933333D02*
X122391961Y-82980952D01*
X122391961Y-82980952D02*
X122487200Y-83076190D01*
X122487200Y-83076190D02*
X122534819Y-83219047D01*
X122534819Y-83219047D02*
X122534819Y-83314285D01*
X121630057Y-82504761D02*
X121582438Y-82457142D01*
X121582438Y-82457142D02*
X121534819Y-82361904D01*
X121534819Y-82361904D02*
X121534819Y-82123809D01*
X121534819Y-82123809D02*
X121582438Y-82028571D01*
X121582438Y-82028571D02*
X121630057Y-81980952D01*
X121630057Y-81980952D02*
X121725295Y-81933333D01*
X121725295Y-81933333D02*
X121820533Y-81933333D01*
X121820533Y-81933333D02*
X121963390Y-81980952D01*
X121963390Y-81980952D02*
X122534819Y-82552380D01*
X122534819Y-82552380D02*
X122534819Y-81933333D01*
X166566666Y-130299819D02*
X166566666Y-131014104D01*
X166566666Y-131014104D02*
X166519047Y-131156961D01*
X166519047Y-131156961D02*
X166423809Y-131252200D01*
X166423809Y-131252200D02*
X166280952Y-131299819D01*
X166280952Y-131299819D02*
X166185714Y-131299819D01*
X167471428Y-130299819D02*
X167280952Y-130299819D01*
X167280952Y-130299819D02*
X167185714Y-130347438D01*
X167185714Y-130347438D02*
X167138095Y-130395057D01*
X167138095Y-130395057D02*
X167042857Y-130537914D01*
X167042857Y-130537914D02*
X166995238Y-130728390D01*
X166995238Y-130728390D02*
X166995238Y-131109342D01*
X166995238Y-131109342D02*
X167042857Y-131204580D01*
X167042857Y-131204580D02*
X167090476Y-131252200D01*
X167090476Y-131252200D02*
X167185714Y-131299819D01*
X167185714Y-131299819D02*
X167376190Y-131299819D01*
X167376190Y-131299819D02*
X167471428Y-131252200D01*
X167471428Y-131252200D02*
X167519047Y-131204580D01*
X167519047Y-131204580D02*
X167566666Y-131109342D01*
X167566666Y-131109342D02*
X167566666Y-130871247D01*
X167566666Y-130871247D02*
X167519047Y-130776009D01*
X167519047Y-130776009D02*
X167471428Y-130728390D01*
X167471428Y-130728390D02*
X167376190Y-130680771D01*
X167376190Y-130680771D02*
X167185714Y-130680771D01*
X167185714Y-130680771D02*
X167090476Y-130728390D01*
X167090476Y-130728390D02*
X167042857Y-130776009D01*
X167042857Y-130776009D02*
X166995238Y-130871247D01*
X94404819Y-94683333D02*
X95119104Y-94683333D01*
X95119104Y-94683333D02*
X95261961Y-94730952D01*
X95261961Y-94730952D02*
X95357200Y-94826190D01*
X95357200Y-94826190D02*
X95404819Y-94969047D01*
X95404819Y-94969047D02*
X95404819Y-95064285D01*
X95404819Y-93683333D02*
X95404819Y-94254761D01*
X95404819Y-93969047D02*
X94404819Y-93969047D01*
X94404819Y-93969047D02*
X94547676Y-94064285D01*
X94547676Y-94064285D02*
X94642914Y-94159523D01*
X94642914Y-94159523D02*
X94690533Y-94254761D01*
X123670833Y-112529580D02*
X123623214Y-112577200D01*
X123623214Y-112577200D02*
X123480357Y-112624819D01*
X123480357Y-112624819D02*
X123385119Y-112624819D01*
X123385119Y-112624819D02*
X123242262Y-112577200D01*
X123242262Y-112577200D02*
X123147024Y-112481961D01*
X123147024Y-112481961D02*
X123099405Y-112386723D01*
X123099405Y-112386723D02*
X123051786Y-112196247D01*
X123051786Y-112196247D02*
X123051786Y-112053390D01*
X123051786Y-112053390D02*
X123099405Y-111862914D01*
X123099405Y-111862914D02*
X123147024Y-111767676D01*
X123147024Y-111767676D02*
X123242262Y-111672438D01*
X123242262Y-111672438D02*
X123385119Y-111624819D01*
X123385119Y-111624819D02*
X123480357Y-111624819D01*
X123480357Y-111624819D02*
X123623214Y-111672438D01*
X123623214Y-111672438D02*
X123670833Y-111720057D01*
X124527976Y-111958152D02*
X124527976Y-112624819D01*
X124289881Y-111577200D02*
X124051786Y-112291485D01*
X124051786Y-112291485D02*
X124670833Y-112291485D01*
X138216666Y-130299819D02*
X138216666Y-131014104D01*
X138216666Y-131014104D02*
X138169047Y-131156961D01*
X138169047Y-131156961D02*
X138073809Y-131252200D01*
X138073809Y-131252200D02*
X137930952Y-131299819D01*
X137930952Y-131299819D02*
X137835714Y-131299819D01*
X138597619Y-130299819D02*
X139216666Y-130299819D01*
X139216666Y-130299819D02*
X138883333Y-130680771D01*
X138883333Y-130680771D02*
X139026190Y-130680771D01*
X139026190Y-130680771D02*
X139121428Y-130728390D01*
X139121428Y-130728390D02*
X139169047Y-130776009D01*
X139169047Y-130776009D02*
X139216666Y-130871247D01*
X139216666Y-130871247D02*
X139216666Y-131109342D01*
X139216666Y-131109342D02*
X139169047Y-131204580D01*
X139169047Y-131204580D02*
X139121428Y-131252200D01*
X139121428Y-131252200D02*
X139026190Y-131299819D01*
X139026190Y-131299819D02*
X138740476Y-131299819D01*
X138740476Y-131299819D02*
X138645238Y-131252200D01*
X138645238Y-131252200D02*
X138597619Y-131204580D01*
X97066667Y-114107200D02*
X97209524Y-114154819D01*
X97209524Y-114154819D02*
X97447619Y-114154819D01*
X97447619Y-114154819D02*
X97542857Y-114107200D01*
X97542857Y-114107200D02*
X97590476Y-114059580D01*
X97590476Y-114059580D02*
X97638095Y-113964342D01*
X97638095Y-113964342D02*
X97638095Y-113869104D01*
X97638095Y-113869104D02*
X97590476Y-113773866D01*
X97590476Y-113773866D02*
X97542857Y-113726247D01*
X97542857Y-113726247D02*
X97447619Y-113678628D01*
X97447619Y-113678628D02*
X97257143Y-113631009D01*
X97257143Y-113631009D02*
X97161905Y-113583390D01*
X97161905Y-113583390D02*
X97114286Y-113535771D01*
X97114286Y-113535771D02*
X97066667Y-113440533D01*
X97066667Y-113440533D02*
X97066667Y-113345295D01*
X97066667Y-113345295D02*
X97114286Y-113250057D01*
X97114286Y-113250057D02*
X97161905Y-113202438D01*
X97161905Y-113202438D02*
X97257143Y-113154819D01*
X97257143Y-113154819D02*
X97495238Y-113154819D01*
X97495238Y-113154819D02*
X97638095Y-113202438D01*
X97971429Y-113154819D02*
X98209524Y-114154819D01*
X98209524Y-114154819D02*
X98400000Y-113440533D01*
X98400000Y-113440533D02*
X98590476Y-114154819D01*
X98590476Y-114154819D02*
X98828572Y-113154819D01*
X99733333Y-114154819D02*
X99161905Y-114154819D01*
X99447619Y-114154819D02*
X99447619Y-113154819D01*
X99447619Y-113154819D02*
X99352381Y-113297676D01*
X99352381Y-113297676D02*
X99257143Y-113392914D01*
X99257143Y-113392914D02*
X99161905Y-113440533D01*
X138490476Y-97429819D02*
X138490476Y-98144104D01*
X138490476Y-98144104D02*
X138442857Y-98286961D01*
X138442857Y-98286961D02*
X138347619Y-98382200D01*
X138347619Y-98382200D02*
X138204762Y-98429819D01*
X138204762Y-98429819D02*
X138109524Y-98429819D01*
X138871429Y-97429819D02*
X139490476Y-97429819D01*
X139490476Y-97429819D02*
X139157143Y-97810771D01*
X139157143Y-97810771D02*
X139300000Y-97810771D01*
X139300000Y-97810771D02*
X139395238Y-97858390D01*
X139395238Y-97858390D02*
X139442857Y-97906009D01*
X139442857Y-97906009D02*
X139490476Y-98001247D01*
X139490476Y-98001247D02*
X139490476Y-98239342D01*
X139490476Y-98239342D02*
X139442857Y-98334580D01*
X139442857Y-98334580D02*
X139395238Y-98382200D01*
X139395238Y-98382200D02*
X139300000Y-98429819D01*
X139300000Y-98429819D02*
X139014286Y-98429819D01*
X139014286Y-98429819D02*
X138919048Y-98382200D01*
X138919048Y-98382200D02*
X138871429Y-98334580D01*
X139823810Y-97429819D02*
X140442857Y-97429819D01*
X140442857Y-97429819D02*
X140109524Y-97810771D01*
X140109524Y-97810771D02*
X140252381Y-97810771D01*
X140252381Y-97810771D02*
X140347619Y-97858390D01*
X140347619Y-97858390D02*
X140395238Y-97906009D01*
X140395238Y-97906009D02*
X140442857Y-98001247D01*
X140442857Y-98001247D02*
X140442857Y-98239342D01*
X140442857Y-98239342D02*
X140395238Y-98334580D01*
X140395238Y-98334580D02*
X140347619Y-98382200D01*
X140347619Y-98382200D02*
X140252381Y-98429819D01*
X140252381Y-98429819D02*
X139966667Y-98429819D01*
X139966667Y-98429819D02*
X139871429Y-98382200D01*
X139871429Y-98382200D02*
X139823810Y-98334580D01*
X137404819Y-118259523D02*
X138119104Y-118259523D01*
X138119104Y-118259523D02*
X138261961Y-118307142D01*
X138261961Y-118307142D02*
X138357200Y-118402380D01*
X138357200Y-118402380D02*
X138404819Y-118545237D01*
X138404819Y-118545237D02*
X138404819Y-118640475D01*
X137500057Y-117830951D02*
X137452438Y-117783332D01*
X137452438Y-117783332D02*
X137404819Y-117688094D01*
X137404819Y-117688094D02*
X137404819Y-117449999D01*
X137404819Y-117449999D02*
X137452438Y-117354761D01*
X137452438Y-117354761D02*
X137500057Y-117307142D01*
X137500057Y-117307142D02*
X137595295Y-117259523D01*
X137595295Y-117259523D02*
X137690533Y-117259523D01*
X137690533Y-117259523D02*
X137833390Y-117307142D01*
X137833390Y-117307142D02*
X138404819Y-117878570D01*
X138404819Y-117878570D02*
X138404819Y-117259523D01*
X137500057Y-116878570D02*
X137452438Y-116830951D01*
X137452438Y-116830951D02*
X137404819Y-116735713D01*
X137404819Y-116735713D02*
X137404819Y-116497618D01*
X137404819Y-116497618D02*
X137452438Y-116402380D01*
X137452438Y-116402380D02*
X137500057Y-116354761D01*
X137500057Y-116354761D02*
X137595295Y-116307142D01*
X137595295Y-116307142D02*
X137690533Y-116307142D01*
X137690533Y-116307142D02*
X137833390Y-116354761D01*
X137833390Y-116354761D02*
X138404819Y-116926189D01*
X138404819Y-116926189D02*
X138404819Y-116307142D01*
X123840476Y-128204819D02*
X123840476Y-128919104D01*
X123840476Y-128919104D02*
X123792857Y-129061961D01*
X123792857Y-129061961D02*
X123697619Y-129157200D01*
X123697619Y-129157200D02*
X123554762Y-129204819D01*
X123554762Y-129204819D02*
X123459524Y-129204819D01*
X124269048Y-128300057D02*
X124316667Y-128252438D01*
X124316667Y-128252438D02*
X124411905Y-128204819D01*
X124411905Y-128204819D02*
X124650000Y-128204819D01*
X124650000Y-128204819D02*
X124745238Y-128252438D01*
X124745238Y-128252438D02*
X124792857Y-128300057D01*
X124792857Y-128300057D02*
X124840476Y-128395295D01*
X124840476Y-128395295D02*
X124840476Y-128490533D01*
X124840476Y-128490533D02*
X124792857Y-128633390D01*
X124792857Y-128633390D02*
X124221429Y-129204819D01*
X124221429Y-129204819D02*
X124840476Y-129204819D01*
X125173810Y-128204819D02*
X125792857Y-128204819D01*
X125792857Y-128204819D02*
X125459524Y-128585771D01*
X125459524Y-128585771D02*
X125602381Y-128585771D01*
X125602381Y-128585771D02*
X125697619Y-128633390D01*
X125697619Y-128633390D02*
X125745238Y-128681009D01*
X125745238Y-128681009D02*
X125792857Y-128776247D01*
X125792857Y-128776247D02*
X125792857Y-129014342D01*
X125792857Y-129014342D02*
X125745238Y-129109580D01*
X125745238Y-129109580D02*
X125697619Y-129157200D01*
X125697619Y-129157200D02*
X125602381Y-129204819D01*
X125602381Y-129204819D02*
X125316667Y-129204819D01*
X125316667Y-129204819D02*
X125221429Y-129157200D01*
X125221429Y-129157200D02*
X125173810Y-129109580D01*
X98259580Y-92266666D02*
X98307200Y-92314285D01*
X98307200Y-92314285D02*
X98354819Y-92457142D01*
X98354819Y-92457142D02*
X98354819Y-92552380D01*
X98354819Y-92552380D02*
X98307200Y-92695237D01*
X98307200Y-92695237D02*
X98211961Y-92790475D01*
X98211961Y-92790475D02*
X98116723Y-92838094D01*
X98116723Y-92838094D02*
X97926247Y-92885713D01*
X97926247Y-92885713D02*
X97783390Y-92885713D01*
X97783390Y-92885713D02*
X97592914Y-92838094D01*
X97592914Y-92838094D02*
X97497676Y-92790475D01*
X97497676Y-92790475D02*
X97402438Y-92695237D01*
X97402438Y-92695237D02*
X97354819Y-92552380D01*
X97354819Y-92552380D02*
X97354819Y-92457142D01*
X97354819Y-92457142D02*
X97402438Y-92314285D01*
X97402438Y-92314285D02*
X97450057Y-92266666D01*
X97354819Y-91933332D02*
X97354819Y-91314285D01*
X97354819Y-91314285D02*
X97735771Y-91647618D01*
X97735771Y-91647618D02*
X97735771Y-91504761D01*
X97735771Y-91504761D02*
X97783390Y-91409523D01*
X97783390Y-91409523D02*
X97831009Y-91361904D01*
X97831009Y-91361904D02*
X97926247Y-91314285D01*
X97926247Y-91314285D02*
X98164342Y-91314285D01*
X98164342Y-91314285D02*
X98259580Y-91361904D01*
X98259580Y-91361904D02*
X98307200Y-91409523D01*
X98307200Y-91409523D02*
X98354819Y-91504761D01*
X98354819Y-91504761D02*
X98354819Y-91790475D01*
X98354819Y-91790475D02*
X98307200Y-91885713D01*
X98307200Y-91885713D02*
X98259580Y-91933332D01*
X157116666Y-130299819D02*
X157116666Y-131014104D01*
X157116666Y-131014104D02*
X157069047Y-131156961D01*
X157069047Y-131156961D02*
X156973809Y-131252200D01*
X156973809Y-131252200D02*
X156830952Y-131299819D01*
X156830952Y-131299819D02*
X156735714Y-131299819D01*
X158069047Y-130299819D02*
X157592857Y-130299819D01*
X157592857Y-130299819D02*
X157545238Y-130776009D01*
X157545238Y-130776009D02*
X157592857Y-130728390D01*
X157592857Y-130728390D02*
X157688095Y-130680771D01*
X157688095Y-130680771D02*
X157926190Y-130680771D01*
X157926190Y-130680771D02*
X158021428Y-130728390D01*
X158021428Y-130728390D02*
X158069047Y-130776009D01*
X158069047Y-130776009D02*
X158116666Y-130871247D01*
X158116666Y-130871247D02*
X158116666Y-131109342D01*
X158116666Y-131109342D02*
X158069047Y-131204580D01*
X158069047Y-131204580D02*
X158021428Y-131252200D01*
X158021428Y-131252200D02*
X157926190Y-131299819D01*
X157926190Y-131299819D02*
X157688095Y-131299819D01*
X157688095Y-131299819D02*
X157592857Y-131252200D01*
X157592857Y-131252200D02*
X157545238Y-131204580D01*
X113168846Y-95029588D02*
X113817390Y-95029588D01*
X113817390Y-95029588D02*
X113893689Y-94991439D01*
X113893689Y-94991439D02*
X113931839Y-94953289D01*
X113931839Y-94953289D02*
X113969988Y-94876990D01*
X113969988Y-94876990D02*
X113969988Y-94724391D01*
X113969988Y-94724391D02*
X113931839Y-94648092D01*
X113931839Y-94648092D02*
X113893689Y-94609943D01*
X113893689Y-94609943D02*
X113817390Y-94571793D01*
X113817390Y-94571793D02*
X113168846Y-94571793D01*
X113168846Y-93808800D02*
X113168846Y-94190296D01*
X113168846Y-94190296D02*
X113550342Y-94228446D01*
X113550342Y-94228446D02*
X113512193Y-94190296D01*
X113512193Y-94190296D02*
X113474043Y-94113997D01*
X113474043Y-94113997D02*
X113474043Y-93923249D01*
X113474043Y-93923249D02*
X113512193Y-93846950D01*
X113512193Y-93846950D02*
X113550342Y-93808800D01*
X113550342Y-93808800D02*
X113626642Y-93770651D01*
X113626642Y-93770651D02*
X113817390Y-93770651D01*
X113817390Y-93770651D02*
X113893689Y-93808800D01*
X113893689Y-93808800D02*
X113931839Y-93846950D01*
X113931839Y-93846950D02*
X113969988Y-93923249D01*
X113969988Y-93923249D02*
X113969988Y-94113997D01*
X113969988Y-94113997D02*
X113931839Y-94190296D01*
X113931839Y-94190296D02*
X113893689Y-94228446D01*
X127190476Y-86264819D02*
X127190476Y-86979104D01*
X127190476Y-86979104D02*
X127142857Y-87121961D01*
X127142857Y-87121961D02*
X127047619Y-87217200D01*
X127047619Y-87217200D02*
X126904762Y-87264819D01*
X126904762Y-87264819D02*
X126809524Y-87264819D01*
X128190476Y-87264819D02*
X127619048Y-87264819D01*
X127904762Y-87264819D02*
X127904762Y-86264819D01*
X127904762Y-86264819D02*
X127809524Y-86407676D01*
X127809524Y-86407676D02*
X127714286Y-86502914D01*
X127714286Y-86502914D02*
X127619048Y-86550533D01*
X128666667Y-87264819D02*
X128857143Y-87264819D01*
X128857143Y-87264819D02*
X128952381Y-87217200D01*
X128952381Y-87217200D02*
X129000000Y-87169580D01*
X129000000Y-87169580D02*
X129095238Y-87026723D01*
X129095238Y-87026723D02*
X129142857Y-86836247D01*
X129142857Y-86836247D02*
X129142857Y-86455295D01*
X129142857Y-86455295D02*
X129095238Y-86360057D01*
X129095238Y-86360057D02*
X129047619Y-86312438D01*
X129047619Y-86312438D02*
X128952381Y-86264819D01*
X128952381Y-86264819D02*
X128761905Y-86264819D01*
X128761905Y-86264819D02*
X128666667Y-86312438D01*
X128666667Y-86312438D02*
X128619048Y-86360057D01*
X128619048Y-86360057D02*
X128571429Y-86455295D01*
X128571429Y-86455295D02*
X128571429Y-86693390D01*
X128571429Y-86693390D02*
X128619048Y-86788628D01*
X128619048Y-86788628D02*
X128666667Y-86836247D01*
X128666667Y-86836247D02*
X128761905Y-86883866D01*
X128761905Y-86883866D02*
X128952381Y-86883866D01*
X128952381Y-86883866D02*
X129047619Y-86836247D01*
X129047619Y-86836247D02*
X129095238Y-86788628D01*
X129095238Y-86788628D02*
X129142857Y-86693390D01*
X150190476Y-87654819D02*
X150190476Y-88369104D01*
X150190476Y-88369104D02*
X150142857Y-88511961D01*
X150142857Y-88511961D02*
X150047619Y-88607200D01*
X150047619Y-88607200D02*
X149904762Y-88654819D01*
X149904762Y-88654819D02*
X149809524Y-88654819D01*
X150571429Y-87654819D02*
X151190476Y-87654819D01*
X151190476Y-87654819D02*
X150857143Y-88035771D01*
X150857143Y-88035771D02*
X151000000Y-88035771D01*
X151000000Y-88035771D02*
X151095238Y-88083390D01*
X151095238Y-88083390D02*
X151142857Y-88131009D01*
X151142857Y-88131009D02*
X151190476Y-88226247D01*
X151190476Y-88226247D02*
X151190476Y-88464342D01*
X151190476Y-88464342D02*
X151142857Y-88559580D01*
X151142857Y-88559580D02*
X151095238Y-88607200D01*
X151095238Y-88607200D02*
X151000000Y-88654819D01*
X151000000Y-88654819D02*
X150714286Y-88654819D01*
X150714286Y-88654819D02*
X150619048Y-88607200D01*
X150619048Y-88607200D02*
X150571429Y-88559580D01*
X152047619Y-87988152D02*
X152047619Y-88654819D01*
X151809524Y-87607200D02*
X151571429Y-88321485D01*
X151571429Y-88321485D02*
X152190476Y-88321485D01*
X156924819Y-114866666D02*
X156448628Y-115199999D01*
X156924819Y-115438094D02*
X155924819Y-115438094D01*
X155924819Y-115438094D02*
X155924819Y-115057142D01*
X155924819Y-115057142D02*
X155972438Y-114961904D01*
X155972438Y-114961904D02*
X156020057Y-114914285D01*
X156020057Y-114914285D02*
X156115295Y-114866666D01*
X156115295Y-114866666D02*
X156258152Y-114866666D01*
X156258152Y-114866666D02*
X156353390Y-114914285D01*
X156353390Y-114914285D02*
X156401009Y-114961904D01*
X156401009Y-114961904D02*
X156448628Y-115057142D01*
X156448628Y-115057142D02*
X156448628Y-115438094D01*
X155924819Y-113961904D02*
X155924819Y-114438094D01*
X155924819Y-114438094D02*
X156401009Y-114485713D01*
X156401009Y-114485713D02*
X156353390Y-114438094D01*
X156353390Y-114438094D02*
X156305771Y-114342856D01*
X156305771Y-114342856D02*
X156305771Y-114104761D01*
X156305771Y-114104761D02*
X156353390Y-114009523D01*
X156353390Y-114009523D02*
X156401009Y-113961904D01*
X156401009Y-113961904D02*
X156496247Y-113914285D01*
X156496247Y-113914285D02*
X156734342Y-113914285D01*
X156734342Y-113914285D02*
X156829580Y-113961904D01*
X156829580Y-113961904D02*
X156877200Y-114009523D01*
X156877200Y-114009523D02*
X156924819Y-114104761D01*
X156924819Y-114104761D02*
X156924819Y-114342856D01*
X156924819Y-114342856D02*
X156877200Y-114438094D01*
X156877200Y-114438094D02*
X156829580Y-114485713D01*
X176788095Y-77454819D02*
X176788095Y-76454819D01*
X176788095Y-76931009D02*
X177359523Y-76931009D01*
X177359523Y-77454819D02*
X177359523Y-76454819D01*
X177788095Y-76550057D02*
X177835714Y-76502438D01*
X177835714Y-76502438D02*
X177930952Y-76454819D01*
X177930952Y-76454819D02*
X178169047Y-76454819D01*
X178169047Y-76454819D02*
X178264285Y-76502438D01*
X178264285Y-76502438D02*
X178311904Y-76550057D01*
X178311904Y-76550057D02*
X178359523Y-76645295D01*
X178359523Y-76645295D02*
X178359523Y-76740533D01*
X178359523Y-76740533D02*
X178311904Y-76883390D01*
X178311904Y-76883390D02*
X177740476Y-77454819D01*
X177740476Y-77454819D02*
X178359523Y-77454819D01*
X88688095Y-77454819D02*
X88688095Y-76454819D01*
X88688095Y-76931009D02*
X89259523Y-76931009D01*
X89259523Y-77454819D02*
X89259523Y-76454819D01*
X90259523Y-77454819D02*
X89688095Y-77454819D01*
X89973809Y-77454819D02*
X89973809Y-76454819D01*
X89973809Y-76454819D02*
X89878571Y-76597676D01*
X89878571Y-76597676D02*
X89783333Y-76692914D01*
X89783333Y-76692914D02*
X89688095Y-76740533D01*
X101229580Y-114029166D02*
X101277200Y-114076785D01*
X101277200Y-114076785D02*
X101324819Y-114219642D01*
X101324819Y-114219642D02*
X101324819Y-114314880D01*
X101324819Y-114314880D02*
X101277200Y-114457737D01*
X101277200Y-114457737D02*
X101181961Y-114552975D01*
X101181961Y-114552975D02*
X101086723Y-114600594D01*
X101086723Y-114600594D02*
X100896247Y-114648213D01*
X100896247Y-114648213D02*
X100753390Y-114648213D01*
X100753390Y-114648213D02*
X100562914Y-114600594D01*
X100562914Y-114600594D02*
X100467676Y-114552975D01*
X100467676Y-114552975D02*
X100372438Y-114457737D01*
X100372438Y-114457737D02*
X100324819Y-114314880D01*
X100324819Y-114314880D02*
X100324819Y-114219642D01*
X100324819Y-114219642D02*
X100372438Y-114076785D01*
X100372438Y-114076785D02*
X100420057Y-114029166D01*
X101324819Y-113076785D02*
X101324819Y-113648213D01*
X101324819Y-113362499D02*
X100324819Y-113362499D01*
X100324819Y-113362499D02*
X100467676Y-113457737D01*
X100467676Y-113457737D02*
X100562914Y-113552975D01*
X100562914Y-113552975D02*
X100610533Y-113648213D01*
X145279819Y-118309523D02*
X145994104Y-118309523D01*
X145994104Y-118309523D02*
X146136961Y-118357142D01*
X146136961Y-118357142D02*
X146232200Y-118452380D01*
X146232200Y-118452380D02*
X146279819Y-118595237D01*
X146279819Y-118595237D02*
X146279819Y-118690475D01*
X145375057Y-117880951D02*
X145327438Y-117833332D01*
X145327438Y-117833332D02*
X145279819Y-117738094D01*
X145279819Y-117738094D02*
X145279819Y-117499999D01*
X145279819Y-117499999D02*
X145327438Y-117404761D01*
X145327438Y-117404761D02*
X145375057Y-117357142D01*
X145375057Y-117357142D02*
X145470295Y-117309523D01*
X145470295Y-117309523D02*
X145565533Y-117309523D01*
X145565533Y-117309523D02*
X145708390Y-117357142D01*
X145708390Y-117357142D02*
X146279819Y-117928570D01*
X146279819Y-117928570D02*
X146279819Y-117309523D01*
X145279819Y-116690475D02*
X145279819Y-116595237D01*
X145279819Y-116595237D02*
X145327438Y-116499999D01*
X145327438Y-116499999D02*
X145375057Y-116452380D01*
X145375057Y-116452380D02*
X145470295Y-116404761D01*
X145470295Y-116404761D02*
X145660771Y-116357142D01*
X145660771Y-116357142D02*
X145898866Y-116357142D01*
X145898866Y-116357142D02*
X146089342Y-116404761D01*
X146089342Y-116404761D02*
X146184580Y-116452380D01*
X146184580Y-116452380D02*
X146232200Y-116499999D01*
X146232200Y-116499999D02*
X146279819Y-116595237D01*
X146279819Y-116595237D02*
X146279819Y-116690475D01*
X146279819Y-116690475D02*
X146232200Y-116785713D01*
X146232200Y-116785713D02*
X146184580Y-116833332D01*
X146184580Y-116833332D02*
X146089342Y-116880951D01*
X146089342Y-116880951D02*
X145898866Y-116928570D01*
X145898866Y-116928570D02*
X145660771Y-116928570D01*
X145660771Y-116928570D02*
X145470295Y-116880951D01*
X145470295Y-116880951D02*
X145375057Y-116833332D01*
X145375057Y-116833332D02*
X145327438Y-116785713D01*
X145327438Y-116785713D02*
X145279819Y-116690475D01*
X137404819Y-106759523D02*
X138119104Y-106759523D01*
X138119104Y-106759523D02*
X138261961Y-106807142D01*
X138261961Y-106807142D02*
X138357200Y-106902380D01*
X138357200Y-106902380D02*
X138404819Y-107045237D01*
X138404819Y-107045237D02*
X138404819Y-107140475D01*
X137404819Y-106378570D02*
X137404819Y-105759523D01*
X137404819Y-105759523D02*
X137785771Y-106092856D01*
X137785771Y-106092856D02*
X137785771Y-105949999D01*
X137785771Y-105949999D02*
X137833390Y-105854761D01*
X137833390Y-105854761D02*
X137881009Y-105807142D01*
X137881009Y-105807142D02*
X137976247Y-105759523D01*
X137976247Y-105759523D02*
X138214342Y-105759523D01*
X138214342Y-105759523D02*
X138309580Y-105807142D01*
X138309580Y-105807142D02*
X138357200Y-105854761D01*
X138357200Y-105854761D02*
X138404819Y-105949999D01*
X138404819Y-105949999D02*
X138404819Y-106235713D01*
X138404819Y-106235713D02*
X138357200Y-106330951D01*
X138357200Y-106330951D02*
X138309580Y-106378570D01*
X137404819Y-105140475D02*
X137404819Y-105045237D01*
X137404819Y-105045237D02*
X137452438Y-104949999D01*
X137452438Y-104949999D02*
X137500057Y-104902380D01*
X137500057Y-104902380D02*
X137595295Y-104854761D01*
X137595295Y-104854761D02*
X137785771Y-104807142D01*
X137785771Y-104807142D02*
X138023866Y-104807142D01*
X138023866Y-104807142D02*
X138214342Y-104854761D01*
X138214342Y-104854761D02*
X138309580Y-104902380D01*
X138309580Y-104902380D02*
X138357200Y-104949999D01*
X138357200Y-104949999D02*
X138404819Y-105045237D01*
X138404819Y-105045237D02*
X138404819Y-105140475D01*
X138404819Y-105140475D02*
X138357200Y-105235713D01*
X138357200Y-105235713D02*
X138309580Y-105283332D01*
X138309580Y-105283332D02*
X138214342Y-105330951D01*
X138214342Y-105330951D02*
X138023866Y-105378570D01*
X138023866Y-105378570D02*
X137785771Y-105378570D01*
X137785771Y-105378570D02*
X137595295Y-105330951D01*
X137595295Y-105330951D02*
X137500057Y-105283332D01*
X137500057Y-105283332D02*
X137452438Y-105235713D01*
X137452438Y-105235713D02*
X137404819Y-105140475D01*
X157784819Y-114879166D02*
X157308628Y-115212499D01*
X157784819Y-115450594D02*
X156784819Y-115450594D01*
X156784819Y-115450594D02*
X156784819Y-115069642D01*
X156784819Y-115069642D02*
X156832438Y-114974404D01*
X156832438Y-114974404D02*
X156880057Y-114926785D01*
X156880057Y-114926785D02*
X156975295Y-114879166D01*
X156975295Y-114879166D02*
X157118152Y-114879166D01*
X157118152Y-114879166D02*
X157213390Y-114926785D01*
X157213390Y-114926785D02*
X157261009Y-114974404D01*
X157261009Y-114974404D02*
X157308628Y-115069642D01*
X157308628Y-115069642D02*
X157308628Y-115450594D01*
X156784819Y-114545832D02*
X156784819Y-113879166D01*
X156784819Y-113879166D02*
X157784819Y-114307737D01*
X108289580Y-102529166D02*
X108337200Y-102576785D01*
X108337200Y-102576785D02*
X108384819Y-102719642D01*
X108384819Y-102719642D02*
X108384819Y-102814880D01*
X108384819Y-102814880D02*
X108337200Y-102957737D01*
X108337200Y-102957737D02*
X108241961Y-103052975D01*
X108241961Y-103052975D02*
X108146723Y-103100594D01*
X108146723Y-103100594D02*
X107956247Y-103148213D01*
X107956247Y-103148213D02*
X107813390Y-103148213D01*
X107813390Y-103148213D02*
X107622914Y-103100594D01*
X107622914Y-103100594D02*
X107527676Y-103052975D01*
X107527676Y-103052975D02*
X107432438Y-102957737D01*
X107432438Y-102957737D02*
X107384819Y-102814880D01*
X107384819Y-102814880D02*
X107384819Y-102719642D01*
X107384819Y-102719642D02*
X107432438Y-102576785D01*
X107432438Y-102576785D02*
X107480057Y-102529166D01*
X107384819Y-101624404D02*
X107384819Y-102100594D01*
X107384819Y-102100594D02*
X107861009Y-102148213D01*
X107861009Y-102148213D02*
X107813390Y-102100594D01*
X107813390Y-102100594D02*
X107765771Y-102005356D01*
X107765771Y-102005356D02*
X107765771Y-101767261D01*
X107765771Y-101767261D02*
X107813390Y-101672023D01*
X107813390Y-101672023D02*
X107861009Y-101624404D01*
X107861009Y-101624404D02*
X107956247Y-101576785D01*
X107956247Y-101576785D02*
X108194342Y-101576785D01*
X108194342Y-101576785D02*
X108289580Y-101624404D01*
X108289580Y-101624404D02*
X108337200Y-101672023D01*
X108337200Y-101672023D02*
X108384819Y-101767261D01*
X108384819Y-101767261D02*
X108384819Y-102005356D01*
X108384819Y-102005356D02*
X108337200Y-102100594D01*
X108337200Y-102100594D02*
X108289580Y-102148213D01*
X147666666Y-130299819D02*
X147666666Y-131014104D01*
X147666666Y-131014104D02*
X147619047Y-131156961D01*
X147619047Y-131156961D02*
X147523809Y-131252200D01*
X147523809Y-131252200D02*
X147380952Y-131299819D01*
X147380952Y-131299819D02*
X147285714Y-131299819D01*
X148571428Y-130633152D02*
X148571428Y-131299819D01*
X148333333Y-130252200D02*
X148095238Y-130966485D01*
X148095238Y-130966485D02*
X148714285Y-130966485D01*
X163738095Y-91954819D02*
X163738095Y-92764342D01*
X163738095Y-92764342D02*
X163785714Y-92859580D01*
X163785714Y-92859580D02*
X163833333Y-92907200D01*
X163833333Y-92907200D02*
X163928571Y-92954819D01*
X163928571Y-92954819D02*
X164119047Y-92954819D01*
X164119047Y-92954819D02*
X164214285Y-92907200D01*
X164214285Y-92907200D02*
X164261904Y-92859580D01*
X164261904Y-92859580D02*
X164309523Y-92764342D01*
X164309523Y-92764342D02*
X164309523Y-91954819D01*
X164690476Y-91954819D02*
X165309523Y-91954819D01*
X165309523Y-91954819D02*
X164976190Y-92335771D01*
X164976190Y-92335771D02*
X165119047Y-92335771D01*
X165119047Y-92335771D02*
X165214285Y-92383390D01*
X165214285Y-92383390D02*
X165261904Y-92431009D01*
X165261904Y-92431009D02*
X165309523Y-92526247D01*
X165309523Y-92526247D02*
X165309523Y-92764342D01*
X165309523Y-92764342D02*
X165261904Y-92859580D01*
X165261904Y-92859580D02*
X165214285Y-92907200D01*
X165214285Y-92907200D02*
X165119047Y-92954819D01*
X165119047Y-92954819D02*
X164833333Y-92954819D01*
X164833333Y-92954819D02*
X164738095Y-92907200D01*
X164738095Y-92907200D02*
X164690476Y-92859580D01*
X89469642Y-118124819D02*
X89136309Y-117648628D01*
X88898214Y-118124819D02*
X88898214Y-117124819D01*
X88898214Y-117124819D02*
X89279166Y-117124819D01*
X89279166Y-117124819D02*
X89374404Y-117172438D01*
X89374404Y-117172438D02*
X89422023Y-117220057D01*
X89422023Y-117220057D02*
X89469642Y-117315295D01*
X89469642Y-117315295D02*
X89469642Y-117458152D01*
X89469642Y-117458152D02*
X89422023Y-117553390D01*
X89422023Y-117553390D02*
X89374404Y-117601009D01*
X89374404Y-117601009D02*
X89279166Y-117648628D01*
X89279166Y-117648628D02*
X88898214Y-117648628D01*
X90422023Y-118124819D02*
X89850595Y-118124819D01*
X90136309Y-118124819D02*
X90136309Y-117124819D01*
X90136309Y-117124819D02*
X90041071Y-117267676D01*
X90041071Y-117267676D02*
X89945833Y-117362914D01*
X89945833Y-117362914D02*
X89850595Y-117410533D01*
X91279166Y-117458152D02*
X91279166Y-118124819D01*
X91041071Y-117077200D02*
X90802976Y-117791485D01*
X90802976Y-117791485D02*
X91422023Y-117791485D01*
X163663095Y-103989819D02*
X163663095Y-104799342D01*
X163663095Y-104799342D02*
X163710714Y-104894580D01*
X163710714Y-104894580D02*
X163758333Y-104942200D01*
X163758333Y-104942200D02*
X163853571Y-104989819D01*
X163853571Y-104989819D02*
X164044047Y-104989819D01*
X164044047Y-104989819D02*
X164139285Y-104942200D01*
X164139285Y-104942200D02*
X164186904Y-104894580D01*
X164186904Y-104894580D02*
X164234523Y-104799342D01*
X164234523Y-104799342D02*
X164234523Y-103989819D01*
X165139285Y-104323152D02*
X165139285Y-104989819D01*
X164901190Y-103942200D02*
X164663095Y-104656485D01*
X164663095Y-104656485D02*
X165282142Y-104656485D01*
X98924819Y-94954166D02*
X98448628Y-95287499D01*
X98924819Y-95525594D02*
X97924819Y-95525594D01*
X97924819Y-95525594D02*
X97924819Y-95144642D01*
X97924819Y-95144642D02*
X97972438Y-95049404D01*
X97972438Y-95049404D02*
X98020057Y-95001785D01*
X98020057Y-95001785D02*
X98115295Y-94954166D01*
X98115295Y-94954166D02*
X98258152Y-94954166D01*
X98258152Y-94954166D02*
X98353390Y-95001785D01*
X98353390Y-95001785D02*
X98401009Y-95049404D01*
X98401009Y-95049404D02*
X98448628Y-95144642D01*
X98448628Y-95144642D02*
X98448628Y-95525594D01*
X98924819Y-94001785D02*
X98924819Y-94573213D01*
X98924819Y-94287499D02*
X97924819Y-94287499D01*
X97924819Y-94287499D02*
X98067676Y-94382737D01*
X98067676Y-94382737D02*
X98162914Y-94477975D01*
X98162914Y-94477975D02*
X98210533Y-94573213D01*
X104373809Y-99693628D02*
X104373809Y-100169819D01*
X104040476Y-99169819D02*
X104373809Y-99693628D01*
X104373809Y-99693628D02*
X104707142Y-99169819D01*
X105564285Y-100169819D02*
X104992857Y-100169819D01*
X105278571Y-100169819D02*
X105278571Y-99169819D01*
X105278571Y-99169819D02*
X105183333Y-99312676D01*
X105183333Y-99312676D02*
X105088095Y-99407914D01*
X105088095Y-99407914D02*
X104992857Y-99455533D01*
X112040476Y-128204819D02*
X112040476Y-128919104D01*
X112040476Y-128919104D02*
X111992857Y-129061961D01*
X111992857Y-129061961D02*
X111897619Y-129157200D01*
X111897619Y-129157200D02*
X111754762Y-129204819D01*
X111754762Y-129204819D02*
X111659524Y-129204819D01*
X112421429Y-128204819D02*
X113040476Y-128204819D01*
X113040476Y-128204819D02*
X112707143Y-128585771D01*
X112707143Y-128585771D02*
X112850000Y-128585771D01*
X112850000Y-128585771D02*
X112945238Y-128633390D01*
X112945238Y-128633390D02*
X112992857Y-128681009D01*
X112992857Y-128681009D02*
X113040476Y-128776247D01*
X113040476Y-128776247D02*
X113040476Y-129014342D01*
X113040476Y-129014342D02*
X112992857Y-129109580D01*
X112992857Y-129109580D02*
X112945238Y-129157200D01*
X112945238Y-129157200D02*
X112850000Y-129204819D01*
X112850000Y-129204819D02*
X112564286Y-129204819D01*
X112564286Y-129204819D02*
X112469048Y-129157200D01*
X112469048Y-129157200D02*
X112421429Y-129109580D01*
X113992857Y-129204819D02*
X113421429Y-129204819D01*
X113707143Y-129204819D02*
X113707143Y-128204819D01*
X113707143Y-128204819D02*
X113611905Y-128347676D01*
X113611905Y-128347676D02*
X113516667Y-128442914D01*
X113516667Y-128442914D02*
X113421429Y-128490533D01*
X145379819Y-106809523D02*
X146094104Y-106809523D01*
X146094104Y-106809523D02*
X146236961Y-106857142D01*
X146236961Y-106857142D02*
X146332200Y-106952380D01*
X146332200Y-106952380D02*
X146379819Y-107095237D01*
X146379819Y-107095237D02*
X146379819Y-107190475D01*
X145475057Y-106380951D02*
X145427438Y-106333332D01*
X145427438Y-106333332D02*
X145379819Y-106238094D01*
X145379819Y-106238094D02*
X145379819Y-105999999D01*
X145379819Y-105999999D02*
X145427438Y-105904761D01*
X145427438Y-105904761D02*
X145475057Y-105857142D01*
X145475057Y-105857142D02*
X145570295Y-105809523D01*
X145570295Y-105809523D02*
X145665533Y-105809523D01*
X145665533Y-105809523D02*
X145808390Y-105857142D01*
X145808390Y-105857142D02*
X146379819Y-106428570D01*
X146379819Y-106428570D02*
X146379819Y-105809523D01*
X145808390Y-105238094D02*
X145760771Y-105333332D01*
X145760771Y-105333332D02*
X145713152Y-105380951D01*
X145713152Y-105380951D02*
X145617914Y-105428570D01*
X145617914Y-105428570D02*
X145570295Y-105428570D01*
X145570295Y-105428570D02*
X145475057Y-105380951D01*
X145475057Y-105380951D02*
X145427438Y-105333332D01*
X145427438Y-105333332D02*
X145379819Y-105238094D01*
X145379819Y-105238094D02*
X145379819Y-105047618D01*
X145379819Y-105047618D02*
X145427438Y-104952380D01*
X145427438Y-104952380D02*
X145475057Y-104904761D01*
X145475057Y-104904761D02*
X145570295Y-104857142D01*
X145570295Y-104857142D02*
X145617914Y-104857142D01*
X145617914Y-104857142D02*
X145713152Y-104904761D01*
X145713152Y-104904761D02*
X145760771Y-104952380D01*
X145760771Y-104952380D02*
X145808390Y-105047618D01*
X145808390Y-105047618D02*
X145808390Y-105238094D01*
X145808390Y-105238094D02*
X145856009Y-105333332D01*
X145856009Y-105333332D02*
X145903628Y-105380951D01*
X145903628Y-105380951D02*
X145998866Y-105428570D01*
X145998866Y-105428570D02*
X146189342Y-105428570D01*
X146189342Y-105428570D02*
X146284580Y-105380951D01*
X146284580Y-105380951D02*
X146332200Y-105333332D01*
X146332200Y-105333332D02*
X146379819Y-105238094D01*
X146379819Y-105238094D02*
X146379819Y-105047618D01*
X146379819Y-105047618D02*
X146332200Y-104952380D01*
X146332200Y-104952380D02*
X146284580Y-104904761D01*
X146284580Y-104904761D02*
X146189342Y-104857142D01*
X146189342Y-104857142D02*
X145998866Y-104857142D01*
X145998866Y-104857142D02*
X145903628Y-104904761D01*
X145903628Y-104904761D02*
X145856009Y-104952380D01*
X145856009Y-104952380D02*
X145808390Y-105047618D01*
X172099819Y-106569523D02*
X172814104Y-106569523D01*
X172814104Y-106569523D02*
X172956961Y-106617142D01*
X172956961Y-106617142D02*
X173052200Y-106712380D01*
X173052200Y-106712380D02*
X173099819Y-106855237D01*
X173099819Y-106855237D02*
X173099819Y-106950475D01*
X173099819Y-105569523D02*
X173099819Y-106140951D01*
X173099819Y-105855237D02*
X172099819Y-105855237D01*
X172099819Y-105855237D02*
X172242676Y-105950475D01*
X172242676Y-105950475D02*
X172337914Y-106045713D01*
X172337914Y-106045713D02*
X172385533Y-106140951D01*
X172099819Y-104712380D02*
X172099819Y-104902856D01*
X172099819Y-104902856D02*
X172147438Y-104998094D01*
X172147438Y-104998094D02*
X172195057Y-105045713D01*
X172195057Y-105045713D02*
X172337914Y-105140951D01*
X172337914Y-105140951D02*
X172528390Y-105188570D01*
X172528390Y-105188570D02*
X172909342Y-105188570D01*
X172909342Y-105188570D02*
X173004580Y-105140951D01*
X173004580Y-105140951D02*
X173052200Y-105093332D01*
X173052200Y-105093332D02*
X173099819Y-104998094D01*
X173099819Y-104998094D02*
X173099819Y-104807618D01*
X173099819Y-104807618D02*
X173052200Y-104712380D01*
X173052200Y-104712380D02*
X173004580Y-104664761D01*
X173004580Y-104664761D02*
X172909342Y-104617142D01*
X172909342Y-104617142D02*
X172671247Y-104617142D01*
X172671247Y-104617142D02*
X172576009Y-104664761D01*
X172576009Y-104664761D02*
X172528390Y-104712380D01*
X172528390Y-104712380D02*
X172480771Y-104807618D01*
X172480771Y-104807618D02*
X172480771Y-104998094D01*
X172480771Y-104998094D02*
X172528390Y-105093332D01*
X172528390Y-105093332D02*
X172576009Y-105140951D01*
X172576009Y-105140951D02*
X172671247Y-105188570D01*
X89444642Y-115724819D02*
X89111309Y-115248628D01*
X88873214Y-115724819D02*
X88873214Y-114724819D01*
X88873214Y-114724819D02*
X89254166Y-114724819D01*
X89254166Y-114724819D02*
X89349404Y-114772438D01*
X89349404Y-114772438D02*
X89397023Y-114820057D01*
X89397023Y-114820057D02*
X89444642Y-114915295D01*
X89444642Y-114915295D02*
X89444642Y-115058152D01*
X89444642Y-115058152D02*
X89397023Y-115153390D01*
X89397023Y-115153390D02*
X89349404Y-115201009D01*
X89349404Y-115201009D02*
X89254166Y-115248628D01*
X89254166Y-115248628D02*
X88873214Y-115248628D01*
X90397023Y-115724819D02*
X89825595Y-115724819D01*
X90111309Y-115724819D02*
X90111309Y-114724819D01*
X90111309Y-114724819D02*
X90016071Y-114867676D01*
X90016071Y-114867676D02*
X89920833Y-114962914D01*
X89920833Y-114962914D02*
X89825595Y-115010533D01*
X90730357Y-114724819D02*
X91349404Y-114724819D01*
X91349404Y-114724819D02*
X91016071Y-115105771D01*
X91016071Y-115105771D02*
X91158928Y-115105771D01*
X91158928Y-115105771D02*
X91254166Y-115153390D01*
X91254166Y-115153390D02*
X91301785Y-115201009D01*
X91301785Y-115201009D02*
X91349404Y-115296247D01*
X91349404Y-115296247D02*
X91349404Y-115534342D01*
X91349404Y-115534342D02*
X91301785Y-115629580D01*
X91301785Y-115629580D02*
X91254166Y-115677200D01*
X91254166Y-115677200D02*
X91158928Y-115724819D01*
X91158928Y-115724819D02*
X90873214Y-115724819D01*
X90873214Y-115724819D02*
X90777976Y-115677200D01*
X90777976Y-115677200D02*
X90730357Y-115629580D01*
X124040476Y-118904819D02*
X124040476Y-119619104D01*
X124040476Y-119619104D02*
X123992857Y-119761961D01*
X123992857Y-119761961D02*
X123897619Y-119857200D01*
X123897619Y-119857200D02*
X123754762Y-119904819D01*
X123754762Y-119904819D02*
X123659524Y-119904819D01*
X124469048Y-119000057D02*
X124516667Y-118952438D01*
X124516667Y-118952438D02*
X124611905Y-118904819D01*
X124611905Y-118904819D02*
X124850000Y-118904819D01*
X124850000Y-118904819D02*
X124945238Y-118952438D01*
X124945238Y-118952438D02*
X124992857Y-119000057D01*
X124992857Y-119000057D02*
X125040476Y-119095295D01*
X125040476Y-119095295D02*
X125040476Y-119190533D01*
X125040476Y-119190533D02*
X124992857Y-119333390D01*
X124992857Y-119333390D02*
X124421429Y-119904819D01*
X124421429Y-119904819D02*
X125040476Y-119904819D01*
X125992857Y-119904819D02*
X125421429Y-119904819D01*
X125707143Y-119904819D02*
X125707143Y-118904819D01*
X125707143Y-118904819D02*
X125611905Y-119047676D01*
X125611905Y-119047676D02*
X125516667Y-119142914D01*
X125516667Y-119142914D02*
X125421429Y-119190533D01*
X172099819Y-93009523D02*
X172814104Y-93009523D01*
X172814104Y-93009523D02*
X172956961Y-93057142D01*
X172956961Y-93057142D02*
X173052200Y-93152380D01*
X173052200Y-93152380D02*
X173099819Y-93295237D01*
X173099819Y-93295237D02*
X173099819Y-93390475D01*
X173099819Y-92009523D02*
X173099819Y-92580951D01*
X173099819Y-92295237D02*
X172099819Y-92295237D01*
X172099819Y-92295237D02*
X172242676Y-92390475D01*
X172242676Y-92390475D02*
X172337914Y-92485713D01*
X172337914Y-92485713D02*
X172385533Y-92580951D01*
X172099819Y-91104761D02*
X172099819Y-91580951D01*
X172099819Y-91580951D02*
X172576009Y-91628570D01*
X172576009Y-91628570D02*
X172528390Y-91580951D01*
X172528390Y-91580951D02*
X172480771Y-91485713D01*
X172480771Y-91485713D02*
X172480771Y-91247618D01*
X172480771Y-91247618D02*
X172528390Y-91152380D01*
X172528390Y-91152380D02*
X172576009Y-91104761D01*
X172576009Y-91104761D02*
X172671247Y-91057142D01*
X172671247Y-91057142D02*
X172909342Y-91057142D01*
X172909342Y-91057142D02*
X173004580Y-91104761D01*
X173004580Y-91104761D02*
X173052200Y-91152380D01*
X173052200Y-91152380D02*
X173099819Y-91247618D01*
X173099819Y-91247618D02*
X173099819Y-91485713D01*
X173099819Y-91485713D02*
X173052200Y-91580951D01*
X173052200Y-91580951D02*
X173004580Y-91628570D01*
X119438095Y-95354819D02*
X119438095Y-96164342D01*
X119438095Y-96164342D02*
X119485714Y-96259580D01*
X119485714Y-96259580D02*
X119533333Y-96307200D01*
X119533333Y-96307200D02*
X119628571Y-96354819D01*
X119628571Y-96354819D02*
X119819047Y-96354819D01*
X119819047Y-96354819D02*
X119914285Y-96307200D01*
X119914285Y-96307200D02*
X119961904Y-96259580D01*
X119961904Y-96259580D02*
X120009523Y-96164342D01*
X120009523Y-96164342D02*
X120009523Y-95354819D01*
X121009523Y-96354819D02*
X120438095Y-96354819D01*
X120723809Y-96354819D02*
X120723809Y-95354819D01*
X120723809Y-95354819D02*
X120628571Y-95497676D01*
X120628571Y-95497676D02*
X120533333Y-95592914D01*
X120533333Y-95592914D02*
X120438095Y-95640533D01*
X106984819Y-113954166D02*
X106508628Y-114287499D01*
X106984819Y-114525594D02*
X105984819Y-114525594D01*
X105984819Y-114525594D02*
X105984819Y-114144642D01*
X105984819Y-114144642D02*
X106032438Y-114049404D01*
X106032438Y-114049404D02*
X106080057Y-114001785D01*
X106080057Y-114001785D02*
X106175295Y-113954166D01*
X106175295Y-113954166D02*
X106318152Y-113954166D01*
X106318152Y-113954166D02*
X106413390Y-114001785D01*
X106413390Y-114001785D02*
X106461009Y-114049404D01*
X106461009Y-114049404D02*
X106508628Y-114144642D01*
X106508628Y-114144642D02*
X106508628Y-114525594D01*
X106080057Y-113573213D02*
X106032438Y-113525594D01*
X106032438Y-113525594D02*
X105984819Y-113430356D01*
X105984819Y-113430356D02*
X105984819Y-113192261D01*
X105984819Y-113192261D02*
X106032438Y-113097023D01*
X106032438Y-113097023D02*
X106080057Y-113049404D01*
X106080057Y-113049404D02*
X106175295Y-113001785D01*
X106175295Y-113001785D02*
X106270533Y-113001785D01*
X106270533Y-113001785D02*
X106413390Y-113049404D01*
X106413390Y-113049404D02*
X106984819Y-113620832D01*
X106984819Y-113620832D02*
X106984819Y-113001785D01*
X150190476Y-97504819D02*
X150190476Y-98219104D01*
X150190476Y-98219104D02*
X150142857Y-98361961D01*
X150142857Y-98361961D02*
X150047619Y-98457200D01*
X150047619Y-98457200D02*
X149904762Y-98504819D01*
X149904762Y-98504819D02*
X149809524Y-98504819D01*
X150571429Y-97504819D02*
X151190476Y-97504819D01*
X151190476Y-97504819D02*
X150857143Y-97885771D01*
X150857143Y-97885771D02*
X151000000Y-97885771D01*
X151000000Y-97885771D02*
X151095238Y-97933390D01*
X151095238Y-97933390D02*
X151142857Y-97981009D01*
X151142857Y-97981009D02*
X151190476Y-98076247D01*
X151190476Y-98076247D02*
X151190476Y-98314342D01*
X151190476Y-98314342D02*
X151142857Y-98409580D01*
X151142857Y-98409580D02*
X151095238Y-98457200D01*
X151095238Y-98457200D02*
X151000000Y-98504819D01*
X151000000Y-98504819D02*
X150714286Y-98504819D01*
X150714286Y-98504819D02*
X150619048Y-98457200D01*
X150619048Y-98457200D02*
X150571429Y-98409580D01*
X151571429Y-97600057D02*
X151619048Y-97552438D01*
X151619048Y-97552438D02*
X151714286Y-97504819D01*
X151714286Y-97504819D02*
X151952381Y-97504819D01*
X151952381Y-97504819D02*
X152047619Y-97552438D01*
X152047619Y-97552438D02*
X152095238Y-97600057D01*
X152095238Y-97600057D02*
X152142857Y-97695295D01*
X152142857Y-97695295D02*
X152142857Y-97790533D01*
X152142857Y-97790533D02*
X152095238Y-97933390D01*
X152095238Y-97933390D02*
X151523810Y-98504819D01*
X151523810Y-98504819D02*
X152142857Y-98504819D01*
X89286905Y-111784819D02*
X89286905Y-110784819D01*
X89286905Y-110784819D02*
X89525000Y-110784819D01*
X89525000Y-110784819D02*
X89667857Y-110832438D01*
X89667857Y-110832438D02*
X89763095Y-110927676D01*
X89763095Y-110927676D02*
X89810714Y-111022914D01*
X89810714Y-111022914D02*
X89858333Y-111213390D01*
X89858333Y-111213390D02*
X89858333Y-111356247D01*
X89858333Y-111356247D02*
X89810714Y-111546723D01*
X89810714Y-111546723D02*
X89763095Y-111641961D01*
X89763095Y-111641961D02*
X89667857Y-111737200D01*
X89667857Y-111737200D02*
X89525000Y-111784819D01*
X89525000Y-111784819D02*
X89286905Y-111784819D01*
X90810714Y-111784819D02*
X90239286Y-111784819D01*
X90525000Y-111784819D02*
X90525000Y-110784819D01*
X90525000Y-110784819D02*
X90429762Y-110927676D01*
X90429762Y-110927676D02*
X90334524Y-111022914D01*
X90334524Y-111022914D02*
X90239286Y-111070533D01*
X172099819Y-133689523D02*
X172814104Y-133689523D01*
X172814104Y-133689523D02*
X172956961Y-133737142D01*
X172956961Y-133737142D02*
X173052200Y-133832380D01*
X173052200Y-133832380D02*
X173099819Y-133975237D01*
X173099819Y-133975237D02*
X173099819Y-134070475D01*
X173099819Y-132689523D02*
X173099819Y-133260951D01*
X173099819Y-132975237D02*
X172099819Y-132975237D01*
X172099819Y-132975237D02*
X172242676Y-133070475D01*
X172242676Y-133070475D02*
X172337914Y-133165713D01*
X172337914Y-133165713D02*
X172385533Y-133260951D01*
X172528390Y-132118094D02*
X172480771Y-132213332D01*
X172480771Y-132213332D02*
X172433152Y-132260951D01*
X172433152Y-132260951D02*
X172337914Y-132308570D01*
X172337914Y-132308570D02*
X172290295Y-132308570D01*
X172290295Y-132308570D02*
X172195057Y-132260951D01*
X172195057Y-132260951D02*
X172147438Y-132213332D01*
X172147438Y-132213332D02*
X172099819Y-132118094D01*
X172099819Y-132118094D02*
X172099819Y-131927618D01*
X172099819Y-131927618D02*
X172147438Y-131832380D01*
X172147438Y-131832380D02*
X172195057Y-131784761D01*
X172195057Y-131784761D02*
X172290295Y-131737142D01*
X172290295Y-131737142D02*
X172337914Y-131737142D01*
X172337914Y-131737142D02*
X172433152Y-131784761D01*
X172433152Y-131784761D02*
X172480771Y-131832380D01*
X172480771Y-131832380D02*
X172528390Y-131927618D01*
X172528390Y-131927618D02*
X172528390Y-132118094D01*
X172528390Y-132118094D02*
X172576009Y-132213332D01*
X172576009Y-132213332D02*
X172623628Y-132260951D01*
X172623628Y-132260951D02*
X172718866Y-132308570D01*
X172718866Y-132308570D02*
X172909342Y-132308570D01*
X172909342Y-132308570D02*
X173004580Y-132260951D01*
X173004580Y-132260951D02*
X173052200Y-132213332D01*
X173052200Y-132213332D02*
X173099819Y-132118094D01*
X173099819Y-132118094D02*
X173099819Y-131927618D01*
X173099819Y-131927618D02*
X173052200Y-131832380D01*
X173052200Y-131832380D02*
X173004580Y-131784761D01*
X173004580Y-131784761D02*
X172909342Y-131737142D01*
X172909342Y-131737142D02*
X172718866Y-131737142D01*
X172718866Y-131737142D02*
X172623628Y-131784761D01*
X172623628Y-131784761D02*
X172576009Y-131832380D01*
X172576009Y-131832380D02*
X172528390Y-131927618D01*
X131020833Y-125224819D02*
X130687500Y-124748628D01*
X130449405Y-125224819D02*
X130449405Y-124224819D01*
X130449405Y-124224819D02*
X130830357Y-124224819D01*
X130830357Y-124224819D02*
X130925595Y-124272438D01*
X130925595Y-124272438D02*
X130973214Y-124320057D01*
X130973214Y-124320057D02*
X131020833Y-124415295D01*
X131020833Y-124415295D02*
X131020833Y-124558152D01*
X131020833Y-124558152D02*
X130973214Y-124653390D01*
X130973214Y-124653390D02*
X130925595Y-124701009D01*
X130925595Y-124701009D02*
X130830357Y-124748628D01*
X130830357Y-124748628D02*
X130449405Y-124748628D01*
X131877976Y-124224819D02*
X131687500Y-124224819D01*
X131687500Y-124224819D02*
X131592262Y-124272438D01*
X131592262Y-124272438D02*
X131544643Y-124320057D01*
X131544643Y-124320057D02*
X131449405Y-124462914D01*
X131449405Y-124462914D02*
X131401786Y-124653390D01*
X131401786Y-124653390D02*
X131401786Y-125034342D01*
X131401786Y-125034342D02*
X131449405Y-125129580D01*
X131449405Y-125129580D02*
X131497024Y-125177200D01*
X131497024Y-125177200D02*
X131592262Y-125224819D01*
X131592262Y-125224819D02*
X131782738Y-125224819D01*
X131782738Y-125224819D02*
X131877976Y-125177200D01*
X131877976Y-125177200D02*
X131925595Y-125129580D01*
X131925595Y-125129580D02*
X131973214Y-125034342D01*
X131973214Y-125034342D02*
X131973214Y-124796247D01*
X131973214Y-124796247D02*
X131925595Y-124701009D01*
X131925595Y-124701009D02*
X131877976Y-124653390D01*
X131877976Y-124653390D02*
X131782738Y-124605771D01*
X131782738Y-124605771D02*
X131592262Y-124605771D01*
X131592262Y-124605771D02*
X131497024Y-124653390D01*
X131497024Y-124653390D02*
X131449405Y-124701009D01*
X131449405Y-124701009D02*
X131401786Y-124796247D01*
X138390476Y-87629819D02*
X138390476Y-88344104D01*
X138390476Y-88344104D02*
X138342857Y-88486961D01*
X138342857Y-88486961D02*
X138247619Y-88582200D01*
X138247619Y-88582200D02*
X138104762Y-88629819D01*
X138104762Y-88629819D02*
X138009524Y-88629819D01*
X138771429Y-87629819D02*
X139390476Y-87629819D01*
X139390476Y-87629819D02*
X139057143Y-88010771D01*
X139057143Y-88010771D02*
X139200000Y-88010771D01*
X139200000Y-88010771D02*
X139295238Y-88058390D01*
X139295238Y-88058390D02*
X139342857Y-88106009D01*
X139342857Y-88106009D02*
X139390476Y-88201247D01*
X139390476Y-88201247D02*
X139390476Y-88439342D01*
X139390476Y-88439342D02*
X139342857Y-88534580D01*
X139342857Y-88534580D02*
X139295238Y-88582200D01*
X139295238Y-88582200D02*
X139200000Y-88629819D01*
X139200000Y-88629819D02*
X138914286Y-88629819D01*
X138914286Y-88629819D02*
X138819048Y-88582200D01*
X138819048Y-88582200D02*
X138771429Y-88534580D01*
X140295238Y-87629819D02*
X139819048Y-87629819D01*
X139819048Y-87629819D02*
X139771429Y-88106009D01*
X139771429Y-88106009D02*
X139819048Y-88058390D01*
X139819048Y-88058390D02*
X139914286Y-88010771D01*
X139914286Y-88010771D02*
X140152381Y-88010771D01*
X140152381Y-88010771D02*
X140247619Y-88058390D01*
X140247619Y-88058390D02*
X140295238Y-88106009D01*
X140295238Y-88106009D02*
X140342857Y-88201247D01*
X140342857Y-88201247D02*
X140342857Y-88439342D01*
X140342857Y-88439342D02*
X140295238Y-88534580D01*
X140295238Y-88534580D02*
X140247619Y-88582200D01*
X140247619Y-88582200D02*
X140152381Y-88629819D01*
X140152381Y-88629819D02*
X139914286Y-88629819D01*
X139914286Y-88629819D02*
X139819048Y-88582200D01*
X139819048Y-88582200D02*
X139771429Y-88534580D01*
X166224819Y-90166666D02*
X165748628Y-90499999D01*
X166224819Y-90738094D02*
X165224819Y-90738094D01*
X165224819Y-90738094D02*
X165224819Y-90357142D01*
X165224819Y-90357142D02*
X165272438Y-90261904D01*
X165272438Y-90261904D02*
X165320057Y-90214285D01*
X165320057Y-90214285D02*
X165415295Y-90166666D01*
X165415295Y-90166666D02*
X165558152Y-90166666D01*
X165558152Y-90166666D02*
X165653390Y-90214285D01*
X165653390Y-90214285D02*
X165701009Y-90261904D01*
X165701009Y-90261904D02*
X165748628Y-90357142D01*
X165748628Y-90357142D02*
X165748628Y-90738094D01*
X165224819Y-89833332D02*
X165224819Y-89214285D01*
X165224819Y-89214285D02*
X165605771Y-89547618D01*
X165605771Y-89547618D02*
X165605771Y-89404761D01*
X165605771Y-89404761D02*
X165653390Y-89309523D01*
X165653390Y-89309523D02*
X165701009Y-89261904D01*
X165701009Y-89261904D02*
X165796247Y-89214285D01*
X165796247Y-89214285D02*
X166034342Y-89214285D01*
X166034342Y-89214285D02*
X166129580Y-89261904D01*
X166129580Y-89261904D02*
X166177200Y-89309523D01*
X166177200Y-89309523D02*
X166224819Y-89404761D01*
X166224819Y-89404761D02*
X166224819Y-89690475D01*
X166224819Y-89690475D02*
X166177200Y-89785713D01*
X166177200Y-89785713D02*
X166129580Y-89833332D01*
X131120833Y-127024819D02*
X130787500Y-126548628D01*
X130549405Y-127024819D02*
X130549405Y-126024819D01*
X130549405Y-126024819D02*
X130930357Y-126024819D01*
X130930357Y-126024819D02*
X131025595Y-126072438D01*
X131025595Y-126072438D02*
X131073214Y-126120057D01*
X131073214Y-126120057D02*
X131120833Y-126215295D01*
X131120833Y-126215295D02*
X131120833Y-126358152D01*
X131120833Y-126358152D02*
X131073214Y-126453390D01*
X131073214Y-126453390D02*
X131025595Y-126501009D01*
X131025595Y-126501009D02*
X130930357Y-126548628D01*
X130930357Y-126548628D02*
X130549405Y-126548628D01*
X131692262Y-126453390D02*
X131597024Y-126405771D01*
X131597024Y-126405771D02*
X131549405Y-126358152D01*
X131549405Y-126358152D02*
X131501786Y-126262914D01*
X131501786Y-126262914D02*
X131501786Y-126215295D01*
X131501786Y-126215295D02*
X131549405Y-126120057D01*
X131549405Y-126120057D02*
X131597024Y-126072438D01*
X131597024Y-126072438D02*
X131692262Y-126024819D01*
X131692262Y-126024819D02*
X131882738Y-126024819D01*
X131882738Y-126024819D02*
X131977976Y-126072438D01*
X131977976Y-126072438D02*
X132025595Y-126120057D01*
X132025595Y-126120057D02*
X132073214Y-126215295D01*
X132073214Y-126215295D02*
X132073214Y-126262914D01*
X132073214Y-126262914D02*
X132025595Y-126358152D01*
X132025595Y-126358152D02*
X131977976Y-126405771D01*
X131977976Y-126405771D02*
X131882738Y-126453390D01*
X131882738Y-126453390D02*
X131692262Y-126453390D01*
X131692262Y-126453390D02*
X131597024Y-126501009D01*
X131597024Y-126501009D02*
X131549405Y-126548628D01*
X131549405Y-126548628D02*
X131501786Y-126643866D01*
X131501786Y-126643866D02*
X131501786Y-126834342D01*
X131501786Y-126834342D02*
X131549405Y-126929580D01*
X131549405Y-126929580D02*
X131597024Y-126977200D01*
X131597024Y-126977200D02*
X131692262Y-127024819D01*
X131692262Y-127024819D02*
X131882738Y-127024819D01*
X131882738Y-127024819D02*
X131977976Y-126977200D01*
X131977976Y-126977200D02*
X132025595Y-126929580D01*
X132025595Y-126929580D02*
X132073214Y-126834342D01*
X132073214Y-126834342D02*
X132073214Y-126643866D01*
X132073214Y-126643866D02*
X132025595Y-126548628D01*
X132025595Y-126548628D02*
X131977976Y-126501009D01*
X131977976Y-126501009D02*
X131882738Y-126453390D01*
X166124819Y-103166666D02*
X165648628Y-103499999D01*
X166124819Y-103738094D02*
X165124819Y-103738094D01*
X165124819Y-103738094D02*
X165124819Y-103357142D01*
X165124819Y-103357142D02*
X165172438Y-103261904D01*
X165172438Y-103261904D02*
X165220057Y-103214285D01*
X165220057Y-103214285D02*
X165315295Y-103166666D01*
X165315295Y-103166666D02*
X165458152Y-103166666D01*
X165458152Y-103166666D02*
X165553390Y-103214285D01*
X165553390Y-103214285D02*
X165601009Y-103261904D01*
X165601009Y-103261904D02*
X165648628Y-103357142D01*
X165648628Y-103357142D02*
X165648628Y-103738094D01*
X165458152Y-102309523D02*
X166124819Y-102309523D01*
X165077200Y-102547618D02*
X165791485Y-102785713D01*
X165791485Y-102785713D02*
X165791485Y-102166666D01*
X172099819Y-120129523D02*
X172814104Y-120129523D01*
X172814104Y-120129523D02*
X172956961Y-120177142D01*
X172956961Y-120177142D02*
X173052200Y-120272380D01*
X173052200Y-120272380D02*
X173099819Y-120415237D01*
X173099819Y-120415237D02*
X173099819Y-120510475D01*
X173099819Y-119129523D02*
X173099819Y-119700951D01*
X173099819Y-119415237D02*
X172099819Y-119415237D01*
X172099819Y-119415237D02*
X172242676Y-119510475D01*
X172242676Y-119510475D02*
X172337914Y-119605713D01*
X172337914Y-119605713D02*
X172385533Y-119700951D01*
X172099819Y-118796189D02*
X172099819Y-118129523D01*
X172099819Y-118129523D02*
X173099819Y-118558094D01*
X112040476Y-119004819D02*
X112040476Y-119719104D01*
X112040476Y-119719104D02*
X111992857Y-119861961D01*
X111992857Y-119861961D02*
X111897619Y-119957200D01*
X111897619Y-119957200D02*
X111754762Y-120004819D01*
X111754762Y-120004819D02*
X111659524Y-120004819D01*
X112469048Y-119100057D02*
X112516667Y-119052438D01*
X112516667Y-119052438D02*
X112611905Y-119004819D01*
X112611905Y-119004819D02*
X112850000Y-119004819D01*
X112850000Y-119004819D02*
X112945238Y-119052438D01*
X112945238Y-119052438D02*
X112992857Y-119100057D01*
X112992857Y-119100057D02*
X113040476Y-119195295D01*
X113040476Y-119195295D02*
X113040476Y-119290533D01*
X113040476Y-119290533D02*
X112992857Y-119433390D01*
X112992857Y-119433390D02*
X112421429Y-120004819D01*
X112421429Y-120004819D02*
X113040476Y-120004819D01*
X113516667Y-120004819D02*
X113707143Y-120004819D01*
X113707143Y-120004819D02*
X113802381Y-119957200D01*
X113802381Y-119957200D02*
X113850000Y-119909580D01*
X113850000Y-119909580D02*
X113945238Y-119766723D01*
X113945238Y-119766723D02*
X113992857Y-119576247D01*
X113992857Y-119576247D02*
X113992857Y-119195295D01*
X113992857Y-119195295D02*
X113945238Y-119100057D01*
X113945238Y-119100057D02*
X113897619Y-119052438D01*
X113897619Y-119052438D02*
X113802381Y-119004819D01*
X113802381Y-119004819D02*
X113611905Y-119004819D01*
X113611905Y-119004819D02*
X113516667Y-119052438D01*
X113516667Y-119052438D02*
X113469048Y-119100057D01*
X113469048Y-119100057D02*
X113421429Y-119195295D01*
X113421429Y-119195295D02*
X113421429Y-119433390D01*
X113421429Y-119433390D02*
X113469048Y-119528628D01*
X113469048Y-119528628D02*
X113516667Y-119576247D01*
X113516667Y-119576247D02*
X113611905Y-119623866D01*
X113611905Y-119623866D02*
X113802381Y-119623866D01*
X113802381Y-119623866D02*
X113897619Y-119576247D01*
X113897619Y-119576247D02*
X113945238Y-119528628D01*
X113945238Y-119528628D02*
X113992857Y-119433390D01*
X88688095Y-134854819D02*
X88688095Y-133854819D01*
X88688095Y-134331009D02*
X89259523Y-134331009D01*
X89259523Y-134854819D02*
X89259523Y-133854819D01*
X90164285Y-134188152D02*
X90164285Y-134854819D01*
X89926190Y-133807200D02*
X89688095Y-134521485D01*
X89688095Y-134521485D02*
X90307142Y-134521485D01*
X107429580Y-102529166D02*
X107477200Y-102576785D01*
X107477200Y-102576785D02*
X107524819Y-102719642D01*
X107524819Y-102719642D02*
X107524819Y-102814880D01*
X107524819Y-102814880D02*
X107477200Y-102957737D01*
X107477200Y-102957737D02*
X107381961Y-103052975D01*
X107381961Y-103052975D02*
X107286723Y-103100594D01*
X107286723Y-103100594D02*
X107096247Y-103148213D01*
X107096247Y-103148213D02*
X106953390Y-103148213D01*
X106953390Y-103148213D02*
X106762914Y-103100594D01*
X106762914Y-103100594D02*
X106667676Y-103052975D01*
X106667676Y-103052975D02*
X106572438Y-102957737D01*
X106572438Y-102957737D02*
X106524819Y-102814880D01*
X106524819Y-102814880D02*
X106524819Y-102719642D01*
X106524819Y-102719642D02*
X106572438Y-102576785D01*
X106572438Y-102576785D02*
X106620057Y-102529166D01*
X106524819Y-101672023D02*
X106524819Y-101862499D01*
X106524819Y-101862499D02*
X106572438Y-101957737D01*
X106572438Y-101957737D02*
X106620057Y-102005356D01*
X106620057Y-102005356D02*
X106762914Y-102100594D01*
X106762914Y-102100594D02*
X106953390Y-102148213D01*
X106953390Y-102148213D02*
X107334342Y-102148213D01*
X107334342Y-102148213D02*
X107429580Y-102100594D01*
X107429580Y-102100594D02*
X107477200Y-102052975D01*
X107477200Y-102052975D02*
X107524819Y-101957737D01*
X107524819Y-101957737D02*
X107524819Y-101767261D01*
X107524819Y-101767261D02*
X107477200Y-101672023D01*
X107477200Y-101672023D02*
X107429580Y-101624404D01*
X107429580Y-101624404D02*
X107334342Y-101576785D01*
X107334342Y-101576785D02*
X107096247Y-101576785D01*
X107096247Y-101576785D02*
X107001009Y-101624404D01*
X107001009Y-101624404D02*
X106953390Y-101672023D01*
X106953390Y-101672023D02*
X106905771Y-101767261D01*
X106905771Y-101767261D02*
X106905771Y-101957737D01*
X106905771Y-101957737D02*
X106953390Y-102052975D01*
X106953390Y-102052975D02*
X107001009Y-102100594D01*
X107001009Y-102100594D02*
X107096247Y-102148213D01*
%TO.C,C2*%
D11*
X95590000Y-94716233D02*
X95590000Y-95008767D01*
X96610000Y-94716233D02*
X96610000Y-95008767D01*
%TO.C,D2*%
X89275000Y-107435000D02*
X91735000Y-107435000D01*
X91735000Y-105965000D02*
X89275000Y-105965000D01*
X91735000Y-107435000D02*
X91735000Y-105965000D01*
%TO.C,J2*%
X105620000Y-81220000D02*
X105620000Y-83980000D01*
X118430000Y-81220000D02*
X105620000Y-81220000D01*
X118430000Y-81220000D02*
X118430000Y-83980000D01*
X118430000Y-83980000D02*
X105620000Y-83980000D01*
X119700000Y-81220000D02*
X121080000Y-81220000D01*
X121080000Y-81220000D02*
X121080000Y-82600000D01*
%TO.C,J6*%
X163090000Y-131945000D02*
X164510000Y-131945000D01*
X163090000Y-143665000D02*
X163090000Y-131945000D01*
X164510000Y-131945000D02*
X164510000Y-136445000D01*
X164510000Y-136445000D02*
X166900000Y-136445000D01*
X165350000Y-132255000D02*
X165950000Y-132255000D01*
X165650000Y-132855000D02*
X165350000Y-132255000D01*
X165950000Y-132255000D02*
X165650000Y-132855000D01*
X166900000Y-143665000D02*
X163090000Y-143665000D01*
X166900000Y-143665000D02*
X170710000Y-143665000D01*
X169290000Y-131945000D02*
X169290000Y-136445000D01*
X169290000Y-136445000D02*
X166900000Y-136445000D01*
X170710000Y-131945000D02*
X169290000Y-131945000D01*
X170710000Y-143665000D02*
X170710000Y-131945000D01*
X165400000Y-137555000D02*
X165900000Y-137555000D01*
X165900000Y-143055000D01*
X165400000Y-143055000D01*
X165400000Y-137555000D01*
X167900000Y-137555000D02*
X168400000Y-137555000D01*
X168400000Y-143055000D01*
X167900000Y-143055000D01*
X167900000Y-137555000D01*
%TO.C,J1*%
X84040000Y-90440000D02*
X85990000Y-90440000D01*
X84040000Y-98260000D02*
X84040000Y-90440000D01*
X84040000Y-98260000D02*
X85990000Y-98260000D01*
X88210000Y-90440000D02*
X91440000Y-90440000D01*
X88210000Y-98260000D02*
X91440000Y-98260000D01*
X93360000Y-91160000D02*
X93360000Y-92240000D01*
X93360000Y-92240000D02*
X93790000Y-92240000D01*
X93360000Y-96460000D02*
X93360000Y-97540000D01*
%TO.C,C4*%
X123691233Y-113090000D02*
X123983767Y-113090000D01*
X123691233Y-114110000D02*
X123983767Y-114110000D01*
%TO.C,J3*%
X134740000Y-131945000D02*
X136160000Y-131945000D01*
X134740000Y-143665000D02*
X134740000Y-131945000D01*
X136160000Y-131945000D02*
X136160000Y-136445000D01*
X136160000Y-136445000D02*
X138550000Y-136445000D01*
X137000000Y-132255000D02*
X137600000Y-132255000D01*
X137300000Y-132855000D02*
X137000000Y-132255000D01*
X137600000Y-132255000D02*
X137300000Y-132855000D01*
X138550000Y-143665000D02*
X134740000Y-143665000D01*
X138550000Y-143665000D02*
X142360000Y-143665000D01*
X140940000Y-131945000D02*
X140940000Y-136445000D01*
X140940000Y-136445000D02*
X138550000Y-136445000D01*
X142360000Y-131945000D02*
X140940000Y-131945000D01*
X142360000Y-143665000D02*
X142360000Y-131945000D01*
X137050000Y-137555000D02*
X137550000Y-137555000D01*
X137550000Y-143055000D01*
X137050000Y-143055000D01*
X137050000Y-137555000D01*
X139550000Y-137555000D02*
X140050000Y-137555000D01*
X140050000Y-143055000D01*
X139550000Y-143055000D01*
X139550000Y-137555000D01*
%TO.C,SW1*%
D12*
X96672800Y-112229553D02*
X96672800Y-115170447D01*
X97987941Y-116125700D02*
X98812059Y-116125700D01*
X98812059Y-111274300D02*
X97987941Y-111274300D01*
X100127200Y-115170447D02*
X100127200Y-112229553D01*
X94615000Y-111625000D02*
G75*
G02*
X94361000Y-111625000I-127000J0D01*
G01*
X94361000Y-111625000D02*
G75*
G02*
X94615000Y-111625000I127000J0D01*
G01*
%TO.C,J33*%
D11*
X134250000Y-94625000D02*
X135000000Y-94625000D01*
X135000000Y-91675000D02*
X139300000Y-91675000D01*
X135000000Y-94625000D02*
X135000000Y-91675000D01*
X143400000Y-97175000D02*
X144650000Y-97175000D01*
X143600000Y-91675000D02*
X139300000Y-91675000D01*
X143600000Y-94625000D02*
X143600000Y-91675000D01*
X144350000Y-94625000D02*
X143600000Y-94625000D01*
X144650000Y-97175000D02*
X144650000Y-95925000D01*
X134250000Y-96125000D02*
X136050000Y-96125000D01*
X136050000Y-96875000D01*
X134250000Y-96875000D01*
X134250000Y-96125000D01*
X137550000Y-96125000D02*
X141050000Y-96125000D01*
X141050000Y-96875000D01*
X137550000Y-96875000D01*
X137550000Y-96125000D01*
X142550000Y-96125000D02*
X144350000Y-96125000D01*
X144350000Y-96875000D01*
X142550000Y-96875000D01*
X142550000Y-96125000D01*
X134240000Y-90915000D02*
X144360000Y-90915000D01*
X144360000Y-96885000D01*
X134240000Y-96885000D01*
X134240000Y-90915000D01*
%TO.C,J22*%
X138750000Y-120300000D02*
X138750000Y-121550000D01*
X138750000Y-121550000D02*
X140000000Y-121550000D01*
X141300000Y-113650000D02*
X141300000Y-114400000D01*
X141300000Y-114400000D02*
X144250000Y-114400000D01*
X141300000Y-120500000D02*
X142640000Y-120500000D01*
X141300000Y-121250000D02*
X141300000Y-120500000D01*
X144250000Y-114400000D02*
X144250000Y-117450000D01*
X144250000Y-117450000D02*
X144250000Y-119440000D01*
X139040000Y-113640000D02*
X145010000Y-113640000D01*
X145010000Y-121260000D01*
X139040000Y-121260000D01*
X139040000Y-113640000D01*
X139050000Y-113650000D02*
X139800000Y-113650000D01*
X139800000Y-115450000D01*
X139050000Y-115450000D01*
X139050000Y-113650000D01*
X139050000Y-116950000D02*
X139800000Y-116950000D01*
X139800000Y-117950000D01*
X139050000Y-117950000D01*
X139050000Y-116950000D01*
X139050000Y-119450000D02*
X139800000Y-119450000D01*
X139800000Y-121250000D01*
X139050000Y-121250000D01*
X139050000Y-119450000D01*
%TO.C,J23*%
X120550000Y-129550000D02*
X120550000Y-130800000D01*
X120850000Y-132100000D02*
X121600000Y-132100000D01*
X121600000Y-132100000D02*
X121600000Y-133440000D01*
X121800000Y-129550000D02*
X120550000Y-129550000D01*
X124650000Y-135050000D02*
X122660000Y-135050000D01*
X127700000Y-132100000D02*
X127700000Y-135050000D01*
X127700000Y-135050000D02*
X124650000Y-135050000D01*
X128450000Y-132100000D02*
X127700000Y-132100000D01*
X120840000Y-129840000D02*
X128460000Y-129840000D01*
X128460000Y-135810000D01*
X120840000Y-135810000D01*
X120840000Y-129840000D01*
X120850000Y-129850000D02*
X122650000Y-129850000D01*
X122650000Y-130600000D01*
X120850000Y-130600000D01*
X120850000Y-129850000D01*
X124150000Y-129850000D02*
X125150000Y-129850000D01*
X125150000Y-130600000D01*
X124150000Y-130600000D01*
X124150000Y-129850000D01*
X126650000Y-129850000D02*
X128450000Y-129850000D01*
X128450000Y-130600000D01*
X126650000Y-130600000D01*
X126650000Y-129850000D01*
%TO.C,C3*%
X97390000Y-94691233D02*
X97390000Y-94983767D01*
X98410000Y-94691233D02*
X98410000Y-94983767D01*
%TO.C,J5*%
X153640000Y-131945000D02*
X155060000Y-131945000D01*
X153640000Y-143665000D02*
X153640000Y-131945000D01*
X155060000Y-131945000D02*
X155060000Y-136445000D01*
X155060000Y-136445000D02*
X157450000Y-136445000D01*
X155900000Y-132255000D02*
X156500000Y-132255000D01*
X156200000Y-132855000D02*
X155900000Y-132255000D01*
X156500000Y-132255000D02*
X156200000Y-132855000D01*
X157450000Y-143665000D02*
X153640000Y-143665000D01*
X157450000Y-143665000D02*
X161260000Y-143665000D01*
X159840000Y-131945000D02*
X159840000Y-136445000D01*
X159840000Y-136445000D02*
X157450000Y-136445000D01*
X161260000Y-131945000D02*
X159840000Y-131945000D01*
X161260000Y-143665000D02*
X161260000Y-131945000D01*
X155950000Y-137555000D02*
X156450000Y-137555000D01*
X156450000Y-143055000D01*
X155950000Y-143055000D01*
X155950000Y-137555000D01*
X158450000Y-137555000D02*
X158950000Y-137555000D01*
X158950000Y-143055000D01*
X158450000Y-143055000D01*
X158450000Y-137555000D01*
%TO.C,U5*%
D13*
X104985000Y-91610000D02*
X104985000Y-98350000D01*
X104985000Y-98350000D02*
X111085000Y-98350000D01*
X111085000Y-91610000D02*
X104985000Y-91610000D01*
X111085000Y-91858000D02*
X111085000Y-91610000D01*
X111085000Y-98350000D02*
X111085000Y-98102000D01*
D14*
X102690000Y-91680000D02*
G75*
G02*
X102490000Y-91680000I-100000J0D01*
G01*
X102490000Y-91680000D02*
G75*
G02*
X102690000Y-91680000I100000J0D01*
G01*
%TO.C,J19*%
D11*
X122940000Y-73990000D02*
X122940000Y-85710000D01*
X122940000Y-85710000D02*
X124360000Y-85710000D01*
X124360000Y-81210000D02*
X128000000Y-81210000D01*
X124360000Y-85710000D02*
X124360000Y-81210000D01*
X128000000Y-73990000D02*
X122940000Y-73990000D01*
X128000000Y-73990000D02*
X133060000Y-73990000D01*
X130200000Y-85400000D02*
X130500000Y-84800000D01*
X130500000Y-84800000D02*
X130800000Y-85400000D01*
X130800000Y-85400000D02*
X130200000Y-85400000D01*
X131640000Y-81210000D02*
X128000000Y-81210000D01*
X131640000Y-85710000D02*
X131640000Y-81210000D01*
X133060000Y-73990000D02*
X133060000Y-85710000D01*
X133060000Y-85710000D02*
X131640000Y-85710000D01*
X125250000Y-74600000D02*
X125750000Y-74600000D01*
X125750000Y-80100000D01*
X125250000Y-80100000D01*
X125250000Y-74600000D01*
X127750000Y-74600000D02*
X128250000Y-74600000D01*
X128250000Y-80100000D01*
X127750000Y-80100000D01*
X127750000Y-74600000D01*
X130250000Y-74600000D02*
X130750000Y-74600000D01*
X130750000Y-80100000D01*
X130250000Y-80100000D01*
X130250000Y-74600000D01*
%TO.C,J34*%
X145950000Y-84850000D02*
X146700000Y-84850000D01*
X146700000Y-81900000D02*
X151000000Y-81900000D01*
X146700000Y-84850000D02*
X146700000Y-81900000D01*
X155100000Y-87400000D02*
X156350000Y-87400000D01*
X155300000Y-81900000D02*
X151000000Y-81900000D01*
X155300000Y-84850000D02*
X155300000Y-81900000D01*
X156050000Y-84850000D02*
X155300000Y-84850000D01*
X156350000Y-87400000D02*
X156350000Y-86150000D01*
X145950000Y-86350000D02*
X147750000Y-86350000D01*
X147750000Y-87100000D01*
X145950000Y-87100000D01*
X145950000Y-86350000D01*
X149250000Y-86350000D02*
X152750000Y-86350000D01*
X152750000Y-87100000D01*
X149250000Y-87100000D01*
X149250000Y-86350000D01*
X154250000Y-86350000D02*
X156050000Y-86350000D01*
X156050000Y-87100000D01*
X154250000Y-87100000D01*
X154250000Y-86350000D01*
X145940000Y-81140000D02*
X156060000Y-81140000D01*
X156060000Y-87110000D01*
X145940000Y-87110000D01*
X145940000Y-81140000D01*
%TO.C,R5*%
X157377500Y-114954724D02*
X157377500Y-114445276D01*
X158422500Y-114954724D02*
X158422500Y-114445276D01*
%TO.C,C1*%
X101790000Y-114008767D02*
X101790000Y-113716233D01*
X102810000Y-114008767D02*
X102810000Y-113716233D01*
%TO.C,J20*%
X146625000Y-120350000D02*
X146625000Y-121600000D01*
X146625000Y-121600000D02*
X147875000Y-121600000D01*
X149175000Y-113700000D02*
X149175000Y-114450000D01*
X149175000Y-114450000D02*
X152125000Y-114450000D01*
X149175000Y-120550000D02*
X150515000Y-120550000D01*
X149175000Y-121300000D02*
X149175000Y-120550000D01*
X152125000Y-114450000D02*
X152125000Y-117500000D01*
X152125000Y-117500000D02*
X152125000Y-119490000D01*
X146915000Y-113690000D02*
X152885000Y-113690000D01*
X152885000Y-121310000D01*
X146915000Y-121310000D01*
X146915000Y-113690000D01*
X146925000Y-113700000D02*
X147675000Y-113700000D01*
X147675000Y-115500000D01*
X146925000Y-115500000D01*
X146925000Y-113700000D01*
X146925000Y-117000000D02*
X147675000Y-117000000D01*
X147675000Y-118000000D01*
X146925000Y-118000000D01*
X146925000Y-117000000D01*
X146925000Y-119500000D02*
X147675000Y-119500000D01*
X147675000Y-121300000D01*
X146925000Y-121300000D01*
X146925000Y-119500000D01*
%TO.C,J30*%
X138750000Y-111300000D02*
X138750000Y-112550000D01*
X138750000Y-112550000D02*
X140000000Y-112550000D01*
X141300000Y-99650000D02*
X141300000Y-100400000D01*
X141300000Y-100400000D02*
X144250000Y-100400000D01*
X141300000Y-111500000D02*
X144250000Y-111500000D01*
X141300000Y-112250000D02*
X141300000Y-111500000D01*
X144250000Y-100400000D02*
X144250000Y-105950000D01*
X144250000Y-111500000D02*
X144250000Y-105950000D01*
X139040000Y-99640000D02*
X145010000Y-99640000D01*
X145010000Y-112260000D01*
X139040000Y-112260000D01*
X139040000Y-99640000D01*
X139050000Y-99650000D02*
X139800000Y-99650000D01*
X139800000Y-101450000D01*
X139050000Y-101450000D01*
X139050000Y-99650000D01*
X139050000Y-102950000D02*
X139800000Y-102950000D01*
X139800000Y-108950000D01*
X139050000Y-108950000D01*
X139050000Y-102950000D01*
X139050000Y-110450000D02*
X139800000Y-110450000D01*
X139800000Y-112250000D01*
X139050000Y-112250000D01*
X139050000Y-110450000D01*
%TO.C,R7*%
X155377500Y-114457776D02*
X155377500Y-114967224D01*
X156422500Y-114457776D02*
X156422500Y-114967224D01*
%TO.C,C5*%
X105990000Y-102216233D02*
X105990000Y-102508767D01*
X107010000Y-102216233D02*
X107010000Y-102508767D01*
%TO.C,J4*%
X144190000Y-131945000D02*
X145610000Y-131945000D01*
X144190000Y-143665000D02*
X144190000Y-131945000D01*
X145610000Y-131945000D02*
X145610000Y-136445000D01*
X145610000Y-136445000D02*
X148000000Y-136445000D01*
X146450000Y-132255000D02*
X147050000Y-132255000D01*
X146750000Y-132855000D02*
X146450000Y-132255000D01*
X147050000Y-132255000D02*
X146750000Y-132855000D01*
X148000000Y-143665000D02*
X144190000Y-143665000D01*
X148000000Y-143665000D02*
X151810000Y-143665000D01*
X150390000Y-131945000D02*
X150390000Y-136445000D01*
X150390000Y-136445000D02*
X148000000Y-136445000D01*
X151810000Y-131945000D02*
X150390000Y-131945000D01*
X151810000Y-143665000D02*
X151810000Y-131945000D01*
X146500000Y-137555000D02*
X147000000Y-137555000D01*
X147000000Y-143055000D01*
X146500000Y-143055000D01*
X146500000Y-137555000D01*
X149000000Y-137555000D02*
X149500000Y-137555000D01*
X149500000Y-143055000D01*
X149000000Y-143055000D01*
X149000000Y-137555000D01*
%TO.C,U3*%
X162440000Y-93340000D02*
X166560000Y-93340000D01*
X162440000Y-93435000D02*
X162440000Y-93340000D01*
X162440000Y-98460000D02*
X162440000Y-98365000D01*
X166560000Y-93340000D02*
X166560000Y-93435000D01*
X166560000Y-98365000D02*
X166560000Y-98460000D01*
X166560000Y-98460000D02*
X162440000Y-98460000D01*
X161900000Y-93430000D02*
X161660000Y-93100000D01*
X162140000Y-93100000D01*
X161900000Y-93430000D01*
G36*
X161900000Y-93430000D02*
G01*
X161660000Y-93100000D01*
X162140000Y-93100000D01*
X161900000Y-93430000D01*
G37*
%TO.C,R14*%
X89857776Y-118577500D02*
X90367224Y-118577500D01*
X89857776Y-119622500D02*
X90367224Y-119622500D01*
%TO.C,U4*%
X162365000Y-105375000D02*
X166485000Y-105375000D01*
X162365000Y-105470000D02*
X162365000Y-105375000D01*
X162365000Y-110495000D02*
X162365000Y-110400000D01*
X166485000Y-105375000D02*
X166485000Y-105470000D01*
X166485000Y-110400000D02*
X166485000Y-110495000D01*
X166485000Y-110495000D02*
X162365000Y-110495000D01*
X161825000Y-105465000D02*
X161585000Y-105135000D01*
X162065000Y-105135000D01*
X161825000Y-105465000D01*
G36*
X161825000Y-105465000D02*
G01*
X161585000Y-105135000D01*
X162065000Y-105135000D01*
X161825000Y-105465000D01*
G37*
%TO.C,R1*%
X99377500Y-95042224D02*
X99377500Y-94532776D01*
X100422500Y-95042224D02*
X100422500Y-94532776D01*
%TO.C,Y1*%
D13*
X102050000Y-102520000D02*
X102050000Y-102680000D01*
X104550000Y-102520000D02*
X104550000Y-102680000D01*
D14*
X101275000Y-101500000D02*
G75*
G02*
X101075000Y-101500000I-100000J0D01*
G01*
X101075000Y-101500000D02*
G75*
G02*
X101275000Y-101500000I100000J0D01*
G01*
%TO.C,J31*%
D11*
X106250000Y-129550000D02*
X106250000Y-130800000D01*
X106550000Y-132100000D02*
X107300000Y-132100000D01*
X107300000Y-132100000D02*
X107300000Y-135050000D01*
X107300000Y-135050000D02*
X112850000Y-135050000D01*
X107500000Y-129550000D02*
X106250000Y-129550000D01*
X118400000Y-132100000D02*
X118400000Y-135050000D01*
X118400000Y-135050000D02*
X112850000Y-135050000D01*
X119150000Y-132100000D02*
X118400000Y-132100000D01*
X106540000Y-129840000D02*
X119160000Y-129840000D01*
X119160000Y-135810000D01*
X106540000Y-135810000D01*
X106540000Y-129840000D01*
X106550000Y-129850000D02*
X108350000Y-129850000D01*
X108350000Y-130600000D01*
X106550000Y-130600000D01*
X106550000Y-129850000D01*
X109850000Y-129850000D02*
X115850000Y-129850000D01*
X115850000Y-130600000D01*
X109850000Y-130600000D01*
X109850000Y-129850000D01*
X117350000Y-129850000D02*
X119150000Y-129850000D01*
X119150000Y-130600000D01*
X117350000Y-130600000D01*
X117350000Y-129850000D01*
%TO.C,J28*%
X146725000Y-111350000D02*
X146725000Y-112600000D01*
X146725000Y-112600000D02*
X147975000Y-112600000D01*
X149275000Y-99700000D02*
X149275000Y-100450000D01*
X149275000Y-100450000D02*
X152225000Y-100450000D01*
X149275000Y-111550000D02*
X152225000Y-111550000D01*
X149275000Y-112300000D02*
X149275000Y-111550000D01*
X152225000Y-100450000D02*
X152225000Y-106000000D01*
X152225000Y-111550000D02*
X152225000Y-106000000D01*
X147015000Y-99690000D02*
X152985000Y-99690000D01*
X152985000Y-112310000D01*
X147015000Y-112310000D01*
X147015000Y-99690000D01*
X147025000Y-99700000D02*
X147775000Y-99700000D01*
X147775000Y-101500000D01*
X147025000Y-101500000D01*
X147025000Y-99700000D01*
X147025000Y-103000000D02*
X147775000Y-103000000D01*
X147775000Y-109000000D01*
X147025000Y-109000000D01*
X147025000Y-103000000D01*
X147025000Y-110500000D02*
X147775000Y-110500000D01*
X147775000Y-112300000D01*
X147025000Y-112300000D01*
X147025000Y-110500000D01*
%TO.C,J16*%
X173745000Y-99450000D02*
X173745000Y-100870000D01*
X173745000Y-100870000D02*
X178245000Y-100870000D01*
X173745000Y-110650000D02*
X178245000Y-110650000D01*
X173745000Y-112070000D02*
X173745000Y-110650000D01*
X174055000Y-109210000D02*
X174655000Y-109510000D01*
X174055000Y-109810000D02*
X174055000Y-109210000D01*
X174655000Y-109510000D02*
X174055000Y-109810000D01*
X178245000Y-100870000D02*
X178245000Y-105760000D01*
X178245000Y-110650000D02*
X178245000Y-105760000D01*
X185465000Y-99450000D02*
X173745000Y-99450000D01*
X185465000Y-105760000D02*
X185465000Y-99450000D01*
X185465000Y-105760000D02*
X185465000Y-112070000D01*
X185465000Y-112070000D02*
X173745000Y-112070000D01*
X179355000Y-101760000D02*
X184855000Y-101760000D01*
X184855000Y-102260000D01*
X179355000Y-102260000D01*
X179355000Y-101760000D01*
X179355000Y-104260000D02*
X184855000Y-104260000D01*
X184855000Y-104760000D01*
X179355000Y-104760000D01*
X179355000Y-104260000D01*
X179355000Y-106760000D02*
X184855000Y-106760000D01*
X184855000Y-107260000D01*
X179355000Y-107260000D01*
X179355000Y-106760000D01*
X179355000Y-109260000D02*
X184855000Y-109260000D01*
X184855000Y-109760000D01*
X179355000Y-109760000D01*
X179355000Y-109260000D01*
%TO.C,R13*%
X89832776Y-116177500D02*
X90342224Y-116177500D01*
X89832776Y-117222500D02*
X90342224Y-117222500D01*
%TO.C,J21*%
X120750000Y-120250000D02*
X120750000Y-121500000D01*
X121050000Y-122800000D02*
X121800000Y-122800000D01*
X121800000Y-122800000D02*
X121800000Y-124140000D01*
X122000000Y-120250000D02*
X120750000Y-120250000D01*
X124850000Y-125750000D02*
X122860000Y-125750000D01*
X127900000Y-122800000D02*
X127900000Y-125750000D01*
X127900000Y-125750000D02*
X124850000Y-125750000D01*
X128650000Y-122800000D02*
X127900000Y-122800000D01*
X121040000Y-120540000D02*
X128660000Y-120540000D01*
X128660000Y-126510000D01*
X121040000Y-126510000D01*
X121040000Y-120540000D01*
X121050000Y-120550000D02*
X122850000Y-120550000D01*
X122850000Y-121300000D01*
X121050000Y-121300000D01*
X121050000Y-120550000D01*
X124350000Y-120550000D02*
X125350000Y-120550000D01*
X125350000Y-121300000D01*
X124350000Y-121300000D01*
X124350000Y-120550000D01*
X126850000Y-120550000D02*
X128650000Y-120550000D01*
X128650000Y-121300000D01*
X126850000Y-121300000D01*
X126850000Y-120550000D01*
%TO.C,J15*%
X173745000Y-85890000D02*
X173745000Y-87310000D01*
X173745000Y-87310000D02*
X178245000Y-87310000D01*
X173745000Y-97090000D02*
X178245000Y-97090000D01*
X173745000Y-98510000D02*
X173745000Y-97090000D01*
X174055000Y-95650000D02*
X174655000Y-95950000D01*
X174055000Y-96250000D02*
X174055000Y-95650000D01*
X174655000Y-95950000D02*
X174055000Y-96250000D01*
X178245000Y-87310000D02*
X178245000Y-92200000D01*
X178245000Y-97090000D02*
X178245000Y-92200000D01*
X185465000Y-85890000D02*
X173745000Y-85890000D01*
X185465000Y-92200000D02*
X185465000Y-85890000D01*
X185465000Y-92200000D02*
X185465000Y-98510000D01*
X185465000Y-98510000D02*
X173745000Y-98510000D01*
X179355000Y-88200000D02*
X184855000Y-88200000D01*
X184855000Y-88700000D01*
X179355000Y-88700000D01*
X179355000Y-88200000D01*
X179355000Y-90700000D02*
X184855000Y-90700000D01*
X184855000Y-91200000D01*
X179355000Y-91200000D01*
X179355000Y-90700000D01*
X179355000Y-93200000D02*
X184855000Y-93200000D01*
X184855000Y-93700000D01*
X179355000Y-93700000D01*
X179355000Y-93200000D01*
X179355000Y-95700000D02*
X184855000Y-95700000D01*
X184855000Y-96200000D01*
X179355000Y-96200000D01*
X179355000Y-95700000D01*
%TO.C,U1*%
X115090000Y-98190000D02*
X116040000Y-98190000D01*
X115090000Y-99140000D02*
X115090000Y-98190000D01*
X115090000Y-108410000D02*
X115090000Y-107460000D01*
X116040000Y-108410000D02*
X115090000Y-108410000D01*
X124360000Y-98190000D02*
X125310000Y-98190000D01*
X125310000Y-98190000D02*
X125310000Y-99140000D01*
X125310000Y-107460000D02*
X125310000Y-108410000D01*
X125310000Y-108410000D02*
X124360000Y-108410000D01*
X114450000Y-99140000D02*
X114110000Y-98670000D01*
X114790000Y-98670000D01*
X114450000Y-99140000D01*
G36*
X114450000Y-99140000D02*
G01*
X114110000Y-98670000D01*
X114790000Y-98670000D01*
X114450000Y-99140000D01*
G37*
%TO.C,R2*%
X104577500Y-113532776D02*
X104577500Y-114042224D01*
X105622500Y-113532776D02*
X105622500Y-114042224D01*
%TO.C,J32*%
X145950000Y-94700000D02*
X146700000Y-94700000D01*
X146700000Y-91750000D02*
X151000000Y-91750000D01*
X146700000Y-94700000D02*
X146700000Y-91750000D01*
X155100000Y-97250000D02*
X156350000Y-97250000D01*
X155300000Y-91750000D02*
X151000000Y-91750000D01*
X155300000Y-94700000D02*
X155300000Y-91750000D01*
X156050000Y-94700000D02*
X155300000Y-94700000D01*
X156350000Y-97250000D02*
X156350000Y-96000000D01*
X145950000Y-96200000D02*
X147750000Y-96200000D01*
X147750000Y-96950000D01*
X145950000Y-96950000D01*
X145950000Y-96200000D01*
X149250000Y-96200000D02*
X152750000Y-96200000D01*
X152750000Y-96950000D01*
X149250000Y-96950000D01*
X149250000Y-96200000D01*
X154250000Y-96200000D02*
X156050000Y-96200000D01*
X156050000Y-96950000D01*
X154250000Y-96950000D01*
X154250000Y-96200000D01*
X145940000Y-90990000D02*
X156060000Y-90990000D01*
X156060000Y-96960000D01*
X145940000Y-96960000D01*
X145940000Y-90990000D01*
%TO.C,D1*%
X89225000Y-110635000D02*
X91685000Y-110635000D01*
X91685000Y-109165000D02*
X89225000Y-109165000D01*
X91685000Y-110635000D02*
X91685000Y-109165000D01*
%TO.C,J18*%
X173745000Y-126570000D02*
X173745000Y-127990000D01*
X173745000Y-127990000D02*
X178245000Y-127990000D01*
X173745000Y-137770000D02*
X178245000Y-137770000D01*
X173745000Y-139190000D02*
X173745000Y-137770000D01*
X174055000Y-136330000D02*
X174655000Y-136630000D01*
X174055000Y-136930000D02*
X174055000Y-136330000D01*
X174655000Y-136630000D02*
X174055000Y-136930000D01*
X178245000Y-127990000D02*
X178245000Y-132880000D01*
X178245000Y-137770000D02*
X178245000Y-132880000D01*
X185465000Y-126570000D02*
X173745000Y-126570000D01*
X185465000Y-132880000D02*
X185465000Y-126570000D01*
X185465000Y-132880000D02*
X185465000Y-139190000D01*
X185465000Y-139190000D02*
X173745000Y-139190000D01*
X179355000Y-128880000D02*
X184855000Y-128880000D01*
X184855000Y-129380000D01*
X179355000Y-129380000D01*
X179355000Y-128880000D01*
X179355000Y-131380000D02*
X184855000Y-131380000D01*
X184855000Y-131880000D01*
X179355000Y-131880000D01*
X179355000Y-131380000D01*
X179355000Y-133880000D02*
X184855000Y-133880000D01*
X184855000Y-134380000D01*
X179355000Y-134380000D01*
X179355000Y-133880000D01*
X179355000Y-136380000D02*
X184855000Y-136380000D01*
X184855000Y-136880000D01*
X179355000Y-136880000D01*
X179355000Y-136380000D01*
%TO.C,R6*%
X130932776Y-125677500D02*
X131442224Y-125677500D01*
X130932776Y-126722500D02*
X131442224Y-126722500D01*
%TO.C,J35*%
X134150000Y-84825000D02*
X134900000Y-84825000D01*
X134900000Y-81875000D02*
X139200000Y-81875000D01*
X134900000Y-84825000D02*
X134900000Y-81875000D01*
X143300000Y-87375000D02*
X144550000Y-87375000D01*
X143500000Y-81875000D02*
X139200000Y-81875000D01*
X143500000Y-84825000D02*
X143500000Y-81875000D01*
X144250000Y-84825000D02*
X143500000Y-84825000D01*
X144550000Y-87375000D02*
X144550000Y-86125000D01*
X134150000Y-86325000D02*
X135950000Y-86325000D01*
X135950000Y-87075000D01*
X134150000Y-87075000D01*
X134150000Y-86325000D01*
X137450000Y-86325000D02*
X140950000Y-86325000D01*
X140950000Y-87075000D01*
X137450000Y-87075000D01*
X137450000Y-86325000D01*
X142450000Y-86325000D02*
X144250000Y-86325000D01*
X144250000Y-87075000D01*
X142450000Y-87075000D01*
X142450000Y-86325000D01*
X134140000Y-81115000D02*
X144260000Y-81115000D01*
X144260000Y-87085000D01*
X134140000Y-87085000D01*
X134140000Y-81115000D01*
%TO.C,R3*%
X166677500Y-90254724D02*
X166677500Y-89745276D01*
X167722500Y-90254724D02*
X167722500Y-89745276D01*
%TO.C,R8*%
X131032776Y-127477500D02*
X131542224Y-127477500D01*
X131032776Y-128522500D02*
X131542224Y-128522500D01*
%TO.C,R4*%
X166577500Y-103254724D02*
X166577500Y-102745276D01*
X167622500Y-103254724D02*
X167622500Y-102745276D01*
%TO.C,J17*%
X173745000Y-113010000D02*
X173745000Y-114430000D01*
X173745000Y-114430000D02*
X178245000Y-114430000D01*
X173745000Y-124210000D02*
X178245000Y-124210000D01*
X173745000Y-125630000D02*
X173745000Y-124210000D01*
X174055000Y-122770000D02*
X174655000Y-123070000D01*
X174055000Y-123370000D02*
X174055000Y-122770000D01*
X174655000Y-123070000D02*
X174055000Y-123370000D01*
X178245000Y-114430000D02*
X178245000Y-119320000D01*
X178245000Y-124210000D02*
X178245000Y-119320000D01*
X185465000Y-113010000D02*
X173745000Y-113010000D01*
X185465000Y-119320000D02*
X185465000Y-113010000D01*
X185465000Y-119320000D02*
X185465000Y-125630000D01*
X185465000Y-125630000D02*
X173745000Y-125630000D01*
X179355000Y-115320000D02*
X184855000Y-115320000D01*
X184855000Y-115820000D01*
X179355000Y-115820000D01*
X179355000Y-115320000D01*
X179355000Y-117820000D02*
X184855000Y-117820000D01*
X184855000Y-118320000D01*
X179355000Y-118320000D01*
X179355000Y-117820000D01*
X179355000Y-120320000D02*
X184855000Y-120320000D01*
X184855000Y-120820000D01*
X179355000Y-120820000D01*
X179355000Y-120320000D01*
X179355000Y-122820000D02*
X184855000Y-122820000D01*
X184855000Y-123320000D01*
X179355000Y-123320000D01*
X179355000Y-122820000D01*
%TO.C,J29*%
X106250000Y-120350000D02*
X106250000Y-121600000D01*
X106550000Y-122900000D02*
X107300000Y-122900000D01*
X107300000Y-122900000D02*
X107300000Y-125850000D01*
X107300000Y-125850000D02*
X112850000Y-125850000D01*
X107500000Y-120350000D02*
X106250000Y-120350000D01*
X118400000Y-122900000D02*
X118400000Y-125850000D01*
X118400000Y-125850000D02*
X112850000Y-125850000D01*
X119150000Y-122900000D02*
X118400000Y-122900000D01*
X106540000Y-120640000D02*
X119160000Y-120640000D01*
X119160000Y-126610000D01*
X106540000Y-126610000D01*
X106540000Y-120640000D01*
X106550000Y-120650000D02*
X108350000Y-120650000D01*
X108350000Y-121400000D01*
X106550000Y-121400000D01*
X106550000Y-120650000D01*
X109850000Y-120650000D02*
X115850000Y-120650000D01*
X115850000Y-121400000D01*
X109850000Y-121400000D01*
X109850000Y-120650000D01*
X117350000Y-120650000D02*
X119150000Y-120650000D01*
X119150000Y-121400000D01*
X117350000Y-121400000D01*
X117350000Y-120650000D01*
%TO.C,C6*%
X107990000Y-102508767D02*
X107990000Y-102216233D01*
X109010000Y-102508767D02*
X109010000Y-102216233D01*
%TD*%
%LPC*%
D15*
%TO.C,C2*%
X96100000Y-94000000D03*
X96100000Y-95725000D03*
%TD*%
D16*
%TO.C,D2*%
X90950000Y-106700000D03*
X89200000Y-106700000D03*
%TD*%
D17*
%TO.C,J2*%
X119700000Y-82600000D03*
D18*
X117160000Y-82600000D03*
X114620000Y-82600000D03*
X112080000Y-82600000D03*
X109540000Y-82600000D03*
X107000000Y-82600000D03*
%TD*%
D19*
%TO.C,J6*%
X165650000Y-134355000D03*
D20*
X168150000Y-134355000D03*
%TD*%
D21*
%TO.C,J1*%
X89950000Y-92150000D03*
X89950000Y-96550000D03*
D22*
X92650000Y-92750000D03*
X92650000Y-93550000D03*
X92650000Y-94350000D03*
X92650000Y-95150000D03*
X92650000Y-95950000D03*
D23*
X92550000Y-89900000D03*
X87100000Y-89900000D03*
X92550000Y-98800000D03*
X87100000Y-98800000D03*
%TD*%
D24*
%TO.C,C4*%
X122975000Y-113600000D03*
X124700000Y-113600000D03*
%TD*%
D19*
%TO.C,J3*%
X137300000Y-134355000D03*
D20*
X139800000Y-134355000D03*
%TD*%
D25*
%TO.C,SW1*%
X97325001Y-111625000D03*
X97325001Y-115775000D03*
X99474999Y-111625000D03*
X99474999Y-115775000D03*
%TD*%
D26*
%TO.C,J33*%
X141800000Y-94425000D03*
D27*
X139300000Y-94425000D03*
X136800000Y-94425000D03*
%TD*%
D28*
%TO.C,J22*%
X143500000Y-120300000D03*
D29*
X141500000Y-118700000D03*
D30*
X141500000Y-116200000D03*
%TD*%
D28*
%TO.C,J23*%
X121800000Y-134300000D03*
D19*
X123400000Y-132300000D03*
D20*
X125900000Y-132300000D03*
%TD*%
D15*
%TO.C,C3*%
X97900000Y-93975000D03*
X97900000Y-95700000D03*
%TD*%
D19*
%TO.C,J5*%
X156200000Y-134355000D03*
D20*
X158700000Y-134355000D03*
%TD*%
D31*
%TO.C,U5*%
X102600000Y-92700000D03*
D32*
X109310000Y-94980000D03*
D31*
X102600000Y-97260000D03*
%TD*%
D26*
%TO.C,J19*%
X130500000Y-83300000D03*
D27*
X128000000Y-83300000D03*
X125500000Y-83300000D03*
%TD*%
D26*
%TO.C,J34*%
X153500000Y-84650000D03*
D27*
X151000000Y-84650000D03*
X148500000Y-84650000D03*
%TD*%
D33*
%TO.C,R5*%
X157900000Y-115612500D03*
X157900000Y-113787500D03*
%TD*%
D34*
%TO.C,H2*%
X177550000Y-80800000D03*
%TD*%
%TO.C,H1*%
X89450000Y-80800000D03*
%TD*%
D35*
%TO.C,C1*%
X102300000Y-114725000D03*
X102300000Y-113000000D03*
%TD*%
D28*
%TO.C,J20*%
X151375000Y-120350000D03*
D29*
X149375000Y-118750000D03*
D30*
X149375000Y-116250000D03*
%TD*%
D36*
%TO.C,J30*%
X141500000Y-109700000D03*
D37*
X141500000Y-107200000D03*
X141500000Y-104700000D03*
X141500000Y-102200000D03*
%TD*%
D38*
%TO.C,R7*%
X155900000Y-113800000D03*
X155900000Y-115625000D03*
%TD*%
D15*
%TO.C,C5*%
X106500000Y-101500000D03*
X106500000Y-103225000D03*
%TD*%
D19*
%TO.C,J4*%
X146750000Y-134355000D03*
D20*
X149250000Y-134355000D03*
%TD*%
D39*
%TO.C,U3*%
X162025000Y-93995000D03*
X162025000Y-95265000D03*
X162025000Y-96535000D03*
X162025000Y-97805000D03*
X166975000Y-97805000D03*
X166975000Y-96535000D03*
X166975000Y-95265000D03*
X166975000Y-93995000D03*
%TD*%
D40*
%TO.C,R14*%
X89200000Y-119100000D03*
X91025000Y-119100000D03*
%TD*%
D39*
%TO.C,U4*%
X161950000Y-106030000D03*
X161950000Y-107300000D03*
X161950000Y-108570000D03*
X161950000Y-109840000D03*
X166900000Y-109840000D03*
X166900000Y-108570000D03*
X166900000Y-107300000D03*
X166900000Y-106030000D03*
%TD*%
D33*
%TO.C,R1*%
X99900000Y-95700000D03*
X99900000Y-93875000D03*
%TD*%
D41*
%TO.C,Y1*%
X102500000Y-101500000D03*
X102500000Y-103700000D03*
X104100000Y-103700000D03*
X104100000Y-101500000D03*
%TD*%
D42*
%TO.C,J31*%
X109100000Y-132300000D03*
D27*
X111600000Y-132300000D03*
X114100000Y-132300000D03*
X116600000Y-132300000D03*
%TD*%
D36*
%TO.C,J28*%
X149475000Y-109750000D03*
D37*
X149475000Y-107250000D03*
X149475000Y-104750000D03*
X149475000Y-102250000D03*
%TD*%
D36*
%TO.C,J16*%
X176155000Y-109510000D03*
D37*
X176155000Y-107010000D03*
X176155000Y-104510000D03*
X176155000Y-102010000D03*
%TD*%
D40*
%TO.C,R13*%
X89175000Y-116700000D03*
X91000000Y-116700000D03*
%TD*%
D28*
%TO.C,J21*%
X122000000Y-125000000D03*
D19*
X123600000Y-123000000D03*
D20*
X126100000Y-123000000D03*
%TD*%
D36*
%TO.C,J15*%
X176155000Y-95950000D03*
D37*
X176155000Y-93450000D03*
X176155000Y-90950000D03*
X176155000Y-88450000D03*
%TD*%
D43*
%TO.C,U1*%
X114525000Y-99550000D03*
X114525000Y-100050000D03*
X114525000Y-100550000D03*
X114525000Y-101050000D03*
X114525000Y-101550000D03*
X114525000Y-102050000D03*
X114525000Y-102550000D03*
X114525000Y-103050000D03*
X114525000Y-103550000D03*
X114525000Y-104050000D03*
X114525000Y-104550000D03*
X114525000Y-105050000D03*
X114525000Y-105550000D03*
X114525000Y-106050000D03*
X114525000Y-106550000D03*
X114525000Y-107050000D03*
D44*
X116450000Y-108975000D03*
X116950000Y-108975000D03*
X117450000Y-108975000D03*
X117950000Y-108975000D03*
X118450000Y-108975000D03*
X118950000Y-108975000D03*
X119450000Y-108975000D03*
X119950000Y-108975000D03*
X120450000Y-108975000D03*
X120950000Y-108975000D03*
X121450000Y-108975000D03*
X121950000Y-108975000D03*
X122450000Y-108975000D03*
X122950000Y-108975000D03*
X123450000Y-108975000D03*
X123950000Y-108975000D03*
D43*
X125875000Y-107050000D03*
X125875000Y-106550000D03*
X125875000Y-106050000D03*
X125875000Y-105550000D03*
X125875000Y-105050000D03*
X125875000Y-104550000D03*
X125875000Y-104050000D03*
X125875000Y-103550000D03*
X125875000Y-103050000D03*
X125875000Y-102550000D03*
X125875000Y-102050000D03*
X125875000Y-101550000D03*
X125875000Y-101050000D03*
X125875000Y-100550000D03*
X125875000Y-100050000D03*
X125875000Y-99550000D03*
D44*
X123950000Y-97625000D03*
X123450000Y-97625000D03*
X122950000Y-97625000D03*
X122450000Y-97625000D03*
X121950000Y-97625000D03*
X121450000Y-97625000D03*
X120950000Y-97625000D03*
X120450000Y-97625000D03*
X119950000Y-97625000D03*
X119450000Y-97625000D03*
X118950000Y-97625000D03*
X118450000Y-97625000D03*
X117950000Y-97625000D03*
X117450000Y-97625000D03*
X116950000Y-97625000D03*
X116450000Y-97625000D03*
%TD*%
D38*
%TO.C,R2*%
X105100000Y-112875000D03*
X105100000Y-114700000D03*
%TD*%
D26*
%TO.C,J32*%
X153500000Y-94500000D03*
D27*
X151000000Y-94500000D03*
X148500000Y-94500000D03*
%TD*%
D16*
%TO.C,D1*%
X90900000Y-109900000D03*
X89150000Y-109900000D03*
%TD*%
D36*
%TO.C,J18*%
X176155000Y-136630000D03*
D37*
X176155000Y-134130000D03*
X176155000Y-131630000D03*
X176155000Y-129130000D03*
%TD*%
D40*
%TO.C,R6*%
X130275000Y-126200000D03*
X132100000Y-126200000D03*
%TD*%
D26*
%TO.C,J35*%
X141700000Y-84625000D03*
D27*
X139200000Y-84625000D03*
X136700000Y-84625000D03*
%TD*%
D33*
%TO.C,R3*%
X167200000Y-90912500D03*
X167200000Y-89087500D03*
%TD*%
D40*
%TO.C,R8*%
X130375000Y-128000000D03*
X132200000Y-128000000D03*
%TD*%
D33*
%TO.C,R4*%
X167100000Y-103912500D03*
X167100000Y-102087500D03*
%TD*%
D36*
%TO.C,J17*%
X176155000Y-123070000D03*
D37*
X176155000Y-120570000D03*
X176155000Y-118070000D03*
X176155000Y-115570000D03*
%TD*%
D42*
%TO.C,J29*%
X109100000Y-123100000D03*
D27*
X111600000Y-123100000D03*
X114100000Y-123100000D03*
X116600000Y-123100000D03*
%TD*%
D34*
%TO.C,H4*%
X89450000Y-138200000D03*
%TD*%
D35*
%TO.C,C6*%
X108500000Y-103225000D03*
X108500000Y-101500000D03*
%TD*%
%LPD*%
M02*
