%TF.GenerationSoftware,KiCad,Pcbnew,10.0.1-10.0.1~ubuntu24.04.1*%
%TF.CreationDate,2026-05-10T17:15:29+09:00*%
%TF.ProjectId,2026B-main,32303236-422d-46d6-9169-6e2e6b696361,rev?*%
%TF.SameCoordinates,Original*%
%TF.FileFunction,Soldermask,Top*%
%TF.FilePolarity,Negative*%
%FSLAX46Y46*%
G04 Gerber Fmt 4.6, Leading zero omitted, Abs format (unit mm)*
G04 Created by KiCad (PCBNEW 10.0.1-10.0.1~ubuntu24.04.1) date 2026-05-10 17:15:29*
%MOMM*%
%LPD*%
G01*
G04 APERTURE LIST*
G04 Aperture macros list*
%AMRoundRect*
0 Rectangle with rounded corners*
0 $1 Rounding radius*
0 $2 $3 $4 $5 $6 $7 $8 $9 X,Y pos of 4 corners*
0 Add a 4 corners polygon primitive as box body*
4,1,4,$2,$3,$4,$5,$6,$7,$8,$9,$2,$3,0*
0 Add four circle primitives for the rounded corners*
1,1,$1+$1,$2,$3*
1,1,$1+$1,$4,$5*
1,1,$1+$1,$6,$7*
1,1,$1+$1,$8,$9*
0 Add four rect primitives between the rounded corners*
20,1,$1+$1,$2,$3,$4,$5,0*
20,1,$1+$1,$4,$5,$6,$7,0*
20,1,$1+$1,$6,$7,$8,$9,0*
20,1,$1+$1,$8,$9,$2,$3,0*%
G04 Aperture macros list end*
%ADD10RoundRect,0.237500X-0.237500X0.300000X-0.237500X-0.300000X0.237500X-0.300000X0.237500X0.300000X0*%
%ADD11RoundRect,0.237500X0.287500X0.237500X-0.287500X0.237500X-0.287500X-0.237500X0.287500X-0.237500X0*%
%ADD12R,1.700000X1.700000*%
%ADD13C,1.700000*%
%ADD14RoundRect,0.250000X-0.600000X-0.750000X0.600000X-0.750000X0.600000X0.750000X-0.600000X0.750000X0*%
%ADD15O,1.700000X2.000000*%
%ADD16RoundRect,0.125000X-0.875000X0.125000X-0.875000X-0.125000X0.875000X-0.125000X0.875000X0.125000X0*%
%ADD17RoundRect,0.250000X-0.600000X0.750000X-0.600000X-0.750000X0.600000X-0.750000X0.600000X0.750000X0*%
%ADD18RoundRect,0.237500X-0.300000X-0.237500X0.300000X-0.237500X0.300000X0.237500X-0.300000X0.237500X0*%
%ADD19R,0.660400X1.041400*%
%ADD20RoundRect,0.250000X0.600000X0.725000X-0.600000X0.725000X-0.600000X-0.725000X0.600000X-0.725000X0*%
%ADD21O,1.700000X1.950000*%
%ADD22RoundRect,0.250000X0.750000X-0.600000X0.750000X0.600000X-0.750000X0.600000X-0.750000X-0.600000X0*%
%ADD23O,2.000000X1.700000*%
%ADD24RoundRect,0.139680X-0.912320X0.442320X-0.912320X-0.442320X0.912320X-0.442320X0.912320X0.442320X0*%
%ADD25RoundRect,0.700080X-2.821920X2.216920X-2.821920X-2.216920X2.821920X-2.216920X2.821920X2.216920X0*%
%ADD26RoundRect,0.237500X0.237500X-0.250000X0.237500X0.250000X-0.237500X0.250000X-0.237500X-0.250000X0*%
%ADD27RoundRect,0.237500X0.237500X-0.300000X0.237500X0.300000X-0.237500X0.300000X-0.237500X-0.300000X0*%
%ADD28RoundRect,0.250000X0.725000X-0.600000X0.725000X0.600000X-0.725000X0.600000X-0.725000X-0.600000X0*%
%ADD29O,1.950000X1.700000*%
%ADD30RoundRect,0.237500X-0.237500X0.250000X-0.237500X-0.250000X0.237500X-0.250000X0.237500X0.250000X0*%
%ADD31RoundRect,0.150000X-0.825000X-0.150000X0.825000X-0.150000X0.825000X0.150000X-0.825000X0.150000X0*%
%ADD32RoundRect,0.237500X-0.250000X-0.237500X0.250000X-0.237500X0.250000X0.237500X-0.250000X0.237500X0*%
%ADD33RoundRect,0.102000X-0.575000X-0.700000X0.575000X-0.700000X0.575000X0.700000X-0.575000X0.700000X0*%
%ADD34RoundRect,0.250000X-0.600000X-0.725000X0.600000X-0.725000X0.600000X0.725000X-0.600000X0.725000X0*%
%ADD35RoundRect,0.075000X-0.700000X-0.075000X0.700000X-0.075000X0.700000X0.075000X-0.700000X0.075000X0*%
%ADD36RoundRect,0.075000X-0.075000X-0.700000X0.075000X-0.700000X0.075000X0.700000X-0.075000X0.700000X0*%
G04 APERTURE END LIST*
D10*
%TO.C,C2*%
X96100000Y-94000000D03*
X96100000Y-95725000D03*
%TD*%
D11*
%TO.C,D2*%
X90950000Y-106700000D03*
X89200000Y-106700000D03*
%TD*%
D12*
%TO.C,J2*%
X119700000Y-82600000D03*
D13*
X117160000Y-82600000D03*
X114620000Y-82600000D03*
X112080000Y-82600000D03*
X109540000Y-82600000D03*
X107000000Y-82600000D03*
%TD*%
D14*
%TO.C,J6*%
X165650000Y-134355000D03*
D15*
X168150000Y-134355000D03*
%TD*%
D16*
%TO.C,J1*%
X92650000Y-92750000D03*
X92650000Y-93550000D03*
X92650000Y-94350000D03*
X92650000Y-95150000D03*
X92650000Y-95950000D03*
D17*
X92550000Y-89900000D03*
X87100000Y-89900000D03*
X92550000Y-98800000D03*
X87100000Y-98800000D03*
%TD*%
D18*
%TO.C,C4*%
X122975000Y-113600000D03*
X124700000Y-113600000D03*
%TD*%
D14*
%TO.C,J3*%
X137300000Y-134355000D03*
D15*
X139800000Y-134355000D03*
%TD*%
D19*
%TO.C,SW1*%
X97325001Y-111625000D03*
X97325001Y-115775000D03*
X99474999Y-111625000D03*
X99474999Y-115775000D03*
%TD*%
D20*
%TO.C,J33*%
X141800000Y-94425000D03*
D21*
X139300000Y-94425000D03*
X136800000Y-94425000D03*
%TD*%
D22*
%TO.C,J22*%
X141500000Y-118700000D03*
D23*
X141500000Y-116200000D03*
%TD*%
D14*
%TO.C,J23*%
X123400000Y-132300000D03*
D15*
X125900000Y-132300000D03*
%TD*%
D10*
%TO.C,C3*%
X97900000Y-93975000D03*
X97900000Y-95700000D03*
%TD*%
D14*
%TO.C,J5*%
X156200000Y-134355000D03*
D15*
X158700000Y-134355000D03*
%TD*%
D24*
%TO.C,U5*%
X102600000Y-92700000D03*
D25*
X109310000Y-94980000D03*
D24*
X102600000Y-97260000D03*
%TD*%
D20*
%TO.C,J19*%
X130500000Y-83300000D03*
D21*
X128000000Y-83300000D03*
X125500000Y-83300000D03*
%TD*%
D20*
%TO.C,J34*%
X153500000Y-84650000D03*
D21*
X151000000Y-84650000D03*
X148500000Y-84650000D03*
%TD*%
D26*
%TO.C,R5*%
X157900000Y-115612500D03*
X157900000Y-113787500D03*
%TD*%
D27*
%TO.C,C1*%
X102300000Y-114725000D03*
X102300000Y-113000000D03*
%TD*%
D22*
%TO.C,J20*%
X149375000Y-118750000D03*
D23*
X149375000Y-116250000D03*
%TD*%
D28*
%TO.C,J30*%
X141500000Y-109700000D03*
D29*
X141500000Y-107200000D03*
X141500000Y-104700000D03*
X141500000Y-102200000D03*
%TD*%
D30*
%TO.C,R7*%
X155900000Y-113800000D03*
X155900000Y-115625000D03*
%TD*%
D10*
%TO.C,C5*%
X106500000Y-101500000D03*
X106500000Y-103225000D03*
%TD*%
D14*
%TO.C,J4*%
X146750000Y-134355000D03*
D15*
X149250000Y-134355000D03*
%TD*%
D31*
%TO.C,U3*%
X162025000Y-93995000D03*
X162025000Y-95265000D03*
X162025000Y-96535000D03*
X162025000Y-97805000D03*
X166975000Y-97805000D03*
X166975000Y-96535000D03*
X166975000Y-95265000D03*
X166975000Y-93995000D03*
%TD*%
D32*
%TO.C,R14*%
X89200000Y-119100000D03*
X91025000Y-119100000D03*
%TD*%
D31*
%TO.C,U4*%
X161950000Y-106030000D03*
X161950000Y-107300000D03*
X161950000Y-108570000D03*
X161950000Y-109840000D03*
X166900000Y-109840000D03*
X166900000Y-108570000D03*
X166900000Y-107300000D03*
X166900000Y-106030000D03*
%TD*%
D26*
%TO.C,R1*%
X99900000Y-95700000D03*
X99900000Y-93875000D03*
%TD*%
D33*
%TO.C,Y1*%
X102500000Y-101500000D03*
X102500000Y-103700000D03*
X104100000Y-103700000D03*
X104100000Y-101500000D03*
%TD*%
D34*
%TO.C,J31*%
X109100000Y-132300000D03*
D21*
X111600000Y-132300000D03*
X114100000Y-132300000D03*
X116600000Y-132300000D03*
%TD*%
D28*
%TO.C,J28*%
X149475000Y-109750000D03*
D29*
X149475000Y-107250000D03*
X149475000Y-104750000D03*
X149475000Y-102250000D03*
%TD*%
D28*
%TO.C,J16*%
X176155000Y-109510000D03*
D29*
X176155000Y-107010000D03*
X176155000Y-104510000D03*
X176155000Y-102010000D03*
%TD*%
D32*
%TO.C,R13*%
X89175000Y-116700000D03*
X91000000Y-116700000D03*
%TD*%
D14*
%TO.C,J21*%
X123600000Y-123000000D03*
D15*
X126100000Y-123000000D03*
%TD*%
D28*
%TO.C,J15*%
X176155000Y-95950000D03*
D29*
X176155000Y-93450000D03*
X176155000Y-90950000D03*
X176155000Y-88450000D03*
%TD*%
D35*
%TO.C,U1*%
X114525000Y-99550000D03*
X114525000Y-100050000D03*
X114525000Y-100550000D03*
X114525000Y-101050000D03*
X114525000Y-101550000D03*
X114525000Y-102050000D03*
X114525000Y-102550000D03*
X114525000Y-103050000D03*
X114525000Y-103550000D03*
X114525000Y-104050000D03*
X114525000Y-104550000D03*
X114525000Y-105050000D03*
X114525000Y-105550000D03*
X114525000Y-106050000D03*
X114525000Y-106550000D03*
X114525000Y-107050000D03*
D36*
X116450000Y-108975000D03*
X116950000Y-108975000D03*
X117450000Y-108975000D03*
X117950000Y-108975000D03*
X118450000Y-108975000D03*
X118950000Y-108975000D03*
X119450000Y-108975000D03*
X119950000Y-108975000D03*
X120450000Y-108975000D03*
X120950000Y-108975000D03*
X121450000Y-108975000D03*
X121950000Y-108975000D03*
X122450000Y-108975000D03*
X122950000Y-108975000D03*
X123450000Y-108975000D03*
X123950000Y-108975000D03*
D35*
X125875000Y-107050000D03*
X125875000Y-106550000D03*
X125875000Y-106050000D03*
X125875000Y-105550000D03*
X125875000Y-105050000D03*
X125875000Y-104550000D03*
X125875000Y-104050000D03*
X125875000Y-103550000D03*
X125875000Y-103050000D03*
X125875000Y-102550000D03*
X125875000Y-102050000D03*
X125875000Y-101550000D03*
X125875000Y-101050000D03*
X125875000Y-100550000D03*
X125875000Y-100050000D03*
X125875000Y-99550000D03*
D36*
X123950000Y-97625000D03*
X123450000Y-97625000D03*
X122950000Y-97625000D03*
X122450000Y-97625000D03*
X121950000Y-97625000D03*
X121450000Y-97625000D03*
X120950000Y-97625000D03*
X120450000Y-97625000D03*
X119950000Y-97625000D03*
X119450000Y-97625000D03*
X118950000Y-97625000D03*
X118450000Y-97625000D03*
X117950000Y-97625000D03*
X117450000Y-97625000D03*
X116950000Y-97625000D03*
X116450000Y-97625000D03*
%TD*%
D30*
%TO.C,R2*%
X105100000Y-112875000D03*
X105100000Y-114700000D03*
%TD*%
D20*
%TO.C,J32*%
X153500000Y-94500000D03*
D21*
X151000000Y-94500000D03*
X148500000Y-94500000D03*
%TD*%
D11*
%TO.C,D1*%
X90900000Y-109900000D03*
X89150000Y-109900000D03*
%TD*%
D28*
%TO.C,J18*%
X176155000Y-136630000D03*
D29*
X176155000Y-134130000D03*
X176155000Y-131630000D03*
X176155000Y-129130000D03*
%TD*%
D32*
%TO.C,R6*%
X130275000Y-126200000D03*
X132100000Y-126200000D03*
%TD*%
D20*
%TO.C,J35*%
X141700000Y-84625000D03*
D21*
X139200000Y-84625000D03*
X136700000Y-84625000D03*
%TD*%
D26*
%TO.C,R3*%
X167200000Y-90912500D03*
X167200000Y-89087500D03*
%TD*%
D32*
%TO.C,R8*%
X130375000Y-128000000D03*
X132200000Y-128000000D03*
%TD*%
D26*
%TO.C,R4*%
X167100000Y-103912500D03*
X167100000Y-102087500D03*
%TD*%
D28*
%TO.C,J17*%
X176155000Y-123070000D03*
D29*
X176155000Y-120570000D03*
X176155000Y-118070000D03*
X176155000Y-115570000D03*
%TD*%
D34*
%TO.C,J29*%
X109100000Y-123100000D03*
D21*
X111600000Y-123100000D03*
X114100000Y-123100000D03*
X116600000Y-123100000D03*
%TD*%
D27*
%TO.C,C6*%
X108500000Y-103225000D03*
X108500000Y-101500000D03*
%TD*%
M02*
