%TF.GenerationSoftware,KiCad,Pcbnew,10.0.1-10.0.1~ubuntu24.04.1*%
%TF.CreationDate,2026-05-10T22:06:31+09:00*%
%TF.ProjectId,2026-Node,32303236-2d4e-46f6-9465-2e6b69636164,rev?*%
%TF.SameCoordinates,Original*%
%TF.FileFunction,Copper,L1,Top*%
%TF.FilePolarity,Positive*%
%FSLAX46Y46*%
G04 Gerber Fmt 4.6, Leading zero omitted, Abs format (unit mm)*
G04 Created by KiCad (PCBNEW 10.0.1-10.0.1~ubuntu24.04.1) date 2026-05-10 22:06:31*
%MOMM*%
%LPD*%
G01*
G04 APERTURE LIST*
G04 Aperture macros list*
%AMRoundRect*
0 Rectangle with rounded corners*
0 $1 Rounding radius*
0 $2 $3 $4 $5 $6 $7 $8 $9 X,Y pos of 4 corners*
0 Add a 4 corners polygon primitive as box body*
4,1,4,$2,$3,$4,$5,$6,$7,$8,$9,$2,$3,0*
0 Add four circle primitives for the rounded corners*
1,1,$1+$1,$2,$3*
1,1,$1+$1,$4,$5*
1,1,$1+$1,$6,$7*
1,1,$1+$1,$8,$9*
0 Add four rect primitives between the rounded corners*
20,1,$1+$1,$2,$3,$4,$5,0*
20,1,$1+$1,$4,$5,$6,$7,0*
20,1,$1+$1,$6,$7,$8,$9,0*
20,1,$1+$1,$8,$9,$2,$3,0*%
G04 Aperture macros list end*
%TA.AperFunction,ComponentPad*%
%ADD10RoundRect,0.250000X0.600000X0.725000X-0.600000X0.725000X-0.600000X-0.725000X0.600000X-0.725000X0*%
%TD*%
%TA.AperFunction,ComponentPad*%
%ADD11O,1.700000X1.950000*%
%TD*%
%TA.AperFunction,SMDPad,CuDef*%
%ADD12RoundRect,0.237500X-0.237500X0.300000X-0.237500X-0.300000X0.237500X-0.300000X0.237500X0.300000X0*%
%TD*%
%TA.AperFunction,SMDPad,CuDef*%
%ADD13RoundRect,0.237500X0.250000X0.237500X-0.250000X0.237500X-0.250000X-0.237500X0.250000X-0.237500X0*%
%TD*%
%TA.AperFunction,SMDPad,CuDef*%
%ADD14RoundRect,0.075000X-0.700000X-0.075000X0.700000X-0.075000X0.700000X0.075000X-0.700000X0.075000X0*%
%TD*%
%TA.AperFunction,SMDPad,CuDef*%
%ADD15RoundRect,0.075000X-0.075000X-0.700000X0.075000X-0.700000X0.075000X0.700000X-0.075000X0.700000X0*%
%TD*%
%TA.AperFunction,SMDPad,CuDef*%
%ADD16RoundRect,0.115200X-0.364800X-0.834800X0.364800X-0.834800X0.364800X0.834800X-0.364800X0.834800X0*%
%TD*%
%TA.AperFunction,SMDPad,CuDef*%
%ADD17RoundRect,0.675600X-2.139400X-2.744400X2.139400X-2.744400X2.139400X2.744400X-2.139400X2.744400X0*%
%TD*%
%TA.AperFunction,ComponentPad*%
%ADD18R,1.700000X1.700000*%
%TD*%
%TA.AperFunction,ComponentPad*%
%ADD19C,1.700000*%
%TD*%
%TA.AperFunction,SMDPad,CuDef*%
%ADD20RoundRect,0.150000X-0.825000X-0.150000X0.825000X-0.150000X0.825000X0.150000X-0.825000X0.150000X0*%
%TD*%
%TA.AperFunction,SMDPad,CuDef*%
%ADD21RoundRect,0.237500X0.300000X0.237500X-0.300000X0.237500X-0.300000X-0.237500X0.300000X-0.237500X0*%
%TD*%
%TA.AperFunction,SMDPad,CuDef*%
%ADD22RoundRect,0.150000X0.825000X0.150000X-0.825000X0.150000X-0.825000X-0.150000X0.825000X-0.150000X0*%
%TD*%
%TA.AperFunction,SMDPad,CuDef*%
%ADD23R,1.150000X1.400000*%
%TD*%
%TA.AperFunction,SMDPad,CuDef*%
%ADD24RoundRect,0.237500X-0.237500X0.250000X-0.237500X-0.250000X0.237500X-0.250000X0.237500X0.250000X0*%
%TD*%
%TA.AperFunction,SMDPad,CuDef*%
%ADD25RoundRect,0.237500X-0.300000X-0.237500X0.300000X-0.237500X0.300000X0.237500X-0.300000X0.237500X0*%
%TD*%
%TA.AperFunction,SMDPad,CuDef*%
%ADD26RoundRect,0.237500X-0.250000X-0.237500X0.250000X-0.237500X0.250000X0.237500X-0.250000X0.237500X0*%
%TD*%
%TA.AperFunction,ComponentPad*%
%ADD27RoundRect,0.250000X-0.600000X-0.725000X0.600000X-0.725000X0.600000X0.725000X-0.600000X0.725000X0*%
%TD*%
%TA.AperFunction,SMDPad,CuDef*%
%ADD28R,0.660400X1.041400*%
%TD*%
%TA.AperFunction,ViaPad*%
%ADD29C,0.600000*%
%TD*%
%TA.AperFunction,Conductor*%
%ADD30C,0.250000*%
%TD*%
%TA.AperFunction,Conductor*%
%ADD31C,0.500000*%
%TD*%
%TA.AperFunction,Conductor*%
%ADD32C,0.200000*%
%TD*%
G04 APERTURE END LIST*
D10*
%TO.P,J6,1,Pin_1_1*%
%TO.N,GND*%
X152375000Y-36220000D03*
D11*
%TO.P,J6,2,Pin_2_2*%
%TO.N,+5V*%
X149875000Y-36220000D03*
%TO.P,J6,3,Pin_3_3*%
%TO.N,CAN1_H*%
X147375000Y-36220000D03*
%TO.P,J6,4,Pin_4_4*%
%TO.N,CAN1_L*%
X144875000Y-36220000D03*
%TD*%
D12*
%TO.P,C3,1*%
%TO.N,Net-(U1-PH1)*%
X130700000Y-89675000D03*
%TO.P,C3,2*%
%TO.N,GND*%
X130700000Y-91400000D03*
%TD*%
D13*
%TO.P,R4,1*%
%TO.N,CAN2_L*%
X130912500Y-96475000D03*
%TO.P,R4,2*%
%TO.N,Net-(J2-Pin_2)*%
X129087500Y-96475000D03*
%TD*%
D14*
%TO.P,U1,1,VBAT_1*%
%TO.N,+3.3V*%
X133100000Y-82900000D03*
%TO.P,U1,2,PC13_2*%
%TO.N,unconnected-(U1-PC13-Pad2)*%
X133100000Y-83400000D03*
%TO.P,U1,3,PC14_3*%
%TO.N,unconnected-(U1-PC14-Pad3)*%
X133100000Y-83900000D03*
%TO.P,U1,4,PC15_4*%
%TO.N,unconnected-(U1-PC15-Pad4)*%
X133100000Y-84400000D03*
%TO.P,U1,5,PH0_5*%
%TO.N,Net-(U1-PH0)*%
X133100000Y-84900000D03*
%TO.P,U1,6,PH1_6*%
%TO.N,Net-(U1-PH1)*%
X133100000Y-85400000D03*
%TO.P,U1,7,NRST_7*%
%TO.N,NRST*%
X133100000Y-85900000D03*
%TO.P,U1,8,PC0_8*%
%TO.N,unconnected-(U1-PC0-Pad8)*%
X133100000Y-86400000D03*
%TO.P,U1,9,PC1_9*%
%TO.N,unconnected-(U1-PC1-Pad9)*%
X133100000Y-86900000D03*
%TO.P,U1,10,PC2_10*%
%TO.N,unconnected-(U1-PC2-Pad10)*%
X133100000Y-87400000D03*
%TO.P,U1,11,PC3_11*%
%TO.N,unconnected-(U1-PC3-Pad11)*%
X133100000Y-87900000D03*
%TO.P,U1,12,VSSA_12*%
%TO.N,GND*%
X133100000Y-88400000D03*
%TO.P,U1,13,VDDA_13*%
%TO.N,+3.3V*%
X133100000Y-88900000D03*
%TO.P,U1,14,PA0_14*%
%TO.N,unconnected-(U1-PA0-Pad14)*%
X133100000Y-89400000D03*
%TO.P,U1,15,PA1_15*%
%TO.N,unconnected-(U1-PA1-Pad15)*%
X133100000Y-89900000D03*
%TO.P,U1,16,PA2_16*%
%TO.N,unconnected-(U1-PA2-Pad16)*%
X133100000Y-90400000D03*
D15*
%TO.P,U1,17,PA3_17*%
%TO.N,unconnected-(U1-PA3-Pad17)*%
X135025000Y-92325000D03*
%TO.P,U1,18,VSS_18*%
%TO.N,GND*%
X135525000Y-92325000D03*
%TO.P,U1,19,VDD_19*%
%TO.N,+3.3V*%
X136025000Y-92325000D03*
%TO.P,U1,20,PA4_20*%
%TO.N,unconnected-(U1-PA4-Pad20)*%
X136525000Y-92325000D03*
%TO.P,U1,21,PA5_21*%
%TO.N,unconnected-(U1-PA5-Pad21)*%
X137025000Y-92325000D03*
%TO.P,U1,22,PA6_22*%
%TO.N,unconnected-(U1-PA6-Pad22)*%
X137525000Y-92325000D03*
%TO.P,U1,23,PA7_23*%
%TO.N,unconnected-(U1-PA7-Pad23)*%
X138025000Y-92325000D03*
%TO.P,U1,24,PC4_24*%
%TO.N,unconnected-(U1-PC4-Pad24)*%
X138525000Y-92325000D03*
%TO.P,U1,25,PC5_25*%
%TO.N,unconnected-(U1-PC5-Pad25)*%
X139025000Y-92325000D03*
%TO.P,U1,26,PB0_26*%
%TO.N,unconnected-(U1-PB0-Pad26)*%
X139525000Y-92325000D03*
%TO.P,U1,27,PB1_27*%
%TO.N,unconnected-(U1-PB1-Pad27)*%
X140025000Y-92325000D03*
%TO.P,U1,28,PB2_28*%
%TO.N,unconnected-(U1-PB2-Pad28)*%
X140525000Y-92325000D03*
%TO.P,U1,29,PB10_29*%
%TO.N,unconnected-(U1-PB10-Pad29)*%
X141025000Y-92325000D03*
%TO.P,U1,30,VCAP_1_30*%
%TO.N,Net-(U1-VCAP_1)*%
X141525000Y-92325000D03*
%TO.P,U1,31,VSS_31*%
%TO.N,GND*%
X142025000Y-92325000D03*
%TO.P,U1,32,VDD_32*%
%TO.N,+3.3V*%
X142525000Y-92325000D03*
D14*
%TO.P,U1,33,PB12_33*%
%TO.N,CAN2_RX*%
X144450000Y-90400000D03*
%TO.P,U1,34,PB13_34*%
%TO.N,CAN2_TX*%
X144450000Y-89900000D03*
%TO.P,U1,35,PB14_35*%
%TO.N,unconnected-(U1-PB14-Pad35)*%
X144450000Y-89400000D03*
%TO.P,U1,36,PB15_36*%
%TO.N,unconnected-(U1-PB15-Pad36)*%
X144450000Y-88900000D03*
%TO.P,U1,37,PC6_37*%
%TO.N,unconnected-(U1-PC6-Pad37)*%
X144450000Y-88400000D03*
%TO.P,U1,38,PC7_38*%
%TO.N,unconnected-(U1-PC7-Pad38)*%
X144450000Y-87900000D03*
%TO.P,U1,39,PC8_39*%
%TO.N,unconnected-(U1-PC8-Pad39)*%
X144450000Y-87400000D03*
%TO.P,U1,40,PC9_40*%
%TO.N,unconnected-(U1-PC9-Pad40)*%
X144450000Y-86900000D03*
%TO.P,U1,41,PA8_41*%
%TO.N,unconnected-(U1-PA8-Pad41)*%
X144450000Y-86400000D03*
%TO.P,U1,42,PA9_42*%
%TO.N,unconnected-(U1-PA9-Pad42)*%
X144450000Y-85900000D03*
%TO.P,U1,43,PA10_43*%
%TO.N,unconnected-(U1-PA10-Pad43)*%
X144450000Y-85400000D03*
%TO.P,U1,44,PA11_44*%
%TO.N,CAN1_RX*%
X144450000Y-84900000D03*
%TO.P,U1,45,PA12_45*%
%TO.N,CAN1_TX*%
X144450000Y-84400000D03*
%TO.P,U1,46,PA13_46*%
%TO.N,SWDIO*%
X144450000Y-83900000D03*
%TO.P,U1,47,VSS_47*%
%TO.N,GND*%
X144450000Y-83400000D03*
%TO.P,U1,48,VDD_48*%
%TO.N,+3.3V*%
X144450000Y-82900000D03*
D15*
%TO.P,U1,49,PA14_49*%
%TO.N,SWCLK*%
X142525000Y-80975000D03*
%TO.P,U1,50,PA15_50*%
%TO.N,unconnected-(U1-PA15-Pad50)*%
X142025000Y-80975000D03*
%TO.P,U1,51,PC10_51*%
%TO.N,unconnected-(U1-PC10-Pad51)*%
X141525000Y-80975000D03*
%TO.P,U1,52,PC11_52*%
%TO.N,unconnected-(U1-PC11-Pad52)*%
X141025000Y-80975000D03*
%TO.P,U1,53,PC12_53*%
%TO.N,unconnected-(U1-PC12-Pad53)*%
X140525000Y-80975000D03*
%TO.P,U1,54,PD2_54*%
%TO.N,unconnected-(U1-PD2-Pad54)*%
X140025000Y-80975000D03*
%TO.P,U1,55,PB3_55*%
%TO.N,SWO*%
X139525000Y-80975000D03*
%TO.P,U1,56,PB4_56*%
%TO.N,unconnected-(U1-PB4-Pad56)*%
X139025000Y-80975000D03*
%TO.P,U1,57,PB5_57*%
%TO.N,unconnected-(U1-PB5-Pad57)*%
X138525000Y-80975000D03*
%TO.P,U1,58,PB6_58*%
%TO.N,unconnected-(U1-PB6-Pad58)*%
X138025000Y-80975000D03*
%TO.P,U1,59,PB7_59*%
%TO.N,unconnected-(U1-PB7-Pad59)*%
X137525000Y-80975000D03*
%TO.P,U1,60,BOOT0_60*%
%TO.N,Net-(U1-BOOT0)*%
X137025000Y-80975000D03*
%TO.P,U1,61,PB8_61*%
%TO.N,unconnected-(U1-PB8-Pad61)*%
X136525000Y-80975000D03*
%TO.P,U1,62,PB9_62*%
%TO.N,unconnected-(U1-PB9-Pad62)*%
X136025000Y-80975000D03*
%TO.P,U1,63,VSS_63*%
%TO.N,GND*%
X135525000Y-80975000D03*
%TO.P,U1,64,VDD_64*%
%TO.N,+3.3V*%
X135025000Y-80975000D03*
%TD*%
D16*
%TO.P,U2,1,VIN_1*%
%TO.N,+5V*%
X144170000Y-110315000D03*
D17*
%TO.P,U2,2,GND_2*%
%TO.N,GND*%
X146450000Y-103605000D03*
D16*
%TO.P,U2,3,VOUT_3*%
%TO.N,+3.3V*%
X148730000Y-110315000D03*
%TD*%
D18*
%TO.P,J1,1,Pin_1_1*%
%TO.N,CAN1_H*%
X131550000Y-64400000D03*
D19*
%TO.P,J1,2,Pin_2_2*%
%TO.N,Net-(J1-Pin_2)*%
X131550000Y-61860000D03*
%TD*%
D20*
%TO.P,U3,1,TXD_1*%
%TO.N,CAN1_TX*%
X138150000Y-66762500D03*
%TO.P,U3,2,VSS_2*%
%TO.N,GND*%
X138150000Y-68032500D03*
%TO.P,U3,3,VDD_3*%
%TO.N,+5V*%
X138150000Y-69302500D03*
%TO.P,U3,4,RXD_4*%
%TO.N,CAN1_RX*%
X138150000Y-70572500D03*
%TO.P,U3,5,SPLIT_5*%
%TO.N,unconnected-(U3-SPLIT-Pad5)*%
X143100000Y-70572500D03*
%TO.P,U3,6,CANL_6*%
%TO.N,CAN1_L*%
X143100000Y-69302500D03*
%TO.P,U3,7,CANH_7*%
%TO.N,CAN1_H*%
X143100000Y-68032500D03*
%TO.P,U3,8,STBY_8*%
%TO.N,GND*%
X143100000Y-66762500D03*
%TD*%
D21*
%TO.P,C5,1*%
%TO.N,+3.3V*%
X148700000Y-112625000D03*
%TO.P,C5,2*%
%TO.N,GND*%
X146975000Y-112625000D03*
%TD*%
D22*
%TO.P,U4,1,TXD_1*%
%TO.N,CAN2_TX*%
X140100000Y-103287500D03*
%TO.P,U4,2,VSS_2*%
%TO.N,GND*%
X140100000Y-102017500D03*
%TO.P,U4,3,VDD_3*%
%TO.N,+5V*%
X140100000Y-100747500D03*
%TO.P,U4,4,RXD_4*%
%TO.N,CAN2_RX*%
X140100000Y-99477500D03*
%TO.P,U4,5,SPLIT_5*%
%TO.N,unconnected-(U4-SPLIT-Pad5)*%
X135150000Y-99477500D03*
%TO.P,U4,6,CANL_6*%
%TO.N,CAN2_L*%
X135150000Y-100747500D03*
%TO.P,U4,7,CANH_7*%
%TO.N,CAN2_H*%
X135150000Y-102017500D03*
%TO.P,U4,8,STBY_8*%
%TO.N,GND*%
X135150000Y-103287500D03*
%TD*%
D23*
%TO.P,Y1,1,1_1*%
%TO.N,Net-(U1-PH0)*%
X128550000Y-84125000D03*
%TO.P,Y1,2,G_2*%
%TO.N,GND*%
X128550000Y-86325000D03*
%TO.P,Y1,3,3_3*%
%TO.N,Net-(U1-PH1)*%
X130150000Y-86325000D03*
%TO.P,Y1,4,G_4*%
%TO.N,GND*%
X130150000Y-84125000D03*
%TD*%
D10*
%TO.P,J4,1,Pin_1_1*%
%TO.N,GND*%
X137625000Y-36270000D03*
D11*
%TO.P,J4,2,Pin_2_2*%
%TO.N,+5V*%
X135125000Y-36270000D03*
%TO.P,J4,3,Pin_3_3*%
%TO.N,CAN1_H*%
X132625000Y-36270000D03*
%TO.P,J4,4,Pin_4_4*%
%TO.N,CAN1_L*%
X130125000Y-36270000D03*
%TD*%
D10*
%TO.P,J3,1,Pin_1_1*%
%TO.N,GND*%
X152400000Y-43475000D03*
D11*
%TO.P,J3,2,Pin_2_2*%
%TO.N,+5V*%
X149900000Y-43475000D03*
%TO.P,J3,3,Pin_3_3*%
%TO.N,CAN1_H*%
X147400000Y-43475000D03*
%TO.P,J3,4,Pin_4_4*%
%TO.N,CAN1_L*%
X144900000Y-43475000D03*
%TD*%
D13*
%TO.P,R2,1*%
%TO.N,GND*%
X138900000Y-78500000D03*
%TO.P,R2,2*%
%TO.N,Net-(U1-BOOT0)*%
X137075000Y-78500000D03*
%TD*%
D24*
%TO.P,R3,1*%
%TO.N,Net-(J1-Pin_2)*%
X145725000Y-63400000D03*
%TO.P,R3,2*%
%TO.N,CAN1_L*%
X145725000Y-65225000D03*
%TD*%
D12*
%TO.P,C2,1*%
%TO.N,Net-(U1-PH0)*%
X128950000Y-89675000D03*
%TO.P,C2,2*%
%TO.N,GND*%
X128950000Y-91400000D03*
%TD*%
D21*
%TO.P,C4,1*%
%TO.N,+5V*%
X144175000Y-112650000D03*
%TO.P,C4,2*%
%TO.N,GND*%
X142450000Y-112650000D03*
%TD*%
D25*
%TO.P,C6,1*%
%TO.N,Net-(U1-VCAP_1)*%
X141525000Y-96125000D03*
%TO.P,C6,2*%
%TO.N,GND*%
X143250000Y-96125000D03*
%TD*%
%TO.P,C1,1*%
%TO.N,Net-(SW1-A)*%
X132962500Y-78475000D03*
%TO.P,C1,2*%
%TO.N,GND*%
X134687500Y-78475000D03*
%TD*%
D26*
%TO.P,R1,1*%
%TO.N,Net-(SW1-A)*%
X132862500Y-74325000D03*
%TO.P,R1,2*%
%TO.N,NRST*%
X134687500Y-74325000D03*
%TD*%
D27*
%TO.P,J7,1,Pin_1_1*%
%TO.N,GND*%
X129050000Y-107925000D03*
D11*
%TO.P,J7,2,Pin_2_2*%
%TO.N,+5V*%
X131550000Y-107925000D03*
%TO.P,J7,3,Pin_3_3*%
%TO.N,CAN2_H*%
X134050000Y-107925000D03*
%TO.P,J7,4,Pin_4_4*%
%TO.N,CAN2_L*%
X136550000Y-107925000D03*
%TD*%
D28*
%TO.P,SW1,1,1_1*%
%TO.N,GND*%
X128700002Y-74350000D03*
%TO.P,SW1,2,2_2*%
X128700002Y-78500000D03*
%TO.P,SW1,3,K_3*%
%TO.N,Net-(SW1-A)*%
X130850000Y-74350000D03*
%TO.P,SW1,4,A_4*%
X130850000Y-78500000D03*
%TD*%
D18*
%TO.P,J2,1,Pin_1_1*%
%TO.N,CAN2_H*%
X130050000Y-99835000D03*
D19*
%TO.P,J2,2,Pin_2_2*%
%TO.N,Net-(J2-Pin_2)*%
X130050000Y-102375000D03*
%TD*%
D10*
%TO.P,J5,1,Pin_1_1*%
%TO.N,GND*%
X137625000Y-43650000D03*
D11*
%TO.P,J5,2,Pin_2_2*%
%TO.N,+5V*%
X135125000Y-43650000D03*
%TO.P,J5,3,Pin_3_3*%
%TO.N,CAN1_H*%
X132625000Y-43650000D03*
%TO.P,J5,4,Pin_4_4*%
%TO.N,CAN1_L*%
X130125000Y-43650000D03*
%TD*%
D18*
%TO.P,J8,1,Pin_1_1*%
%TO.N,SWO*%
X155100000Y-68655000D03*
D19*
%TO.P,J8,2,Pin_2_2*%
%TO.N,NRST*%
X155100000Y-71195000D03*
%TO.P,J8,3,Pin_3_3*%
%TO.N,SWDIO*%
X155100000Y-73735000D03*
%TO.P,J8,4,Pin_4_4*%
%TO.N,GND*%
X155100000Y-76275000D03*
%TO.P,J8,5,Pin_5_5*%
%TO.N,SWCLK*%
X155100000Y-78815000D03*
%TO.P,J8,6,Pin_6_6*%
%TO.N,+3.3V*%
X155100000Y-81355000D03*
%TD*%
D29*
%TO.N,GND*%
X146500000Y-98150000D03*
X127075000Y-53700000D03*
X130325000Y-31375000D03*
X152325000Y-108475000D03*
X126325000Y-32375000D03*
X150325000Y-32375000D03*
X139325000Y-31375000D03*
X155350000Y-95625000D03*
X128950000Y-91400000D03*
X145325000Y-31375000D03*
X127800000Y-56150000D03*
X137575000Y-97975000D03*
X135325000Y-31375000D03*
X139675000Y-107600000D03*
X133325000Y-32375000D03*
X130350000Y-72500000D03*
X156350000Y-92775000D03*
X134350000Y-72500000D03*
X136575000Y-96975000D03*
X153350000Y-94625000D03*
X134575000Y-96975000D03*
X127075000Y-41575000D03*
X155325000Y-107475000D03*
X137325000Y-33375000D03*
X152350000Y-97625000D03*
X152350000Y-95625000D03*
X148850000Y-95175000D03*
X151325000Y-33375000D03*
X156350000Y-103600000D03*
X152325000Y-105475000D03*
X139675000Y-104600000D03*
X135775000Y-71700000D03*
X134325000Y-33375000D03*
X156350000Y-89775000D03*
X155400000Y-86775000D03*
X127775000Y-48050000D03*
X153325000Y-108475000D03*
X127800000Y-51150000D03*
X156225000Y-50925000D03*
X135775000Y-70700000D03*
X139325000Y-77200000D03*
X144325000Y-33375000D03*
X152350000Y-99600000D03*
X127075000Y-59700000D03*
X155350000Y-90775000D03*
X154400000Y-84775000D03*
X144950000Y-99125000D03*
X135575000Y-96975000D03*
X155575000Y-55525000D03*
X153400000Y-87775000D03*
X156825000Y-40450000D03*
X153350000Y-91775000D03*
X152400000Y-87775000D03*
X155350000Y-98625000D03*
X133575000Y-95975000D03*
X150325000Y-31375000D03*
X149250000Y-86500000D03*
X141675000Y-108600000D03*
X156825000Y-49450000D03*
X154325000Y-106475000D03*
X127200000Y-74475000D03*
X149250000Y-87500000D03*
X156225000Y-37925000D03*
X154325000Y-33375000D03*
X127075000Y-51700000D03*
X141675000Y-106600000D03*
X156825000Y-62550000D03*
X127075000Y-55700000D03*
X153325000Y-104475000D03*
X153325000Y-106475000D03*
X129475000Y-80525000D03*
X152350000Y-101600000D03*
X153350000Y-92775000D03*
X133325000Y-31375000D03*
X156825000Y-42450000D03*
X152350000Y-93775000D03*
X155575000Y-61525000D03*
X154350000Y-100600000D03*
X141325000Y-31375000D03*
X137400000Y-82300000D03*
X154325000Y-32375000D03*
X127800000Y-53150000D03*
X138900000Y-78500000D03*
X155575000Y-48525000D03*
X136325000Y-33375000D03*
X133575000Y-93975000D03*
X156350000Y-96625000D03*
X154400000Y-87775000D03*
X140675000Y-105600000D03*
X148850000Y-97175000D03*
X156350000Y-98625000D03*
X134575000Y-94975000D03*
X130700000Y-91400000D03*
X152350000Y-102600000D03*
X140325000Y-33375000D03*
X148250000Y-88500000D03*
X149325000Y-31375000D03*
X153350000Y-99600000D03*
X152350000Y-96625000D03*
X127075000Y-46575000D03*
X156225000Y-31925000D03*
X142450000Y-112650000D03*
X153350000Y-90775000D03*
X152350000Y-103600000D03*
X156825000Y-47450000D03*
X147250000Y-86500000D03*
X127675000Y-44050000D03*
X139675000Y-105600000D03*
X156825000Y-67550000D03*
X131775000Y-70700000D03*
X154350000Y-95625000D03*
X156325000Y-104475000D03*
X155325000Y-33375000D03*
X147775000Y-92150000D03*
X155400000Y-84775000D03*
X154400000Y-86775000D03*
X156825000Y-46450000D03*
X137575000Y-96975000D03*
X137575000Y-93975000D03*
X127525000Y-67225000D03*
X154350000Y-89775000D03*
X155575000Y-47525000D03*
X155350000Y-92775000D03*
X155325000Y-105475000D03*
X153350000Y-97625000D03*
X146250000Y-86500000D03*
X126325000Y-33375000D03*
X142325000Y-31375000D03*
X133575000Y-97975000D03*
X127800000Y-50150000D03*
X127325000Y-31375000D03*
X139675000Y-108600000D03*
X148850000Y-90175000D03*
X156825000Y-64550000D03*
X141675000Y-107600000D03*
X156825000Y-41450000D03*
X127725000Y-43050000D03*
X156325000Y-108475000D03*
X136575000Y-95975000D03*
X155325000Y-31375000D03*
X137575000Y-94975000D03*
X155575000Y-44525000D03*
X138650000Y-76225000D03*
X141525000Y-84050000D03*
X155575000Y-59525000D03*
X134575000Y-95975000D03*
X128550000Y-86325000D03*
X152325000Y-32375000D03*
X156225000Y-32925000D03*
X153325000Y-105475000D03*
X156825000Y-39450000D03*
X131775000Y-71700000D03*
X155575000Y-58525000D03*
X156350000Y-100600000D03*
X145325000Y-33375000D03*
X127200000Y-75475000D03*
X155350000Y-97625000D03*
X154350000Y-97625000D03*
X127725000Y-46075000D03*
X156825000Y-51550000D03*
X128700002Y-74350000D03*
X156225000Y-44925000D03*
X156825000Y-60550000D03*
X127525000Y-61225000D03*
X155325000Y-104475000D03*
X156825000Y-31450000D03*
X132775000Y-70700000D03*
X148850000Y-96175000D03*
X127700000Y-45150000D03*
X127525000Y-63225000D03*
X154350000Y-103600000D03*
X155400000Y-87775000D03*
X156225000Y-46925000D03*
X155400000Y-85775000D03*
X152350000Y-91775000D03*
X131350000Y-72500000D03*
X156225000Y-45925000D03*
X155350000Y-103600000D03*
X131050000Y-87975000D03*
X140675000Y-108600000D03*
X156825000Y-61550000D03*
X146450000Y-103605000D03*
X128400000Y-80525000D03*
X144325000Y-31375000D03*
X128775000Y-70700000D03*
X139575000Y-94975000D03*
X156825000Y-38450000D03*
X133775000Y-70700000D03*
X135575000Y-97975000D03*
X152350000Y-90775000D03*
X127075000Y-49575000D03*
X127075000Y-43575000D03*
X147775000Y-90150000D03*
X153350000Y-93775000D03*
X131325000Y-33375000D03*
X156825000Y-35450000D03*
X149325000Y-33375000D03*
X152400000Y-84775000D03*
X153325000Y-33375000D03*
X156350000Y-101600000D03*
X151325000Y-32375000D03*
X146925000Y-99125000D03*
X154325000Y-104475000D03*
X127800000Y-57150000D03*
X155575000Y-52525000D03*
X138325000Y-31375000D03*
X131325000Y-31375000D03*
X142325000Y-33375000D03*
X153350000Y-103600000D03*
X152325000Y-33375000D03*
X127750000Y-47050000D03*
X147200000Y-97650000D03*
X128975000Y-88050000D03*
X127075000Y-58700000D03*
X156400000Y-88775000D03*
X148250000Y-87500000D03*
X148850000Y-91175000D03*
X129325000Y-33375000D03*
X127075000Y-57700000D03*
X127525000Y-65225000D03*
X139575000Y-95975000D03*
X132325000Y-33375000D03*
X146075000Y-99125000D03*
X133775000Y-71700000D03*
X152325000Y-107475000D03*
X154325000Y-108475000D03*
X138325000Y-33375000D03*
X127075000Y-60700000D03*
X140425000Y-76250000D03*
X156825000Y-37450000D03*
X148850000Y-93175000D03*
X136575000Y-97975000D03*
X127200000Y-77475000D03*
X156825000Y-68550000D03*
X148250000Y-85500000D03*
X129775000Y-71700000D03*
X152350000Y-89775000D03*
X127200000Y-79475000D03*
X153400000Y-88775000D03*
X135575000Y-93975000D03*
X127800000Y-55150000D03*
X135575000Y-95975000D03*
X127200000Y-78475000D03*
X152400000Y-86775000D03*
X127525000Y-64225000D03*
X153400000Y-85775000D03*
X138325000Y-32375000D03*
X155350000Y-100600000D03*
X143325000Y-32375000D03*
X147775000Y-97150000D03*
X156225000Y-36925000D03*
X147250000Y-87500000D03*
X141325000Y-33375000D03*
X139575000Y-97975000D03*
X147325000Y-31375000D03*
X154350000Y-101600000D03*
X154350000Y-102600000D03*
X156225000Y-49925000D03*
X147325000Y-32375000D03*
X156225000Y-41925000D03*
X156225000Y-48925000D03*
X154325000Y-105475000D03*
X127075000Y-52700000D03*
X154350000Y-91775000D03*
X146325000Y-31375000D03*
X142725000Y-94275000D03*
X148325000Y-32375000D03*
X146250000Y-88500000D03*
X140325000Y-32375000D03*
X156225000Y-40925000D03*
X136575000Y-93975000D03*
X148850000Y-94175000D03*
X156350000Y-93775000D03*
X130325000Y-32375000D03*
X130150000Y-84125000D03*
X135325000Y-32375000D03*
X154350000Y-90775000D03*
X153350000Y-89775000D03*
X147775000Y-91150000D03*
X140675000Y-106600000D03*
X152400000Y-88775000D03*
X156225000Y-38925000D03*
X148325000Y-31375000D03*
X156825000Y-45450000D03*
X134325000Y-32375000D03*
X153325000Y-32375000D03*
X148250000Y-89500000D03*
X141675000Y-105600000D03*
X130775000Y-71700000D03*
X126325000Y-31375000D03*
X156825000Y-32450000D03*
X155575000Y-50525000D03*
X132325000Y-32375000D03*
X149250000Y-85500000D03*
X147775000Y-96150000D03*
X128325000Y-32375000D03*
X147250000Y-85500000D03*
X149250000Y-88500000D03*
X153350000Y-101600000D03*
X152350000Y-94625000D03*
X147775000Y-95150000D03*
X145575000Y-98175000D03*
X134725000Y-90675000D03*
X147100000Y-96675000D03*
X152325000Y-31375000D03*
X132775000Y-71700000D03*
X137575000Y-95975000D03*
X156325000Y-107475000D03*
X156825000Y-33450000D03*
X155575000Y-45525000D03*
X156225000Y-33925000D03*
X154400000Y-88775000D03*
X156825000Y-54550000D03*
X156350000Y-102600000D03*
X127525000Y-59225000D03*
X156225000Y-43925000D03*
X153350000Y-95625000D03*
X127325000Y-32375000D03*
X136325000Y-32375000D03*
X127075000Y-45575000D03*
X147325000Y-33375000D03*
X153400000Y-86775000D03*
X143325000Y-31375000D03*
X155575000Y-46525000D03*
X127200000Y-72475000D03*
X132350000Y-72500000D03*
X156225000Y-39925000D03*
X156825000Y-43450000D03*
X146325000Y-32375000D03*
X156225000Y-42925000D03*
X130475000Y-80500000D03*
X156825000Y-69550000D03*
X149325000Y-32375000D03*
X156400000Y-86775000D03*
X156825000Y-57550000D03*
X155350000Y-96625000D03*
X133575000Y-96975000D03*
X156225000Y-35925000D03*
X130325000Y-33375000D03*
X155575000Y-62525000D03*
X146250000Y-87500000D03*
X152325000Y-104475000D03*
X153350000Y-96625000D03*
X127525000Y-62225000D03*
X155575000Y-63525000D03*
X148850000Y-92175000D03*
X150325000Y-33375000D03*
X155575000Y-51525000D03*
X154325000Y-107475000D03*
X141675000Y-104600000D03*
X148250000Y-86500000D03*
X155350000Y-93775000D03*
X127525000Y-66225000D03*
X128350000Y-72500000D03*
X154350000Y-94625000D03*
X127075000Y-56700000D03*
X129775000Y-70700000D03*
X127200000Y-73475000D03*
X153325000Y-31375000D03*
X149250000Y-89500000D03*
X155575000Y-57525000D03*
X152350000Y-92775000D03*
X138575000Y-95975000D03*
X155575000Y-56525000D03*
X128325000Y-31375000D03*
X146250000Y-85500000D03*
X127675000Y-42025000D03*
X156825000Y-44450000D03*
X134775000Y-70700000D03*
X127075000Y-42575000D03*
X147250000Y-89500000D03*
X154325000Y-31375000D03*
X156350000Y-91775000D03*
X129325000Y-32375000D03*
X146325000Y-33375000D03*
X153350000Y-102600000D03*
X142325000Y-32375000D03*
X156825000Y-50450000D03*
X127800000Y-58150000D03*
X146250000Y-89500000D03*
X156325000Y-105475000D03*
X156825000Y-52550000D03*
X127075000Y-48575000D03*
X155350000Y-89775000D03*
X134575000Y-93975000D03*
X139325000Y-32375000D03*
X127200000Y-76475000D03*
X134325000Y-31375000D03*
X156825000Y-36450000D03*
X129350000Y-72500000D03*
X156825000Y-58550000D03*
X155400000Y-88775000D03*
X156225000Y-34925000D03*
X139675000Y-106600000D03*
X127075000Y-44575000D03*
X147775000Y-98150000D03*
X146425000Y-97325000D03*
X152400000Y-85775000D03*
X154350000Y-99600000D03*
X156825000Y-55550000D03*
X137325000Y-31375000D03*
X155350000Y-99600000D03*
X156225000Y-47925000D03*
X135150000Y-103287500D03*
X155325000Y-108475000D03*
X140325000Y-31375000D03*
X127800000Y-49150000D03*
X138575000Y-93975000D03*
X127325000Y-33375000D03*
X155575000Y-53525000D03*
X139575000Y-96975000D03*
X154350000Y-92775000D03*
X156350000Y-97625000D03*
X137500000Y-77175000D03*
X148850000Y-98175000D03*
X144325000Y-32375000D03*
X156350000Y-95625000D03*
X130775000Y-70700000D03*
X140100000Y-102017500D03*
X134575000Y-97975000D03*
X156325000Y-106475000D03*
X138575000Y-96975000D03*
X133350000Y-72500000D03*
X133325000Y-33375000D03*
X152325000Y-106475000D03*
X128775000Y-71700000D03*
X143325000Y-33375000D03*
X136575000Y-94975000D03*
X136325000Y-31375000D03*
X153350000Y-100600000D03*
X141325000Y-32375000D03*
X127800000Y-54150000D03*
X127525000Y-60225000D03*
X146975000Y-112625000D03*
X152350000Y-98625000D03*
X156825000Y-59550000D03*
X127525000Y-68225000D03*
X127075000Y-47575000D03*
X155350000Y-102600000D03*
X133575000Y-94975000D03*
X147775000Y-99150000D03*
X153400000Y-84775000D03*
X135575000Y-94975000D03*
X155350000Y-91775000D03*
X134775000Y-71700000D03*
X140675000Y-104600000D03*
X127800000Y-52150000D03*
X156825000Y-56550000D03*
X156400000Y-85775000D03*
X156400000Y-87775000D03*
X156350000Y-90775000D03*
X154350000Y-93775000D03*
X128700002Y-78500000D03*
X156400000Y-84775000D03*
X147775000Y-93150000D03*
X156825000Y-63550000D03*
X153350000Y-98625000D03*
X145325000Y-32375000D03*
X129325000Y-31375000D03*
X138575000Y-97975000D03*
X155350000Y-101600000D03*
X153325000Y-107475000D03*
X127075000Y-54700000D03*
X147250000Y-88500000D03*
X156825000Y-70550000D03*
X135350000Y-72500000D03*
X155325000Y-32375000D03*
X131325000Y-32375000D03*
X154400000Y-85775000D03*
X156350000Y-99600000D03*
X152350000Y-100600000D03*
X155325000Y-106475000D03*
X154350000Y-98625000D03*
X156825000Y-65550000D03*
X137325000Y-32375000D03*
X138575000Y-94975000D03*
X156825000Y-34450000D03*
X154350000Y-96625000D03*
X156350000Y-94625000D03*
X155575000Y-60525000D03*
X148850000Y-99175000D03*
X135325000Y-33375000D03*
X127075000Y-50575000D03*
X156825000Y-66550000D03*
X148325000Y-33375000D03*
X132325000Y-31375000D03*
X156825000Y-48450000D03*
X151325000Y-31375000D03*
X155575000Y-49525000D03*
X155575000Y-54525000D03*
X155350000Y-94625000D03*
X147775000Y-94150000D03*
X156825000Y-53550000D03*
X140675000Y-107600000D03*
X128325000Y-33375000D03*
X139575000Y-93975000D03*
X139325000Y-33375000D03*
%TO.N,CAN1_H*%
X133575000Y-41750000D03*
X131225000Y-39425000D03*
X131500000Y-37425000D03*
%TO.N,+3.3V*%
X134400000Y-83500000D03*
X136325000Y-83500000D03*
%TO.N,CAN1_RX*%
X138495558Y-72895558D03*
X142875000Y-84050000D03*
%TO.N,CAN1_TX*%
X147675000Y-83800000D03*
X141100000Y-70375000D03*
%TO.N,SWDIO*%
X147450000Y-78100000D03*
X146900000Y-83525000D03*
%TO.N,SWO*%
X145525000Y-73650000D03*
X145775000Y-70375000D03*
%TD*%
%TO.N,GND*%
D30*
X142175000Y-83400000D02*
X141525000Y-84050000D01*
X142025000Y-92325000D02*
X142025000Y-93575000D01*
X131050000Y-87975000D02*
X131475000Y-88400000D01*
X144450000Y-83400000D02*
X142175000Y-83400000D01*
X131475000Y-88400000D02*
X133100000Y-88400000D01*
X136075001Y-82300000D02*
X137400000Y-82300000D01*
X135525000Y-91475000D02*
X134725000Y-90675000D01*
X135525000Y-81749999D02*
X136075001Y-82300000D01*
X142025000Y-93575000D02*
X142725000Y-94275000D01*
X135525000Y-80975000D02*
X135525000Y-81749999D01*
X135525000Y-92325000D02*
X135525000Y-91475000D01*
%TO.N,+5V*%
X137430000Y-111270000D02*
X137625000Y-111465000D01*
D31*
X146000000Y-38250000D02*
X146675000Y-38925000D01*
X132662500Y-38412500D02*
X132662500Y-38962500D01*
X142010000Y-110315000D02*
X140860000Y-111465000D01*
X125900000Y-70050000D02*
X125900000Y-68925000D01*
X132415000Y-111465000D02*
X136575000Y-111465000D01*
X125900000Y-70725000D02*
X126437500Y-71262500D01*
X131550000Y-110600000D02*
X131550000Y-107925000D01*
X127400000Y-70300000D02*
X128397500Y-69302500D01*
X127990000Y-111465000D02*
X125900000Y-109375000D01*
X144175000Y-110320000D02*
X144170000Y-110315000D01*
X133637500Y-37437500D02*
X134805000Y-36270000D01*
D30*
X137625000Y-111465000D02*
X137590000Y-111465000D01*
D31*
X132825000Y-38250000D02*
X133875000Y-38250000D01*
X146675000Y-38925000D02*
X149900000Y-42150000D01*
X131950000Y-38250000D02*
X132825000Y-38250000D01*
X144170000Y-110315000D02*
X142010000Y-110315000D01*
D30*
X137430000Y-110880000D02*
X137430000Y-111270000D01*
D31*
X137295000Y-110745000D02*
X137082500Y-110957500D01*
X149900000Y-42150000D02*
X149900000Y-43475000D01*
X132825000Y-38250000D02*
X133637500Y-37437500D01*
X131550000Y-110600000D02*
X131712500Y-110762500D01*
X135125000Y-41425000D02*
X132662500Y-38962500D01*
X133875000Y-38250000D02*
X145375000Y-38250000D01*
X137645000Y-110395000D02*
X137295000Y-110745000D01*
X140100000Y-100747500D02*
X139542316Y-100747500D01*
X146675000Y-38525000D02*
X146675000Y-38925000D01*
X132662500Y-38962500D02*
X131950000Y-38250000D01*
X125900000Y-69425000D02*
X126775000Y-70300000D01*
D30*
X137295000Y-110745000D02*
X137430000Y-110880000D01*
D31*
X132415000Y-111465000D02*
X131625000Y-111465000D01*
X125900000Y-70550000D02*
X126100000Y-70550000D01*
X125950000Y-70050000D02*
X126800000Y-70900000D01*
X128675000Y-38250000D02*
X131950000Y-38250000D01*
X131625000Y-111465000D02*
X127990000Y-111465000D01*
X126437500Y-71262500D02*
X126625000Y-71075000D01*
X147845000Y-38250000D02*
X149875000Y-36220000D01*
X139542316Y-100747500D02*
X138325000Y-101964816D01*
X138325000Y-101964816D02*
X138325000Y-109715000D01*
X138325000Y-109715000D02*
X137645000Y-110395000D01*
X146950000Y-38250000D02*
X146675000Y-38525000D01*
X132415000Y-111465000D02*
X131550000Y-110600000D01*
X131712500Y-110762500D02*
X131712500Y-111377500D01*
X128397500Y-69302500D02*
X138150000Y-69302500D01*
X125900000Y-68925000D02*
X125900000Y-69425000D01*
X134805000Y-36270000D02*
X135125000Y-36270000D01*
X133637500Y-37437500D02*
X133537500Y-37537500D01*
X131712500Y-111377500D02*
X131625000Y-111465000D01*
X132825000Y-38250000D02*
X132662500Y-38412500D01*
X125900000Y-72100000D02*
X125900000Y-71800000D01*
D30*
X137645000Y-110395000D02*
X137625000Y-110415000D01*
D31*
X137082500Y-110957500D02*
X136575000Y-111465000D01*
X125900000Y-70550000D02*
X125900000Y-70050000D01*
X140860000Y-111465000D02*
X137625000Y-111465000D01*
X126800000Y-70900000D02*
X127400000Y-70300000D01*
X146950000Y-38250000D02*
X147845000Y-38250000D01*
X125900000Y-72100000D02*
X125900000Y-70550000D01*
D30*
X137625000Y-110415000D02*
X137625000Y-111465000D01*
D31*
X125900000Y-41025000D02*
X128675000Y-38250000D01*
X135125000Y-43650000D02*
X135125000Y-41425000D01*
X125900000Y-70050000D02*
X125950000Y-70050000D01*
X125900000Y-109375000D02*
X125900000Y-72100000D01*
X125900000Y-70550000D02*
X125900000Y-70725000D01*
X126625000Y-71075000D02*
X126800000Y-70900000D01*
X126775000Y-70300000D02*
X127400000Y-70300000D01*
X145375000Y-38250000D02*
X146000000Y-38250000D01*
D30*
X137590000Y-111465000D02*
X137082500Y-110957500D01*
D31*
X144175000Y-112650000D02*
X144175000Y-110320000D01*
X125900000Y-68925000D02*
X125900000Y-41025000D01*
X145375000Y-38250000D02*
X146950000Y-38250000D01*
X126100000Y-70550000D02*
X126625000Y-71075000D01*
X125900000Y-71800000D02*
X126437500Y-71262500D01*
X133537500Y-37912500D02*
X133875000Y-38250000D01*
X137625000Y-111465000D02*
X136575000Y-111465000D01*
X133537500Y-37537500D02*
X133537500Y-37912500D01*
%TO.N,CAN1_H*%
D32*
X133275000Y-41450000D02*
X133575000Y-41750000D01*
X140100000Y-36875000D02*
X140100000Y-35550000D01*
X131175000Y-41450000D02*
X131650000Y-41450000D01*
X131500000Y-37425000D02*
X131500000Y-37395000D01*
X129587500Y-41087500D02*
X129512500Y-41162500D01*
X139175000Y-34625000D02*
X134270000Y-34625000D01*
X131925000Y-41450000D02*
X133275000Y-41450000D01*
X131662500Y-41637500D02*
X131662500Y-41837500D01*
X131650000Y-41450000D02*
X131925000Y-41450000D01*
X131225000Y-39450000D02*
X131225000Y-39425000D01*
D30*
X144875000Y-65500000D02*
X144875000Y-67232499D01*
D32*
X128425000Y-42250000D02*
X129225000Y-41450000D01*
X145920000Y-37675000D02*
X140900000Y-37675000D01*
X129225000Y-41450000D02*
X129600000Y-41450000D01*
X131475000Y-41650000D02*
X131662500Y-41837500D01*
X140100000Y-35550000D02*
X139175000Y-34625000D01*
X131175000Y-41450000D02*
X131275000Y-41450000D01*
D30*
X144074999Y-68032500D02*
X143100000Y-68032500D01*
D32*
X132625000Y-42800000D02*
X132625000Y-43650000D01*
X129512500Y-41362500D02*
X129600000Y-41450000D01*
X129700000Y-40975000D02*
X129700000Y-41350000D01*
X147375000Y-36220000D02*
X145920000Y-37675000D01*
D30*
X144875000Y-67232499D02*
X144074999Y-68032500D01*
D32*
X129512500Y-41162500D02*
X129512500Y-41362500D01*
D30*
X129150000Y-62000000D02*
X131550000Y-64400000D01*
D32*
X129750000Y-40925000D02*
X131225000Y-39450000D01*
D30*
X143775000Y-64400000D02*
X144875000Y-65500000D01*
D32*
X131850000Y-41450000D02*
X131662500Y-41637500D01*
X134270000Y-34625000D02*
X132625000Y-36270000D01*
X129800000Y-41450000D02*
X131175000Y-41450000D01*
X131475000Y-41650000D02*
X131475000Y-41625000D01*
X131275000Y-41450000D02*
X131475000Y-41650000D01*
X128425000Y-61275000D02*
X128425000Y-42250000D01*
X129150000Y-62000000D02*
X128425000Y-61275000D01*
X129225000Y-41450000D02*
X129512500Y-41162500D01*
X129700000Y-41350000D02*
X129800000Y-41450000D01*
X131925000Y-41450000D02*
X131850000Y-41450000D01*
X131500000Y-37395000D02*
X132625000Y-36270000D01*
X140900000Y-37675000D02*
X140100000Y-36875000D01*
X129600000Y-41450000D02*
X129800000Y-41450000D01*
X129750000Y-40925000D02*
X129700000Y-40975000D01*
D30*
X131550000Y-64400000D02*
X143775000Y-64400000D01*
D32*
X131475000Y-41625000D02*
X131650000Y-41450000D01*
X129587500Y-41087500D02*
X129750000Y-40925000D01*
X131662500Y-41837500D02*
X132625000Y-42800000D01*
%TO.N,CAN1_L*%
D30*
X130125000Y-43650000D02*
X131825000Y-45350000D01*
X152275000Y-48000000D02*
X152350000Y-48075000D01*
X152975000Y-48700000D02*
X152475000Y-48200000D01*
X152975000Y-47400000D02*
X152975000Y-47725000D01*
X152700000Y-47675000D02*
X152975000Y-47400000D01*
X152975000Y-48300000D02*
X152975000Y-48700000D01*
X144900000Y-44650000D02*
X145150000Y-44900000D01*
X142855000Y-34200000D02*
X153750000Y-34200000D01*
X144900000Y-43475000D02*
X144900000Y-44650000D01*
X143100000Y-69302500D02*
X144074999Y-69302500D01*
X152475000Y-48200000D02*
X152575000Y-48300000D01*
X131825000Y-45350000D02*
X143400000Y-45350000D01*
X145025000Y-45350000D02*
X143400000Y-45350000D01*
X152575000Y-48300000D02*
X152975000Y-48300000D01*
X149625000Y-45350000D02*
X145600000Y-45350000D01*
X151762500Y-47487500D02*
X151950000Y-47675000D01*
X130125000Y-36270000D02*
X132195000Y-34200000D01*
X152975000Y-47725000D02*
X152975000Y-48075000D01*
X152275000Y-48000000D02*
X152137500Y-47862500D01*
X152475000Y-48200000D02*
X152275000Y-48000000D01*
X152975000Y-48075000D02*
X152975000Y-48300000D01*
X154900000Y-35700000D02*
X154900000Y-44925000D01*
X152137500Y-47862500D02*
X151762500Y-47487500D01*
X152137500Y-47862500D02*
X152837500Y-47862500D01*
X145150000Y-45225000D02*
X145025000Y-45350000D01*
X154900000Y-44925000D02*
X153487500Y-46337500D01*
X153375000Y-46450000D02*
X153175000Y-46650000D01*
X151762500Y-47487500D02*
X149625000Y-45350000D01*
X152837500Y-47862500D02*
X152975000Y-47725000D01*
X151950000Y-47675000D02*
X152700000Y-47675000D01*
X145725000Y-67652499D02*
X145725000Y-65225000D01*
X152350000Y-48075000D02*
X152975000Y-48075000D01*
X152975000Y-48700000D02*
X152975000Y-60800000D01*
X152975000Y-46850000D02*
X152975000Y-47400000D01*
X144074999Y-69302500D02*
X145725000Y-67652499D01*
X145600000Y-45350000D02*
X145025000Y-45350000D01*
X145150000Y-44900000D02*
X145150000Y-45225000D01*
X142855000Y-34200000D02*
X144875000Y-36220000D01*
X153487500Y-46337500D02*
X153375000Y-46450000D01*
X152975000Y-60800000D02*
X148550000Y-65225000D01*
X132195000Y-34200000D02*
X142855000Y-34200000D01*
X155075000Y-35525000D02*
X154900000Y-35700000D01*
X153175000Y-46650000D02*
X152975000Y-46850000D01*
X153750000Y-34200000D02*
X155075000Y-35525000D01*
X145150000Y-44900000D02*
X145600000Y-45350000D01*
X148550000Y-65225000D02*
X145725000Y-65225000D01*
%TO.N,Net-(U1-PH1)*%
X130700000Y-88950000D02*
X130150000Y-88400000D01*
X130150000Y-86325000D02*
X131075000Y-85400000D01*
X131075000Y-85400000D02*
X133100000Y-85400000D01*
X130150000Y-88400000D02*
X130150000Y-86325000D01*
X130700000Y-89675000D02*
X130700000Y-88950000D01*
%TO.N,CAN2_L*%
X137472500Y-100747500D02*
X137750000Y-101025000D01*
X130912500Y-96475000D02*
X130912500Y-97537500D01*
X134122500Y-100747500D02*
X135150000Y-100747500D01*
X137750000Y-105525000D02*
X136550000Y-106725000D01*
X137750000Y-101025000D02*
X137750000Y-105525000D01*
X130912500Y-97537500D02*
X134122500Y-100747500D01*
X136550000Y-106725000D02*
X136550000Y-107925000D01*
X135150000Y-100747500D02*
X137472500Y-100747500D01*
%TO.N,Net-(J2-Pin_2)*%
X129087500Y-96475000D02*
X128250000Y-97312500D01*
X128250000Y-97312500D02*
X128250000Y-100575000D01*
X128250000Y-100575000D02*
X129731802Y-102056802D01*
%TO.N,+3.3V*%
X135375000Y-87475000D02*
X135825000Y-87475000D01*
X138250000Y-85100000D02*
X138250000Y-84600000D01*
X138250000Y-84600000D02*
X137975000Y-84875000D01*
X148730000Y-110315000D02*
X150035000Y-110315000D01*
X148762500Y-83587500D02*
X148525000Y-83350000D01*
X138212500Y-85062500D02*
X138250000Y-85100000D01*
X150325000Y-110025000D02*
X150325000Y-85150000D01*
X137975000Y-84875000D02*
X138025000Y-84875000D01*
X136325000Y-83500000D02*
X136450000Y-83500000D01*
X148700000Y-82900000D02*
X149075000Y-82900000D01*
X135600000Y-87250000D02*
X135825000Y-87475000D01*
X148250000Y-83075000D02*
X148650000Y-83075000D01*
X139450000Y-82900000D02*
X140725000Y-82900000D01*
X148625000Y-83350000D02*
X148525000Y-83350000D01*
X139450000Y-82975000D02*
X139662500Y-83187500D01*
X148762500Y-82962500D02*
X148700000Y-82900000D01*
X140725000Y-82900000D02*
X144450000Y-82900000D01*
X139237500Y-83612500D02*
X138250000Y-84600000D01*
X139175000Y-82975000D02*
X139525000Y-83325000D01*
X137787500Y-85062500D02*
X137525000Y-85325000D01*
X148250000Y-83075000D02*
X148075000Y-82900000D01*
X138150000Y-85275000D02*
X138250000Y-85375000D01*
X137525000Y-85325000D02*
X136037500Y-86812500D01*
X136762500Y-83187500D02*
X137050000Y-82900000D01*
X137050000Y-82900000D02*
X138400000Y-82900000D01*
X137575000Y-85275000D02*
X138150000Y-85275000D01*
X137525000Y-85325000D02*
X137575000Y-85275000D01*
X148525000Y-83350000D02*
X148250000Y-83075000D01*
X139425000Y-83425000D02*
X139325000Y-83525000D01*
X150035000Y-110315000D02*
X150325000Y-110025000D01*
X135375000Y-87475000D02*
X133950000Y-88900000D01*
D31*
X148730000Y-110315000D02*
X148730000Y-112595000D01*
D30*
X136037500Y-86812500D02*
X135600000Y-87250000D01*
X139950000Y-82900000D02*
X139662500Y-83187500D01*
X139450000Y-82900000D02*
X139450000Y-82975000D01*
X147900000Y-82900000D02*
X148600000Y-82900000D01*
X139112500Y-83612500D02*
X139237500Y-83612500D01*
X136025000Y-86825000D02*
X136025000Y-87325000D01*
X138025000Y-84875000D02*
X138212500Y-85062500D01*
X135662500Y-87187500D02*
X135887500Y-87187500D01*
X139025000Y-83025000D02*
X139425000Y-83425000D01*
X140725000Y-82900000D02*
X139950000Y-82900000D01*
X135600000Y-87250000D02*
X135662500Y-87187500D01*
X135925000Y-87475000D02*
X136025000Y-87575000D01*
X136025000Y-87575000D02*
X136025000Y-92325000D01*
X138875000Y-82900000D02*
X138875000Y-83075000D01*
X137975000Y-84875000D02*
X137787500Y-85062500D01*
X138700000Y-82900000D02*
X138875000Y-83075000D01*
X138650000Y-82900000D02*
X138700000Y-82900000D01*
X138875000Y-82900000D02*
X139025000Y-82900000D01*
X148075000Y-82900000D02*
X147900000Y-82900000D01*
X133942764Y-82900000D02*
X134400000Y-83357236D01*
X147900000Y-82900000D02*
X144450000Y-82900000D01*
X135825000Y-87475000D02*
X135925000Y-87475000D01*
X148525000Y-82975000D02*
X148600000Y-82900000D01*
X138250000Y-85375000D02*
X138250000Y-85100000D01*
X153555000Y-82900000D02*
X155100000Y-81355000D01*
X136037500Y-86812500D02*
X136025000Y-86825000D01*
X148600000Y-82900000D02*
X148700000Y-82900000D01*
X136500000Y-82900000D02*
X137050000Y-82900000D01*
X138400000Y-82900000D02*
X139112500Y-83612500D01*
X142525000Y-90375000D02*
X138250000Y-86100000D01*
X135887500Y-87187500D02*
X136025000Y-87325000D01*
X137787500Y-85062500D02*
X138212500Y-85062500D01*
X139025000Y-82900000D02*
X139175000Y-82900000D01*
X138400000Y-82900000D02*
X138650000Y-82900000D01*
X138650000Y-82900000D02*
X138875000Y-82900000D01*
X135600000Y-87250000D02*
X135375000Y-87475000D01*
X138875000Y-83075000D02*
X139325000Y-83525000D01*
X149075000Y-82900000D02*
X148625000Y-83350000D01*
X136500000Y-82900000D02*
X136500000Y-82925000D01*
X148762500Y-83587500D02*
X148762500Y-82962500D01*
X150325000Y-85150000D02*
X148762500Y-83587500D01*
X139525000Y-83325000D02*
X139425000Y-83425000D01*
X136500000Y-82925000D02*
X136762500Y-83187500D01*
X148525000Y-83350000D02*
X148525000Y-82975000D01*
X149075000Y-82900000D02*
X153555000Y-82900000D01*
X133100000Y-82900000D02*
X133942764Y-82900000D01*
X139175000Y-82900000D02*
X139450000Y-82900000D01*
X136450000Y-83500000D02*
X136762500Y-83187500D01*
X139025000Y-82900000D02*
X139025000Y-83025000D01*
X134400000Y-83357236D02*
X134400000Y-83500000D01*
X139662500Y-83187500D02*
X139525000Y-83325000D01*
X142525000Y-92325000D02*
X142525000Y-90375000D01*
X139325000Y-83525000D02*
X139237500Y-83612500D01*
D31*
X148730000Y-112595000D02*
X148700000Y-112625000D01*
D30*
X133950000Y-88900000D02*
X133100000Y-88900000D01*
X135025000Y-81817764D02*
X136107236Y-82900000D01*
X136107236Y-82900000D02*
X136500000Y-82900000D01*
X135025000Y-80975000D02*
X135025000Y-81817764D01*
X148650000Y-83075000D02*
X148762500Y-82962500D01*
X139175000Y-82900000D02*
X139175000Y-82975000D01*
X136025000Y-87325000D02*
X136025000Y-87575000D01*
X138250000Y-86100000D02*
X138250000Y-85375000D01*
%TO.N,Net-(U1-PH0)*%
X132000000Y-84075000D02*
X132000000Y-84642764D01*
X130500000Y-82575000D02*
X132000000Y-84075000D01*
X132257236Y-84900000D02*
X133100000Y-84900000D01*
X128550000Y-84125000D02*
X128550000Y-83175000D01*
X129150000Y-82575000D02*
X130500000Y-82575000D01*
X132000000Y-84642764D02*
X132257236Y-84900000D01*
X127650000Y-88375000D02*
X127650000Y-85025000D01*
X128950000Y-89675000D02*
X127650000Y-88375000D01*
X127650000Y-85025000D02*
X128550000Y-84125000D01*
X128550000Y-83175000D02*
X129150000Y-82575000D01*
%TO.N,NRST*%
X135550000Y-75900000D02*
X135550000Y-76300000D01*
X135550000Y-76300000D02*
X135550000Y-76725000D01*
X133942764Y-85900000D02*
X133100000Y-85900000D01*
X140230000Y-72045000D02*
X135950000Y-76325000D01*
X134550000Y-81842764D02*
X134575000Y-81867764D01*
X135550000Y-75900000D02*
X135550000Y-75925000D01*
X134782236Y-79875000D02*
X134550000Y-80107236D01*
X134575000Y-81867764D02*
X134575000Y-82004160D01*
X155100000Y-71195000D02*
X154250000Y-72045000D01*
X135850000Y-76425000D02*
X135550000Y-76725000D01*
X134687500Y-74325000D02*
X135550000Y-75187500D01*
X154250000Y-72045000D02*
X140230000Y-72045000D01*
X135950000Y-76325000D02*
X135850000Y-76425000D01*
X135550000Y-76300000D02*
X135725000Y-76300000D01*
X135025000Y-84817764D02*
X133942764Y-85900000D01*
X135550000Y-76725000D02*
X135550000Y-78952076D01*
X135550000Y-75187500D02*
X135550000Y-75900000D01*
X134575000Y-82004160D02*
X135025000Y-82454160D01*
X135550000Y-78952076D02*
X135025000Y-79477076D01*
X134550000Y-80107236D02*
X134550000Y-81842764D01*
X135725000Y-76300000D02*
X135850000Y-76425000D01*
X135025000Y-79875000D02*
X134782236Y-79875000D01*
X135550000Y-75925000D02*
X135950000Y-76325000D01*
X135025000Y-79477076D02*
X135025000Y-79875000D01*
X135025000Y-82454160D02*
X135025000Y-84817764D01*
%TO.N,Net-(U1-VCAP_1)*%
X141525000Y-96125000D02*
X141525000Y-92325000D01*
%TO.N,CAN2_RX*%
X140100000Y-99477500D02*
X142072500Y-99477500D01*
X145350000Y-90400000D02*
X144450000Y-90400000D01*
X145975000Y-91025000D02*
X145350000Y-90400000D01*
X145975000Y-95575000D02*
X145975000Y-91025000D01*
X142072500Y-99477500D02*
X145975000Y-95575000D01*
%TO.N,CAN2_TX*%
X146425000Y-90838604D02*
X145486396Y-89900000D01*
X141074999Y-103287500D02*
X142100000Y-102262499D01*
X142258896Y-99927500D02*
X146425000Y-95761396D01*
X142100000Y-102262499D02*
X142100000Y-100050000D01*
X142222500Y-99927500D02*
X142258896Y-99927500D01*
X145486396Y-89900000D02*
X144450000Y-89900000D01*
X146425000Y-95761396D02*
X146425000Y-90838604D01*
X142100000Y-100050000D02*
X142222500Y-99927500D01*
X140100000Y-103287500D02*
X141074999Y-103287500D01*
%TO.N,CAN1_RX*%
X142875000Y-84050000D02*
X142875000Y-84167764D01*
X143607236Y-84900000D02*
X144450000Y-84900000D01*
X138150000Y-70572500D02*
X138150000Y-72550000D01*
X142875000Y-84167764D02*
X143607236Y-84900000D01*
X138150000Y-72550000D02*
X138495558Y-72895558D01*
%TO.N,CAN1_TX*%
X144450000Y-84400000D02*
X147075000Y-84400000D01*
X147075000Y-84400000D02*
X147675000Y-83800000D01*
X138530908Y-66762500D02*
X138150000Y-66762500D01*
X141100000Y-69331592D02*
X138530908Y-66762500D01*
X141100000Y-70375000D02*
X141100000Y-69331592D01*
%TO.N,SWDIO*%
X155100000Y-73735000D02*
X151815000Y-73735000D01*
X146525000Y-83900000D02*
X144450000Y-83900000D01*
X146900000Y-83525000D02*
X146525000Y-83900000D01*
X151815000Y-73735000D02*
X147450000Y-78100000D01*
%TO.N,SWCLK*%
X155100000Y-78815000D02*
X152940000Y-80975000D01*
X152940000Y-80975000D02*
X142525000Y-80975000D01*
%TO.N,SWO*%
X155100000Y-68655000D02*
X147495000Y-68655000D01*
X145525000Y-73650000D02*
X139525000Y-79650000D01*
X139525000Y-79650000D02*
X139525000Y-80975000D01*
X147495000Y-68655000D02*
X145775000Y-70375000D01*
%TO.N,Net-(U1-BOOT0)*%
X137025000Y-78550000D02*
X137075000Y-78500000D01*
X137025000Y-80975000D02*
X137025000Y-78550000D01*
%TO.N,Net-(J1-Pin_2)*%
X131550000Y-61860000D02*
X133090000Y-63400000D01*
X133090000Y-63400000D02*
X145725000Y-63400000D01*
%TO.N,CAN2_H*%
D32*
X130050000Y-100175000D02*
X130050000Y-99835000D01*
D30*
X131260000Y-99835000D02*
X133442500Y-102017500D01*
X134050000Y-106375000D02*
X134050000Y-107925000D01*
D32*
X132175000Y-102300000D02*
X130050000Y-100175000D01*
D30*
X133442500Y-102017500D02*
X135150000Y-102017500D01*
X130050000Y-99835000D02*
X131260000Y-99835000D01*
D32*
X134050000Y-106375000D02*
X132175000Y-104500000D01*
X132175000Y-104500000D02*
X132175000Y-102300000D01*
%TO.N,Net-(SW1-A)*%
D30*
X130850000Y-74350000D02*
X132837500Y-74350000D01*
X130850000Y-78500000D02*
X132937500Y-78500000D01*
X132937500Y-78500000D02*
X132962500Y-78475000D01*
X132837500Y-74350000D02*
X132862500Y-74325000D01*
%TD*%
%TA.AperFunction,Conductor*%
%TO.N,GND*%
G36*
X125855703Y-110392516D02*
G01*
X125862181Y-110398548D01*
X127407048Y-111943415D01*
X127407049Y-111943416D01*
X127511580Y-112047947D01*
X127511585Y-112047952D01*
X127634498Y-112130080D01*
X127634511Y-112130087D01*
X127771082Y-112186656D01*
X127771087Y-112186658D01*
X127771091Y-112186658D01*
X127771092Y-112186659D01*
X127916079Y-112215500D01*
X127916082Y-112215500D01*
X140933920Y-112215500D01*
X141031462Y-112196096D01*
X141078913Y-112186658D01*
X141215495Y-112130084D01*
X141274737Y-112090500D01*
X141274737Y-112090499D01*
X141274739Y-112090499D01*
X141306576Y-112069226D01*
X141338416Y-112047952D01*
X142284548Y-111101818D01*
X142345871Y-111068334D01*
X142372229Y-111065500D01*
X143065500Y-111065500D01*
X143132539Y-111085185D01*
X143178294Y-111137989D01*
X143189500Y-111189500D01*
X143189500Y-111211985D01*
X143192246Y-111246876D01*
X143192246Y-111246880D01*
X143192247Y-111246882D01*
X143235647Y-111396268D01*
X143314835Y-111530166D01*
X143388182Y-111603513D01*
X143402888Y-111630444D01*
X143419477Y-111656258D01*
X143420368Y-111662457D01*
X143421666Y-111664834D01*
X143424500Y-111691193D01*
X143424500Y-111767948D01*
X143404815Y-111834987D01*
X143388181Y-111855629D01*
X143292161Y-111951648D01*
X143201593Y-112098481D01*
X143201592Y-112098484D01*
X143147326Y-112262247D01*
X143147326Y-112262248D01*
X143147325Y-112262248D01*
X143137000Y-112363315D01*
X143137000Y-112936669D01*
X143137001Y-112936687D01*
X143147325Y-113037752D01*
X143147326Y-113037755D01*
X143171762Y-113111496D01*
X143174164Y-113181324D01*
X143138432Y-113241366D01*
X143075912Y-113272559D01*
X143054056Y-113274500D01*
X125774500Y-113274500D01*
X125707461Y-113254815D01*
X125661706Y-113202011D01*
X125650500Y-113150500D01*
X125650500Y-110486229D01*
X125670185Y-110419190D01*
X125722989Y-110373435D01*
X125792147Y-110363491D01*
X125855703Y-110392516D01*
G37*
%TD.AperFunction*%
%TA.AperFunction,Conductor*%
G36*
X148520539Y-84230380D02*
G01*
X148525358Y-84234948D01*
X149663181Y-85372771D01*
X149696666Y-85434094D01*
X149699500Y-85460452D01*
X149699500Y-108914806D01*
X149679815Y-108981845D01*
X149627011Y-109027600D01*
X149557853Y-109037544D01*
X149494297Y-109008519D01*
X149487819Y-109002487D01*
X149475170Y-108989838D01*
X149475167Y-108989836D01*
X149475166Y-108989835D01*
X149341268Y-108910647D01*
X149341267Y-108910646D01*
X149341266Y-108910646D01*
X149253052Y-108885018D01*
X149191882Y-108867247D01*
X149191880Y-108867246D01*
X149191876Y-108867246D01*
X149156985Y-108864500D01*
X149156980Y-108864500D01*
X148303020Y-108864500D01*
X148303014Y-108864500D01*
X148268123Y-108867246D01*
X148268118Y-108867247D01*
X148118733Y-108910646D01*
X147984829Y-108989838D01*
X147874838Y-109099829D01*
X147874835Y-109099833D01*
X147874835Y-109099834D01*
X147871692Y-109105149D01*
X147795646Y-109233733D01*
X147752247Y-109383118D01*
X147752246Y-109383123D01*
X147749500Y-109418014D01*
X147749500Y-111211985D01*
X147752246Y-111246876D01*
X147752246Y-111246880D01*
X147752247Y-111246882D01*
X147795647Y-111396268D01*
X147874835Y-111530166D01*
X147943182Y-111598513D01*
X147957888Y-111625444D01*
X147974477Y-111651258D01*
X147975368Y-111657457D01*
X147976666Y-111659834D01*
X147979500Y-111686193D01*
X147979500Y-111712947D01*
X147959815Y-111779986D01*
X147943182Y-111800628D01*
X147817159Y-111926651D01*
X147726593Y-112073481D01*
X147726591Y-112073486D01*
X147699219Y-112156088D01*
X147672326Y-112237247D01*
X147672326Y-112237248D01*
X147672325Y-112237248D01*
X147662000Y-112338315D01*
X147662000Y-112911669D01*
X147662001Y-112911687D01*
X147672325Y-113012752D01*
X147680609Y-113037749D01*
X147705047Y-113111498D01*
X147707449Y-113181323D01*
X147671718Y-113241366D01*
X147609198Y-113272559D01*
X147587341Y-113274500D01*
X145295943Y-113274500D01*
X145228904Y-113254815D01*
X145183149Y-113202011D01*
X145173205Y-113132853D01*
X145178234Y-113111507D01*
X145202674Y-113037753D01*
X145213000Y-112936677D01*
X145212999Y-112363324D01*
X145210444Y-112338315D01*
X145202674Y-112262247D01*
X145177625Y-112186656D01*
X145148408Y-112098484D01*
X145057840Y-111951650D01*
X144961819Y-111855629D01*
X144947115Y-111828701D01*
X144930523Y-111802883D01*
X144929631Y-111796682D01*
X144928334Y-111794306D01*
X144925500Y-111767948D01*
X144925500Y-111681193D01*
X144945185Y-111614154D01*
X144961814Y-111593516D01*
X145025165Y-111530166D01*
X145104353Y-111396268D01*
X145147753Y-111246882D01*
X145150500Y-111211980D01*
X145150500Y-109418020D01*
X145147753Y-109383118D01*
X145104353Y-109233732D01*
X145025165Y-109099834D01*
X145025162Y-109099831D01*
X145025161Y-109099829D01*
X144915170Y-108989838D01*
X144915167Y-108989836D01*
X144915166Y-108989835D01*
X144781268Y-108910647D01*
X144781267Y-108910646D01*
X144781266Y-108910646D01*
X144693052Y-108885018D01*
X144631882Y-108867247D01*
X144631880Y-108867246D01*
X144631876Y-108867246D01*
X144596985Y-108864500D01*
X144596980Y-108864500D01*
X143743020Y-108864500D01*
X143743014Y-108864500D01*
X143708123Y-108867246D01*
X143708118Y-108867247D01*
X143558733Y-108910646D01*
X143424829Y-108989838D01*
X143314838Y-109099829D01*
X143314835Y-109099833D01*
X143314835Y-109099834D01*
X143311692Y-109105149D01*
X143235646Y-109233733D01*
X143192247Y-109383118D01*
X143192246Y-109383123D01*
X143189500Y-109418014D01*
X143189500Y-109440500D01*
X143169815Y-109507539D01*
X143117011Y-109553294D01*
X143065500Y-109564500D01*
X141936082Y-109564500D01*
X141915990Y-109568496D01*
X141915982Y-109568498D01*
X141910946Y-109569500D01*
X141791088Y-109593341D01*
X141711599Y-109626267D01*
X141705095Y-109628960D01*
X141705088Y-109628963D01*
X141654509Y-109649914D01*
X141654501Y-109649918D01*
X141572372Y-109704795D01*
X141531585Y-109732047D01*
X141531581Y-109732050D01*
X140585451Y-110678181D01*
X140524128Y-110711666D01*
X140497770Y-110714500D01*
X138686230Y-110714500D01*
X138619191Y-110694815D01*
X138573436Y-110642011D01*
X138563492Y-110572853D01*
X138592517Y-110509297D01*
X138598549Y-110502819D01*
X138907948Y-110193419D01*
X138907947Y-110193419D01*
X138907951Y-110193416D01*
X138990084Y-110070495D01*
X139046658Y-109933913D01*
X139070899Y-109812048D01*
X139075500Y-109788920D01*
X139075500Y-104211611D01*
X139095185Y-104144572D01*
X139147989Y-104098817D01*
X139206847Y-104088424D01*
X139206868Y-104087904D01*
X139209264Y-104087998D01*
X139209269Y-104087997D01*
X139209306Y-104088000D01*
X139209314Y-104088000D01*
X140990686Y-104088000D01*
X140990694Y-104088000D01*
X141027569Y-104085098D01*
X141027571Y-104085097D01*
X141027573Y-104085097D01*
X141124502Y-104056936D01*
X141185398Y-104039244D01*
X141326865Y-103955581D01*
X141443081Y-103839365D01*
X141486281Y-103766314D01*
X141505322Y-103741766D01*
X141560857Y-103686233D01*
X141560859Y-103686229D01*
X142498729Y-102748359D01*
X142498733Y-102748357D01*
X142585858Y-102661232D01*
X142654311Y-102558785D01*
X142701463Y-102444951D01*
X142725500Y-102324105D01*
X142725500Y-100396847D01*
X142745185Y-100329808D01*
X142761819Y-100309166D01*
X144736843Y-98334142D01*
X146823729Y-96247256D01*
X146823733Y-96247254D01*
X146910858Y-96160129D01*
X146979311Y-96057682D01*
X146979312Y-96057681D01*
X146979313Y-96057678D01*
X146979315Y-96057675D01*
X146979315Y-96057673D01*
X147026461Y-95943851D01*
X147026463Y-95943847D01*
X147030514Y-95923484D01*
X147045229Y-95849500D01*
X147045229Y-95849499D01*
X147045230Y-95849499D01*
X147045230Y-95849494D01*
X147050500Y-95823003D01*
X147050500Y-95699789D01*
X147050500Y-90906345D01*
X147050501Y-90906324D01*
X147050501Y-90776995D01*
X147026464Y-90656159D01*
X147026463Y-90656153D01*
X146979312Y-90542319D01*
X146910858Y-90439871D01*
X146910855Y-90439867D01*
X145982280Y-89511294D01*
X145972255Y-89501269D01*
X145972254Y-89501267D01*
X145885129Y-89414142D01*
X145832109Y-89378715D01*
X145823356Y-89372866D01*
X145777617Y-89342303D01*
X145778787Y-89340551D01*
X145735766Y-89298284D01*
X145721129Y-89254082D01*
X145709626Y-89166705D01*
X145712689Y-89166301D01*
X145712689Y-89133698D01*
X145709626Y-89133295D01*
X145718782Y-89063746D01*
X145725500Y-89012720D01*
X145725500Y-88787280D01*
X145710687Y-88674764D01*
X145710686Y-88674763D01*
X145709626Y-88666705D01*
X145712689Y-88666301D01*
X145712689Y-88633698D01*
X145709626Y-88633295D01*
X145711730Y-88617315D01*
X145725500Y-88512720D01*
X145725500Y-88287280D01*
X145710687Y-88174764D01*
X145710686Y-88174763D01*
X145709626Y-88166705D01*
X145712689Y-88166301D01*
X145712689Y-88133698D01*
X145709626Y-88133295D01*
X145711915Y-88115905D01*
X145725500Y-88012720D01*
X145725500Y-87787280D01*
X145710687Y-87674764D01*
X145710686Y-87674763D01*
X145709626Y-87666705D01*
X145712689Y-87666301D01*
X145712689Y-87633698D01*
X145709626Y-87633295D01*
X145719354Y-87559400D01*
X145725500Y-87512720D01*
X145725500Y-87287280D01*
X145710687Y-87174764D01*
X145710686Y-87174763D01*
X145709626Y-87166705D01*
X145712689Y-87166301D01*
X145712689Y-87133698D01*
X145709626Y-87133295D01*
X145717580Y-87072876D01*
X145725500Y-87012720D01*
X145725500Y-86787280D01*
X145710687Y-86674764D01*
X145710686Y-86674763D01*
X145709626Y-86666705D01*
X145712689Y-86666301D01*
X145712689Y-86633698D01*
X145709626Y-86633295D01*
X145715871Y-86585858D01*
X145725500Y-86512720D01*
X145725500Y-86287280D01*
X145710687Y-86174764D01*
X145710686Y-86174763D01*
X145709626Y-86166705D01*
X145712689Y-86166301D01*
X145712689Y-86133698D01*
X145709626Y-86133295D01*
X145711645Y-86117962D01*
X145725500Y-86012720D01*
X145725500Y-85787280D01*
X145710687Y-85674764D01*
X145710686Y-85674763D01*
X145709626Y-85666705D01*
X145712689Y-85666301D01*
X145712689Y-85633698D01*
X145709626Y-85633295D01*
X145710687Y-85625236D01*
X145725500Y-85512720D01*
X145725500Y-85287280D01*
X145710687Y-85174764D01*
X145710686Y-85174763D01*
X145709626Y-85166705D01*
X145712671Y-85166304D01*
X145712671Y-85166086D01*
X145708459Y-85152882D01*
X145712668Y-85117840D01*
X145712802Y-85117341D01*
X145749199Y-85057700D01*
X145812063Y-85027206D01*
X145832559Y-85025500D01*
X147136608Y-85025500D01*
X147136608Y-85025499D01*
X147200857Y-85012720D01*
X147257452Y-85001463D01*
X147290792Y-84987652D01*
X147371286Y-84954312D01*
X147431403Y-84914142D01*
X147473733Y-84885858D01*
X147560858Y-84798733D01*
X147560859Y-84798730D01*
X147567925Y-84791665D01*
X147567928Y-84791661D01*
X147733797Y-84625791D01*
X147795118Y-84592308D01*
X147797128Y-84591889D01*
X147908497Y-84569737D01*
X148054179Y-84509394D01*
X148185289Y-84421789D01*
X148296789Y-84310289D01*
X148334575Y-84253737D01*
X148388186Y-84208933D01*
X148457511Y-84200226D01*
X148520539Y-84230380D01*
G37*
%TD.AperFunction*%
%TA.AperFunction,Conductor*%
G36*
X157217539Y-30870185D02*
G01*
X157263294Y-30922989D01*
X157274500Y-30974500D01*
X157274500Y-113150500D01*
X157254815Y-113217539D01*
X157202011Y-113263294D01*
X157150500Y-113274500D01*
X149812659Y-113274500D01*
X149745620Y-113254815D01*
X149699865Y-113202011D01*
X149689921Y-113132853D01*
X149694951Y-113111502D01*
X149727674Y-113012753D01*
X149738000Y-112911677D01*
X149737999Y-112338324D01*
X149727674Y-112237247D01*
X149673408Y-112073484D01*
X149582840Y-111926650D01*
X149516819Y-111860629D01*
X149502115Y-111833701D01*
X149485523Y-111807883D01*
X149484631Y-111801682D01*
X149483334Y-111799306D01*
X149480500Y-111772948D01*
X149480500Y-111686193D01*
X149500185Y-111619154D01*
X149516814Y-111598516D01*
X149585165Y-111530166D01*
X149664353Y-111396268D01*
X149707753Y-111246882D01*
X149710500Y-111211980D01*
X149710500Y-111064500D01*
X149730185Y-110997461D01*
X149782989Y-110951706D01*
X149834500Y-110940500D01*
X150096608Y-110940500D01*
X150096608Y-110940499D01*
X150162210Y-110927451D01*
X150217452Y-110916463D01*
X150255128Y-110900857D01*
X150331286Y-110869312D01*
X150406704Y-110818918D01*
X150433733Y-110800858D01*
X150520858Y-110713733D01*
X150520860Y-110713729D01*
X150723729Y-110510860D01*
X150723733Y-110510858D01*
X150810858Y-110423733D01*
X150879311Y-110321286D01*
X150879312Y-110321285D01*
X150916068Y-110232548D01*
X150926463Y-110207452D01*
X150926465Y-110207444D01*
X150947621Y-110101086D01*
X150950499Y-110086610D01*
X150950500Y-110086607D01*
X150950500Y-85217741D01*
X150950501Y-85217720D01*
X150950501Y-85088391D01*
X150950500Y-85088389D01*
X150926465Y-84967558D01*
X150926463Y-84967551D01*
X150926463Y-84967549D01*
X150924001Y-84961606D01*
X150892457Y-84885451D01*
X150879312Y-84853715D01*
X150879311Y-84853713D01*
X150879310Y-84853711D01*
X150810858Y-84751267D01*
X150810855Y-84751263D01*
X149796771Y-83737181D01*
X149763286Y-83675858D01*
X149768270Y-83606167D01*
X149810141Y-83550233D01*
X149875606Y-83525816D01*
X149884452Y-83525500D01*
X153616608Y-83525500D01*
X153616608Y-83525499D01*
X153680857Y-83512720D01*
X153737452Y-83501463D01*
X153780130Y-83483785D01*
X153851286Y-83454312D01*
X153916318Y-83410858D01*
X153916319Y-83410858D01*
X153941089Y-83394305D01*
X153953733Y-83385858D01*
X154040858Y-83298733D01*
X154040859Y-83298730D01*
X154047925Y-83291665D01*
X154047928Y-83291661D01*
X154642162Y-82697426D01*
X154703483Y-82663943D01*
X154768162Y-82667179D01*
X154783757Y-82672246D01*
X154993713Y-82705500D01*
X154993714Y-82705500D01*
X155206286Y-82705500D01*
X155206287Y-82705500D01*
X155416243Y-82672246D01*
X155618412Y-82606557D01*
X155807816Y-82510051D01*
X155829789Y-82494086D01*
X155979786Y-82385109D01*
X155979788Y-82385106D01*
X155979792Y-82385104D01*
X156130104Y-82234792D01*
X156130106Y-82234788D01*
X156130109Y-82234786D01*
X156255048Y-82062820D01*
X156255047Y-82062820D01*
X156255051Y-82062816D01*
X156351557Y-81873412D01*
X156417246Y-81671243D01*
X156450500Y-81461287D01*
X156450500Y-81248713D01*
X156417246Y-81038757D01*
X156351557Y-80836588D01*
X156255051Y-80647184D01*
X156255049Y-80647181D01*
X156255048Y-80647179D01*
X156130109Y-80475213D01*
X155979786Y-80324890D01*
X155807820Y-80199951D01*
X155807115Y-80199591D01*
X155799054Y-80195485D01*
X155748259Y-80147512D01*
X155731463Y-80079692D01*
X155753999Y-80013556D01*
X155799054Y-79974515D01*
X155807816Y-79970051D01*
X155870135Y-79924774D01*
X155979786Y-79845109D01*
X155979788Y-79845106D01*
X155979792Y-79845104D01*
X156130104Y-79694792D01*
X156130106Y-79694788D01*
X156130109Y-79694786D01*
X156255048Y-79522820D01*
X156255047Y-79522820D01*
X156255051Y-79522816D01*
X156351557Y-79333412D01*
X156417246Y-79131243D01*
X156450500Y-78921287D01*
X156450500Y-78708713D01*
X156417246Y-78498757D01*
X156351557Y-78296588D01*
X156255051Y-78107184D01*
X156255049Y-78107181D01*
X156255048Y-78107179D01*
X156130109Y-77935213D01*
X155979786Y-77784890D01*
X155807820Y-77659951D01*
X155618414Y-77563444D01*
X155618413Y-77563443D01*
X155618412Y-77563443D01*
X155416243Y-77497754D01*
X155416241Y-77497753D01*
X155416240Y-77497753D01*
X155254957Y-77472208D01*
X155206287Y-77464500D01*
X154993713Y-77464500D01*
X154945042Y-77472208D01*
X154783760Y-77497753D01*
X154581585Y-77563444D01*
X154392179Y-77659951D01*
X154220213Y-77784890D01*
X154069890Y-77935213D01*
X153944951Y-78107179D01*
X153848444Y-78296585D01*
X153782753Y-78498760D01*
X153749500Y-78708713D01*
X153749500Y-78921286D01*
X153782753Y-79131241D01*
X153787821Y-79146837D01*
X153789816Y-79216678D01*
X153757571Y-79272837D01*
X152717229Y-80313181D01*
X152655906Y-80346666D01*
X152629548Y-80349500D01*
X143298994Y-80349500D01*
X143231955Y-80329815D01*
X143186200Y-80277011D01*
X143177160Y-80241156D01*
X143176030Y-80241305D01*
X143174645Y-80230793D01*
X143160687Y-80124764D01*
X143102698Y-79984767D01*
X143010451Y-79864549D01*
X142890233Y-79772302D01*
X142890229Y-79772300D01*
X142774998Y-79724570D01*
X142750236Y-79714313D01*
X142735303Y-79712347D01*
X142637727Y-79699500D01*
X142637720Y-79699500D01*
X142412280Y-79699500D01*
X142412272Y-79699500D01*
X142325393Y-79710938D01*
X142299764Y-79714313D01*
X142299762Y-79714313D01*
X142291708Y-79715374D01*
X142291316Y-79712399D01*
X142258684Y-79712399D01*
X142258292Y-79715374D01*
X142250237Y-79714313D01*
X142250236Y-79714313D01*
X142221271Y-79710499D01*
X142137727Y-79699500D01*
X142137720Y-79699500D01*
X141912280Y-79699500D01*
X141912272Y-79699500D01*
X141825393Y-79710938D01*
X141799764Y-79714313D01*
X141799762Y-79714313D01*
X141791708Y-79715374D01*
X141791316Y-79712399D01*
X141758684Y-79712399D01*
X141758292Y-79715374D01*
X141750237Y-79714313D01*
X141750236Y-79714313D01*
X141721271Y-79710499D01*
X141637727Y-79699500D01*
X141637720Y-79699500D01*
X141412280Y-79699500D01*
X141412272Y-79699500D01*
X141325393Y-79710938D01*
X141299764Y-79714313D01*
X141299762Y-79714313D01*
X141291708Y-79715374D01*
X141291316Y-79712399D01*
X141258684Y-79712399D01*
X141258292Y-79715374D01*
X141250237Y-79714313D01*
X141250236Y-79714313D01*
X141221271Y-79710499D01*
X141137727Y-79699500D01*
X141137720Y-79699500D01*
X140912280Y-79699500D01*
X140912272Y-79699500D01*
X140794142Y-79715053D01*
X140794033Y-79715105D01*
X140793832Y-79715094D01*
X140791708Y-79715374D01*
X140791655Y-79714978D01*
X140778072Y-79714257D01*
X140758741Y-79715503D01*
X140750466Y-79714408D01*
X140750236Y-79714313D01*
X140644171Y-79700349D01*
X140642256Y-79700096D01*
X140641682Y-79700021D01*
X140641680Y-79700020D01*
X140641609Y-79700011D01*
X140609935Y-79685976D01*
X140577785Y-79671754D01*
X140577763Y-79671722D01*
X140577730Y-79671707D01*
X140558579Y-79642636D01*
X140539315Y-79613429D01*
X140539314Y-79613391D01*
X140539293Y-79613359D01*
X140538889Y-79577579D01*
X140538484Y-79543564D01*
X140538504Y-79543529D01*
X140538504Y-79543494D01*
X140538820Y-79542988D01*
X140570185Y-79489403D01*
X145583798Y-74475791D01*
X145645119Y-74442308D01*
X145647114Y-74441892D01*
X145758497Y-74419737D01*
X145904179Y-74359394D01*
X146035289Y-74271789D01*
X146146789Y-74160289D01*
X146234394Y-74029179D01*
X146294737Y-73883497D01*
X146325500Y-73728842D01*
X146325500Y-73571158D01*
X146325500Y-73571155D01*
X146325499Y-73571153D01*
X146294737Y-73416503D01*
X146290323Y-73405847D01*
X146234397Y-73270827D01*
X146234390Y-73270814D01*
X146146789Y-73139711D01*
X146146786Y-73139707D01*
X146035292Y-73028213D01*
X146035288Y-73028210D01*
X145904185Y-72940609D01*
X145904172Y-72940602D01*
X145828023Y-72909061D01*
X145773619Y-72865220D01*
X145751554Y-72798926D01*
X145768833Y-72731227D01*
X145819970Y-72683616D01*
X145875475Y-72670500D01*
X153960730Y-72670500D01*
X153971770Y-72673741D01*
X153983218Y-72672556D01*
X154004690Y-72683408D01*
X154027769Y-72690185D01*
X154035303Y-72698880D01*
X154045576Y-72704072D01*
X154057773Y-72724811D01*
X154073524Y-72742989D01*
X154075161Y-72754378D01*
X154080996Y-72764299D01*
X154080044Y-72788336D01*
X154083468Y-72812147D01*
X154078616Y-72824408D01*
X154078232Y-72834114D01*
X154063454Y-72862725D01*
X154062312Y-72865613D01*
X154061667Y-72866533D01*
X153944949Y-73027184D01*
X153933572Y-73049510D01*
X153928601Y-73056613D01*
X153907807Y-73073237D01*
X153889527Y-73092592D01*
X153880567Y-73095015D01*
X153874028Y-73100244D01*
X153853298Y-73102391D01*
X153827019Y-73109500D01*
X151753389Y-73109500D01*
X151692971Y-73121518D01*
X151649743Y-73130116D01*
X151632546Y-73133537D01*
X151518716Y-73180687D01*
X151518707Y-73180692D01*
X151416268Y-73249140D01*
X151390679Y-73274730D01*
X151329142Y-73336267D01*
X151329139Y-73336270D01*
X147391203Y-77274205D01*
X147329880Y-77307690D01*
X147327714Y-77308141D01*
X147216508Y-77330261D01*
X147216498Y-77330264D01*
X147070827Y-77390602D01*
X147070814Y-77390609D01*
X146939711Y-77478210D01*
X146939707Y-77478213D01*
X146828213Y-77589707D01*
X146828210Y-77589711D01*
X146740609Y-77720814D01*
X146740602Y-77720827D01*
X146680264Y-77866498D01*
X146680261Y-77866510D01*
X146649500Y-78021153D01*
X146649500Y-78178846D01*
X146680261Y-78333489D01*
X146680264Y-78333501D01*
X146740602Y-78479172D01*
X146740609Y-78479185D01*
X146828210Y-78610288D01*
X146828213Y-78610292D01*
X146939707Y-78721786D01*
X146939711Y-78721789D01*
X147070814Y-78809390D01*
X147070827Y-78809397D01*
X147199637Y-78862751D01*
X147216503Y-78869737D01*
X147371153Y-78900499D01*
X147371156Y-78900500D01*
X147371158Y-78900500D01*
X147528844Y-78900500D01*
X147528845Y-78900499D01*
X147683497Y-78869737D01*
X147829179Y-78809394D01*
X147960289Y-78721789D01*
X148071789Y-78610289D01*
X148159394Y-78479179D01*
X148219737Y-78333497D01*
X148241858Y-78222282D01*
X148274240Y-78160375D01*
X148275735Y-78158853D01*
X152037771Y-74396819D01*
X152099094Y-74363334D01*
X152125452Y-74360500D01*
X153827019Y-74360500D01*
X153894058Y-74380185D01*
X153937503Y-74428203D01*
X153944950Y-74442819D01*
X154069890Y-74614786D01*
X154220213Y-74765109D01*
X154392179Y-74890048D01*
X154392181Y-74890049D01*
X154392184Y-74890051D01*
X154581588Y-74986557D01*
X154783757Y-75052246D01*
X154993713Y-75085500D01*
X154993714Y-75085500D01*
X155206286Y-75085500D01*
X155206287Y-75085500D01*
X155416243Y-75052246D01*
X155618412Y-74986557D01*
X155807816Y-74890051D01*
X155829789Y-74874086D01*
X155979786Y-74765109D01*
X155979788Y-74765106D01*
X155979792Y-74765104D01*
X156130104Y-74614792D01*
X156130106Y-74614788D01*
X156130109Y-74614786D01*
X156255048Y-74442820D01*
X156255049Y-74442819D01*
X156255051Y-74442816D01*
X156351557Y-74253412D01*
X156417246Y-74051243D01*
X156450500Y-73841287D01*
X156450500Y-73628713D01*
X156417246Y-73418757D01*
X156351557Y-73216588D01*
X156255051Y-73027184D01*
X156255049Y-73027181D01*
X156255048Y-73027179D01*
X156130109Y-72855213D01*
X155979786Y-72704890D01*
X155807820Y-72579951D01*
X155807115Y-72579591D01*
X155799054Y-72575485D01*
X155748259Y-72527512D01*
X155731463Y-72459692D01*
X155753999Y-72393556D01*
X155799054Y-72354515D01*
X155807816Y-72350051D01*
X155907573Y-72277574D01*
X155979786Y-72225109D01*
X155979788Y-72225106D01*
X155979792Y-72225104D01*
X156130104Y-72074792D01*
X156130106Y-72074788D01*
X156130109Y-72074786D01*
X156255048Y-71902820D01*
X156255047Y-71902820D01*
X156255051Y-71902816D01*
X156351557Y-71713412D01*
X156417246Y-71511243D01*
X156450500Y-71301287D01*
X156450500Y-71088713D01*
X156417246Y-70878757D01*
X156351557Y-70676588D01*
X156255051Y-70487184D01*
X156255049Y-70487181D01*
X156255048Y-70487179D01*
X156130109Y-70315213D01*
X156016569Y-70201673D01*
X155983084Y-70140350D01*
X155988068Y-70070658D01*
X156029940Y-70014725D01*
X156060915Y-69997810D01*
X156192331Y-69948796D01*
X156307546Y-69862546D01*
X156393796Y-69747331D01*
X156444091Y-69612483D01*
X156450500Y-69552873D01*
X156450499Y-67757128D01*
X156444091Y-67697517D01*
X156415963Y-67622103D01*
X156393797Y-67562671D01*
X156393793Y-67562664D01*
X156307547Y-67447455D01*
X156307544Y-67447452D01*
X156192335Y-67361206D01*
X156192328Y-67361202D01*
X156057482Y-67310908D01*
X156057483Y-67310908D01*
X155997883Y-67304501D01*
X155997881Y-67304500D01*
X155997873Y-67304500D01*
X155997864Y-67304500D01*
X154202129Y-67304500D01*
X154202123Y-67304501D01*
X154142516Y-67310908D01*
X154007671Y-67361202D01*
X154007664Y-67361206D01*
X153892455Y-67447452D01*
X153892452Y-67447455D01*
X153806206Y-67562664D01*
X153806202Y-67562671D01*
X153755908Y-67697517D01*
X153749501Y-67757116D01*
X153749501Y-67757123D01*
X153749500Y-67757135D01*
X153749500Y-67905500D01*
X153729815Y-67972539D01*
X153677011Y-68018294D01*
X153625500Y-68029500D01*
X147433389Y-68029500D01*
X147372971Y-68041518D01*
X147329743Y-68050116D01*
X147312546Y-68053537D01*
X147214607Y-68094106D01*
X147198710Y-68100690D01*
X147096266Y-68169142D01*
X147096262Y-68169145D01*
X145716203Y-69549205D01*
X145654880Y-69582690D01*
X145652714Y-69583141D01*
X145541508Y-69605261D01*
X145541498Y-69605264D01*
X145395827Y-69665602D01*
X145395814Y-69665609D01*
X145264711Y-69753210D01*
X145264707Y-69753213D01*
X145153213Y-69864707D01*
X145153210Y-69864711D01*
X145065609Y-69995814D01*
X145065602Y-69995827D01*
X145005264Y-70141498D01*
X145005261Y-70141510D01*
X144974500Y-70296153D01*
X144974500Y-70453846D01*
X145005261Y-70608489D01*
X145005264Y-70608501D01*
X145065602Y-70754172D01*
X145065609Y-70754185D01*
X145153210Y-70885288D01*
X145153213Y-70885292D01*
X145264707Y-70996786D01*
X145264711Y-70996789D01*
X145395814Y-71084390D01*
X145395827Y-71084397D01*
X145492320Y-71124365D01*
X145541503Y-71144737D01*
X145541507Y-71144737D01*
X145541508Y-71144738D01*
X145676046Y-71171500D01*
X145676049Y-71171500D01*
X145696158Y-71175500D01*
X145853842Y-71175500D01*
X145873951Y-71171500D01*
X145873954Y-71171500D01*
X145973599Y-71151678D01*
X146008497Y-71144737D01*
X146154179Y-71084394D01*
X146285289Y-70996789D01*
X146396789Y-70885289D01*
X146484394Y-70754179D01*
X146544737Y-70608497D01*
X146566858Y-70497282D01*
X146599240Y-70435375D01*
X146600732Y-70433856D01*
X147717772Y-69316819D01*
X147779095Y-69283334D01*
X147805453Y-69280500D01*
X153625501Y-69280500D01*
X153692540Y-69300185D01*
X153738295Y-69352989D01*
X153749501Y-69404500D01*
X153749501Y-69552876D01*
X153755908Y-69612483D01*
X153806202Y-69747328D01*
X153806206Y-69747335D01*
X153892452Y-69862544D01*
X153892455Y-69862547D01*
X154007664Y-69948793D01*
X154007671Y-69948797D01*
X154139082Y-69997810D01*
X154195016Y-70039681D01*
X154219433Y-70105145D01*
X154204582Y-70173418D01*
X154183431Y-70201673D01*
X154069889Y-70315215D01*
X153944951Y-70487179D01*
X153848444Y-70676585D01*
X153782753Y-70878760D01*
X153749500Y-71088713D01*
X153749500Y-71295500D01*
X153729815Y-71362539D01*
X153677011Y-71408294D01*
X153625500Y-71419500D01*
X144447309Y-71419500D01*
X144380270Y-71399815D01*
X144334515Y-71347011D01*
X144324571Y-71277853D01*
X144353596Y-71214297D01*
X144359628Y-71207819D01*
X144443076Y-71124370D01*
X144443081Y-71124365D01*
X144526744Y-70982898D01*
X144572598Y-70825069D01*
X144575500Y-70788194D01*
X144575500Y-70356806D01*
X144572598Y-70319931D01*
X144571227Y-70315213D01*
X144526745Y-70162106D01*
X144526744Y-70162103D01*
X144526744Y-70162102D01*
X144443081Y-70020635D01*
X144443078Y-70020632D01*
X144438298Y-70014469D01*
X144440750Y-70012566D01*
X144414155Y-69963921D01*
X144419104Y-69894226D01*
X144429923Y-69872155D01*
X144437482Y-69859963D01*
X144443081Y-69854365D01*
X144486954Y-69780177D01*
X144487625Y-69779096D01*
X144488861Y-69777989D01*
X144505325Y-69756763D01*
X144560857Y-69701233D01*
X144560858Y-69701230D01*
X144567919Y-69694170D01*
X144567925Y-69694162D01*
X146123729Y-68138359D01*
X146123733Y-68138357D01*
X146210858Y-68051232D01*
X146279311Y-67948785D01*
X146279312Y-67948784D01*
X146320209Y-67850049D01*
X146326463Y-67834951D01*
X146339707Y-67768368D01*
X146350500Y-67714106D01*
X146350500Y-67590892D01*
X146350500Y-66171981D01*
X146370185Y-66104942D01*
X146409404Y-66066442D01*
X146410295Y-66065892D01*
X146423350Y-66057840D01*
X146545340Y-65935850D01*
X146561652Y-65909404D01*
X146613600Y-65862679D01*
X146667191Y-65850500D01*
X148611607Y-65850500D01*
X148672029Y-65838481D01*
X148732452Y-65826463D01*
X148765792Y-65812652D01*
X148846286Y-65779312D01*
X148898996Y-65744091D01*
X148948733Y-65710858D01*
X149035858Y-65623733D01*
X149035859Y-65623730D01*
X149042925Y-65616665D01*
X149042928Y-65616661D01*
X153373729Y-61285860D01*
X153373733Y-61285858D01*
X153460858Y-61198733D01*
X153495084Y-61147509D01*
X153529312Y-61096286D01*
X153576463Y-60982451D01*
X153600500Y-60861607D01*
X153600500Y-60738393D01*
X153600500Y-48638394D01*
X153600500Y-48638393D01*
X153600500Y-48238394D01*
X153600500Y-48238393D01*
X153600500Y-48013394D01*
X153600500Y-48013393D01*
X153600500Y-47663394D01*
X153600500Y-47338394D01*
X153600500Y-47338393D01*
X153600500Y-47160453D01*
X153609143Y-47131017D01*
X153615666Y-47101029D01*
X153619422Y-47096010D01*
X153620185Y-47093414D01*
X153636813Y-47072777D01*
X153660858Y-47048733D01*
X153660859Y-47048730D01*
X153860858Y-46848733D01*
X153860860Y-46848729D01*
X153973357Y-46736233D01*
X153973356Y-46736233D01*
X154031925Y-46677664D01*
X155385858Y-45323733D01*
X155454312Y-45221285D01*
X155501463Y-45107451D01*
X155525501Y-44986606D01*
X155525501Y-44863393D01*
X155525501Y-44858283D01*
X155525500Y-44858257D01*
X155525500Y-36010453D01*
X155545185Y-35943414D01*
X155547743Y-35939590D01*
X155554032Y-35930557D01*
X155560857Y-35923734D01*
X155609267Y-35851284D01*
X155629312Y-35821286D01*
X155676463Y-35707451D01*
X155700500Y-35586607D01*
X155700500Y-35463393D01*
X155676463Y-35342549D01*
X155629312Y-35228715D01*
X155597618Y-35181282D01*
X155560857Y-35126266D01*
X155560852Y-35126261D01*
X154243150Y-33808560D01*
X154235860Y-33801270D01*
X154235858Y-33801267D01*
X154148733Y-33714142D01*
X154097509Y-33679915D01*
X154046286Y-33645688D01*
X154046283Y-33645686D01*
X154046280Y-33645685D01*
X153972603Y-33615168D01*
X153972601Y-33615167D01*
X153965792Y-33612347D01*
X153932452Y-33598537D01*
X153872029Y-33586518D01*
X153867306Y-33585578D01*
X153867304Y-33585578D01*
X153811610Y-33574500D01*
X153811607Y-33574500D01*
X153811606Y-33574500D01*
X142916607Y-33574500D01*
X142916606Y-33574500D01*
X132256607Y-33574500D01*
X132133393Y-33574500D01*
X132133389Y-33574500D01*
X132077697Y-33585578D01*
X132072971Y-33586518D01*
X132035259Y-33594019D01*
X132012550Y-33598536D01*
X132012548Y-33598537D01*
X131979207Y-33612347D01*
X131898719Y-33645684D01*
X131898705Y-33645692D01*
X131796272Y-33714138D01*
X131796264Y-33714144D01*
X131709139Y-33801270D01*
X130677183Y-34833225D01*
X130615860Y-34866710D01*
X130551185Y-34863475D01*
X130441245Y-34827754D01*
X130441246Y-34827754D01*
X130283776Y-34802813D01*
X130231287Y-34794500D01*
X130018713Y-34794500D01*
X129970042Y-34802208D01*
X129808760Y-34827753D01*
X129606585Y-34893444D01*
X129417179Y-34989951D01*
X129245213Y-35114890D01*
X129094890Y-35265213D01*
X128969951Y-35437179D01*
X128873444Y-35626585D01*
X128807753Y-35828760D01*
X128774500Y-36038713D01*
X128774500Y-36501286D01*
X128799834Y-36661243D01*
X128807754Y-36711243D01*
X128857198Y-36863416D01*
X128873444Y-36913414D01*
X128969951Y-37102820D01*
X129094890Y-37274786D01*
X129107923Y-37287819D01*
X129141408Y-37349142D01*
X129136424Y-37418834D01*
X129094552Y-37474767D01*
X129029088Y-37499184D01*
X129020242Y-37499500D01*
X128601082Y-37499500D01*
X128579254Y-37503842D01*
X128579253Y-37503842D01*
X128456095Y-37528339D01*
X128456087Y-37528341D01*
X128386885Y-37557006D01*
X128319509Y-37584914D01*
X128319501Y-37584918D01*
X128237372Y-37639795D01*
X128196585Y-37667047D01*
X128196581Y-37667050D01*
X125862181Y-40001451D01*
X125800858Y-40034936D01*
X125731166Y-40029952D01*
X125675233Y-39988080D01*
X125650816Y-39922616D01*
X125650500Y-39913770D01*
X125650500Y-30974500D01*
X125670185Y-30907461D01*
X125722989Y-30861706D01*
X125774500Y-30850500D01*
X157150500Y-30850500D01*
X157217539Y-30870185D01*
G37*
%TD.AperFunction*%
%TA.AperFunction,Conductor*%
G36*
X136656839Y-70072685D02*
G01*
X136702594Y-70125489D01*
X136712538Y-70194647D01*
X136708876Y-70211595D01*
X136677402Y-70319926D01*
X136677401Y-70319932D01*
X136674500Y-70356798D01*
X136674500Y-70788201D01*
X136677401Y-70825067D01*
X136677402Y-70825073D01*
X136723254Y-70982893D01*
X136723255Y-70982896D01*
X136806917Y-71124362D01*
X136806923Y-71124370D01*
X136923129Y-71240576D01*
X136923133Y-71240579D01*
X136923135Y-71240581D01*
X137064602Y-71324244D01*
X137106224Y-71336336D01*
X137222426Y-71370097D01*
X137222429Y-71370097D01*
X137222431Y-71370098D01*
X137259306Y-71373000D01*
X137400500Y-71373000D01*
X137467539Y-71392685D01*
X137513294Y-71445489D01*
X137524500Y-71497000D01*
X137524500Y-72611606D01*
X137536778Y-72673334D01*
X137548537Y-72732453D01*
X137552901Y-72742989D01*
X137562054Y-72765084D01*
X137595688Y-72846286D01*
X137629915Y-72897509D01*
X137633814Y-72903344D01*
X137633815Y-72903346D01*
X137664141Y-72948733D01*
X137669763Y-72954355D01*
X137703248Y-73015678D01*
X137703699Y-73017844D01*
X137725819Y-73129049D01*
X137725822Y-73129059D01*
X137786160Y-73274730D01*
X137786167Y-73274743D01*
X137861609Y-73387649D01*
X137882487Y-73454327D01*
X137864003Y-73521707D01*
X137846188Y-73544221D01*
X136351194Y-75039215D01*
X136322406Y-75054934D01*
X136294183Y-75071681D01*
X136291887Y-75071599D01*
X136289871Y-75072700D01*
X136257146Y-75070359D01*
X136224358Y-75069190D01*
X136222471Y-75067879D01*
X136220179Y-75067716D01*
X136193911Y-75048051D01*
X136166964Y-75029343D01*
X136165400Y-75026708D01*
X136164246Y-75025844D01*
X136148954Y-74998991D01*
X136143804Y-74986559D01*
X136143802Y-74986554D01*
X136104314Y-74891220D01*
X136104307Y-74891207D01*
X136035858Y-74788767D01*
X136035855Y-74788763D01*
X135945637Y-74698545D01*
X135945606Y-74698516D01*
X135711818Y-74464728D01*
X135678333Y-74403405D01*
X135675499Y-74377047D01*
X135675499Y-74038330D01*
X135675498Y-74038313D01*
X135665174Y-73937247D01*
X135647360Y-73883489D01*
X135610908Y-73773484D01*
X135520340Y-73626650D01*
X135398350Y-73504660D01*
X135259079Y-73418757D01*
X135251518Y-73414093D01*
X135251513Y-73414091D01*
X135226634Y-73405847D01*
X135087753Y-73359826D01*
X135087751Y-73359825D01*
X134986678Y-73349500D01*
X134388330Y-73349500D01*
X134388312Y-73349501D01*
X134287247Y-73359825D01*
X134123484Y-73414092D01*
X134123481Y-73414093D01*
X133976648Y-73504661D01*
X133862681Y-73618629D01*
X133801358Y-73652114D01*
X133731666Y-73647130D01*
X133687319Y-73618629D01*
X133573351Y-73504661D01*
X133573350Y-73504660D01*
X133434079Y-73418757D01*
X133426518Y-73414093D01*
X133426513Y-73414091D01*
X133401634Y-73405847D01*
X133262753Y-73359826D01*
X133262751Y-73359825D01*
X133161678Y-73349500D01*
X132563330Y-73349500D01*
X132563312Y-73349501D01*
X132462247Y-73359825D01*
X132298484Y-73414092D01*
X132298481Y-73414093D01*
X132151648Y-73504661D01*
X132029659Y-73626650D01*
X132005638Y-73665596D01*
X131998051Y-73672419D01*
X131993812Y-73681703D01*
X131972511Y-73695391D01*
X131953690Y-73712321D01*
X131942054Y-73714965D01*
X131935034Y-73719477D01*
X131900099Y-73724500D01*
X131761387Y-73724500D01*
X131694348Y-73704815D01*
X131648593Y-73652011D01*
X131645205Y-73643833D01*
X131623997Y-73586971D01*
X131623993Y-73586964D01*
X131537747Y-73471755D01*
X131537744Y-73471752D01*
X131422535Y-73385506D01*
X131422528Y-73385502D01*
X131287686Y-73335210D01*
X131287685Y-73335209D01*
X131287683Y-73335209D01*
X131228073Y-73328800D01*
X131228063Y-73328800D01*
X130471929Y-73328800D01*
X130471923Y-73328801D01*
X130412316Y-73335208D01*
X130277471Y-73385502D01*
X130277464Y-73385506D01*
X130162255Y-73471752D01*
X130162252Y-73471755D01*
X130076006Y-73586964D01*
X130076002Y-73586971D01*
X130025708Y-73721817D01*
X130019301Y-73781416D01*
X130019300Y-73781435D01*
X130019300Y-74918570D01*
X130019301Y-74918576D01*
X130025708Y-74978183D01*
X130076002Y-75113028D01*
X130076006Y-75113035D01*
X130162252Y-75228244D01*
X130162255Y-75228247D01*
X130277464Y-75314493D01*
X130277471Y-75314497D01*
X130322418Y-75331261D01*
X130412317Y-75364791D01*
X130471927Y-75371200D01*
X131228072Y-75371199D01*
X131287683Y-75364791D01*
X131422531Y-75314496D01*
X131537746Y-75228246D01*
X131623996Y-75113031D01*
X131634497Y-75084874D01*
X131645205Y-75056167D01*
X131658474Y-75038440D01*
X131667674Y-75018297D01*
X131679005Y-75011014D01*
X131687076Y-75000234D01*
X131707821Y-74992495D01*
X131726452Y-74980523D01*
X131748369Y-74977371D01*
X131752540Y-74975816D01*
X131761387Y-74975500D01*
X131931792Y-74975500D01*
X131998831Y-74995185D01*
X132024415Y-75018380D01*
X132024553Y-75018243D01*
X132027352Y-75021042D01*
X132029055Y-75022586D01*
X132029655Y-75023345D01*
X132029660Y-75023350D01*
X132151650Y-75145340D01*
X132298484Y-75235908D01*
X132462247Y-75290174D01*
X132563323Y-75300500D01*
X133161676Y-75300499D01*
X133161684Y-75300498D01*
X133161687Y-75300498D01*
X133217030Y-75294844D01*
X133262753Y-75290174D01*
X133426516Y-75235908D01*
X133573350Y-75145340D01*
X133687319Y-75031371D01*
X133748642Y-74997886D01*
X133818334Y-75002870D01*
X133862681Y-75031371D01*
X133976650Y-75145340D01*
X134123484Y-75235908D01*
X134287247Y-75290174D01*
X134388323Y-75300500D01*
X134727047Y-75300499D01*
X134756493Y-75309145D01*
X134786474Y-75315667D01*
X134791487Y-75319419D01*
X134794086Y-75320183D01*
X134814728Y-75336818D01*
X134888181Y-75410271D01*
X134921666Y-75471594D01*
X134924500Y-75497952D01*
X134924500Y-78641623D01*
X134904815Y-78708662D01*
X134888181Y-78729304D01*
X134754734Y-78862751D01*
X134626270Y-78991215D01*
X134626267Y-78991218D01*
X134590972Y-79026513D01*
X134539142Y-79078342D01*
X134507634Y-79125498D01*
X134507633Y-79125499D01*
X134470690Y-79180785D01*
X134470685Y-79180794D01*
X134442227Y-79249498D01*
X134442228Y-79249499D01*
X134429198Y-79280957D01*
X134429196Y-79280961D01*
X134425903Y-79288914D01*
X134423537Y-79294625D01*
X134416648Y-79329257D01*
X134415744Y-79332737D01*
X134399560Y-79359746D01*
X134384959Y-79387658D01*
X134383411Y-79389234D01*
X134296378Y-79476267D01*
X134064144Y-79708500D01*
X134064138Y-79708508D01*
X133995690Y-79810944D01*
X133995688Y-79810949D01*
X133948540Y-79924774D01*
X133948535Y-79924790D01*
X133926066Y-80037755D01*
X133926066Y-80037756D01*
X133924500Y-80045628D01*
X133924500Y-81904373D01*
X133947117Y-82018079D01*
X133948708Y-82028278D01*
X133949500Y-82035251D01*
X133949500Y-82065767D01*
X133957576Y-82106372D01*
X133958160Y-82111508D01*
X133953014Y-82141036D01*
X133950342Y-82170901D01*
X133947078Y-82175101D01*
X133946166Y-82180340D01*
X133925871Y-82202400D01*
X133907478Y-82226078D01*
X133902462Y-82227847D01*
X133898862Y-82231761D01*
X133869860Y-82239348D01*
X133841588Y-82249322D01*
X133834952Y-82249500D01*
X132362272Y-82249500D01*
X132249764Y-82264313D01*
X132249763Y-82264313D01*
X132109770Y-82322300D01*
X132109767Y-82322301D01*
X132109767Y-82322302D01*
X131989549Y-82414549D01*
X131916268Y-82510051D01*
X131897300Y-82534770D01*
X131839313Y-82674763D01*
X131839313Y-82674764D01*
X131830838Y-82739134D01*
X131802571Y-82803030D01*
X131744246Y-82841500D01*
X131674381Y-82842331D01*
X131620218Y-82810628D01*
X130996036Y-82186446D01*
X130985859Y-82176269D01*
X130985858Y-82176267D01*
X130898733Y-82089142D01*
X130840475Y-82050215D01*
X130807645Y-82028278D01*
X130796290Y-82020690D01*
X130796286Y-82020688D01*
X130789987Y-82018079D01*
X130715792Y-81987347D01*
X130682452Y-81973537D01*
X130622029Y-81961518D01*
X130617306Y-81960578D01*
X130617304Y-81960578D01*
X130561610Y-81949500D01*
X130561607Y-81949500D01*
X130561606Y-81949500D01*
X129211607Y-81949500D01*
X129088393Y-81949500D01*
X129088389Y-81949500D01*
X129032697Y-81960578D01*
X129027971Y-81961518D01*
X128990259Y-81969019D01*
X128967550Y-81973536D01*
X128967548Y-81973537D01*
X128934207Y-81987347D01*
X128853718Y-82020685D01*
X128853709Y-82020690D01*
X128815836Y-82045997D01*
X128815830Y-82046001D01*
X128809525Y-82050215D01*
X128751267Y-82089142D01*
X128664142Y-82176267D01*
X128664139Y-82176270D01*
X128660892Y-82179516D01*
X128660885Y-82179523D01*
X128330361Y-82510048D01*
X128151270Y-82689139D01*
X128151267Y-82689142D01*
X128107704Y-82732704D01*
X128064142Y-82776266D01*
X128033382Y-82822302D01*
X128033381Y-82822301D01*
X128000240Y-82871901D01*
X127946627Y-82916706D01*
X127910391Y-82926300D01*
X127867516Y-82930908D01*
X127732671Y-82981202D01*
X127732664Y-82981206D01*
X127617455Y-83067452D01*
X127617452Y-83067455D01*
X127531206Y-83182664D01*
X127531202Y-83182671D01*
X127480908Y-83317517D01*
X127474501Y-83377116D01*
X127474500Y-83377135D01*
X127474500Y-84264547D01*
X127454815Y-84331586D01*
X127438181Y-84352228D01*
X127253837Y-84536571D01*
X127253828Y-84536580D01*
X127251270Y-84539139D01*
X127251267Y-84539142D01*
X127164142Y-84626267D01*
X127138835Y-84664142D01*
X127134085Y-84671250D01*
X127134081Y-84671255D01*
X127095690Y-84728709D01*
X127095685Y-84728718D01*
X127070658Y-84789142D01*
X127070658Y-84789143D01*
X127066686Y-84798733D01*
X127048537Y-84842547D01*
X127048536Y-84842548D01*
X127047912Y-84845683D01*
X127047912Y-84845689D01*
X127025740Y-84957165D01*
X127024861Y-84961582D01*
X127024855Y-84961611D01*
X127024500Y-84963393D01*
X127024500Y-88436610D01*
X127048535Y-88557444D01*
X127048537Y-88557452D01*
X127062347Y-88590792D01*
X127095688Y-88671286D01*
X127126600Y-88717548D01*
X127130624Y-88723571D01*
X127130625Y-88723572D01*
X127164140Y-88773731D01*
X127164141Y-88773732D01*
X127164142Y-88773733D01*
X127251267Y-88860858D01*
X127251268Y-88860858D01*
X127258335Y-88867925D01*
X127258334Y-88867925D01*
X127258338Y-88867928D01*
X127938181Y-89547771D01*
X127971666Y-89609094D01*
X127974500Y-89635452D01*
X127974500Y-90024169D01*
X127974501Y-90024187D01*
X127984825Y-90125252D01*
X128001232Y-90174764D01*
X128039092Y-90289016D01*
X128129660Y-90435850D01*
X128251650Y-90557840D01*
X128398484Y-90648408D01*
X128562247Y-90702674D01*
X128663323Y-90713000D01*
X129236676Y-90712999D01*
X129236684Y-90712998D01*
X129236687Y-90712998D01*
X129292030Y-90707344D01*
X129337753Y-90702674D01*
X129501516Y-90648408D01*
X129648350Y-90557840D01*
X129737319Y-90468871D01*
X129798642Y-90435386D01*
X129868334Y-90440370D01*
X129912681Y-90468871D01*
X130001650Y-90557840D01*
X130148484Y-90648408D01*
X130312247Y-90702674D01*
X130413323Y-90713000D01*
X130986676Y-90712999D01*
X130986684Y-90712998D01*
X130986687Y-90712998D01*
X131042030Y-90707344D01*
X131087753Y-90702674D01*
X131251516Y-90648408D01*
X131398350Y-90557840D01*
X131520340Y-90435850D01*
X131594962Y-90314867D01*
X131646909Y-90268145D01*
X131715872Y-90256922D01*
X131779954Y-90284766D01*
X131818810Y-90342834D01*
X131824500Y-90379966D01*
X131824500Y-90512727D01*
X131839313Y-90625235D01*
X131839313Y-90625236D01*
X131871388Y-90702673D01*
X131897302Y-90765233D01*
X131989549Y-90885451D01*
X132109767Y-90977698D01*
X132249764Y-91035687D01*
X132362280Y-91050500D01*
X132362287Y-91050500D01*
X133837713Y-91050500D01*
X133837720Y-91050500D01*
X133950236Y-91035687D01*
X134090233Y-90977698D01*
X134210451Y-90885451D01*
X134302698Y-90765233D01*
X134360687Y-90625236D01*
X134375500Y-90512720D01*
X134375500Y-90287280D01*
X134360687Y-90174764D01*
X134360686Y-90174763D01*
X134359626Y-90166705D01*
X134362689Y-90166301D01*
X134362689Y-90133698D01*
X134359626Y-90133295D01*
X134360687Y-90125236D01*
X134375500Y-90012720D01*
X134375500Y-89787280D01*
X134360687Y-89674764D01*
X134360686Y-89674763D01*
X134359626Y-89666705D01*
X134361174Y-89666501D01*
X134358739Y-89641184D01*
X134359707Y-89627601D01*
X134360687Y-89625236D01*
X134375500Y-89512720D01*
X134375500Y-89406042D01*
X134375814Y-89401637D01*
X134386536Y-89372866D01*
X134395185Y-89343414D01*
X134399517Y-89338037D01*
X134400215Y-89336166D01*
X134402259Y-89334634D01*
X134411819Y-89322772D01*
X134412589Y-89322002D01*
X134435858Y-89298733D01*
X134435858Y-89298731D01*
X134446062Y-89288528D01*
X134446065Y-89288523D01*
X135187820Y-88546769D01*
X135249142Y-88513285D01*
X135318834Y-88518269D01*
X135374767Y-88560141D01*
X135399184Y-88625605D01*
X135399500Y-88634451D01*
X135399500Y-90942708D01*
X135379815Y-91009747D01*
X135327011Y-91055502D01*
X135257853Y-91065446D01*
X135256077Y-91065082D01*
X135137727Y-91049500D01*
X135137720Y-91049500D01*
X134912280Y-91049500D01*
X134912272Y-91049500D01*
X134799764Y-91064313D01*
X134799763Y-91064313D01*
X134659770Y-91122300D01*
X134539549Y-91214549D01*
X134447300Y-91334770D01*
X134389313Y-91474763D01*
X134389313Y-91474764D01*
X134374500Y-91587272D01*
X134374500Y-93062727D01*
X134387461Y-93161171D01*
X134389313Y-93175236D01*
X134447302Y-93315233D01*
X134539549Y-93435451D01*
X134659767Y-93527698D01*
X134799764Y-93585687D01*
X134906586Y-93599750D01*
X134912264Y-93600498D01*
X134912280Y-93600500D01*
X134912287Y-93600500D01*
X135137713Y-93600500D01*
X135137720Y-93600500D01*
X135250236Y-93585687D01*
X135390233Y-93527698D01*
X135449514Y-93482209D01*
X135514683Y-93457016D01*
X135583127Y-93471054D01*
X135600482Y-93482206D01*
X135659767Y-93527698D01*
X135799764Y-93585687D01*
X135906586Y-93599750D01*
X135912264Y-93600498D01*
X135912280Y-93600500D01*
X135912287Y-93600500D01*
X136137713Y-93600500D01*
X136137720Y-93600500D01*
X136250236Y-93585687D01*
X136250236Y-93585686D01*
X136258295Y-93584626D01*
X136258698Y-93587689D01*
X136291302Y-93587689D01*
X136291705Y-93584626D01*
X136299763Y-93585686D01*
X136299764Y-93585687D01*
X136412280Y-93600500D01*
X136412287Y-93600500D01*
X136637713Y-93600500D01*
X136637720Y-93600500D01*
X136750236Y-93585687D01*
X136750236Y-93585686D01*
X136758295Y-93584626D01*
X136758698Y-93587689D01*
X136791302Y-93587689D01*
X136791705Y-93584626D01*
X136799763Y-93585686D01*
X136799764Y-93585687D01*
X136912280Y-93600500D01*
X136912287Y-93600500D01*
X137137713Y-93600500D01*
X137137720Y-93600500D01*
X137250236Y-93585687D01*
X137250236Y-93585686D01*
X137258295Y-93584626D01*
X137258698Y-93587689D01*
X137291302Y-93587689D01*
X137291705Y-93584626D01*
X137299763Y-93585686D01*
X137299764Y-93585687D01*
X137412280Y-93600500D01*
X137412287Y-93600500D01*
X137637713Y-93600500D01*
X137637720Y-93600500D01*
X137750236Y-93585687D01*
X137750236Y-93585686D01*
X137758295Y-93584626D01*
X137758698Y-93587689D01*
X137791302Y-93587689D01*
X137791705Y-93584626D01*
X137799763Y-93585686D01*
X137799764Y-93585687D01*
X137912280Y-93600500D01*
X137912287Y-93600500D01*
X138137713Y-93600500D01*
X138137720Y-93600500D01*
X138250236Y-93585687D01*
X138250236Y-93585686D01*
X138258295Y-93584626D01*
X138258698Y-93587689D01*
X138291302Y-93587689D01*
X138291705Y-93584626D01*
X138299763Y-93585686D01*
X138299764Y-93585687D01*
X138412280Y-93600500D01*
X138412287Y-93600500D01*
X138637713Y-93600500D01*
X138637720Y-93600500D01*
X138750236Y-93585687D01*
X138750236Y-93585686D01*
X138758295Y-93584626D01*
X138758698Y-93587689D01*
X138791302Y-93587689D01*
X138791705Y-93584626D01*
X138799763Y-93585686D01*
X138799764Y-93585687D01*
X138912280Y-93600500D01*
X138912287Y-93600500D01*
X139137713Y-93600500D01*
X139137720Y-93600500D01*
X139250236Y-93585687D01*
X139250236Y-93585686D01*
X139258295Y-93584626D01*
X139258698Y-93587689D01*
X139291302Y-93587689D01*
X139291705Y-93584626D01*
X139299763Y-93585686D01*
X139299764Y-93585687D01*
X139412280Y-93600500D01*
X139412287Y-93600500D01*
X139637713Y-93600500D01*
X139637720Y-93600500D01*
X139750236Y-93585687D01*
X139750236Y-93585686D01*
X139758295Y-93584626D01*
X139758698Y-93587689D01*
X139791302Y-93587689D01*
X139791705Y-93584626D01*
X139799763Y-93585686D01*
X139799764Y-93585687D01*
X139912280Y-93600500D01*
X139912287Y-93600500D01*
X140137713Y-93600500D01*
X140137720Y-93600500D01*
X140250236Y-93585687D01*
X140250236Y-93585686D01*
X140258295Y-93584626D01*
X140258698Y-93587689D01*
X140291302Y-93587689D01*
X140291705Y-93584626D01*
X140299763Y-93585686D01*
X140299764Y-93585687D01*
X140412280Y-93600500D01*
X140412287Y-93600500D01*
X140637713Y-93600500D01*
X140637720Y-93600500D01*
X140750236Y-93585687D01*
X140750236Y-93585686D01*
X140758295Y-93584626D01*
X140758697Y-93587679D01*
X140758852Y-93587679D01*
X140772055Y-93583460D01*
X140807099Y-93587652D01*
X140807599Y-93587786D01*
X140867258Y-93624153D01*
X140897784Y-93687002D01*
X140899500Y-93707559D01*
X140899500Y-95151968D01*
X140879815Y-95219007D01*
X140840597Y-95257506D01*
X140764153Y-95304657D01*
X140764149Y-95304660D01*
X140642161Y-95426648D01*
X140551593Y-95573481D01*
X140551592Y-95573484D01*
X140497326Y-95737247D01*
X140497326Y-95737248D01*
X140497325Y-95737248D01*
X140487000Y-95838315D01*
X140487000Y-96411669D01*
X140487001Y-96411687D01*
X140497325Y-96512752D01*
X140519082Y-96578409D01*
X140551592Y-96676516D01*
X140642160Y-96823350D01*
X140764150Y-96945340D01*
X140910984Y-97035908D01*
X141074747Y-97090174D01*
X141175823Y-97100500D01*
X141874176Y-97100499D01*
X141874184Y-97100498D01*
X141874187Y-97100498D01*
X141929530Y-97094844D01*
X141975253Y-97090174D01*
X142139016Y-97035908D01*
X142285850Y-96945340D01*
X142407840Y-96823350D01*
X142498408Y-96676516D01*
X142552674Y-96512753D01*
X142563000Y-96411677D01*
X142562999Y-95838324D01*
X142552674Y-95737247D01*
X142498408Y-95573484D01*
X142407840Y-95426650D01*
X142285850Y-95304660D01*
X142285846Y-95304657D01*
X142209403Y-95257506D01*
X142162678Y-95205558D01*
X142150500Y-95151968D01*
X142150500Y-93707291D01*
X142170185Y-93640252D01*
X142222989Y-93594497D01*
X142292147Y-93584553D01*
X142293923Y-93584917D01*
X142299760Y-93585685D01*
X142299764Y-93585687D01*
X142406394Y-93599725D01*
X142412264Y-93600498D01*
X142412280Y-93600500D01*
X142412287Y-93600500D01*
X142637713Y-93600500D01*
X142637720Y-93600500D01*
X142750236Y-93585687D01*
X142890233Y-93527698D01*
X143010451Y-93435451D01*
X143102698Y-93315233D01*
X143160687Y-93175236D01*
X143175500Y-93062720D01*
X143175500Y-91587280D01*
X143160687Y-91474764D01*
X143159936Y-91472951D01*
X143159173Y-91469115D01*
X143158584Y-91466916D01*
X143158728Y-91466877D01*
X143150500Y-91425506D01*
X143150500Y-90991835D01*
X143170185Y-90924796D01*
X143222989Y-90879041D01*
X143292147Y-90869097D01*
X143349985Y-90893459D01*
X143390824Y-90924796D01*
X143459765Y-90977697D01*
X143459767Y-90977698D01*
X143599764Y-91035687D01*
X143712280Y-91050500D01*
X145064548Y-91050500D01*
X145093988Y-91059144D01*
X145123975Y-91065668D01*
X145128990Y-91069422D01*
X145131587Y-91070185D01*
X145152229Y-91086819D01*
X145313181Y-91247771D01*
X145346666Y-91309094D01*
X145349500Y-91335452D01*
X145349500Y-95264547D01*
X145329815Y-95331586D01*
X145313181Y-95352228D01*
X141849729Y-98815681D01*
X141788406Y-98849166D01*
X141762048Y-98852000D01*
X141420809Y-98852000D01*
X141353770Y-98832315D01*
X141333128Y-98815681D01*
X141326870Y-98809423D01*
X141326862Y-98809417D01*
X141185396Y-98725755D01*
X141185393Y-98725754D01*
X141027573Y-98679902D01*
X141027567Y-98679901D01*
X140990701Y-98677000D01*
X140990694Y-98677000D01*
X139209306Y-98677000D01*
X139209298Y-98677000D01*
X139172432Y-98679901D01*
X139172426Y-98679902D01*
X139014606Y-98725754D01*
X139014603Y-98725755D01*
X138873137Y-98809417D01*
X138873129Y-98809423D01*
X138756923Y-98925629D01*
X138756917Y-98925637D01*
X138673255Y-99067103D01*
X138673254Y-99067106D01*
X138627402Y-99224926D01*
X138627401Y-99224932D01*
X138624500Y-99261798D01*
X138624500Y-99693201D01*
X138627401Y-99730067D01*
X138627402Y-99730073D01*
X138673254Y-99887893D01*
X138673255Y-99887896D01*
X138756917Y-100029362D01*
X138761702Y-100035531D01*
X138759256Y-100037427D01*
X138785857Y-100086142D01*
X138780873Y-100155834D01*
X138760069Y-100188203D01*
X138761702Y-100189469D01*
X138756917Y-100195637D01*
X138673255Y-100337103D01*
X138673254Y-100337106D01*
X138627402Y-100494926D01*
X138627401Y-100494932D01*
X138624500Y-100531798D01*
X138624500Y-100552585D01*
X138615855Y-100582025D01*
X138609332Y-100612012D01*
X138605577Y-100617027D01*
X138604815Y-100619624D01*
X138588181Y-100640266D01*
X138489426Y-100739021D01*
X138428103Y-100772506D01*
X138358411Y-100767522D01*
X138302478Y-100725650D01*
X138298643Y-100720231D01*
X138235858Y-100626267D01*
X138235855Y-100626263D01*
X138145637Y-100536045D01*
X138145606Y-100536016D01*
X137965811Y-100356221D01*
X137958360Y-100348770D01*
X137958358Y-100348767D01*
X137871233Y-100261642D01*
X137814578Y-100223786D01*
X137768786Y-100193188D01*
X137768783Y-100193186D01*
X137768780Y-100193185D01*
X137695103Y-100162668D01*
X137695101Y-100162667D01*
X137688292Y-100159847D01*
X137654952Y-100146037D01*
X137594529Y-100134018D01*
X137589806Y-100133078D01*
X137589804Y-100133078D01*
X137534110Y-100122000D01*
X137534107Y-100122000D01*
X137534106Y-100122000D01*
X136655692Y-100122000D01*
X136588653Y-100102315D01*
X136542898Y-100049511D01*
X136532954Y-99980353D01*
X136548959Y-99934880D01*
X136576744Y-99887898D01*
X136622598Y-99730069D01*
X136625500Y-99693194D01*
X136625500Y-99261806D01*
X136622598Y-99224931D01*
X136576744Y-99067102D01*
X136493081Y-98925635D01*
X136493079Y-98925633D01*
X136493076Y-98925629D01*
X136376870Y-98809423D01*
X136376862Y-98809417D01*
X136235396Y-98725755D01*
X136235393Y-98725754D01*
X136077573Y-98679902D01*
X136077567Y-98679901D01*
X136040701Y-98677000D01*
X136040694Y-98677000D01*
X134259306Y-98677000D01*
X134259298Y-98677000D01*
X134222432Y-98679901D01*
X134222426Y-98679902D01*
X134064606Y-98725754D01*
X134064603Y-98725755D01*
X133923137Y-98809417D01*
X133923129Y-98809423D01*
X133806923Y-98925629D01*
X133806917Y-98925637D01*
X133723255Y-99067103D01*
X133723254Y-99067104D01*
X133692476Y-99173043D01*
X133654869Y-99231928D01*
X133591397Y-99261134D01*
X133522210Y-99251388D01*
X133485719Y-99226128D01*
X131676821Y-97417230D01*
X131643336Y-97355907D01*
X131648320Y-97286215D01*
X131676817Y-97241872D01*
X131745340Y-97173350D01*
X131835908Y-97026516D01*
X131890174Y-96862753D01*
X131900500Y-96761677D01*
X131900499Y-96188324D01*
X131890174Y-96087247D01*
X131835908Y-95923484D01*
X131745340Y-95776650D01*
X131623350Y-95654660D01*
X131476516Y-95564092D01*
X131312753Y-95509826D01*
X131312751Y-95509825D01*
X131211678Y-95499500D01*
X130613330Y-95499500D01*
X130613312Y-95499501D01*
X130512247Y-95509825D01*
X130348484Y-95564092D01*
X130348481Y-95564093D01*
X130201648Y-95654661D01*
X130087681Y-95768629D01*
X130026358Y-95802114D01*
X129956666Y-95797130D01*
X129912319Y-95768629D01*
X129798351Y-95654661D01*
X129798350Y-95654660D01*
X129651516Y-95564092D01*
X129487753Y-95509826D01*
X129487751Y-95509825D01*
X129386678Y-95499500D01*
X128788330Y-95499500D01*
X128788312Y-95499501D01*
X128687247Y-95509825D01*
X128523484Y-95564092D01*
X128523481Y-95564093D01*
X128376648Y-95654661D01*
X128254661Y-95776648D01*
X128164093Y-95923481D01*
X128164092Y-95923484D01*
X128109826Y-96087247D01*
X128109826Y-96087248D01*
X128109825Y-96087248D01*
X128099500Y-96188315D01*
X128099500Y-96527047D01*
X128079815Y-96594086D01*
X128063181Y-96614728D01*
X127853186Y-96824722D01*
X127853175Y-96824733D01*
X127851270Y-96826639D01*
X127851267Y-96826642D01*
X127764142Y-96913767D01*
X127749262Y-96936037D01*
X127744001Y-96943910D01*
X127743994Y-96943918D01*
X127695690Y-97016209D01*
X127695685Y-97016218D01*
X127665053Y-97090173D01*
X127665053Y-97090174D01*
X127660776Y-97100500D01*
X127648538Y-97130045D01*
X127648535Y-97130053D01*
X127624500Y-97250889D01*
X127624500Y-100636611D01*
X127648535Y-100757444D01*
X127648540Y-100757461D01*
X127695685Y-100871280D01*
X127695687Y-100871283D01*
X127695688Y-100871286D01*
X127729915Y-100922509D01*
X127764142Y-100973733D01*
X127851267Y-101060858D01*
X127851269Y-101060859D01*
X127861232Y-101070822D01*
X128707571Y-101917162D01*
X128741056Y-101978485D01*
X128737821Y-102043160D01*
X128732754Y-102058753D01*
X128704825Y-102235091D01*
X128699500Y-102268713D01*
X128699500Y-102481287D01*
X128702996Y-102503358D01*
X128728000Y-102661232D01*
X128732754Y-102691243D01*
X128759075Y-102772251D01*
X128798444Y-102893414D01*
X128894951Y-103082820D01*
X129019890Y-103254786D01*
X129170213Y-103405109D01*
X129342179Y-103530048D01*
X129342181Y-103530049D01*
X129342184Y-103530051D01*
X129531588Y-103626557D01*
X129733757Y-103692246D01*
X129943713Y-103725500D01*
X129943714Y-103725500D01*
X130156286Y-103725500D01*
X130156287Y-103725500D01*
X130366243Y-103692246D01*
X130568412Y-103626557D01*
X130757816Y-103530051D01*
X130779789Y-103514086D01*
X130929786Y-103405109D01*
X130929788Y-103405106D01*
X130929792Y-103405104D01*
X131080104Y-103254792D01*
X131080106Y-103254788D01*
X131080109Y-103254786D01*
X131205048Y-103082820D01*
X131205047Y-103082820D01*
X131205051Y-103082816D01*
X131301557Y-102893412D01*
X131332569Y-102797964D01*
X131372006Y-102740290D01*
X131436365Y-102713092D01*
X131505211Y-102725007D01*
X131556687Y-102772251D01*
X131574500Y-102836284D01*
X131574500Y-104413330D01*
X131574499Y-104413348D01*
X131574499Y-104579054D01*
X131574498Y-104579054D01*
X131615423Y-104731785D01*
X131644358Y-104781900D01*
X131644359Y-104781904D01*
X131644360Y-104781904D01*
X131694479Y-104868714D01*
X131694481Y-104868717D01*
X131813349Y-104987585D01*
X131813355Y-104987590D01*
X133313965Y-106488200D01*
X133347450Y-106549523D01*
X133342466Y-106619215D01*
X133300594Y-106675148D01*
X133299170Y-106676199D01*
X133170209Y-106769894D01*
X133019894Y-106920209D01*
X133019890Y-106920214D01*
X132900318Y-107084793D01*
X132844989Y-107127459D01*
X132775375Y-107133438D01*
X132713580Y-107100833D01*
X132699682Y-107084793D01*
X132580109Y-106920214D01*
X132580105Y-106920209D01*
X132429786Y-106769890D01*
X132257820Y-106644951D01*
X132068414Y-106548444D01*
X132068413Y-106548443D01*
X132068412Y-106548443D01*
X131866243Y-106482754D01*
X131866241Y-106482753D01*
X131866240Y-106482753D01*
X131704957Y-106457208D01*
X131656287Y-106449500D01*
X131443713Y-106449500D01*
X131395042Y-106457208D01*
X131233760Y-106482753D01*
X131031585Y-106548444D01*
X130842179Y-106644951D01*
X130670213Y-106769890D01*
X130519890Y-106920213D01*
X130394951Y-107092179D01*
X130298444Y-107281585D01*
X130232753Y-107483760D01*
X130199500Y-107693713D01*
X130199500Y-108156286D01*
X130232753Y-108366239D01*
X130298444Y-108568414D01*
X130394951Y-108757820D01*
X130519890Y-108929786D01*
X130519896Y-108929792D01*
X130670208Y-109080104D01*
X130748384Y-109136902D01*
X130791051Y-109192231D01*
X130799500Y-109237220D01*
X130799500Y-110590500D01*
X130779815Y-110657539D01*
X130727011Y-110703294D01*
X130675500Y-110714500D01*
X128352229Y-110714500D01*
X128285190Y-110694815D01*
X128264548Y-110678181D01*
X126686819Y-109100451D01*
X126653334Y-109039128D01*
X126650500Y-109012770D01*
X126650500Y-77931435D01*
X130019300Y-77931435D01*
X130019300Y-79068570D01*
X130019301Y-79068576D01*
X130025708Y-79128183D01*
X130076002Y-79263028D01*
X130076006Y-79263035D01*
X130162252Y-79378244D01*
X130162255Y-79378247D01*
X130277464Y-79464493D01*
X130277471Y-79464497D01*
X130300350Y-79473030D01*
X130412317Y-79514791D01*
X130471927Y-79521200D01*
X131228072Y-79521199D01*
X131287683Y-79514791D01*
X131422531Y-79464496D01*
X131537746Y-79378246D01*
X131623996Y-79263031D01*
X131645205Y-79206167D01*
X131658474Y-79188440D01*
X131667674Y-79168297D01*
X131679005Y-79161014D01*
X131687076Y-79150234D01*
X131707821Y-79142495D01*
X131726452Y-79130523D01*
X131748369Y-79127371D01*
X131752540Y-79125816D01*
X131761387Y-79125500D01*
X131981792Y-79125500D01*
X132048831Y-79145185D01*
X132074415Y-79168380D01*
X132074553Y-79168243D01*
X132077352Y-79171042D01*
X132079055Y-79172586D01*
X132079655Y-79173345D01*
X132079660Y-79173350D01*
X132201650Y-79295340D01*
X132348484Y-79385908D01*
X132512247Y-79440174D01*
X132613323Y-79450500D01*
X133311676Y-79450499D01*
X133311684Y-79450498D01*
X133311687Y-79450498D01*
X133367030Y-79444844D01*
X133412753Y-79440174D01*
X133576516Y-79385908D01*
X133723350Y-79295340D01*
X133845340Y-79173350D01*
X133935908Y-79026516D01*
X133990174Y-78862753D01*
X134000500Y-78761677D01*
X134000499Y-78188324D01*
X133999530Y-78178842D01*
X133990174Y-78087247D01*
X133968272Y-78021153D01*
X133935908Y-77923484D01*
X133845340Y-77776650D01*
X133723350Y-77654660D01*
X133618051Y-77589711D01*
X133576518Y-77564093D01*
X133576513Y-77564091D01*
X133574557Y-77563443D01*
X133412753Y-77509826D01*
X133412751Y-77509825D01*
X133311678Y-77499500D01*
X132613330Y-77499500D01*
X132613312Y-77499501D01*
X132512247Y-77509825D01*
X132348484Y-77564092D01*
X132348481Y-77564093D01*
X132201648Y-77654661D01*
X132079659Y-77776650D01*
X132055638Y-77815596D01*
X132048051Y-77822419D01*
X132043812Y-77831703D01*
X132022511Y-77845391D01*
X132003690Y-77862321D01*
X131992054Y-77864965D01*
X131985034Y-77869477D01*
X131950099Y-77874500D01*
X131761387Y-77874500D01*
X131694348Y-77854815D01*
X131648593Y-77802011D01*
X131645205Y-77793833D01*
X131623997Y-77736971D01*
X131623993Y-77736964D01*
X131537747Y-77621755D01*
X131537744Y-77621752D01*
X131422535Y-77535506D01*
X131422528Y-77535502D01*
X131287686Y-77485210D01*
X131287685Y-77485209D01*
X131287683Y-77485209D01*
X131228073Y-77478800D01*
X131228063Y-77478800D01*
X130471929Y-77478800D01*
X130471923Y-77478801D01*
X130412316Y-77485208D01*
X130277471Y-77535502D01*
X130277464Y-77535506D01*
X130162255Y-77621752D01*
X130162252Y-77621755D01*
X130076006Y-77736964D01*
X130076002Y-77736971D01*
X130025708Y-77871817D01*
X130019301Y-77931416D01*
X130019300Y-77931435D01*
X126650500Y-77931435D01*
X126650500Y-72162230D01*
X126670185Y-72095191D01*
X126686819Y-72074549D01*
X126858552Y-71902816D01*
X127020452Y-71740916D01*
X127207952Y-71553416D01*
X127207952Y-71553415D01*
X127225384Y-71535983D01*
X127225393Y-71535973D01*
X127225392Y-71535973D01*
X127278414Y-71482953D01*
X127278416Y-71482952D01*
X127382952Y-71378416D01*
X127382952Y-71378415D01*
X127868206Y-70893159D01*
X127868211Y-70893156D01*
X127878414Y-70882952D01*
X127878416Y-70882952D01*
X128672049Y-70089319D01*
X128733372Y-70055834D01*
X128759730Y-70053000D01*
X136589800Y-70053000D01*
X136656839Y-70072685D01*
G37*
%TD.AperFunction*%
%TA.AperFunction,Conductor*%
G36*
X137067539Y-101392685D02*
G01*
X137113294Y-101445489D01*
X137124500Y-101497000D01*
X137124500Y-105214547D01*
X137104815Y-105281586D01*
X137088181Y-105302228D01*
X136064144Y-106326264D01*
X136064138Y-106326272D01*
X135995692Y-106428705D01*
X135995684Y-106428719D01*
X135962347Y-106509206D01*
X135962347Y-106509207D01*
X135948537Y-106542548D01*
X135948536Y-106542551D01*
X135948534Y-106542557D01*
X135946766Y-106548385D01*
X135944187Y-106547602D01*
X135917123Y-106599212D01*
X135884278Y-106623500D01*
X135842180Y-106644950D01*
X135670213Y-106769890D01*
X135519894Y-106920209D01*
X135519890Y-106920214D01*
X135400318Y-107084793D01*
X135344989Y-107127459D01*
X135275375Y-107133438D01*
X135213580Y-107100833D01*
X135199682Y-107084793D01*
X135080109Y-106920214D01*
X135080105Y-106920209D01*
X134929786Y-106769890D01*
X134757819Y-106644950D01*
X134743203Y-106637503D01*
X134692408Y-106589527D01*
X134675500Y-106527019D01*
X134675500Y-106313393D01*
X134675499Y-106313389D01*
X134651464Y-106192555D01*
X134651463Y-106192548D01*
X134604311Y-106078714D01*
X134604310Y-106078713D01*
X134604307Y-106078707D01*
X134535858Y-105976267D01*
X134535855Y-105976263D01*
X134448736Y-105889144D01*
X134448732Y-105889141D01*
X134352334Y-105824730D01*
X134333544Y-105809309D01*
X132811819Y-104287584D01*
X132778334Y-104226261D01*
X132775500Y-104199903D01*
X132775500Y-102534454D01*
X132780377Y-102517843D01*
X132780230Y-102500534D01*
X132790016Y-102485016D01*
X132795185Y-102467415D01*
X132808266Y-102456079D01*
X132817502Y-102441436D01*
X132834126Y-102433672D01*
X132847989Y-102421660D01*
X132865122Y-102419196D01*
X132880808Y-102411871D01*
X132898988Y-102414327D01*
X132917147Y-102411716D01*
X132933149Y-102418942D01*
X132950049Y-102421225D01*
X132972663Y-102436784D01*
X132979902Y-102440053D01*
X132983678Y-102443269D01*
X133043767Y-102503358D01*
X133086311Y-102531785D01*
X133146214Y-102571812D01*
X133146219Y-102571814D01*
X133220100Y-102602416D01*
X133220104Y-102602417D01*
X133226707Y-102605152D01*
X133260048Y-102618963D01*
X133315034Y-102629900D01*
X133380891Y-102642999D01*
X133380892Y-102643000D01*
X133380893Y-102643000D01*
X133380894Y-102643000D01*
X133829191Y-102643000D01*
X133896230Y-102662685D01*
X133916872Y-102679319D01*
X133923129Y-102685576D01*
X133923133Y-102685579D01*
X133923135Y-102685581D01*
X134064602Y-102769244D01*
X134074952Y-102772251D01*
X134222426Y-102815097D01*
X134222429Y-102815097D01*
X134222431Y-102815098D01*
X134259306Y-102818000D01*
X134259314Y-102818000D01*
X136040686Y-102818000D01*
X136040694Y-102818000D01*
X136077569Y-102815098D01*
X136077571Y-102815097D01*
X136077573Y-102815097D01*
X136136537Y-102797966D01*
X136235398Y-102769244D01*
X136376865Y-102685581D01*
X136493081Y-102569365D01*
X136576744Y-102427898D01*
X136622598Y-102270069D01*
X136625500Y-102233194D01*
X136625500Y-101801806D01*
X136622598Y-101764931D01*
X136576744Y-101607102D01*
X136548958Y-101560119D01*
X136531778Y-101492396D01*
X136553938Y-101426134D01*
X136608404Y-101382371D01*
X136655692Y-101373000D01*
X137000500Y-101373000D01*
X137067539Y-101392685D01*
G37*
%TD.AperFunction*%
%TA.AperFunction,Conductor*%
G36*
X141421365Y-101443909D02*
G01*
X141465129Y-101498375D01*
X141474500Y-101545664D01*
X141474500Y-101952046D01*
X141454815Y-102019085D01*
X141438181Y-102039727D01*
X141027227Y-102450681D01*
X140965904Y-102484166D01*
X140939546Y-102487000D01*
X139209306Y-102487000D01*
X139209300Y-102487000D01*
X139209282Y-102487001D01*
X139209222Y-102487006D01*
X139209212Y-102487003D01*
X139206868Y-102487096D01*
X139206844Y-102486506D01*
X139195616Y-102484147D01*
X139181853Y-102486126D01*
X139162096Y-102477103D01*
X139140845Y-102472638D01*
X139130944Y-102462877D01*
X139118297Y-102457101D01*
X139106555Y-102438831D01*
X139091091Y-102423584D01*
X139087265Y-102408815D01*
X139080523Y-102398323D01*
X139075500Y-102363388D01*
X139075500Y-102327046D01*
X139095185Y-102260007D01*
X139111819Y-102239365D01*
X139766865Y-101584319D01*
X139828188Y-101550834D01*
X139854546Y-101548000D01*
X140990686Y-101548000D01*
X140990694Y-101548000D01*
X141027569Y-101545098D01*
X141027571Y-101545097D01*
X141027573Y-101545097D01*
X141069191Y-101533005D01*
X141185398Y-101499244D01*
X141287381Y-101438931D01*
X141355102Y-101421749D01*
X141421365Y-101443909D01*
G37*
%TD.AperFunction*%
%TA.AperFunction,Conductor*%
G36*
X142107260Y-83545185D02*
G01*
X142153015Y-83597989D01*
X142162959Y-83667147D01*
X142154782Y-83696952D01*
X142105264Y-83816498D01*
X142105261Y-83816510D01*
X142074500Y-83971153D01*
X142074500Y-84128846D01*
X142105261Y-84283489D01*
X142105264Y-84283501D01*
X142165602Y-84429172D01*
X142165609Y-84429185D01*
X142253210Y-84560288D01*
X142253213Y-84560292D01*
X142364707Y-84671786D01*
X142364711Y-84671789D01*
X142495814Y-84759390D01*
X142495827Y-84759397D01*
X142620218Y-84810921D01*
X142660447Y-84837801D01*
X143121375Y-85298729D01*
X143121378Y-85298733D01*
X143133332Y-85310687D01*
X143138183Y-85315538D01*
X143151513Y-85339951D01*
X143171666Y-85376856D01*
X143174500Y-85403217D01*
X143174500Y-85512727D01*
X143190374Y-85633292D01*
X143187399Y-85633683D01*
X143187399Y-85666316D01*
X143190374Y-85666708D01*
X143174500Y-85787272D01*
X143174500Y-86012727D01*
X143185499Y-86096271D01*
X143188355Y-86117962D01*
X143190374Y-86133292D01*
X143187399Y-86133683D01*
X143187399Y-86166316D01*
X143190374Y-86166708D01*
X143174500Y-86287272D01*
X143174500Y-86512727D01*
X143190374Y-86633292D01*
X143187399Y-86633683D01*
X143187399Y-86666316D01*
X143190374Y-86666708D01*
X143174500Y-86787272D01*
X143174500Y-87012727D01*
X143190374Y-87133292D01*
X143187399Y-87133683D01*
X143187399Y-87166316D01*
X143190374Y-87166708D01*
X143174500Y-87287272D01*
X143174500Y-87512727D01*
X143190374Y-87633292D01*
X143187399Y-87633683D01*
X143187399Y-87666316D01*
X143190374Y-87666708D01*
X143174500Y-87787272D01*
X143174500Y-88012727D01*
X143190374Y-88133292D01*
X143187399Y-88133683D01*
X143187399Y-88166316D01*
X143190374Y-88166708D01*
X143174500Y-88287272D01*
X143174500Y-88512727D01*
X143190374Y-88633292D01*
X143187399Y-88633683D01*
X143187399Y-88666316D01*
X143190374Y-88666708D01*
X143174500Y-88787272D01*
X143174500Y-89012727D01*
X143190374Y-89133292D01*
X143187399Y-89133683D01*
X143187399Y-89166316D01*
X143190374Y-89166708D01*
X143174500Y-89287272D01*
X143174500Y-89512727D01*
X143190374Y-89633292D01*
X143187002Y-89633735D01*
X143186840Y-89640103D01*
X143191019Y-89661717D01*
X143190129Y-89666675D01*
X143190374Y-89666708D01*
X143174500Y-89787272D01*
X143174500Y-89840546D01*
X143154815Y-89907585D01*
X143102011Y-89953340D01*
X143032853Y-89963284D01*
X142969297Y-89934259D01*
X142962819Y-89928227D01*
X142920637Y-89886045D01*
X142920606Y-89886016D01*
X138911819Y-85877229D01*
X138878334Y-85815906D01*
X138875500Y-85789548D01*
X138875500Y-84910451D01*
X138895185Y-84843412D01*
X138911815Y-84822774D01*
X139636229Y-84098360D01*
X139636233Y-84098358D01*
X139723358Y-84011233D01*
X139723359Y-84011231D01*
X139810858Y-83923733D01*
X139810859Y-83923731D01*
X139910857Y-83823734D01*
X139910858Y-83823732D01*
X140010857Y-83723734D01*
X140010858Y-83723732D01*
X140037639Y-83696952D01*
X140158566Y-83576025D01*
X140158570Y-83576019D01*
X140172774Y-83561816D01*
X140234098Y-83528333D01*
X140260452Y-83525500D01*
X140663394Y-83525500D01*
X142040221Y-83525500D01*
X142107260Y-83545185D01*
G37*
%TD.AperFunction*%
%TA.AperFunction,Conductor*%
G36*
X131784479Y-86045185D02*
G01*
X131830234Y-86097989D01*
X131837229Y-86117461D01*
X131837363Y-86117962D01*
X131837378Y-86166313D01*
X131840374Y-86166708D01*
X131824500Y-86287272D01*
X131824500Y-86512727D01*
X131840374Y-86633292D01*
X131837399Y-86633683D01*
X131837399Y-86666316D01*
X131840374Y-86666708D01*
X131824500Y-86787272D01*
X131824500Y-87012727D01*
X131840374Y-87133292D01*
X131837399Y-87133683D01*
X131837399Y-87166316D01*
X131840374Y-87166708D01*
X131824500Y-87287272D01*
X131824500Y-87512727D01*
X131840374Y-87633292D01*
X131837399Y-87633683D01*
X131837399Y-87666316D01*
X131840374Y-87666708D01*
X131824500Y-87787272D01*
X131824500Y-88012727D01*
X131839313Y-88125235D01*
X131839313Y-88125236D01*
X131897300Y-88265230D01*
X131897301Y-88265232D01*
X131897302Y-88265233D01*
X131942790Y-88324514D01*
X131967984Y-88389683D01*
X131953946Y-88458127D01*
X131942793Y-88475482D01*
X131916850Y-88509291D01*
X131897300Y-88534769D01*
X131839313Y-88674763D01*
X131839313Y-88674764D01*
X131824500Y-88787272D01*
X131824500Y-88970033D01*
X131804815Y-89037072D01*
X131752011Y-89082827D01*
X131682853Y-89092771D01*
X131619297Y-89063746D01*
X131594961Y-89035130D01*
X131581143Y-89012727D01*
X131520340Y-88914150D01*
X131398350Y-88792160D01*
X131398349Y-88792159D01*
X131316028Y-88741382D01*
X131304596Y-88729032D01*
X131291344Y-88721373D01*
X131276755Y-88698955D01*
X131270885Y-88692614D01*
X131268527Y-88688036D01*
X131254311Y-88653714D01*
X131243143Y-88637000D01*
X131239229Y-88631143D01*
X131239228Y-88631140D01*
X131185861Y-88551271D01*
X131185860Y-88551269D01*
X131147304Y-88512713D01*
X131098733Y-88464142D01*
X131098732Y-88464141D01*
X130811819Y-88177228D01*
X130778334Y-88115905D01*
X130775500Y-88089547D01*
X130775500Y-87626439D01*
X130795185Y-87559400D01*
X130847989Y-87513645D01*
X130856168Y-87510257D01*
X130967326Y-87468798D01*
X130967326Y-87468797D01*
X130967331Y-87468796D01*
X131082546Y-87382546D01*
X131168796Y-87267331D01*
X131219091Y-87132483D01*
X131225500Y-87072873D01*
X131225499Y-86185453D01*
X131234146Y-86156004D01*
X131240668Y-86126026D01*
X131244419Y-86121014D01*
X131245183Y-86118415D01*
X131261819Y-86097772D01*
X131297774Y-86061818D01*
X131359098Y-86028333D01*
X131385454Y-86025500D01*
X131717440Y-86025500D01*
X131784479Y-86045185D01*
G37*
%TD.AperFunction*%
%TA.AperFunction,Conductor*%
G36*
X129040973Y-85345184D02*
G01*
X129086728Y-85397988D01*
X129096672Y-85467146D01*
X129090116Y-85492833D01*
X129080908Y-85517518D01*
X129074501Y-85577116D01*
X129074500Y-85577135D01*
X129074500Y-87072870D01*
X129074501Y-87072876D01*
X129080908Y-87132483D01*
X129131202Y-87267328D01*
X129131206Y-87267335D01*
X129217452Y-87382544D01*
X129217455Y-87382547D01*
X129332664Y-87468793D01*
X129332673Y-87468798D01*
X129443832Y-87510257D01*
X129499766Y-87552127D01*
X129524184Y-87617592D01*
X129524500Y-87626439D01*
X129524500Y-88338393D01*
X129524500Y-88461607D01*
X129527261Y-88475487D01*
X129535675Y-88517790D01*
X129529446Y-88587382D01*
X129486583Y-88642559D01*
X129420692Y-88665802D01*
X129375054Y-88659686D01*
X129337755Y-88647326D01*
X129337751Y-88647325D01*
X129236684Y-88637000D01*
X129236677Y-88637000D01*
X128847953Y-88637000D01*
X128780914Y-88617315D01*
X128760272Y-88600681D01*
X128311819Y-88152228D01*
X128278334Y-88090905D01*
X128275500Y-88064547D01*
X128275500Y-85449499D01*
X128295185Y-85382460D01*
X128347989Y-85336705D01*
X128399500Y-85325499D01*
X128973934Y-85325499D01*
X129040973Y-85345184D01*
G37*
%TD.AperFunction*%
%TA.AperFunction,Conductor*%
G36*
X130256587Y-83220185D02*
G01*
X130277229Y-83236819D01*
X131338181Y-84297771D01*
X131371666Y-84359094D01*
X131374500Y-84385452D01*
X131374500Y-84650500D01*
X131371949Y-84659185D01*
X131373238Y-84668147D01*
X131362259Y-84692187D01*
X131354815Y-84717539D01*
X131347974Y-84723466D01*
X131344213Y-84731703D01*
X131321978Y-84745992D01*
X131302011Y-84763294D01*
X131291496Y-84765581D01*
X131285435Y-84769477D01*
X131250500Y-84774500D01*
X131142741Y-84774500D01*
X131142721Y-84774499D01*
X131136607Y-84774499D01*
X131013394Y-84774499D01*
X131013392Y-84774499D01*
X130919060Y-84793263D01*
X130892552Y-84798535D01*
X130892541Y-84798539D01*
X130862649Y-84810921D01*
X130845397Y-84818067D01*
X130778719Y-84845685D01*
X130778717Y-84845686D01*
X130676266Y-84914141D01*
X130502226Y-85088181D01*
X130440903Y-85121666D01*
X130414545Y-85124500D01*
X129726066Y-85124500D01*
X129659027Y-85104815D01*
X129613272Y-85052011D01*
X129603328Y-84982853D01*
X129609885Y-84957165D01*
X129619091Y-84932483D01*
X129621063Y-84914141D01*
X129625500Y-84872873D01*
X129625499Y-83377128D01*
X129621266Y-83337753D01*
X129633672Y-83268995D01*
X129681283Y-83217858D01*
X129744556Y-83200500D01*
X130189548Y-83200500D01*
X130256587Y-83220185D01*
G37*
%TD.AperFunction*%
%TA.AperFunction,Conductor*%
G36*
X145241564Y-72690185D02*
G01*
X145287319Y-72742989D01*
X145297263Y-72812147D01*
X145268238Y-72875703D01*
X145221977Y-72909061D01*
X145145827Y-72940602D01*
X145145814Y-72940609D01*
X145014711Y-73028210D01*
X145014707Y-73028213D01*
X144903213Y-73139707D01*
X144903210Y-73139711D01*
X144815609Y-73270814D01*
X144815602Y-73270827D01*
X144755264Y-73416498D01*
X144755261Y-73416508D01*
X144733141Y-73527713D01*
X144700756Y-73589624D01*
X144699205Y-73591202D01*
X139127667Y-79162741D01*
X139127651Y-79162757D01*
X139126269Y-79164140D01*
X139126267Y-79164142D01*
X139039142Y-79251267D01*
X139031282Y-79263031D01*
X139025605Y-79271526D01*
X139025604Y-79271528D01*
X138970687Y-79353715D01*
X138970685Y-79353718D01*
X138941313Y-79424630D01*
X138941311Y-79424634D01*
X138937347Y-79434207D01*
X138923537Y-79467548D01*
X138899500Y-79588394D01*
X138899500Y-79606511D01*
X138896348Y-79620222D01*
X138885853Y-79638914D01*
X138879815Y-79659479D01*
X138869091Y-79668771D01*
X138862143Y-79681147D01*
X138843209Y-79691198D01*
X138827011Y-79705234D01*
X138807539Y-79712229D01*
X138807038Y-79712363D01*
X138803338Y-79712364D01*
X138800430Y-79713908D01*
X138781989Y-79712370D01*
X138758686Y-79712378D01*
X138758292Y-79715374D01*
X138750237Y-79714313D01*
X138750236Y-79714313D01*
X138721271Y-79710499D01*
X138637727Y-79699500D01*
X138637720Y-79699500D01*
X138412280Y-79699500D01*
X138412272Y-79699500D01*
X138325393Y-79710938D01*
X138299764Y-79714313D01*
X138299762Y-79714313D01*
X138291708Y-79715374D01*
X138291316Y-79712399D01*
X138258684Y-79712399D01*
X138258292Y-79715374D01*
X138250237Y-79714313D01*
X138250236Y-79714313D01*
X138221271Y-79710499D01*
X138137727Y-79699500D01*
X138137720Y-79699500D01*
X137912280Y-79699500D01*
X137912272Y-79699500D01*
X137825393Y-79710938D01*
X137799764Y-79714313D01*
X137799762Y-79714313D01*
X137791708Y-79715374D01*
X137791314Y-79712386D01*
X137790938Y-79712386D01*
X137777945Y-79716539D01*
X137742901Y-79712347D01*
X137742401Y-79712213D01*
X137682742Y-79675846D01*
X137652216Y-79612997D01*
X137650500Y-79592440D01*
X137650500Y-79473030D01*
X137670185Y-79405991D01*
X137709404Y-79367491D01*
X137785850Y-79320340D01*
X137907840Y-79198350D01*
X137998408Y-79051516D01*
X138052674Y-78887753D01*
X138063000Y-78786677D01*
X138062999Y-78213324D01*
X138052674Y-78112247D01*
X137998408Y-77948484D01*
X137907840Y-77801650D01*
X137785850Y-77679660D01*
X137691971Y-77621755D01*
X137639018Y-77589093D01*
X137639013Y-77589091D01*
X137637569Y-77588612D01*
X137475253Y-77534826D01*
X137475251Y-77534825D01*
X137374178Y-77524500D01*
X136775830Y-77524500D01*
X136775812Y-77524501D01*
X136674747Y-77534825D01*
X136510984Y-77589092D01*
X136510977Y-77589095D01*
X136364596Y-77679384D01*
X136297204Y-77697824D01*
X136230540Y-77676901D01*
X136185771Y-77623259D01*
X136175500Y-77573845D01*
X136175500Y-77035452D01*
X136184144Y-77006012D01*
X136190667Y-76976027D01*
X136194422Y-76971009D01*
X136195185Y-76968413D01*
X136211814Y-76947774D01*
X136241664Y-76917924D01*
X136241669Y-76917921D01*
X136248731Y-76910859D01*
X136248733Y-76910858D01*
X136335858Y-76823733D01*
X136335859Y-76823731D01*
X136435857Y-76723734D01*
X136435858Y-76723732D01*
X136442918Y-76716672D01*
X136442923Y-76716665D01*
X140452771Y-72706819D01*
X140514094Y-72673334D01*
X140540452Y-72670500D01*
X145174525Y-72670500D01*
X145241564Y-72690185D01*
G37*
%TD.AperFunction*%
%TA.AperFunction,Conductor*%
G36*
X130369865Y-39006685D02*
G01*
X130391772Y-39008184D01*
X130402734Y-39016336D01*
X130415839Y-39020185D01*
X130430214Y-39036775D01*
X130447836Y-39049881D01*
X130452650Y-39062667D01*
X130461594Y-39072989D01*
X130464718Y-39094720D01*
X130472456Y-39115270D01*
X130470914Y-39137810D01*
X130471538Y-39142147D01*
X130470312Y-39146614D01*
X130470048Y-39150481D01*
X130467682Y-39161518D01*
X130455263Y-39191503D01*
X130424500Y-39346158D01*
X130424500Y-39363040D01*
X130421748Y-39375883D01*
X130388453Y-39437310D01*
X130388181Y-39437583D01*
X129890476Y-39935288D01*
X129381286Y-40444478D01*
X129381284Y-40444480D01*
X129340443Y-40485320D01*
X129313846Y-40511916D01*
X129313842Y-40511922D01*
X129219480Y-40606284D01*
X129218850Y-40606914D01*
X129218784Y-40606981D01*
X129143786Y-40681978D01*
X129143784Y-40681980D01*
X127944481Y-41881282D01*
X127944475Y-41881290D01*
X127897302Y-41962998D01*
X127897302Y-41962999D01*
X127865423Y-42018214D01*
X127865423Y-42018215D01*
X127824499Y-42170943D01*
X127824499Y-42170945D01*
X127824499Y-42339046D01*
X127824500Y-42339059D01*
X127824500Y-61188330D01*
X127824499Y-61188348D01*
X127824499Y-61354054D01*
X127824498Y-61354054D01*
X127865424Y-61506789D01*
X127865425Y-61506790D01*
X127886768Y-61543756D01*
X127886769Y-61543758D01*
X127944475Y-61643709D01*
X127944481Y-61643717D01*
X128063349Y-61762585D01*
X128063355Y-61762590D01*
X128584307Y-62283542D01*
X128599727Y-62302331D01*
X128664139Y-62398727D01*
X128664145Y-62398735D01*
X130163181Y-63897771D01*
X130196666Y-63959094D01*
X130199500Y-63985452D01*
X130199500Y-65297870D01*
X130199501Y-65297876D01*
X130205908Y-65357483D01*
X130256202Y-65492328D01*
X130256206Y-65492335D01*
X130342452Y-65607544D01*
X130342455Y-65607547D01*
X130457664Y-65693793D01*
X130457671Y-65693797D01*
X130592517Y-65744091D01*
X130592516Y-65744091D01*
X130599444Y-65744835D01*
X130652127Y-65750500D01*
X132447872Y-65750499D01*
X132507483Y-65744091D01*
X132642331Y-65693796D01*
X132757546Y-65607546D01*
X132843796Y-65492331D01*
X132894091Y-65357483D01*
X132900500Y-65297873D01*
X132900500Y-65149500D01*
X132920185Y-65082461D01*
X132972989Y-65036706D01*
X133024500Y-65025500D01*
X143464548Y-65025500D01*
X143531587Y-65045185D01*
X143552229Y-65061819D01*
X144213181Y-65722771D01*
X144246666Y-65784094D01*
X144249500Y-65810452D01*
X144249500Y-66922046D01*
X144229815Y-66989085D01*
X144213181Y-67009727D01*
X144027227Y-67195681D01*
X143965904Y-67229166D01*
X143939546Y-67232000D01*
X142209298Y-67232000D01*
X142172432Y-67234901D01*
X142172426Y-67234902D01*
X142014606Y-67280754D01*
X142014603Y-67280755D01*
X141873137Y-67364417D01*
X141873129Y-67364423D01*
X141756923Y-67480629D01*
X141756917Y-67480637D01*
X141673255Y-67622103D01*
X141673254Y-67622106D01*
X141627402Y-67779926D01*
X141627401Y-67779932D01*
X141624500Y-67816798D01*
X141624500Y-68248201D01*
X141627401Y-68285067D01*
X141627402Y-68285073D01*
X141673254Y-68442893D01*
X141673255Y-68442896D01*
X141756917Y-68584362D01*
X141760833Y-68589411D01*
X141761246Y-68589698D01*
X141761463Y-68590223D01*
X141761702Y-68590531D01*
X141761617Y-68590596D01*
X141772173Y-68616082D01*
X141785857Y-68641142D01*
X141785370Y-68647946D01*
X141787981Y-68654250D01*
X141782909Y-68682351D01*
X141780873Y-68710834D01*
X141776489Y-68717929D01*
X141775573Y-68723009D01*
X141760672Y-68743670D01*
X141761702Y-68744469D01*
X141756916Y-68750638D01*
X141707006Y-68835033D01*
X141655937Y-68882717D01*
X141587195Y-68895220D01*
X141522606Y-68868575D01*
X141512593Y-68859593D01*
X141495637Y-68842637D01*
X141495606Y-68842608D01*
X139661819Y-67008821D01*
X139628334Y-66947498D01*
X139625500Y-66921140D01*
X139625500Y-66546813D01*
X139625499Y-66546798D01*
X139622598Y-66509932D01*
X139622597Y-66509926D01*
X139576745Y-66352106D01*
X139576744Y-66352103D01*
X139576744Y-66352102D01*
X139493081Y-66210635D01*
X139493079Y-66210633D01*
X139493076Y-66210629D01*
X139376870Y-66094423D01*
X139376862Y-66094417D01*
X139235396Y-66010755D01*
X139235393Y-66010754D01*
X139077573Y-65964902D01*
X139077567Y-65964901D01*
X139040701Y-65962000D01*
X139040694Y-65962000D01*
X137259306Y-65962000D01*
X137259298Y-65962000D01*
X137222432Y-65964901D01*
X137222426Y-65964902D01*
X137064606Y-66010754D01*
X137064603Y-66010755D01*
X136923137Y-66094417D01*
X136923129Y-66094423D01*
X136806923Y-66210629D01*
X136806917Y-66210637D01*
X136723255Y-66352103D01*
X136723254Y-66352106D01*
X136677402Y-66509926D01*
X136677401Y-66509932D01*
X136674500Y-66546798D01*
X136674500Y-66978201D01*
X136677401Y-67015067D01*
X136677402Y-67015073D01*
X136723254Y-67172893D01*
X136723255Y-67172896D01*
X136806917Y-67314362D01*
X136806923Y-67314370D01*
X136923129Y-67430576D01*
X136923133Y-67430579D01*
X136923135Y-67430581D01*
X137064602Y-67514244D01*
X137106224Y-67526336D01*
X137222426Y-67560097D01*
X137222429Y-67560097D01*
X137222431Y-67560098D01*
X137259306Y-67563000D01*
X138395456Y-67563000D01*
X138462495Y-67582685D01*
X138483137Y-67599319D01*
X139177629Y-68293811D01*
X139211114Y-68355134D01*
X139206130Y-68424826D01*
X139164258Y-68480759D01*
X139098794Y-68505176D01*
X139080221Y-68505110D01*
X139040704Y-68502000D01*
X139040694Y-68502000D01*
X137259306Y-68502000D01*
X137259298Y-68502000D01*
X137222432Y-68504901D01*
X137222426Y-68504902D01*
X137077267Y-68547076D01*
X137042672Y-68552000D01*
X128323580Y-68552000D01*
X128178592Y-68580840D01*
X128178582Y-68580843D01*
X128042011Y-68637412D01*
X128042004Y-68637416D01*
X128026246Y-68647946D01*
X128011199Y-68658000D01*
X127919079Y-68719551D01*
X127175180Y-69463450D01*
X127113857Y-69496935D01*
X127044165Y-69491951D01*
X126999818Y-69463450D01*
X126686819Y-69150451D01*
X126653334Y-69089128D01*
X126650500Y-69062770D01*
X126650500Y-41387229D01*
X126670185Y-41320190D01*
X126686819Y-41299548D01*
X128949548Y-39036819D01*
X129010871Y-39003334D01*
X129037229Y-39000500D01*
X130348800Y-39000500D01*
X130369865Y-39006685D01*
G37*
%TD.AperFunction*%
%TA.AperFunction,Conductor*%
G36*
X153506587Y-34845185D02*
G01*
X153527229Y-34861819D01*
X154238181Y-35572771D01*
X154271666Y-35634094D01*
X154274500Y-35660452D01*
X154274500Y-44614547D01*
X154254815Y-44681586D01*
X154238181Y-44702228D01*
X152489141Y-46451267D01*
X152489138Y-46451271D01*
X152478267Y-46467543D01*
X152478263Y-46467549D01*
X152420688Y-46553714D01*
X152420686Y-46553716D01*
X152420686Y-46553718D01*
X152420685Y-46553719D01*
X152373540Y-46667538D01*
X152373535Y-46667554D01*
X152354200Y-46764761D01*
X152354199Y-46764767D01*
X152352264Y-46774500D01*
X152349500Y-46788394D01*
X152349500Y-46892833D01*
X152349417Y-46895095D01*
X152339040Y-46926167D01*
X152329815Y-46957586D01*
X152328032Y-46959130D01*
X152327286Y-46961367D01*
X152301754Y-46981900D01*
X152277011Y-47003341D01*
X152274678Y-47003676D01*
X152272840Y-47005155D01*
X152240265Y-47008624D01*
X152207853Y-47013285D01*
X152205707Y-47012305D01*
X152203363Y-47012555D01*
X152174089Y-46997865D01*
X152144297Y-46984260D01*
X152141166Y-46981345D01*
X152140915Y-46981219D01*
X152140772Y-46980977D01*
X152137819Y-46978228D01*
X151323731Y-46164140D01*
X150254105Y-45094515D01*
X150220621Y-45033193D01*
X150225605Y-44963501D01*
X150267477Y-44907568D01*
X150303466Y-44888905D01*
X150418412Y-44851557D01*
X150607816Y-44755051D01*
X150650301Y-44724184D01*
X150779786Y-44630109D01*
X150779788Y-44630106D01*
X150779792Y-44630104D01*
X150930104Y-44479792D01*
X150930106Y-44479788D01*
X150930109Y-44479786D01*
X151055048Y-44307820D01*
X151055047Y-44307820D01*
X151055051Y-44307816D01*
X151151557Y-44118412D01*
X151217246Y-43916243D01*
X151250500Y-43706287D01*
X151250500Y-43243713D01*
X151217246Y-43033757D01*
X151151557Y-42831588D01*
X151055051Y-42642184D01*
X151055049Y-42642181D01*
X151055048Y-42642179D01*
X150930109Y-42470213D01*
X150779794Y-42319898D01*
X150779788Y-42319893D01*
X150701615Y-42263097D01*
X150701462Y-42262899D01*
X150701226Y-42262814D01*
X150680090Y-42235184D01*
X150658949Y-42207767D01*
X150658875Y-42207449D01*
X150658775Y-42207318D01*
X150658481Y-42205740D01*
X150650915Y-42172911D01*
X150650500Y-42167849D01*
X150650500Y-42076082D01*
X150639089Y-42018716D01*
X150621659Y-41931088D01*
X150588518Y-41851080D01*
X150565084Y-41794505D01*
X150521353Y-41729057D01*
X150482952Y-41671584D01*
X147993668Y-39182300D01*
X147960183Y-39120977D01*
X147965167Y-39051285D01*
X148007039Y-38995352D01*
X148057157Y-38973001D01*
X148063913Y-38971658D01*
X148200495Y-38915084D01*
X148252263Y-38880494D01*
X148252263Y-38880493D01*
X148252265Y-38880493D01*
X148287839Y-38856723D01*
X148323416Y-38832952D01*
X149458282Y-37698083D01*
X149519605Y-37664599D01*
X149565361Y-37663292D01*
X149768713Y-37695500D01*
X149768714Y-37695500D01*
X149981286Y-37695500D01*
X149981287Y-37695500D01*
X150191243Y-37662246D01*
X150393412Y-37596557D01*
X150582816Y-37500051D01*
X150610669Y-37479815D01*
X150754786Y-37375109D01*
X150754788Y-37375106D01*
X150754792Y-37375104D01*
X150905104Y-37224792D01*
X150905106Y-37224788D01*
X150905109Y-37224786D01*
X151030048Y-37052820D01*
X151030047Y-37052820D01*
X151030051Y-37052816D01*
X151126557Y-36863412D01*
X151192246Y-36661243D01*
X151225500Y-36451287D01*
X151225500Y-35988713D01*
X151192246Y-35778757D01*
X151126557Y-35576588D01*
X151030051Y-35387184D01*
X151030049Y-35387181D01*
X151030048Y-35387179D01*
X150905109Y-35215213D01*
X150754792Y-35064896D01*
X150734040Y-35049819D01*
X150691374Y-34994489D01*
X150685395Y-34924876D01*
X150718000Y-34863080D01*
X150778839Y-34828723D01*
X150806925Y-34825500D01*
X153439548Y-34825500D01*
X153506587Y-34845185D01*
G37*
%TD.AperFunction*%
%TA.AperFunction,Conductor*%
G36*
X145704809Y-39020185D02*
G01*
X145725451Y-39036819D01*
X146087707Y-39399074D01*
X146087728Y-39399097D01*
X148926686Y-42238055D01*
X148960171Y-42299378D01*
X148955187Y-42369070D01*
X148926687Y-42413417D01*
X148869889Y-42470215D01*
X148750318Y-42634793D01*
X148694989Y-42677459D01*
X148625375Y-42683438D01*
X148563580Y-42650833D01*
X148549682Y-42634793D01*
X148430109Y-42470214D01*
X148430105Y-42470209D01*
X148279786Y-42319890D01*
X148107820Y-42194951D01*
X147918414Y-42098444D01*
X147918413Y-42098443D01*
X147918412Y-42098443D01*
X147716243Y-42032754D01*
X147716241Y-42032753D01*
X147716240Y-42032753D01*
X147554957Y-42007208D01*
X147506287Y-41999500D01*
X147293713Y-41999500D01*
X147245042Y-42007208D01*
X147083760Y-42032753D01*
X146881585Y-42098444D01*
X146692179Y-42194951D01*
X146520213Y-42319890D01*
X146369894Y-42470209D01*
X146369890Y-42470214D01*
X146250318Y-42634793D01*
X146194989Y-42677459D01*
X146125375Y-42683438D01*
X146063580Y-42650833D01*
X146049682Y-42634793D01*
X145930109Y-42470214D01*
X145930105Y-42470209D01*
X145779786Y-42319890D01*
X145607820Y-42194951D01*
X145418414Y-42098444D01*
X145418413Y-42098443D01*
X145418412Y-42098443D01*
X145216243Y-42032754D01*
X145216241Y-42032753D01*
X145216240Y-42032753D01*
X145054957Y-42007208D01*
X145006287Y-41999500D01*
X144793713Y-41999500D01*
X144745042Y-42007208D01*
X144583760Y-42032753D01*
X144381585Y-42098444D01*
X144192179Y-42194951D01*
X144020213Y-42319890D01*
X143869890Y-42470213D01*
X143744951Y-42642179D01*
X143648444Y-42831585D01*
X143582753Y-43033760D01*
X143555036Y-43208760D01*
X143549500Y-43243713D01*
X143549500Y-43706287D01*
X143582754Y-43916243D01*
X143639615Y-44091243D01*
X143648444Y-44118414D01*
X143744951Y-44307820D01*
X143869890Y-44479786D01*
X143902923Y-44512819D01*
X143936408Y-44574142D01*
X143931424Y-44643834D01*
X143889552Y-44699767D01*
X143824088Y-44724184D01*
X143815242Y-44724500D01*
X136347822Y-44724500D01*
X136280783Y-44704815D01*
X136235028Y-44652011D01*
X136225084Y-44582853D01*
X136247503Y-44527616D01*
X136267544Y-44500029D01*
X136280051Y-44482816D01*
X136376557Y-44293412D01*
X136442246Y-44091243D01*
X136475500Y-43881287D01*
X136475500Y-43418713D01*
X136442246Y-43208757D01*
X136376557Y-43006588D01*
X136280051Y-42817184D01*
X136280049Y-42817181D01*
X136280048Y-42817179D01*
X136155109Y-42645213D01*
X136004794Y-42494898D01*
X136004788Y-42494893D01*
X135926615Y-42438097D01*
X135883949Y-42382767D01*
X135875500Y-42337779D01*
X135875500Y-41351079D01*
X135846659Y-41206092D01*
X135846658Y-41206091D01*
X135846658Y-41206087D01*
X135790084Y-41069505D01*
X135730455Y-40980263D01*
X135730455Y-40980262D01*
X135730453Y-40980261D01*
X135707952Y-40946584D01*
X133973549Y-39212181D01*
X133940064Y-39150858D01*
X133945048Y-39081166D01*
X133986920Y-39025233D01*
X134052384Y-39000816D01*
X134061230Y-39000500D01*
X145301082Y-39000500D01*
X145637770Y-39000500D01*
X145704809Y-39020185D01*
G37*
%TD.AperFunction*%
%TA.AperFunction,Conductor*%
G36*
X138941942Y-35245185D02*
G01*
X138962584Y-35261819D01*
X139463181Y-35762416D01*
X139496666Y-35823739D01*
X139499500Y-35850097D01*
X139499500Y-36788330D01*
X139499499Y-36788348D01*
X139499499Y-36954054D01*
X139499498Y-36954054D01*
X139540424Y-37106789D01*
X139540425Y-37106790D01*
X139553523Y-37129477D01*
X139553529Y-37129486D01*
X139556411Y-37134477D01*
X139619480Y-37243716D01*
X139671003Y-37295239D01*
X139677070Y-37303799D01*
X139685150Y-37327317D01*
X139697068Y-37349142D01*
X139696306Y-37359786D01*
X139699774Y-37369877D01*
X139693858Y-37394027D01*
X139692084Y-37418834D01*
X139685688Y-37427376D01*
X139683150Y-37437741D01*
X139665112Y-37454862D01*
X139650212Y-37474767D01*
X139640215Y-37478495D01*
X139632475Y-37485843D01*
X139608044Y-37490494D01*
X139584748Y-37499184D01*
X139575902Y-37499500D01*
X136229758Y-37499500D01*
X136162719Y-37479815D01*
X136116964Y-37427011D01*
X136107020Y-37357853D01*
X136136045Y-37294297D01*
X136142077Y-37287819D01*
X136155104Y-37274792D01*
X136155106Y-37274788D01*
X136155109Y-37274786D01*
X136280048Y-37102820D01*
X136280047Y-37102820D01*
X136280051Y-37102816D01*
X136376557Y-36913412D01*
X136442246Y-36711243D01*
X136475500Y-36501287D01*
X136475500Y-36038713D01*
X136442246Y-35828757D01*
X136376557Y-35626588D01*
X136280051Y-35437184D01*
X136280049Y-35437180D01*
X136269299Y-35422384D01*
X136245820Y-35356577D01*
X136261646Y-35288524D01*
X136311753Y-35239829D01*
X136369618Y-35225500D01*
X138874903Y-35225500D01*
X138941942Y-35245185D01*
G37*
%TD.AperFunction*%
%TD*%
M02*
